%TF.GenerationSoftware,KiCad,Pcbnew,7.0.5*%
%TF.CreationDate,2023-06-15T17:11:42+02:00*%
%TF.ProjectId,euroc_controller,6575726f-635f-4636-9f6e-74726f6c6c65,rev?*%
%TF.SameCoordinates,Original*%
%TF.FileFunction,Drillmap*%
%TF.FilePolarity,Positive*%
%FSLAX45Y45*%
G04 Gerber Fmt 4.5, Leading zero omitted, Abs format (unit mm)*
G04 Created by KiCad (PCBNEW 7.0.5) date 2023-06-15 17:11:42*
%MOMM*%
%LPD*%
G01*
G04 APERTURE LIST*
%ADD10C,0.100000*%
%ADD11C,0.200000*%
%ADD12C,0.030000*%
%ADD13C,0.040000*%
%ADD14C,0.060000*%
%ADD15C,0.110000*%
%ADD16C,0.150000*%
%ADD17C,0.170000*%
%ADD18C,0.190000*%
%ADD19C,0.220000*%
G04 APERTURE END LIST*
D10*
X16733800Y-4445000D02*
G75*
G03*
X16433800Y-4745000I0J-300000D01*
G01*
X16433800Y-4745000D02*
X16433800Y-11841200D01*
X19939000Y-4745000D02*
G75*
G03*
X19639000Y-4445000I-300000J0D01*
G01*
X19639000Y-4445000D02*
X16733800Y-4445000D01*
X16733800Y-12141200D02*
X19639000Y-12141200D01*
X19639000Y-12141200D02*
G75*
G03*
X19939000Y-11841200I0J300000D01*
G01*
X16433800Y-11841200D02*
G75*
G03*
X16733800Y-12141200I300000J0D01*
G01*
X19939000Y-11841200D02*
X19939000Y-4745000D01*
D11*
D12*
X16749000Y-6512800D02*
X16779000Y-6542800D01*
X16779000Y-6512800D02*
X16749000Y-6542800D01*
X16799800Y-7351000D02*
X16829800Y-7381000D01*
X16829800Y-7351000D02*
X16799800Y-7381000D01*
X16799800Y-7478000D02*
X16829800Y-7508000D01*
X16829800Y-7478000D02*
X16799800Y-7508000D01*
X16850600Y-9129000D02*
X16880600Y-9159000D01*
X16880600Y-9129000D02*
X16850600Y-9159000D01*
X16901400Y-5217400D02*
X16931400Y-5247400D01*
X16931400Y-5217400D02*
X16901400Y-5247400D01*
X16901400Y-6512800D02*
X16931400Y-6542800D01*
X16931400Y-6512800D02*
X16901400Y-6542800D01*
X17028400Y-5344400D02*
X17058400Y-5374400D01*
X17058400Y-5344400D02*
X17028400Y-5374400D01*
X17053800Y-6792200D02*
X17083800Y-6822200D01*
X17083800Y-6792200D02*
X17053800Y-6822200D01*
X17130000Y-6538200D02*
X17160000Y-6568200D01*
X17160000Y-6538200D02*
X17130000Y-6568200D01*
X17180800Y-6817600D02*
X17210800Y-6847600D01*
X17210800Y-6817600D02*
X17180800Y-6847600D01*
X17231600Y-5328150D02*
X17261600Y-5358150D01*
X17261600Y-5328150D02*
X17231600Y-5358150D01*
X17409400Y-7655800D02*
X17439400Y-7685800D01*
X17439400Y-7655800D02*
X17409400Y-7685800D01*
X17434800Y-9357600D02*
X17464800Y-9387600D01*
X17464800Y-9357600D02*
X17434800Y-9387600D01*
X17434800Y-9548100D02*
X17464800Y-9578100D01*
X17464800Y-9548100D02*
X17434800Y-9578100D01*
X17536400Y-5801600D02*
X17566400Y-5831600D01*
X17566400Y-5801600D02*
X17536400Y-5831600D01*
X17546000Y-5509500D02*
X17576000Y-5539500D01*
X17576000Y-5509500D02*
X17546000Y-5539500D01*
X17663400Y-5344400D02*
X17693400Y-5374400D01*
X17693400Y-5344400D02*
X17663400Y-5374400D01*
X17714200Y-6893800D02*
X17744200Y-6923800D01*
X17744200Y-6893800D02*
X17714200Y-6923800D01*
X17841200Y-7773650D02*
X17871200Y-7803650D01*
X17871200Y-7773650D02*
X17841200Y-7803650D01*
X17866600Y-5750800D02*
X17896600Y-5780800D01*
X17896600Y-5750800D02*
X17866600Y-5780800D01*
X17866600Y-6081000D02*
X17896600Y-6111000D01*
X17896600Y-6081000D02*
X17866600Y-6111000D01*
X17892000Y-6309600D02*
X17922000Y-6339600D01*
X17922000Y-6309600D02*
X17892000Y-6339600D01*
X17917400Y-7630400D02*
X17947400Y-7660400D01*
X17947400Y-7630400D02*
X17917400Y-7660400D01*
X17946000Y-5509500D02*
X17976000Y-5539500D01*
X17976000Y-5509500D02*
X17946000Y-5539500D01*
X17968200Y-6081000D02*
X17998200Y-6111000D01*
X17998200Y-6081000D02*
X17968200Y-6111000D01*
X17968200Y-7960600D02*
X17998200Y-7990600D01*
X17998200Y-7960600D02*
X17968200Y-7990600D01*
X17993600Y-7706600D02*
X18023600Y-7736600D01*
X18023600Y-7706600D02*
X17993600Y-7736600D01*
X18019000Y-8468600D02*
X18049000Y-8498600D01*
X18049000Y-8468600D02*
X18019000Y-8498600D01*
X18019000Y-9281400D02*
X18049000Y-9311400D01*
X18049000Y-9281400D02*
X18019000Y-9311400D01*
X18044400Y-7782800D02*
X18074400Y-7812800D01*
X18074400Y-7782800D02*
X18044400Y-7812800D01*
X18196800Y-9408400D02*
X18226800Y-9438400D01*
X18226800Y-9408400D02*
X18196800Y-9438400D01*
X18222200Y-8214600D02*
X18252200Y-8244600D01*
X18252200Y-8214600D02*
X18222200Y-8244600D01*
X18222200Y-8392400D02*
X18252200Y-8422400D01*
X18252200Y-8392400D02*
X18222200Y-8422400D01*
X18247600Y-6309600D02*
X18277600Y-6339600D01*
X18277600Y-6309600D02*
X18247600Y-6339600D01*
X18247600Y-9560800D02*
X18277600Y-9590800D01*
X18277600Y-9560800D02*
X18247600Y-9590800D01*
X18298400Y-6995400D02*
X18328400Y-7025400D01*
X18328400Y-6995400D02*
X18298400Y-7025400D01*
X18298400Y-8976600D02*
X18328400Y-9006600D01*
X18328400Y-8976600D02*
X18298400Y-9006600D01*
X18323800Y-7503400D02*
X18353800Y-7533400D01*
X18353800Y-7503400D02*
X18323800Y-7533400D01*
X18323800Y-9662400D02*
X18353800Y-9692400D01*
X18353800Y-9662400D02*
X18323800Y-9692400D01*
X18346000Y-5509500D02*
X18376000Y-5539500D01*
X18376000Y-5509500D02*
X18346000Y-5539500D01*
X18349200Y-10297400D02*
X18379200Y-10327400D01*
X18379200Y-10297400D02*
X18349200Y-10327400D01*
X18400000Y-5801600D02*
X18430000Y-5831600D01*
X18430000Y-5801600D02*
X18400000Y-5831600D01*
X18400000Y-6055600D02*
X18430000Y-6085600D01*
X18430000Y-6055600D02*
X18400000Y-6085600D01*
X18425400Y-5903200D02*
X18455400Y-5933200D01*
X18455400Y-5903200D02*
X18425400Y-5933200D01*
X18425400Y-9408400D02*
X18455400Y-9438400D01*
X18455400Y-9408400D02*
X18425400Y-9438400D01*
X18501600Y-8189200D02*
X18531600Y-8219200D01*
X18531600Y-8189200D02*
X18501600Y-8219200D01*
X18527000Y-7046200D02*
X18557000Y-7076200D01*
X18557000Y-7046200D02*
X18527000Y-7076200D01*
X18527000Y-9687800D02*
X18557000Y-9717800D01*
X18557000Y-9687800D02*
X18527000Y-9717800D01*
X18654000Y-9408400D02*
X18684000Y-9438400D01*
X18684000Y-9408400D02*
X18654000Y-9438400D01*
X18654000Y-11897600D02*
X18684000Y-11927600D01*
X18684000Y-11897600D02*
X18654000Y-11927600D01*
X18679400Y-7503400D02*
X18709400Y-7533400D01*
X18709400Y-7503400D02*
X18679400Y-7533400D01*
X18679400Y-8341600D02*
X18709400Y-8371600D01*
X18709400Y-8341600D02*
X18679400Y-8371600D01*
X18704800Y-7909800D02*
X18734800Y-7939800D01*
X18734800Y-7909800D02*
X18704800Y-7939800D01*
X18755600Y-8240000D02*
X18785600Y-8270000D01*
X18785600Y-8240000D02*
X18755600Y-8270000D01*
X18781000Y-8087600D02*
X18811000Y-8117600D01*
X18811000Y-8087600D02*
X18781000Y-8117600D01*
X18806400Y-7554200D02*
X18836400Y-7584200D01*
X18836400Y-7554200D02*
X18806400Y-7584200D01*
X18806400Y-7833600D02*
X18836400Y-7863600D01*
X18836400Y-7833600D02*
X18806400Y-7863600D01*
X18831800Y-8468600D02*
X18861800Y-8498600D01*
X18861800Y-8468600D02*
X18831800Y-8498600D01*
X18908000Y-10043400D02*
X18938000Y-10073400D01*
X18938000Y-10043400D02*
X18908000Y-10073400D01*
X18958800Y-7300200D02*
X18988800Y-7330200D01*
X18988800Y-7300200D02*
X18958800Y-7330200D01*
X18958800Y-8849600D02*
X18988800Y-8879600D01*
X18988800Y-8849600D02*
X18958800Y-8879600D01*
X18958800Y-10297400D02*
X18988800Y-10327400D01*
X18988800Y-10297400D02*
X18958800Y-10327400D01*
X19009600Y-8138400D02*
X19039600Y-8168400D01*
X19039600Y-8138400D02*
X19009600Y-8168400D01*
X19060400Y-6258800D02*
X19090400Y-6288800D01*
X19090400Y-6258800D02*
X19060400Y-6288800D01*
X19060400Y-6741400D02*
X19090400Y-6771400D01*
X19090400Y-6741400D02*
X19060400Y-6771400D01*
X19111200Y-7401800D02*
X19141200Y-7431800D01*
X19141200Y-7401800D02*
X19111200Y-7431800D01*
X19111200Y-9916400D02*
X19141200Y-9946400D01*
X19141200Y-9916400D02*
X19111200Y-9946400D01*
X19162000Y-9459200D02*
X19192000Y-9489200D01*
X19192000Y-9459200D02*
X19162000Y-9489200D01*
X19162000Y-11897600D02*
X19192000Y-11927600D01*
X19192000Y-11897600D02*
X19162000Y-11927600D01*
X19212800Y-6258800D02*
X19242800Y-6288800D01*
X19242800Y-6258800D02*
X19212800Y-6288800D01*
X19212800Y-6741400D02*
X19242800Y-6771400D01*
X19242800Y-6741400D02*
X19212800Y-6771400D01*
X19212800Y-7630400D02*
X19242800Y-7660400D01*
X19242800Y-7630400D02*
X19212800Y-7660400D01*
X19227506Y-7771057D02*
X19257506Y-7801057D01*
X19257506Y-7771057D02*
X19227506Y-7801057D01*
X19238200Y-8611850D02*
X19268200Y-8641850D01*
X19268200Y-8611850D02*
X19238200Y-8641850D01*
X19238200Y-11059400D02*
X19268200Y-11089400D01*
X19268200Y-11059400D02*
X19238200Y-11089400D01*
X19281337Y-7830169D02*
X19311337Y-7860169D01*
X19311337Y-7830169D02*
X19281337Y-7860169D01*
X19356050Y-8494013D02*
X19386050Y-8524013D01*
X19386050Y-8494013D02*
X19356050Y-8524013D01*
X19365200Y-10170400D02*
X19395200Y-10200400D01*
X19395200Y-10170400D02*
X19365200Y-10200400D01*
X19390600Y-8163800D02*
X19420600Y-8193800D01*
X19420600Y-8163800D02*
X19390600Y-8193800D01*
X19416000Y-5776200D02*
X19446000Y-5806200D01*
X19446000Y-5776200D02*
X19416000Y-5806200D01*
X19416000Y-7782800D02*
X19446000Y-7812800D01*
X19446000Y-7782800D02*
X19416000Y-7812800D01*
X19416000Y-7884400D02*
X19446000Y-7914400D01*
X19446000Y-7884400D02*
X19416000Y-7914400D01*
X19416000Y-8925800D02*
X19446000Y-8955800D01*
X19446000Y-8925800D02*
X19416000Y-8955800D01*
X19517600Y-8544800D02*
X19547600Y-8574800D01*
X19547600Y-8544800D02*
X19517600Y-8574800D01*
X19568400Y-10297400D02*
X19598400Y-10327400D01*
X19598400Y-10297400D02*
X19568400Y-10327400D01*
X19593800Y-7833600D02*
X19623800Y-7863600D01*
X19623800Y-7833600D02*
X19593800Y-7863600D01*
X19628350Y-6004800D02*
X19658350Y-6034800D01*
X19658350Y-6004800D02*
X19628350Y-6034800D01*
X19670000Y-5674600D02*
X19700000Y-5704600D01*
X19700000Y-5674600D02*
X19670000Y-5704600D01*
X19720800Y-8062200D02*
X19750800Y-8092200D01*
X19750800Y-8062200D02*
X19720800Y-8092200D01*
X19720800Y-8544800D02*
X19750800Y-8574800D01*
X19750800Y-8544800D02*
X19720800Y-8574800D01*
X19720800Y-9002000D02*
X19750800Y-9032000D01*
X19750800Y-9002000D02*
X19720800Y-9032000D01*
X19775350Y-11897600D02*
X19805350Y-11927600D01*
X19805350Y-11897600D02*
X19775350Y-11927600D01*
X19797000Y-7935200D02*
X19827000Y-7965200D01*
X19827000Y-7935200D02*
X19797000Y-7965200D01*
D13*
X16580800Y-6858000D02*
G75*
G03*
X16580800Y-6858000I-20000J0D01*
G01*
X16580800Y-7620000D02*
G75*
G03*
X16580800Y-7620000I-20000J0D01*
G01*
X17063400Y-9042400D02*
G75*
G03*
X17063400Y-9042400I-20000J0D01*
G01*
X17469800Y-8890000D02*
G75*
G03*
X17469800Y-8890000I-20000J0D01*
G01*
X17469800Y-9779000D02*
G75*
G03*
X17469800Y-9779000I-20000J0D01*
G01*
X17469800Y-9880600D02*
G75*
G03*
X17469800Y-9880600I-20000J0D01*
G01*
X17469800Y-9982200D02*
G75*
G03*
X17469800Y-9982200I-20000J0D01*
G01*
X17469800Y-10083800D02*
G75*
G03*
X17469800Y-10083800I-20000J0D01*
G01*
X17469800Y-10185400D02*
G75*
G03*
X17469800Y-10185400I-20000J0D01*
G01*
X17469800Y-10388600D02*
G75*
G03*
X17469800Y-10388600I-20000J0D01*
G01*
X17571400Y-8890000D02*
G75*
G03*
X17571400Y-8890000I-20000J0D01*
G01*
X19120800Y-5207000D02*
G75*
G03*
X19120800Y-5207000I-20000J0D01*
G01*
X19448050Y-7162800D02*
G75*
G03*
X19448050Y-7162800I-20000J0D01*
G01*
X19451000Y-6375400D02*
G75*
G03*
X19451000Y-6375400I-20000J0D01*
G01*
X19476400Y-6959600D02*
G75*
G03*
X19476400Y-6959600I-20000J0D01*
G01*
X19578000Y-5410200D02*
G75*
G03*
X19578000Y-5410200I-20000J0D01*
G01*
X19578000Y-6197600D02*
G75*
G03*
X19578000Y-6197600I-20000J0D01*
G01*
X19603400Y-6680200D02*
G75*
G03*
X19603400Y-6680200I-20000J0D01*
G01*
X19705000Y-5588000D02*
G75*
G03*
X19705000Y-5588000I-20000J0D01*
G01*
X19832000Y-5359400D02*
G75*
G03*
X19832000Y-5359400I-20000J0D01*
G01*
X19832000Y-5918200D02*
G75*
G03*
X19832000Y-5918200I-20000J0D01*
G01*
X19832000Y-6146800D02*
G75*
G03*
X19832000Y-6146800I-20000J0D01*
G01*
X19832000Y-6705600D02*
G75*
G03*
X19832000Y-6705600I-20000J0D01*
G01*
X19832000Y-6934200D02*
G75*
G03*
X19832000Y-6934200I-20000J0D01*
G01*
X19832000Y-7493000D02*
G75*
G03*
X19832000Y-7493000I-20000J0D01*
G01*
X16571400Y-4733600D02*
X16571400Y-4773600D01*
X16551400Y-4753600D02*
X16591400Y-4753600D01*
X16571400Y-9733600D02*
X16571400Y-9773600D01*
X16551400Y-9753600D02*
X16591400Y-9753600D01*
X16619727Y-4616927D02*
X16619727Y-4656927D01*
X16599727Y-4636927D02*
X16639727Y-4636927D01*
X16619727Y-4850273D02*
X16619727Y-4890273D01*
X16599727Y-4870273D02*
X16639727Y-4870273D01*
X16619727Y-9616927D02*
X16619727Y-9656927D01*
X16599727Y-9636927D02*
X16639727Y-9636927D01*
X16619727Y-9850273D02*
X16619727Y-9890273D01*
X16599727Y-9870273D02*
X16639727Y-9870273D01*
X16736400Y-4568600D02*
X16736400Y-4608600D01*
X16716400Y-4588600D02*
X16756400Y-4588600D01*
X16736400Y-4898600D02*
X16736400Y-4938600D01*
X16716400Y-4918600D02*
X16756400Y-4918600D01*
X16736400Y-9568600D02*
X16736400Y-9608600D01*
X16716400Y-9588600D02*
X16756400Y-9588600D01*
X16736400Y-9898600D02*
X16736400Y-9938600D01*
X16716400Y-9918600D02*
X16756400Y-9918600D01*
X16853073Y-4616927D02*
X16853073Y-4656927D01*
X16833073Y-4636927D02*
X16873073Y-4636927D01*
X16853073Y-4850273D02*
X16853073Y-4890273D01*
X16833073Y-4870273D02*
X16873073Y-4870273D01*
X16853073Y-9616927D02*
X16853073Y-9656927D01*
X16833073Y-9636927D02*
X16873073Y-9636927D01*
X16853073Y-9850273D02*
X16853073Y-9890273D01*
X16833073Y-9870273D02*
X16873073Y-9870273D01*
X16901400Y-4733600D02*
X16901400Y-4773600D01*
X16881400Y-4753600D02*
X16921400Y-4753600D01*
X16901400Y-9733600D02*
X16901400Y-9773600D01*
X16881400Y-9753600D02*
X16921400Y-9753600D01*
X19471400Y-4733600D02*
X19471400Y-4773600D01*
X19451400Y-4753600D02*
X19491400Y-4753600D01*
X19471400Y-9733600D02*
X19471400Y-9773600D01*
X19451400Y-9753600D02*
X19491400Y-9753600D01*
X19519727Y-4616927D02*
X19519727Y-4656927D01*
X19499727Y-4636927D02*
X19539727Y-4636927D01*
X19519727Y-4850273D02*
X19519727Y-4890273D01*
X19499727Y-4870273D02*
X19539727Y-4870273D01*
X19519727Y-9616927D02*
X19519727Y-9656927D01*
X19499727Y-9636927D02*
X19539727Y-9636927D01*
X19519727Y-9850273D02*
X19519727Y-9890273D01*
X19499727Y-9870273D02*
X19539727Y-9870273D01*
X19636400Y-4568600D02*
X19636400Y-4608600D01*
X19616400Y-4588600D02*
X19656400Y-4588600D01*
X19636400Y-4898600D02*
X19636400Y-4938600D01*
X19616400Y-4918600D02*
X19656400Y-4918600D01*
X19636400Y-9568600D02*
X19636400Y-9608600D01*
X19616400Y-9588600D02*
X19656400Y-9588600D01*
X19636400Y-9898600D02*
X19636400Y-9938600D01*
X19616400Y-9918600D02*
X19656400Y-9918600D01*
X19753073Y-4616927D02*
X19753073Y-4656927D01*
X19733073Y-4636927D02*
X19773073Y-4636927D01*
X19753073Y-4850273D02*
X19753073Y-4890273D01*
X19733073Y-4870273D02*
X19773073Y-4870273D01*
X19753073Y-9616927D02*
X19753073Y-9656927D01*
X19733073Y-9636927D02*
X19773073Y-9636927D01*
X19753073Y-9850273D02*
X19753073Y-9890273D01*
X19733073Y-9870273D02*
X19773073Y-9870273D01*
X19801400Y-4733600D02*
X19801400Y-4773600D01*
X19781400Y-4753600D02*
X19821400Y-4753600D01*
X19801400Y-9733600D02*
X19801400Y-9773600D01*
X19781400Y-9753600D02*
X19821400Y-9753600D01*
D14*
X16688213Y-7844213D02*
X16688213Y-7801787D01*
X16645787Y-7801787D01*
X16645787Y-7844213D01*
X16688213Y-7844213D01*
D11*
X16627000Y-7853000D02*
X16707000Y-7853000D01*
X16707000Y-7853000D02*
G75*
G03*
X16707000Y-7793000I0J30000D01*
G01*
X16707000Y-7793000D02*
X16627000Y-7793000D01*
X16627000Y-7793000D02*
G75*
G03*
X16627000Y-7853000I0J-30000D01*
G01*
D14*
X16688213Y-8708213D02*
X16688213Y-8665787D01*
X16645787Y-8665787D01*
X16645787Y-8708213D01*
X16688213Y-8708213D01*
D11*
X16627000Y-8717000D02*
X16707000Y-8717000D01*
X16707000Y-8717000D02*
G75*
G03*
X16707000Y-8657000I0J30000D01*
G01*
X16707000Y-8657000D02*
X16627000Y-8657000D01*
X16627000Y-8657000D02*
G75*
G03*
X16627000Y-8717000I0J-30000D01*
G01*
D14*
X17105213Y-7844213D02*
X17105213Y-7801787D01*
X17062787Y-7801787D01*
X17062787Y-7844213D01*
X17105213Y-7844213D01*
D11*
X17029000Y-7853000D02*
X17139000Y-7853000D01*
X17139000Y-7853000D02*
G75*
G03*
X17139000Y-7793000I0J30000D01*
G01*
X17139000Y-7793000D02*
X17029000Y-7793000D01*
X17029000Y-7793000D02*
G75*
G03*
X17029000Y-7853000I0J-30000D01*
G01*
D14*
X17105213Y-8708213D02*
X17105213Y-8665787D01*
X17062787Y-8665787D01*
X17062787Y-8708213D01*
X17105213Y-8708213D01*
D11*
X17029000Y-8717000D02*
X17139000Y-8717000D01*
X17139000Y-8717000D02*
G75*
G03*
X17139000Y-8657000I0J30000D01*
G01*
X17139000Y-8657000D02*
X17029000Y-8657000D01*
X17029000Y-8657000D02*
G75*
G03*
X17029000Y-8717000I0J-30000D01*
G01*
D10*
X16680000Y-11861000D02*
X16730000Y-11811000D01*
X16680000Y-11761000D01*
X16630000Y-11811000D01*
X16680000Y-11861000D01*
X17780000Y-11861000D02*
X17830000Y-11811000D01*
X17780000Y-11761000D01*
X17730000Y-11811000D01*
X17780000Y-11861000D01*
D15*
X18283800Y-11425800D02*
X18393800Y-11535800D01*
X18393800Y-11425800D02*
X18283800Y-11535800D01*
X18393800Y-11480800D02*
G75*
G03*
X18393800Y-11480800I-55000J0D01*
G01*
X18537800Y-11425800D02*
X18647800Y-11535800D01*
X18647800Y-11425800D02*
X18537800Y-11535800D01*
X18647800Y-11480800D02*
G75*
G03*
X18647800Y-11480800I-55000J0D01*
G01*
X18791800Y-11425800D02*
X18901800Y-11535800D01*
X18901800Y-11425800D02*
X18791800Y-11535800D01*
X18901800Y-11480800D02*
G75*
G03*
X18901800Y-11480800I-55000J0D01*
G01*
X19045800Y-11425800D02*
X19155800Y-11535800D01*
X19155800Y-11425800D02*
X19045800Y-11535800D01*
X19155800Y-11480800D02*
G75*
G03*
X19155800Y-11480800I-55000J0D01*
G01*
X19299800Y-11425800D02*
X19409800Y-11535800D01*
X19409800Y-11425800D02*
X19299800Y-11535800D01*
X19409800Y-11480800D02*
G75*
G03*
X19409800Y-11480800I-55000J0D01*
G01*
X19553800Y-11425800D02*
X19663800Y-11535800D01*
X19663800Y-11425800D02*
X19553800Y-11535800D01*
X19663800Y-11480800D02*
G75*
G03*
X19663800Y-11480800I-55000J0D01*
G01*
D16*
X18111400Y-4831200D02*
X18261400Y-4981200D01*
X18261400Y-4831200D02*
X18111400Y-4981200D01*
X18186400Y-4831200D02*
X18186400Y-4981200D01*
X18111400Y-4906200D02*
X18261400Y-4906200D01*
D17*
X17847400Y-4567200D02*
X18017400Y-4737200D01*
X18017400Y-4567200D02*
X17847400Y-4737200D01*
X17992505Y-4712305D02*
X17992505Y-4592095D01*
X17872295Y-4592095D01*
X17872295Y-4712305D01*
X17992505Y-4712305D01*
X17847400Y-5075200D02*
X18017400Y-5245200D01*
X18017400Y-5075200D02*
X17847400Y-5245200D01*
X17992505Y-5220305D02*
X17992505Y-5100095D01*
X17872295Y-5100095D01*
X17872295Y-5220305D01*
X17992505Y-5220305D01*
X18355400Y-4567200D02*
X18525400Y-4737200D01*
X18525400Y-4567200D02*
X18355400Y-4737200D01*
X18500505Y-4712305D02*
X18500505Y-4592095D01*
X18380295Y-4592095D01*
X18380295Y-4712305D01*
X18500505Y-4712305D01*
X18355400Y-5075200D02*
X18525400Y-5245200D01*
X18525400Y-5075200D02*
X18355400Y-5245200D01*
X18500505Y-5220305D02*
X18500505Y-5100095D01*
X18380295Y-5100095D01*
X18380295Y-5220305D01*
X18500505Y-5220305D01*
D18*
X16885000Y-10716000D02*
X17075000Y-10906000D01*
X17075000Y-10716000D02*
X16885000Y-10906000D01*
X16980000Y-10906000D02*
X17075000Y-10811000D01*
X16980000Y-10716000D01*
X16885000Y-10811000D01*
X16980000Y-10906000D01*
X17385000Y-10716000D02*
X17575000Y-10906000D01*
X17575000Y-10716000D02*
X17385000Y-10906000D01*
X17480000Y-10906000D02*
X17575000Y-10811000D01*
X17480000Y-10716000D01*
X17385000Y-10811000D01*
X17480000Y-10906000D01*
D19*
X16736400Y-4643600D02*
X16736400Y-4863600D01*
X16626400Y-4753600D02*
X16846400Y-4753600D01*
X16846400Y-4753600D02*
G75*
G03*
X16846400Y-4753600I-110000J0D01*
G01*
X16736400Y-9643600D02*
X16736400Y-9863600D01*
X16626400Y-9753600D02*
X16846400Y-9753600D01*
X16846400Y-9753600D02*
G75*
G03*
X16846400Y-9753600I-110000J0D01*
G01*
X19636400Y-4643600D02*
X19636400Y-4863600D01*
X19526400Y-4753600D02*
X19746400Y-4753600D01*
X19746400Y-4753600D02*
G75*
G03*
X19746400Y-4753600I-110000J0D01*
G01*
X19636400Y-9643600D02*
X19636400Y-9863600D01*
X19526400Y-9753600D02*
X19746400Y-9753600D01*
X19746400Y-9753600D02*
G75*
G03*
X19746400Y-9753600I-110000J0D01*
G01*
D11*
X16689577Y-12457684D02*
X16689577Y-12257684D01*
X16689577Y-12257684D02*
X16737196Y-12257684D01*
X16737196Y-12257684D02*
X16765767Y-12267208D01*
X16765767Y-12267208D02*
X16784815Y-12286255D01*
X16784815Y-12286255D02*
X16794339Y-12305303D01*
X16794339Y-12305303D02*
X16803863Y-12343398D01*
X16803863Y-12343398D02*
X16803863Y-12371969D01*
X16803863Y-12371969D02*
X16794339Y-12410065D01*
X16794339Y-12410065D02*
X16784815Y-12429112D01*
X16784815Y-12429112D02*
X16765767Y-12448160D01*
X16765767Y-12448160D02*
X16737196Y-12457684D01*
X16737196Y-12457684D02*
X16689577Y-12457684D01*
X16889577Y-12457684D02*
X16889577Y-12324350D01*
X16889577Y-12362446D02*
X16899101Y-12343398D01*
X16899101Y-12343398D02*
X16908624Y-12333874D01*
X16908624Y-12333874D02*
X16927672Y-12324350D01*
X16927672Y-12324350D02*
X16946720Y-12324350D01*
X17013386Y-12457684D02*
X17013386Y-12324350D01*
X17013386Y-12257684D02*
X17003863Y-12267208D01*
X17003863Y-12267208D02*
X17013386Y-12276731D01*
X17013386Y-12276731D02*
X17022910Y-12267208D01*
X17022910Y-12267208D02*
X17013386Y-12257684D01*
X17013386Y-12257684D02*
X17013386Y-12276731D01*
X17137196Y-12457684D02*
X17118148Y-12448160D01*
X17118148Y-12448160D02*
X17108624Y-12429112D01*
X17108624Y-12429112D02*
X17108624Y-12257684D01*
X17241958Y-12457684D02*
X17222910Y-12448160D01*
X17222910Y-12448160D02*
X17213386Y-12429112D01*
X17213386Y-12429112D02*
X17213386Y-12257684D01*
X17470529Y-12457684D02*
X17470529Y-12257684D01*
X17470529Y-12257684D02*
X17537196Y-12400541D01*
X17537196Y-12400541D02*
X17603863Y-12257684D01*
X17603863Y-12257684D02*
X17603863Y-12457684D01*
X17784815Y-12457684D02*
X17784815Y-12352922D01*
X17784815Y-12352922D02*
X17775291Y-12333874D01*
X17775291Y-12333874D02*
X17756244Y-12324350D01*
X17756244Y-12324350D02*
X17718148Y-12324350D01*
X17718148Y-12324350D02*
X17699101Y-12333874D01*
X17784815Y-12448160D02*
X17765767Y-12457684D01*
X17765767Y-12457684D02*
X17718148Y-12457684D01*
X17718148Y-12457684D02*
X17699101Y-12448160D01*
X17699101Y-12448160D02*
X17689577Y-12429112D01*
X17689577Y-12429112D02*
X17689577Y-12410065D01*
X17689577Y-12410065D02*
X17699101Y-12391017D01*
X17699101Y-12391017D02*
X17718148Y-12381493D01*
X17718148Y-12381493D02*
X17765767Y-12381493D01*
X17765767Y-12381493D02*
X17784815Y-12371969D01*
X17880053Y-12324350D02*
X17880053Y-12524350D01*
X17880053Y-12333874D02*
X17899101Y-12324350D01*
X17899101Y-12324350D02*
X17937196Y-12324350D01*
X17937196Y-12324350D02*
X17956244Y-12333874D01*
X17956244Y-12333874D02*
X17965767Y-12343398D01*
X17965767Y-12343398D02*
X17975291Y-12362446D01*
X17975291Y-12362446D02*
X17975291Y-12419588D01*
X17975291Y-12419588D02*
X17965767Y-12438636D01*
X17965767Y-12438636D02*
X17956244Y-12448160D01*
X17956244Y-12448160D02*
X17937196Y-12457684D01*
X17937196Y-12457684D02*
X17899101Y-12457684D01*
X17899101Y-12457684D02*
X17880053Y-12448160D01*
X18061005Y-12438636D02*
X18070529Y-12448160D01*
X18070529Y-12448160D02*
X18061005Y-12457684D01*
X18061005Y-12457684D02*
X18051482Y-12448160D01*
X18051482Y-12448160D02*
X18061005Y-12438636D01*
X18061005Y-12438636D02*
X18061005Y-12457684D01*
X18061005Y-12333874D02*
X18070529Y-12343398D01*
X18070529Y-12343398D02*
X18061005Y-12352922D01*
X18061005Y-12352922D02*
X18051482Y-12343398D01*
X18051482Y-12343398D02*
X18061005Y-12333874D01*
X18061005Y-12333874D02*
X18061005Y-12352922D01*
D12*
X16398800Y-12771200D02*
X16428800Y-12801200D01*
X16428800Y-12771200D02*
X16398800Y-12801200D01*
D11*
X16727672Y-12677684D02*
X16746720Y-12677684D01*
X16746720Y-12677684D02*
X16765767Y-12687208D01*
X16765767Y-12687208D02*
X16775291Y-12696731D01*
X16775291Y-12696731D02*
X16784815Y-12715779D01*
X16784815Y-12715779D02*
X16794339Y-12753874D01*
X16794339Y-12753874D02*
X16794339Y-12801493D01*
X16794339Y-12801493D02*
X16784815Y-12839588D01*
X16784815Y-12839588D02*
X16775291Y-12858636D01*
X16775291Y-12858636D02*
X16765767Y-12868160D01*
X16765767Y-12868160D02*
X16746720Y-12877684D01*
X16746720Y-12877684D02*
X16727672Y-12877684D01*
X16727672Y-12877684D02*
X16708624Y-12868160D01*
X16708624Y-12868160D02*
X16699101Y-12858636D01*
X16699101Y-12858636D02*
X16689577Y-12839588D01*
X16689577Y-12839588D02*
X16680053Y-12801493D01*
X16680053Y-12801493D02*
X16680053Y-12753874D01*
X16680053Y-12753874D02*
X16689577Y-12715779D01*
X16689577Y-12715779D02*
X16699101Y-12696731D01*
X16699101Y-12696731D02*
X16708624Y-12687208D01*
X16708624Y-12687208D02*
X16727672Y-12677684D01*
X16880053Y-12858636D02*
X16889577Y-12868160D01*
X16889577Y-12868160D02*
X16880053Y-12877684D01*
X16880053Y-12877684D02*
X16870529Y-12868160D01*
X16870529Y-12868160D02*
X16880053Y-12858636D01*
X16880053Y-12858636D02*
X16880053Y-12877684D01*
X16956244Y-12677684D02*
X17080053Y-12677684D01*
X17080053Y-12677684D02*
X17013386Y-12753874D01*
X17013386Y-12753874D02*
X17041958Y-12753874D01*
X17041958Y-12753874D02*
X17061005Y-12763398D01*
X17061005Y-12763398D02*
X17070529Y-12772922D01*
X17070529Y-12772922D02*
X17080053Y-12791969D01*
X17080053Y-12791969D02*
X17080053Y-12839588D01*
X17080053Y-12839588D02*
X17070529Y-12858636D01*
X17070529Y-12858636D02*
X17061005Y-12868160D01*
X17061005Y-12868160D02*
X17041958Y-12877684D01*
X17041958Y-12877684D02*
X16984815Y-12877684D01*
X16984815Y-12877684D02*
X16965767Y-12868160D01*
X16965767Y-12868160D02*
X16956244Y-12858636D01*
X17203863Y-12677684D02*
X17222910Y-12677684D01*
X17222910Y-12677684D02*
X17241958Y-12687208D01*
X17241958Y-12687208D02*
X17251482Y-12696731D01*
X17251482Y-12696731D02*
X17261005Y-12715779D01*
X17261005Y-12715779D02*
X17270529Y-12753874D01*
X17270529Y-12753874D02*
X17270529Y-12801493D01*
X17270529Y-12801493D02*
X17261005Y-12839588D01*
X17261005Y-12839588D02*
X17251482Y-12858636D01*
X17251482Y-12858636D02*
X17241958Y-12868160D01*
X17241958Y-12868160D02*
X17222910Y-12877684D01*
X17222910Y-12877684D02*
X17203863Y-12877684D01*
X17203863Y-12877684D02*
X17184815Y-12868160D01*
X17184815Y-12868160D02*
X17175291Y-12858636D01*
X17175291Y-12858636D02*
X17165767Y-12839588D01*
X17165767Y-12839588D02*
X17156244Y-12801493D01*
X17156244Y-12801493D02*
X17156244Y-12753874D01*
X17156244Y-12753874D02*
X17165767Y-12715779D01*
X17165767Y-12715779D02*
X17175291Y-12696731D01*
X17175291Y-12696731D02*
X17184815Y-12687208D01*
X17184815Y-12687208D02*
X17203863Y-12677684D01*
X17394339Y-12677684D02*
X17413386Y-12677684D01*
X17413386Y-12677684D02*
X17432434Y-12687208D01*
X17432434Y-12687208D02*
X17441958Y-12696731D01*
X17441958Y-12696731D02*
X17451482Y-12715779D01*
X17451482Y-12715779D02*
X17461005Y-12753874D01*
X17461005Y-12753874D02*
X17461005Y-12801493D01*
X17461005Y-12801493D02*
X17451482Y-12839588D01*
X17451482Y-12839588D02*
X17441958Y-12858636D01*
X17441958Y-12858636D02*
X17432434Y-12868160D01*
X17432434Y-12868160D02*
X17413386Y-12877684D01*
X17413386Y-12877684D02*
X17394339Y-12877684D01*
X17394339Y-12877684D02*
X17375291Y-12868160D01*
X17375291Y-12868160D02*
X17365767Y-12858636D01*
X17365767Y-12858636D02*
X17356244Y-12839588D01*
X17356244Y-12839588D02*
X17346720Y-12801493D01*
X17346720Y-12801493D02*
X17346720Y-12753874D01*
X17346720Y-12753874D02*
X17356244Y-12715779D01*
X17356244Y-12715779D02*
X17365767Y-12696731D01*
X17365767Y-12696731D02*
X17375291Y-12687208D01*
X17375291Y-12687208D02*
X17394339Y-12677684D01*
X17546720Y-12877684D02*
X17546720Y-12744350D01*
X17546720Y-12763398D02*
X17556244Y-12753874D01*
X17556244Y-12753874D02*
X17575291Y-12744350D01*
X17575291Y-12744350D02*
X17603863Y-12744350D01*
X17603863Y-12744350D02*
X17622910Y-12753874D01*
X17622910Y-12753874D02*
X17632434Y-12772922D01*
X17632434Y-12772922D02*
X17632434Y-12877684D01*
X17632434Y-12772922D02*
X17641958Y-12753874D01*
X17641958Y-12753874D02*
X17661005Y-12744350D01*
X17661005Y-12744350D02*
X17689577Y-12744350D01*
X17689577Y-12744350D02*
X17708625Y-12753874D01*
X17708625Y-12753874D02*
X17718148Y-12772922D01*
X17718148Y-12772922D02*
X17718148Y-12877684D01*
X17813386Y-12877684D02*
X17813386Y-12744350D01*
X17813386Y-12763398D02*
X17822910Y-12753874D01*
X17822910Y-12753874D02*
X17841958Y-12744350D01*
X17841958Y-12744350D02*
X17870529Y-12744350D01*
X17870529Y-12744350D02*
X17889577Y-12753874D01*
X17889577Y-12753874D02*
X17899101Y-12772922D01*
X17899101Y-12772922D02*
X17899101Y-12877684D01*
X17899101Y-12772922D02*
X17908625Y-12753874D01*
X17908625Y-12753874D02*
X17927672Y-12744350D01*
X17927672Y-12744350D02*
X17956244Y-12744350D01*
X17956244Y-12744350D02*
X17975291Y-12753874D01*
X17975291Y-12753874D02*
X17984815Y-12772922D01*
X17984815Y-12772922D02*
X17984815Y-12877684D01*
X18375291Y-12668160D02*
X18203863Y-12925303D01*
X18632434Y-12677684D02*
X18651482Y-12677684D01*
X18651482Y-12677684D02*
X18670529Y-12687208D01*
X18670529Y-12687208D02*
X18680053Y-12696731D01*
X18680053Y-12696731D02*
X18689577Y-12715779D01*
X18689577Y-12715779D02*
X18699101Y-12753874D01*
X18699101Y-12753874D02*
X18699101Y-12801493D01*
X18699101Y-12801493D02*
X18689577Y-12839588D01*
X18689577Y-12839588D02*
X18680053Y-12858636D01*
X18680053Y-12858636D02*
X18670529Y-12868160D01*
X18670529Y-12868160D02*
X18651482Y-12877684D01*
X18651482Y-12877684D02*
X18632434Y-12877684D01*
X18632434Y-12877684D02*
X18613387Y-12868160D01*
X18613387Y-12868160D02*
X18603863Y-12858636D01*
X18603863Y-12858636D02*
X18594339Y-12839588D01*
X18594339Y-12839588D02*
X18584815Y-12801493D01*
X18584815Y-12801493D02*
X18584815Y-12753874D01*
X18584815Y-12753874D02*
X18594339Y-12715779D01*
X18594339Y-12715779D02*
X18603863Y-12696731D01*
X18603863Y-12696731D02*
X18613387Y-12687208D01*
X18613387Y-12687208D02*
X18632434Y-12677684D01*
X18784815Y-12858636D02*
X18794339Y-12868160D01*
X18794339Y-12868160D02*
X18784815Y-12877684D01*
X18784815Y-12877684D02*
X18775291Y-12868160D01*
X18775291Y-12868160D02*
X18784815Y-12858636D01*
X18784815Y-12858636D02*
X18784815Y-12877684D01*
X18918148Y-12677684D02*
X18937196Y-12677684D01*
X18937196Y-12677684D02*
X18956244Y-12687208D01*
X18956244Y-12687208D02*
X18965768Y-12696731D01*
X18965768Y-12696731D02*
X18975291Y-12715779D01*
X18975291Y-12715779D02*
X18984815Y-12753874D01*
X18984815Y-12753874D02*
X18984815Y-12801493D01*
X18984815Y-12801493D02*
X18975291Y-12839588D01*
X18975291Y-12839588D02*
X18965768Y-12858636D01*
X18965768Y-12858636D02*
X18956244Y-12868160D01*
X18956244Y-12868160D02*
X18937196Y-12877684D01*
X18937196Y-12877684D02*
X18918148Y-12877684D01*
X18918148Y-12877684D02*
X18899101Y-12868160D01*
X18899101Y-12868160D02*
X18889577Y-12858636D01*
X18889577Y-12858636D02*
X18880053Y-12839588D01*
X18880053Y-12839588D02*
X18870529Y-12801493D01*
X18870529Y-12801493D02*
X18870529Y-12753874D01*
X18870529Y-12753874D02*
X18880053Y-12715779D01*
X18880053Y-12715779D02*
X18889577Y-12696731D01*
X18889577Y-12696731D02*
X18899101Y-12687208D01*
X18899101Y-12687208D02*
X18918148Y-12677684D01*
X19175291Y-12877684D02*
X19061006Y-12877684D01*
X19118148Y-12877684D02*
X19118148Y-12677684D01*
X19118148Y-12677684D02*
X19099101Y-12706255D01*
X19099101Y-12706255D02*
X19080053Y-12725303D01*
X19080053Y-12725303D02*
X19061006Y-12734827D01*
X19365768Y-12877684D02*
X19251482Y-12877684D01*
X19308625Y-12877684D02*
X19308625Y-12677684D01*
X19308625Y-12677684D02*
X19289577Y-12706255D01*
X19289577Y-12706255D02*
X19270529Y-12725303D01*
X19270529Y-12725303D02*
X19251482Y-12734827D01*
X19480053Y-12763398D02*
X19461006Y-12753874D01*
X19461006Y-12753874D02*
X19451482Y-12744350D01*
X19451482Y-12744350D02*
X19441958Y-12725303D01*
X19441958Y-12725303D02*
X19441958Y-12715779D01*
X19441958Y-12715779D02*
X19451482Y-12696731D01*
X19451482Y-12696731D02*
X19461006Y-12687208D01*
X19461006Y-12687208D02*
X19480053Y-12677684D01*
X19480053Y-12677684D02*
X19518149Y-12677684D01*
X19518149Y-12677684D02*
X19537196Y-12687208D01*
X19537196Y-12687208D02*
X19546720Y-12696731D01*
X19546720Y-12696731D02*
X19556244Y-12715779D01*
X19556244Y-12715779D02*
X19556244Y-12725303D01*
X19556244Y-12725303D02*
X19546720Y-12744350D01*
X19546720Y-12744350D02*
X19537196Y-12753874D01*
X19537196Y-12753874D02*
X19518149Y-12763398D01*
X19518149Y-12763398D02*
X19480053Y-12763398D01*
X19480053Y-12763398D02*
X19461006Y-12772922D01*
X19461006Y-12772922D02*
X19451482Y-12782446D01*
X19451482Y-12782446D02*
X19441958Y-12801493D01*
X19441958Y-12801493D02*
X19441958Y-12839588D01*
X19441958Y-12839588D02*
X19451482Y-12858636D01*
X19451482Y-12858636D02*
X19461006Y-12868160D01*
X19461006Y-12868160D02*
X19480053Y-12877684D01*
X19480053Y-12877684D02*
X19518149Y-12877684D01*
X19518149Y-12877684D02*
X19537196Y-12868160D01*
X19537196Y-12868160D02*
X19546720Y-12858636D01*
X19546720Y-12858636D02*
X19556244Y-12839588D01*
X19556244Y-12839588D02*
X19556244Y-12801493D01*
X19556244Y-12801493D02*
X19546720Y-12782446D01*
X19546720Y-12782446D02*
X19537196Y-12772922D01*
X19537196Y-12772922D02*
X19518149Y-12763398D01*
X19632434Y-12677684D02*
X19632434Y-12715779D01*
X19708625Y-12677684D02*
X19708625Y-12715779D01*
X20003863Y-12953874D02*
X19994339Y-12944350D01*
X19994339Y-12944350D02*
X19975291Y-12915779D01*
X19975291Y-12915779D02*
X19965768Y-12896731D01*
X19965768Y-12896731D02*
X19956244Y-12868160D01*
X19956244Y-12868160D02*
X19946720Y-12820541D01*
X19946720Y-12820541D02*
X19946720Y-12782446D01*
X19946720Y-12782446D02*
X19956244Y-12734827D01*
X19956244Y-12734827D02*
X19965768Y-12706255D01*
X19965768Y-12706255D02*
X19975291Y-12687208D01*
X19975291Y-12687208D02*
X19994339Y-12658636D01*
X19994339Y-12658636D02*
X20003863Y-12649112D01*
X20089577Y-12877684D02*
X20127672Y-12877684D01*
X20127672Y-12877684D02*
X20146720Y-12868160D01*
X20146720Y-12868160D02*
X20156244Y-12858636D01*
X20156244Y-12858636D02*
X20175291Y-12830065D01*
X20175291Y-12830065D02*
X20184815Y-12791969D01*
X20184815Y-12791969D02*
X20184815Y-12715779D01*
X20184815Y-12715779D02*
X20175291Y-12696731D01*
X20175291Y-12696731D02*
X20165768Y-12687208D01*
X20165768Y-12687208D02*
X20146720Y-12677684D01*
X20146720Y-12677684D02*
X20108625Y-12677684D01*
X20108625Y-12677684D02*
X20089577Y-12687208D01*
X20089577Y-12687208D02*
X20080053Y-12696731D01*
X20080053Y-12696731D02*
X20070530Y-12715779D01*
X20070530Y-12715779D02*
X20070530Y-12763398D01*
X20070530Y-12763398D02*
X20080053Y-12782446D01*
X20080053Y-12782446D02*
X20089577Y-12791969D01*
X20089577Y-12791969D02*
X20108625Y-12801493D01*
X20108625Y-12801493D02*
X20146720Y-12801493D01*
X20146720Y-12801493D02*
X20165768Y-12791969D01*
X20165768Y-12791969D02*
X20175291Y-12782446D01*
X20175291Y-12782446D02*
X20184815Y-12763398D01*
X20251482Y-12677684D02*
X20375291Y-12677684D01*
X20375291Y-12677684D02*
X20308625Y-12753874D01*
X20308625Y-12753874D02*
X20337196Y-12753874D01*
X20337196Y-12753874D02*
X20356244Y-12763398D01*
X20356244Y-12763398D02*
X20365768Y-12772922D01*
X20365768Y-12772922D02*
X20375291Y-12791969D01*
X20375291Y-12791969D02*
X20375291Y-12839588D01*
X20375291Y-12839588D02*
X20365768Y-12858636D01*
X20365768Y-12858636D02*
X20356244Y-12868160D01*
X20356244Y-12868160D02*
X20337196Y-12877684D01*
X20337196Y-12877684D02*
X20280053Y-12877684D01*
X20280053Y-12877684D02*
X20261006Y-12868160D01*
X20261006Y-12868160D02*
X20251482Y-12858636D01*
X20613387Y-12877684D02*
X20613387Y-12677684D01*
X20699101Y-12877684D02*
X20699101Y-12772922D01*
X20699101Y-12772922D02*
X20689577Y-12753874D01*
X20689577Y-12753874D02*
X20670530Y-12744350D01*
X20670530Y-12744350D02*
X20641958Y-12744350D01*
X20641958Y-12744350D02*
X20622911Y-12753874D01*
X20622911Y-12753874D02*
X20613387Y-12763398D01*
X20822911Y-12877684D02*
X20803863Y-12868160D01*
X20803863Y-12868160D02*
X20794339Y-12858636D01*
X20794339Y-12858636D02*
X20784815Y-12839588D01*
X20784815Y-12839588D02*
X20784815Y-12782446D01*
X20784815Y-12782446D02*
X20794339Y-12763398D01*
X20794339Y-12763398D02*
X20803863Y-12753874D01*
X20803863Y-12753874D02*
X20822911Y-12744350D01*
X20822911Y-12744350D02*
X20851482Y-12744350D01*
X20851482Y-12744350D02*
X20870530Y-12753874D01*
X20870530Y-12753874D02*
X20880053Y-12763398D01*
X20880053Y-12763398D02*
X20889577Y-12782446D01*
X20889577Y-12782446D02*
X20889577Y-12839588D01*
X20889577Y-12839588D02*
X20880053Y-12858636D01*
X20880053Y-12858636D02*
X20870530Y-12868160D01*
X20870530Y-12868160D02*
X20851482Y-12877684D01*
X20851482Y-12877684D02*
X20822911Y-12877684D01*
X21003863Y-12877684D02*
X20984815Y-12868160D01*
X20984815Y-12868160D02*
X20975292Y-12849112D01*
X20975292Y-12849112D02*
X20975292Y-12677684D01*
X21156244Y-12868160D02*
X21137196Y-12877684D01*
X21137196Y-12877684D02*
X21099101Y-12877684D01*
X21099101Y-12877684D02*
X21080053Y-12868160D01*
X21080053Y-12868160D02*
X21070530Y-12849112D01*
X21070530Y-12849112D02*
X21070530Y-12772922D01*
X21070530Y-12772922D02*
X21080053Y-12753874D01*
X21080053Y-12753874D02*
X21099101Y-12744350D01*
X21099101Y-12744350D02*
X21137196Y-12744350D01*
X21137196Y-12744350D02*
X21156244Y-12753874D01*
X21156244Y-12753874D02*
X21165768Y-12772922D01*
X21165768Y-12772922D02*
X21165768Y-12791969D01*
X21165768Y-12791969D02*
X21070530Y-12811017D01*
X21241958Y-12868160D02*
X21261006Y-12877684D01*
X21261006Y-12877684D02*
X21299101Y-12877684D01*
X21299101Y-12877684D02*
X21318149Y-12868160D01*
X21318149Y-12868160D02*
X21327673Y-12849112D01*
X21327673Y-12849112D02*
X21327673Y-12839588D01*
X21327673Y-12839588D02*
X21318149Y-12820541D01*
X21318149Y-12820541D02*
X21299101Y-12811017D01*
X21299101Y-12811017D02*
X21270530Y-12811017D01*
X21270530Y-12811017D02*
X21251482Y-12801493D01*
X21251482Y-12801493D02*
X21241958Y-12782446D01*
X21241958Y-12782446D02*
X21241958Y-12772922D01*
X21241958Y-12772922D02*
X21251482Y-12753874D01*
X21251482Y-12753874D02*
X21270530Y-12744350D01*
X21270530Y-12744350D02*
X21299101Y-12744350D01*
X21299101Y-12744350D02*
X21318149Y-12753874D01*
X21394339Y-12953874D02*
X21403863Y-12944350D01*
X21403863Y-12944350D02*
X21422911Y-12915779D01*
X21422911Y-12915779D02*
X21432434Y-12896731D01*
X21432434Y-12896731D02*
X21441958Y-12868160D01*
X21441958Y-12868160D02*
X21451482Y-12820541D01*
X21451482Y-12820541D02*
X21451482Y-12782446D01*
X21451482Y-12782446D02*
X21441958Y-12734827D01*
X21441958Y-12734827D02*
X21432434Y-12706255D01*
X21432434Y-12706255D02*
X21422911Y-12687208D01*
X21422911Y-12687208D02*
X21403863Y-12658636D01*
X21403863Y-12658636D02*
X21394339Y-12649112D01*
D13*
X16428800Y-13050200D02*
G75*
G03*
X16428800Y-13050200I-20000J0D01*
G01*
D11*
X16727672Y-12941684D02*
X16746720Y-12941684D01*
X16746720Y-12941684D02*
X16765767Y-12951208D01*
X16765767Y-12951208D02*
X16775291Y-12960731D01*
X16775291Y-12960731D02*
X16784815Y-12979779D01*
X16784815Y-12979779D02*
X16794339Y-13017874D01*
X16794339Y-13017874D02*
X16794339Y-13065493D01*
X16794339Y-13065493D02*
X16784815Y-13103588D01*
X16784815Y-13103588D02*
X16775291Y-13122636D01*
X16775291Y-13122636D02*
X16765767Y-13132160D01*
X16765767Y-13132160D02*
X16746720Y-13141684D01*
X16746720Y-13141684D02*
X16727672Y-13141684D01*
X16727672Y-13141684D02*
X16708624Y-13132160D01*
X16708624Y-13132160D02*
X16699101Y-13122636D01*
X16699101Y-13122636D02*
X16689577Y-13103588D01*
X16689577Y-13103588D02*
X16680053Y-13065493D01*
X16680053Y-13065493D02*
X16680053Y-13017874D01*
X16680053Y-13017874D02*
X16689577Y-12979779D01*
X16689577Y-12979779D02*
X16699101Y-12960731D01*
X16699101Y-12960731D02*
X16708624Y-12951208D01*
X16708624Y-12951208D02*
X16727672Y-12941684D01*
X16880053Y-13122636D02*
X16889577Y-13132160D01*
X16889577Y-13132160D02*
X16880053Y-13141684D01*
X16880053Y-13141684D02*
X16870529Y-13132160D01*
X16870529Y-13132160D02*
X16880053Y-13122636D01*
X16880053Y-13122636D02*
X16880053Y-13141684D01*
X17061005Y-13008350D02*
X17061005Y-13141684D01*
X17013386Y-12932160D02*
X16965767Y-13075017D01*
X16965767Y-13075017D02*
X17089577Y-13075017D01*
X17203863Y-12941684D02*
X17222910Y-12941684D01*
X17222910Y-12941684D02*
X17241958Y-12951208D01*
X17241958Y-12951208D02*
X17251482Y-12960731D01*
X17251482Y-12960731D02*
X17261005Y-12979779D01*
X17261005Y-12979779D02*
X17270529Y-13017874D01*
X17270529Y-13017874D02*
X17270529Y-13065493D01*
X17270529Y-13065493D02*
X17261005Y-13103588D01*
X17261005Y-13103588D02*
X17251482Y-13122636D01*
X17251482Y-13122636D02*
X17241958Y-13132160D01*
X17241958Y-13132160D02*
X17222910Y-13141684D01*
X17222910Y-13141684D02*
X17203863Y-13141684D01*
X17203863Y-13141684D02*
X17184815Y-13132160D01*
X17184815Y-13132160D02*
X17175291Y-13122636D01*
X17175291Y-13122636D02*
X17165767Y-13103588D01*
X17165767Y-13103588D02*
X17156244Y-13065493D01*
X17156244Y-13065493D02*
X17156244Y-13017874D01*
X17156244Y-13017874D02*
X17165767Y-12979779D01*
X17165767Y-12979779D02*
X17175291Y-12960731D01*
X17175291Y-12960731D02*
X17184815Y-12951208D01*
X17184815Y-12951208D02*
X17203863Y-12941684D01*
X17394339Y-12941684D02*
X17413386Y-12941684D01*
X17413386Y-12941684D02*
X17432434Y-12951208D01*
X17432434Y-12951208D02*
X17441958Y-12960731D01*
X17441958Y-12960731D02*
X17451482Y-12979779D01*
X17451482Y-12979779D02*
X17461005Y-13017874D01*
X17461005Y-13017874D02*
X17461005Y-13065493D01*
X17461005Y-13065493D02*
X17451482Y-13103588D01*
X17451482Y-13103588D02*
X17441958Y-13122636D01*
X17441958Y-13122636D02*
X17432434Y-13132160D01*
X17432434Y-13132160D02*
X17413386Y-13141684D01*
X17413386Y-13141684D02*
X17394339Y-13141684D01*
X17394339Y-13141684D02*
X17375291Y-13132160D01*
X17375291Y-13132160D02*
X17365767Y-13122636D01*
X17365767Y-13122636D02*
X17356244Y-13103588D01*
X17356244Y-13103588D02*
X17346720Y-13065493D01*
X17346720Y-13065493D02*
X17346720Y-13017874D01*
X17346720Y-13017874D02*
X17356244Y-12979779D01*
X17356244Y-12979779D02*
X17365767Y-12960731D01*
X17365767Y-12960731D02*
X17375291Y-12951208D01*
X17375291Y-12951208D02*
X17394339Y-12941684D01*
X17546720Y-13141684D02*
X17546720Y-13008350D01*
X17546720Y-13027398D02*
X17556244Y-13017874D01*
X17556244Y-13017874D02*
X17575291Y-13008350D01*
X17575291Y-13008350D02*
X17603863Y-13008350D01*
X17603863Y-13008350D02*
X17622910Y-13017874D01*
X17622910Y-13017874D02*
X17632434Y-13036922D01*
X17632434Y-13036922D02*
X17632434Y-13141684D01*
X17632434Y-13036922D02*
X17641958Y-13017874D01*
X17641958Y-13017874D02*
X17661005Y-13008350D01*
X17661005Y-13008350D02*
X17689577Y-13008350D01*
X17689577Y-13008350D02*
X17708625Y-13017874D01*
X17708625Y-13017874D02*
X17718148Y-13036922D01*
X17718148Y-13036922D02*
X17718148Y-13141684D01*
X17813386Y-13141684D02*
X17813386Y-13008350D01*
X17813386Y-13027398D02*
X17822910Y-13017874D01*
X17822910Y-13017874D02*
X17841958Y-13008350D01*
X17841958Y-13008350D02*
X17870529Y-13008350D01*
X17870529Y-13008350D02*
X17889577Y-13017874D01*
X17889577Y-13017874D02*
X17899101Y-13036922D01*
X17899101Y-13036922D02*
X17899101Y-13141684D01*
X17899101Y-13036922D02*
X17908625Y-13017874D01*
X17908625Y-13017874D02*
X17927672Y-13008350D01*
X17927672Y-13008350D02*
X17956244Y-13008350D01*
X17956244Y-13008350D02*
X17975291Y-13017874D01*
X17975291Y-13017874D02*
X17984815Y-13036922D01*
X17984815Y-13036922D02*
X17984815Y-13141684D01*
X18375291Y-12932160D02*
X18203863Y-13189303D01*
X18632434Y-12941684D02*
X18651482Y-12941684D01*
X18651482Y-12941684D02*
X18670529Y-12951208D01*
X18670529Y-12951208D02*
X18680053Y-12960731D01*
X18680053Y-12960731D02*
X18689577Y-12979779D01*
X18689577Y-12979779D02*
X18699101Y-13017874D01*
X18699101Y-13017874D02*
X18699101Y-13065493D01*
X18699101Y-13065493D02*
X18689577Y-13103588D01*
X18689577Y-13103588D02*
X18680053Y-13122636D01*
X18680053Y-13122636D02*
X18670529Y-13132160D01*
X18670529Y-13132160D02*
X18651482Y-13141684D01*
X18651482Y-13141684D02*
X18632434Y-13141684D01*
X18632434Y-13141684D02*
X18613387Y-13132160D01*
X18613387Y-13132160D02*
X18603863Y-13122636D01*
X18603863Y-13122636D02*
X18594339Y-13103588D01*
X18594339Y-13103588D02*
X18584815Y-13065493D01*
X18584815Y-13065493D02*
X18584815Y-13017874D01*
X18584815Y-13017874D02*
X18594339Y-12979779D01*
X18594339Y-12979779D02*
X18603863Y-12960731D01*
X18603863Y-12960731D02*
X18613387Y-12951208D01*
X18613387Y-12951208D02*
X18632434Y-12941684D01*
X18784815Y-13122636D02*
X18794339Y-13132160D01*
X18794339Y-13132160D02*
X18784815Y-13141684D01*
X18784815Y-13141684D02*
X18775291Y-13132160D01*
X18775291Y-13132160D02*
X18784815Y-13122636D01*
X18784815Y-13122636D02*
X18784815Y-13141684D01*
X18918148Y-12941684D02*
X18937196Y-12941684D01*
X18937196Y-12941684D02*
X18956244Y-12951208D01*
X18956244Y-12951208D02*
X18965768Y-12960731D01*
X18965768Y-12960731D02*
X18975291Y-12979779D01*
X18975291Y-12979779D02*
X18984815Y-13017874D01*
X18984815Y-13017874D02*
X18984815Y-13065493D01*
X18984815Y-13065493D02*
X18975291Y-13103588D01*
X18975291Y-13103588D02*
X18965768Y-13122636D01*
X18965768Y-13122636D02*
X18956244Y-13132160D01*
X18956244Y-13132160D02*
X18937196Y-13141684D01*
X18937196Y-13141684D02*
X18918148Y-13141684D01*
X18918148Y-13141684D02*
X18899101Y-13132160D01*
X18899101Y-13132160D02*
X18889577Y-13122636D01*
X18889577Y-13122636D02*
X18880053Y-13103588D01*
X18880053Y-13103588D02*
X18870529Y-13065493D01*
X18870529Y-13065493D02*
X18870529Y-13017874D01*
X18870529Y-13017874D02*
X18880053Y-12979779D01*
X18880053Y-12979779D02*
X18889577Y-12960731D01*
X18889577Y-12960731D02*
X18899101Y-12951208D01*
X18899101Y-12951208D02*
X18918148Y-12941684D01*
X19175291Y-13141684D02*
X19061006Y-13141684D01*
X19118148Y-13141684D02*
X19118148Y-12941684D01*
X19118148Y-12941684D02*
X19099101Y-12970255D01*
X19099101Y-12970255D02*
X19080053Y-12989303D01*
X19080053Y-12989303D02*
X19061006Y-12998827D01*
X19356244Y-12941684D02*
X19261006Y-12941684D01*
X19261006Y-12941684D02*
X19251482Y-13036922D01*
X19251482Y-13036922D02*
X19261006Y-13027398D01*
X19261006Y-13027398D02*
X19280053Y-13017874D01*
X19280053Y-13017874D02*
X19327672Y-13017874D01*
X19327672Y-13017874D02*
X19346720Y-13027398D01*
X19346720Y-13027398D02*
X19356244Y-13036922D01*
X19356244Y-13036922D02*
X19365768Y-13055969D01*
X19365768Y-13055969D02*
X19365768Y-13103588D01*
X19365768Y-13103588D02*
X19356244Y-13122636D01*
X19356244Y-13122636D02*
X19346720Y-13132160D01*
X19346720Y-13132160D02*
X19327672Y-13141684D01*
X19327672Y-13141684D02*
X19280053Y-13141684D01*
X19280053Y-13141684D02*
X19261006Y-13132160D01*
X19261006Y-13132160D02*
X19251482Y-13122636D01*
X19432434Y-12941684D02*
X19565768Y-12941684D01*
X19565768Y-12941684D02*
X19480053Y-13141684D01*
X19632434Y-12941684D02*
X19632434Y-12979779D01*
X19708625Y-12941684D02*
X19708625Y-12979779D01*
X20003863Y-13217874D02*
X19994339Y-13208350D01*
X19994339Y-13208350D02*
X19975291Y-13179779D01*
X19975291Y-13179779D02*
X19965768Y-13160731D01*
X19965768Y-13160731D02*
X19956244Y-13132160D01*
X19956244Y-13132160D02*
X19946720Y-13084541D01*
X19946720Y-13084541D02*
X19946720Y-13046446D01*
X19946720Y-13046446D02*
X19956244Y-12998827D01*
X19956244Y-12998827D02*
X19965768Y-12970255D01*
X19965768Y-12970255D02*
X19975291Y-12951208D01*
X19975291Y-12951208D02*
X19994339Y-12922636D01*
X19994339Y-12922636D02*
X20003863Y-12913112D01*
X20070530Y-12960731D02*
X20080053Y-12951208D01*
X20080053Y-12951208D02*
X20099101Y-12941684D01*
X20099101Y-12941684D02*
X20146720Y-12941684D01*
X20146720Y-12941684D02*
X20165768Y-12951208D01*
X20165768Y-12951208D02*
X20175291Y-12960731D01*
X20175291Y-12960731D02*
X20184815Y-12979779D01*
X20184815Y-12979779D02*
X20184815Y-12998827D01*
X20184815Y-12998827D02*
X20175291Y-13027398D01*
X20175291Y-13027398D02*
X20061006Y-13141684D01*
X20061006Y-13141684D02*
X20184815Y-13141684D01*
X20365768Y-12941684D02*
X20270530Y-12941684D01*
X20270530Y-12941684D02*
X20261006Y-13036922D01*
X20261006Y-13036922D02*
X20270530Y-13027398D01*
X20270530Y-13027398D02*
X20289577Y-13017874D01*
X20289577Y-13017874D02*
X20337196Y-13017874D01*
X20337196Y-13017874D02*
X20356244Y-13027398D01*
X20356244Y-13027398D02*
X20365768Y-13036922D01*
X20365768Y-13036922D02*
X20375291Y-13055969D01*
X20375291Y-13055969D02*
X20375291Y-13103588D01*
X20375291Y-13103588D02*
X20365768Y-13122636D01*
X20365768Y-13122636D02*
X20356244Y-13132160D01*
X20356244Y-13132160D02*
X20337196Y-13141684D01*
X20337196Y-13141684D02*
X20289577Y-13141684D01*
X20289577Y-13141684D02*
X20270530Y-13132160D01*
X20270530Y-13132160D02*
X20261006Y-13122636D01*
X20613387Y-13141684D02*
X20613387Y-12941684D01*
X20699101Y-13141684D02*
X20699101Y-13036922D01*
X20699101Y-13036922D02*
X20689577Y-13017874D01*
X20689577Y-13017874D02*
X20670530Y-13008350D01*
X20670530Y-13008350D02*
X20641958Y-13008350D01*
X20641958Y-13008350D02*
X20622911Y-13017874D01*
X20622911Y-13017874D02*
X20613387Y-13027398D01*
X20822911Y-13141684D02*
X20803863Y-13132160D01*
X20803863Y-13132160D02*
X20794339Y-13122636D01*
X20794339Y-13122636D02*
X20784815Y-13103588D01*
X20784815Y-13103588D02*
X20784815Y-13046446D01*
X20784815Y-13046446D02*
X20794339Y-13027398D01*
X20794339Y-13027398D02*
X20803863Y-13017874D01*
X20803863Y-13017874D02*
X20822911Y-13008350D01*
X20822911Y-13008350D02*
X20851482Y-13008350D01*
X20851482Y-13008350D02*
X20870530Y-13017874D01*
X20870530Y-13017874D02*
X20880053Y-13027398D01*
X20880053Y-13027398D02*
X20889577Y-13046446D01*
X20889577Y-13046446D02*
X20889577Y-13103588D01*
X20889577Y-13103588D02*
X20880053Y-13122636D01*
X20880053Y-13122636D02*
X20870530Y-13132160D01*
X20870530Y-13132160D02*
X20851482Y-13141684D01*
X20851482Y-13141684D02*
X20822911Y-13141684D01*
X21003863Y-13141684D02*
X20984815Y-13132160D01*
X20984815Y-13132160D02*
X20975292Y-13113112D01*
X20975292Y-13113112D02*
X20975292Y-12941684D01*
X21156244Y-13132160D02*
X21137196Y-13141684D01*
X21137196Y-13141684D02*
X21099101Y-13141684D01*
X21099101Y-13141684D02*
X21080053Y-13132160D01*
X21080053Y-13132160D02*
X21070530Y-13113112D01*
X21070530Y-13113112D02*
X21070530Y-13036922D01*
X21070530Y-13036922D02*
X21080053Y-13017874D01*
X21080053Y-13017874D02*
X21099101Y-13008350D01*
X21099101Y-13008350D02*
X21137196Y-13008350D01*
X21137196Y-13008350D02*
X21156244Y-13017874D01*
X21156244Y-13017874D02*
X21165768Y-13036922D01*
X21165768Y-13036922D02*
X21165768Y-13055969D01*
X21165768Y-13055969D02*
X21070530Y-13075017D01*
X21241958Y-13132160D02*
X21261006Y-13141684D01*
X21261006Y-13141684D02*
X21299101Y-13141684D01*
X21299101Y-13141684D02*
X21318149Y-13132160D01*
X21318149Y-13132160D02*
X21327673Y-13113112D01*
X21327673Y-13113112D02*
X21327673Y-13103588D01*
X21327673Y-13103588D02*
X21318149Y-13084541D01*
X21318149Y-13084541D02*
X21299101Y-13075017D01*
X21299101Y-13075017D02*
X21270530Y-13075017D01*
X21270530Y-13075017D02*
X21251482Y-13065493D01*
X21251482Y-13065493D02*
X21241958Y-13046446D01*
X21241958Y-13046446D02*
X21241958Y-13036922D01*
X21241958Y-13036922D02*
X21251482Y-13017874D01*
X21251482Y-13017874D02*
X21270530Y-13008350D01*
X21270530Y-13008350D02*
X21299101Y-13008350D01*
X21299101Y-13008350D02*
X21318149Y-13017874D01*
X21394339Y-13217874D02*
X21403863Y-13208350D01*
X21403863Y-13208350D02*
X21422911Y-13179779D01*
X21422911Y-13179779D02*
X21432434Y-13160731D01*
X21432434Y-13160731D02*
X21441958Y-13132160D01*
X21441958Y-13132160D02*
X21451482Y-13084541D01*
X21451482Y-13084541D02*
X21451482Y-13046446D01*
X21451482Y-13046446D02*
X21441958Y-12998827D01*
X21441958Y-12998827D02*
X21432434Y-12970255D01*
X21432434Y-12970255D02*
X21422911Y-12951208D01*
X21422911Y-12951208D02*
X21403863Y-12922636D01*
X21403863Y-12922636D02*
X21394339Y-12913112D01*
D13*
X16408800Y-13294200D02*
X16408800Y-13334200D01*
X16388800Y-13314200D02*
X16428800Y-13314200D01*
D11*
X16727672Y-13205684D02*
X16746720Y-13205684D01*
X16746720Y-13205684D02*
X16765767Y-13215208D01*
X16765767Y-13215208D02*
X16775291Y-13224731D01*
X16775291Y-13224731D02*
X16784815Y-13243779D01*
X16784815Y-13243779D02*
X16794339Y-13281874D01*
X16794339Y-13281874D02*
X16794339Y-13329493D01*
X16794339Y-13329493D02*
X16784815Y-13367588D01*
X16784815Y-13367588D02*
X16775291Y-13386636D01*
X16775291Y-13386636D02*
X16765767Y-13396160D01*
X16765767Y-13396160D02*
X16746720Y-13405684D01*
X16746720Y-13405684D02*
X16727672Y-13405684D01*
X16727672Y-13405684D02*
X16708624Y-13396160D01*
X16708624Y-13396160D02*
X16699101Y-13386636D01*
X16699101Y-13386636D02*
X16689577Y-13367588D01*
X16689577Y-13367588D02*
X16680053Y-13329493D01*
X16680053Y-13329493D02*
X16680053Y-13281874D01*
X16680053Y-13281874D02*
X16689577Y-13243779D01*
X16689577Y-13243779D02*
X16699101Y-13224731D01*
X16699101Y-13224731D02*
X16708624Y-13215208D01*
X16708624Y-13215208D02*
X16727672Y-13205684D01*
X16880053Y-13386636D02*
X16889577Y-13396160D01*
X16889577Y-13396160D02*
X16880053Y-13405684D01*
X16880053Y-13405684D02*
X16870529Y-13396160D01*
X16870529Y-13396160D02*
X16880053Y-13386636D01*
X16880053Y-13386636D02*
X16880053Y-13405684D01*
X17061005Y-13272350D02*
X17061005Y-13405684D01*
X17013386Y-13196160D02*
X16965767Y-13339017D01*
X16965767Y-13339017D02*
X17089577Y-13339017D01*
X17203863Y-13205684D02*
X17222910Y-13205684D01*
X17222910Y-13205684D02*
X17241958Y-13215208D01*
X17241958Y-13215208D02*
X17251482Y-13224731D01*
X17251482Y-13224731D02*
X17261005Y-13243779D01*
X17261005Y-13243779D02*
X17270529Y-13281874D01*
X17270529Y-13281874D02*
X17270529Y-13329493D01*
X17270529Y-13329493D02*
X17261005Y-13367588D01*
X17261005Y-13367588D02*
X17251482Y-13386636D01*
X17251482Y-13386636D02*
X17241958Y-13396160D01*
X17241958Y-13396160D02*
X17222910Y-13405684D01*
X17222910Y-13405684D02*
X17203863Y-13405684D01*
X17203863Y-13405684D02*
X17184815Y-13396160D01*
X17184815Y-13396160D02*
X17175291Y-13386636D01*
X17175291Y-13386636D02*
X17165767Y-13367588D01*
X17165767Y-13367588D02*
X17156244Y-13329493D01*
X17156244Y-13329493D02*
X17156244Y-13281874D01*
X17156244Y-13281874D02*
X17165767Y-13243779D01*
X17165767Y-13243779D02*
X17175291Y-13224731D01*
X17175291Y-13224731D02*
X17184815Y-13215208D01*
X17184815Y-13215208D02*
X17203863Y-13205684D01*
X17394339Y-13205684D02*
X17413386Y-13205684D01*
X17413386Y-13205684D02*
X17432434Y-13215208D01*
X17432434Y-13215208D02*
X17441958Y-13224731D01*
X17441958Y-13224731D02*
X17451482Y-13243779D01*
X17451482Y-13243779D02*
X17461005Y-13281874D01*
X17461005Y-13281874D02*
X17461005Y-13329493D01*
X17461005Y-13329493D02*
X17451482Y-13367588D01*
X17451482Y-13367588D02*
X17441958Y-13386636D01*
X17441958Y-13386636D02*
X17432434Y-13396160D01*
X17432434Y-13396160D02*
X17413386Y-13405684D01*
X17413386Y-13405684D02*
X17394339Y-13405684D01*
X17394339Y-13405684D02*
X17375291Y-13396160D01*
X17375291Y-13396160D02*
X17365767Y-13386636D01*
X17365767Y-13386636D02*
X17356244Y-13367588D01*
X17356244Y-13367588D02*
X17346720Y-13329493D01*
X17346720Y-13329493D02*
X17346720Y-13281874D01*
X17346720Y-13281874D02*
X17356244Y-13243779D01*
X17356244Y-13243779D02*
X17365767Y-13224731D01*
X17365767Y-13224731D02*
X17375291Y-13215208D01*
X17375291Y-13215208D02*
X17394339Y-13205684D01*
X17546720Y-13405684D02*
X17546720Y-13272350D01*
X17546720Y-13291398D02*
X17556244Y-13281874D01*
X17556244Y-13281874D02*
X17575291Y-13272350D01*
X17575291Y-13272350D02*
X17603863Y-13272350D01*
X17603863Y-13272350D02*
X17622910Y-13281874D01*
X17622910Y-13281874D02*
X17632434Y-13300922D01*
X17632434Y-13300922D02*
X17632434Y-13405684D01*
X17632434Y-13300922D02*
X17641958Y-13281874D01*
X17641958Y-13281874D02*
X17661005Y-13272350D01*
X17661005Y-13272350D02*
X17689577Y-13272350D01*
X17689577Y-13272350D02*
X17708625Y-13281874D01*
X17708625Y-13281874D02*
X17718148Y-13300922D01*
X17718148Y-13300922D02*
X17718148Y-13405684D01*
X17813386Y-13405684D02*
X17813386Y-13272350D01*
X17813386Y-13291398D02*
X17822910Y-13281874D01*
X17822910Y-13281874D02*
X17841958Y-13272350D01*
X17841958Y-13272350D02*
X17870529Y-13272350D01*
X17870529Y-13272350D02*
X17889577Y-13281874D01*
X17889577Y-13281874D02*
X17899101Y-13300922D01*
X17899101Y-13300922D02*
X17899101Y-13405684D01*
X17899101Y-13300922D02*
X17908625Y-13281874D01*
X17908625Y-13281874D02*
X17927672Y-13272350D01*
X17927672Y-13272350D02*
X17956244Y-13272350D01*
X17956244Y-13272350D02*
X17975291Y-13281874D01*
X17975291Y-13281874D02*
X17984815Y-13300922D01*
X17984815Y-13300922D02*
X17984815Y-13405684D01*
X18375291Y-13196160D02*
X18203863Y-13453303D01*
X18632434Y-13205684D02*
X18651482Y-13205684D01*
X18651482Y-13205684D02*
X18670529Y-13215208D01*
X18670529Y-13215208D02*
X18680053Y-13224731D01*
X18680053Y-13224731D02*
X18689577Y-13243779D01*
X18689577Y-13243779D02*
X18699101Y-13281874D01*
X18699101Y-13281874D02*
X18699101Y-13329493D01*
X18699101Y-13329493D02*
X18689577Y-13367588D01*
X18689577Y-13367588D02*
X18680053Y-13386636D01*
X18680053Y-13386636D02*
X18670529Y-13396160D01*
X18670529Y-13396160D02*
X18651482Y-13405684D01*
X18651482Y-13405684D02*
X18632434Y-13405684D01*
X18632434Y-13405684D02*
X18613387Y-13396160D01*
X18613387Y-13396160D02*
X18603863Y-13386636D01*
X18603863Y-13386636D02*
X18594339Y-13367588D01*
X18594339Y-13367588D02*
X18584815Y-13329493D01*
X18584815Y-13329493D02*
X18584815Y-13281874D01*
X18584815Y-13281874D02*
X18594339Y-13243779D01*
X18594339Y-13243779D02*
X18603863Y-13224731D01*
X18603863Y-13224731D02*
X18613387Y-13215208D01*
X18613387Y-13215208D02*
X18632434Y-13205684D01*
X18784815Y-13386636D02*
X18794339Y-13396160D01*
X18794339Y-13396160D02*
X18784815Y-13405684D01*
X18784815Y-13405684D02*
X18775291Y-13396160D01*
X18775291Y-13396160D02*
X18784815Y-13386636D01*
X18784815Y-13386636D02*
X18784815Y-13405684D01*
X18918148Y-13205684D02*
X18937196Y-13205684D01*
X18937196Y-13205684D02*
X18956244Y-13215208D01*
X18956244Y-13215208D02*
X18965768Y-13224731D01*
X18965768Y-13224731D02*
X18975291Y-13243779D01*
X18975291Y-13243779D02*
X18984815Y-13281874D01*
X18984815Y-13281874D02*
X18984815Y-13329493D01*
X18984815Y-13329493D02*
X18975291Y-13367588D01*
X18975291Y-13367588D02*
X18965768Y-13386636D01*
X18965768Y-13386636D02*
X18956244Y-13396160D01*
X18956244Y-13396160D02*
X18937196Y-13405684D01*
X18937196Y-13405684D02*
X18918148Y-13405684D01*
X18918148Y-13405684D02*
X18899101Y-13396160D01*
X18899101Y-13396160D02*
X18889577Y-13386636D01*
X18889577Y-13386636D02*
X18880053Y-13367588D01*
X18880053Y-13367588D02*
X18870529Y-13329493D01*
X18870529Y-13329493D02*
X18870529Y-13281874D01*
X18870529Y-13281874D02*
X18880053Y-13243779D01*
X18880053Y-13243779D02*
X18889577Y-13224731D01*
X18889577Y-13224731D02*
X18899101Y-13215208D01*
X18899101Y-13215208D02*
X18918148Y-13205684D01*
X19175291Y-13405684D02*
X19061006Y-13405684D01*
X19118148Y-13405684D02*
X19118148Y-13205684D01*
X19118148Y-13205684D02*
X19099101Y-13234255D01*
X19099101Y-13234255D02*
X19080053Y-13253303D01*
X19080053Y-13253303D02*
X19061006Y-13262827D01*
X19356244Y-13205684D02*
X19261006Y-13205684D01*
X19261006Y-13205684D02*
X19251482Y-13300922D01*
X19251482Y-13300922D02*
X19261006Y-13291398D01*
X19261006Y-13291398D02*
X19280053Y-13281874D01*
X19280053Y-13281874D02*
X19327672Y-13281874D01*
X19327672Y-13281874D02*
X19346720Y-13291398D01*
X19346720Y-13291398D02*
X19356244Y-13300922D01*
X19356244Y-13300922D02*
X19365768Y-13319969D01*
X19365768Y-13319969D02*
X19365768Y-13367588D01*
X19365768Y-13367588D02*
X19356244Y-13386636D01*
X19356244Y-13386636D02*
X19346720Y-13396160D01*
X19346720Y-13396160D02*
X19327672Y-13405684D01*
X19327672Y-13405684D02*
X19280053Y-13405684D01*
X19280053Y-13405684D02*
X19261006Y-13396160D01*
X19261006Y-13396160D02*
X19251482Y-13386636D01*
X19432434Y-13205684D02*
X19565768Y-13205684D01*
X19565768Y-13205684D02*
X19480053Y-13405684D01*
X19632434Y-13205684D02*
X19632434Y-13243779D01*
X19708625Y-13205684D02*
X19708625Y-13243779D01*
X20003863Y-13481874D02*
X19994339Y-13472350D01*
X19994339Y-13472350D02*
X19975291Y-13443779D01*
X19975291Y-13443779D02*
X19965768Y-13424731D01*
X19965768Y-13424731D02*
X19956244Y-13396160D01*
X19956244Y-13396160D02*
X19946720Y-13348541D01*
X19946720Y-13348541D02*
X19946720Y-13310446D01*
X19946720Y-13310446D02*
X19956244Y-13262827D01*
X19956244Y-13262827D02*
X19965768Y-13234255D01*
X19965768Y-13234255D02*
X19975291Y-13215208D01*
X19975291Y-13215208D02*
X19994339Y-13186636D01*
X19994339Y-13186636D02*
X20003863Y-13177112D01*
X20061006Y-13205684D02*
X20184815Y-13205684D01*
X20184815Y-13205684D02*
X20118149Y-13281874D01*
X20118149Y-13281874D02*
X20146720Y-13281874D01*
X20146720Y-13281874D02*
X20165768Y-13291398D01*
X20165768Y-13291398D02*
X20175291Y-13300922D01*
X20175291Y-13300922D02*
X20184815Y-13319969D01*
X20184815Y-13319969D02*
X20184815Y-13367588D01*
X20184815Y-13367588D02*
X20175291Y-13386636D01*
X20175291Y-13386636D02*
X20165768Y-13396160D01*
X20165768Y-13396160D02*
X20146720Y-13405684D01*
X20146720Y-13405684D02*
X20089577Y-13405684D01*
X20089577Y-13405684D02*
X20070530Y-13396160D01*
X20070530Y-13396160D02*
X20061006Y-13386636D01*
X20261006Y-13224731D02*
X20270530Y-13215208D01*
X20270530Y-13215208D02*
X20289577Y-13205684D01*
X20289577Y-13205684D02*
X20337196Y-13205684D01*
X20337196Y-13205684D02*
X20356244Y-13215208D01*
X20356244Y-13215208D02*
X20365768Y-13224731D01*
X20365768Y-13224731D02*
X20375291Y-13243779D01*
X20375291Y-13243779D02*
X20375291Y-13262827D01*
X20375291Y-13262827D02*
X20365768Y-13291398D01*
X20365768Y-13291398D02*
X20251482Y-13405684D01*
X20251482Y-13405684D02*
X20375291Y-13405684D01*
X20613387Y-13405684D02*
X20613387Y-13205684D01*
X20699101Y-13405684D02*
X20699101Y-13300922D01*
X20699101Y-13300922D02*
X20689577Y-13281874D01*
X20689577Y-13281874D02*
X20670530Y-13272350D01*
X20670530Y-13272350D02*
X20641958Y-13272350D01*
X20641958Y-13272350D02*
X20622911Y-13281874D01*
X20622911Y-13281874D02*
X20613387Y-13291398D01*
X20822911Y-13405684D02*
X20803863Y-13396160D01*
X20803863Y-13396160D02*
X20794339Y-13386636D01*
X20794339Y-13386636D02*
X20784815Y-13367588D01*
X20784815Y-13367588D02*
X20784815Y-13310446D01*
X20784815Y-13310446D02*
X20794339Y-13291398D01*
X20794339Y-13291398D02*
X20803863Y-13281874D01*
X20803863Y-13281874D02*
X20822911Y-13272350D01*
X20822911Y-13272350D02*
X20851482Y-13272350D01*
X20851482Y-13272350D02*
X20870530Y-13281874D01*
X20870530Y-13281874D02*
X20880053Y-13291398D01*
X20880053Y-13291398D02*
X20889577Y-13310446D01*
X20889577Y-13310446D02*
X20889577Y-13367588D01*
X20889577Y-13367588D02*
X20880053Y-13386636D01*
X20880053Y-13386636D02*
X20870530Y-13396160D01*
X20870530Y-13396160D02*
X20851482Y-13405684D01*
X20851482Y-13405684D02*
X20822911Y-13405684D01*
X21003863Y-13405684D02*
X20984815Y-13396160D01*
X20984815Y-13396160D02*
X20975292Y-13377112D01*
X20975292Y-13377112D02*
X20975292Y-13205684D01*
X21156244Y-13396160D02*
X21137196Y-13405684D01*
X21137196Y-13405684D02*
X21099101Y-13405684D01*
X21099101Y-13405684D02*
X21080053Y-13396160D01*
X21080053Y-13396160D02*
X21070530Y-13377112D01*
X21070530Y-13377112D02*
X21070530Y-13300922D01*
X21070530Y-13300922D02*
X21080053Y-13281874D01*
X21080053Y-13281874D02*
X21099101Y-13272350D01*
X21099101Y-13272350D02*
X21137196Y-13272350D01*
X21137196Y-13272350D02*
X21156244Y-13281874D01*
X21156244Y-13281874D02*
X21165768Y-13300922D01*
X21165768Y-13300922D02*
X21165768Y-13319969D01*
X21165768Y-13319969D02*
X21070530Y-13339017D01*
X21241958Y-13396160D02*
X21261006Y-13405684D01*
X21261006Y-13405684D02*
X21299101Y-13405684D01*
X21299101Y-13405684D02*
X21318149Y-13396160D01*
X21318149Y-13396160D02*
X21327673Y-13377112D01*
X21327673Y-13377112D02*
X21327673Y-13367588D01*
X21327673Y-13367588D02*
X21318149Y-13348541D01*
X21318149Y-13348541D02*
X21299101Y-13339017D01*
X21299101Y-13339017D02*
X21270530Y-13339017D01*
X21270530Y-13339017D02*
X21251482Y-13329493D01*
X21251482Y-13329493D02*
X21241958Y-13310446D01*
X21241958Y-13310446D02*
X21241958Y-13300922D01*
X21241958Y-13300922D02*
X21251482Y-13281874D01*
X21251482Y-13281874D02*
X21270530Y-13272350D01*
X21270530Y-13272350D02*
X21299101Y-13272350D01*
X21299101Y-13272350D02*
X21318149Y-13281874D01*
X21394339Y-13481874D02*
X21403863Y-13472350D01*
X21403863Y-13472350D02*
X21422911Y-13443779D01*
X21422911Y-13443779D02*
X21432434Y-13424731D01*
X21432434Y-13424731D02*
X21441958Y-13396160D01*
X21441958Y-13396160D02*
X21451482Y-13348541D01*
X21451482Y-13348541D02*
X21451482Y-13310446D01*
X21451482Y-13310446D02*
X21441958Y-13262827D01*
X21441958Y-13262827D02*
X21432434Y-13234255D01*
X21432434Y-13234255D02*
X21422911Y-13215208D01*
X21422911Y-13215208D02*
X21403863Y-13186636D01*
X21403863Y-13186636D02*
X21394339Y-13177112D01*
D14*
X16420013Y-13599413D02*
X16420013Y-13556987D01*
X16377587Y-13556987D01*
X16377587Y-13599413D01*
X16420013Y-13599413D01*
D11*
X16727672Y-13469684D02*
X16746720Y-13469684D01*
X16746720Y-13469684D02*
X16765767Y-13479208D01*
X16765767Y-13479208D02*
X16775291Y-13488731D01*
X16775291Y-13488731D02*
X16784815Y-13507779D01*
X16784815Y-13507779D02*
X16794339Y-13545874D01*
X16794339Y-13545874D02*
X16794339Y-13593493D01*
X16794339Y-13593493D02*
X16784815Y-13631588D01*
X16784815Y-13631588D02*
X16775291Y-13650636D01*
X16775291Y-13650636D02*
X16765767Y-13660160D01*
X16765767Y-13660160D02*
X16746720Y-13669684D01*
X16746720Y-13669684D02*
X16727672Y-13669684D01*
X16727672Y-13669684D02*
X16708624Y-13660160D01*
X16708624Y-13660160D02*
X16699101Y-13650636D01*
X16699101Y-13650636D02*
X16689577Y-13631588D01*
X16689577Y-13631588D02*
X16680053Y-13593493D01*
X16680053Y-13593493D02*
X16680053Y-13545874D01*
X16680053Y-13545874D02*
X16689577Y-13507779D01*
X16689577Y-13507779D02*
X16699101Y-13488731D01*
X16699101Y-13488731D02*
X16708624Y-13479208D01*
X16708624Y-13479208D02*
X16727672Y-13469684D01*
X16880053Y-13650636D02*
X16889577Y-13660160D01*
X16889577Y-13660160D02*
X16880053Y-13669684D01*
X16880053Y-13669684D02*
X16870529Y-13660160D01*
X16870529Y-13660160D02*
X16880053Y-13650636D01*
X16880053Y-13650636D02*
X16880053Y-13669684D01*
X17061005Y-13469684D02*
X17022910Y-13469684D01*
X17022910Y-13469684D02*
X17003863Y-13479208D01*
X17003863Y-13479208D02*
X16994339Y-13488731D01*
X16994339Y-13488731D02*
X16975291Y-13517303D01*
X16975291Y-13517303D02*
X16965767Y-13555398D01*
X16965767Y-13555398D02*
X16965767Y-13631588D01*
X16965767Y-13631588D02*
X16975291Y-13650636D01*
X16975291Y-13650636D02*
X16984815Y-13660160D01*
X16984815Y-13660160D02*
X17003863Y-13669684D01*
X17003863Y-13669684D02*
X17041958Y-13669684D01*
X17041958Y-13669684D02*
X17061005Y-13660160D01*
X17061005Y-13660160D02*
X17070529Y-13650636D01*
X17070529Y-13650636D02*
X17080053Y-13631588D01*
X17080053Y-13631588D02*
X17080053Y-13583969D01*
X17080053Y-13583969D02*
X17070529Y-13564922D01*
X17070529Y-13564922D02*
X17061005Y-13555398D01*
X17061005Y-13555398D02*
X17041958Y-13545874D01*
X17041958Y-13545874D02*
X17003863Y-13545874D01*
X17003863Y-13545874D02*
X16984815Y-13555398D01*
X16984815Y-13555398D02*
X16975291Y-13564922D01*
X16975291Y-13564922D02*
X16965767Y-13583969D01*
X17203863Y-13469684D02*
X17222910Y-13469684D01*
X17222910Y-13469684D02*
X17241958Y-13479208D01*
X17241958Y-13479208D02*
X17251482Y-13488731D01*
X17251482Y-13488731D02*
X17261005Y-13507779D01*
X17261005Y-13507779D02*
X17270529Y-13545874D01*
X17270529Y-13545874D02*
X17270529Y-13593493D01*
X17270529Y-13593493D02*
X17261005Y-13631588D01*
X17261005Y-13631588D02*
X17251482Y-13650636D01*
X17251482Y-13650636D02*
X17241958Y-13660160D01*
X17241958Y-13660160D02*
X17222910Y-13669684D01*
X17222910Y-13669684D02*
X17203863Y-13669684D01*
X17203863Y-13669684D02*
X17184815Y-13660160D01*
X17184815Y-13660160D02*
X17175291Y-13650636D01*
X17175291Y-13650636D02*
X17165767Y-13631588D01*
X17165767Y-13631588D02*
X17156244Y-13593493D01*
X17156244Y-13593493D02*
X17156244Y-13545874D01*
X17156244Y-13545874D02*
X17165767Y-13507779D01*
X17165767Y-13507779D02*
X17175291Y-13488731D01*
X17175291Y-13488731D02*
X17184815Y-13479208D01*
X17184815Y-13479208D02*
X17203863Y-13469684D01*
X17394339Y-13469684D02*
X17413386Y-13469684D01*
X17413386Y-13469684D02*
X17432434Y-13479208D01*
X17432434Y-13479208D02*
X17441958Y-13488731D01*
X17441958Y-13488731D02*
X17451482Y-13507779D01*
X17451482Y-13507779D02*
X17461005Y-13545874D01*
X17461005Y-13545874D02*
X17461005Y-13593493D01*
X17461005Y-13593493D02*
X17451482Y-13631588D01*
X17451482Y-13631588D02*
X17441958Y-13650636D01*
X17441958Y-13650636D02*
X17432434Y-13660160D01*
X17432434Y-13660160D02*
X17413386Y-13669684D01*
X17413386Y-13669684D02*
X17394339Y-13669684D01*
X17394339Y-13669684D02*
X17375291Y-13660160D01*
X17375291Y-13660160D02*
X17365767Y-13650636D01*
X17365767Y-13650636D02*
X17356244Y-13631588D01*
X17356244Y-13631588D02*
X17346720Y-13593493D01*
X17346720Y-13593493D02*
X17346720Y-13545874D01*
X17346720Y-13545874D02*
X17356244Y-13507779D01*
X17356244Y-13507779D02*
X17365767Y-13488731D01*
X17365767Y-13488731D02*
X17375291Y-13479208D01*
X17375291Y-13479208D02*
X17394339Y-13469684D01*
X17546720Y-13669684D02*
X17546720Y-13536350D01*
X17546720Y-13555398D02*
X17556244Y-13545874D01*
X17556244Y-13545874D02*
X17575291Y-13536350D01*
X17575291Y-13536350D02*
X17603863Y-13536350D01*
X17603863Y-13536350D02*
X17622910Y-13545874D01*
X17622910Y-13545874D02*
X17632434Y-13564922D01*
X17632434Y-13564922D02*
X17632434Y-13669684D01*
X17632434Y-13564922D02*
X17641958Y-13545874D01*
X17641958Y-13545874D02*
X17661005Y-13536350D01*
X17661005Y-13536350D02*
X17689577Y-13536350D01*
X17689577Y-13536350D02*
X17708625Y-13545874D01*
X17708625Y-13545874D02*
X17718148Y-13564922D01*
X17718148Y-13564922D02*
X17718148Y-13669684D01*
X17813386Y-13669684D02*
X17813386Y-13536350D01*
X17813386Y-13555398D02*
X17822910Y-13545874D01*
X17822910Y-13545874D02*
X17841958Y-13536350D01*
X17841958Y-13536350D02*
X17870529Y-13536350D01*
X17870529Y-13536350D02*
X17889577Y-13545874D01*
X17889577Y-13545874D02*
X17899101Y-13564922D01*
X17899101Y-13564922D02*
X17899101Y-13669684D01*
X17899101Y-13564922D02*
X17908625Y-13545874D01*
X17908625Y-13545874D02*
X17927672Y-13536350D01*
X17927672Y-13536350D02*
X17956244Y-13536350D01*
X17956244Y-13536350D02*
X17975291Y-13545874D01*
X17975291Y-13545874D02*
X17984815Y-13564922D01*
X17984815Y-13564922D02*
X17984815Y-13669684D01*
X18375291Y-13460160D02*
X18203863Y-13717303D01*
X18632434Y-13469684D02*
X18651482Y-13469684D01*
X18651482Y-13469684D02*
X18670529Y-13479208D01*
X18670529Y-13479208D02*
X18680053Y-13488731D01*
X18680053Y-13488731D02*
X18689577Y-13507779D01*
X18689577Y-13507779D02*
X18699101Y-13545874D01*
X18699101Y-13545874D02*
X18699101Y-13593493D01*
X18699101Y-13593493D02*
X18689577Y-13631588D01*
X18689577Y-13631588D02*
X18680053Y-13650636D01*
X18680053Y-13650636D02*
X18670529Y-13660160D01*
X18670529Y-13660160D02*
X18651482Y-13669684D01*
X18651482Y-13669684D02*
X18632434Y-13669684D01*
X18632434Y-13669684D02*
X18613387Y-13660160D01*
X18613387Y-13660160D02*
X18603863Y-13650636D01*
X18603863Y-13650636D02*
X18594339Y-13631588D01*
X18594339Y-13631588D02*
X18584815Y-13593493D01*
X18584815Y-13593493D02*
X18584815Y-13545874D01*
X18584815Y-13545874D02*
X18594339Y-13507779D01*
X18594339Y-13507779D02*
X18603863Y-13488731D01*
X18603863Y-13488731D02*
X18613387Y-13479208D01*
X18613387Y-13479208D02*
X18632434Y-13469684D01*
X18784815Y-13650636D02*
X18794339Y-13660160D01*
X18794339Y-13660160D02*
X18784815Y-13669684D01*
X18784815Y-13669684D02*
X18775291Y-13660160D01*
X18775291Y-13660160D02*
X18784815Y-13650636D01*
X18784815Y-13650636D02*
X18784815Y-13669684D01*
X18918148Y-13469684D02*
X18937196Y-13469684D01*
X18937196Y-13469684D02*
X18956244Y-13479208D01*
X18956244Y-13479208D02*
X18965768Y-13488731D01*
X18965768Y-13488731D02*
X18975291Y-13507779D01*
X18975291Y-13507779D02*
X18984815Y-13545874D01*
X18984815Y-13545874D02*
X18984815Y-13593493D01*
X18984815Y-13593493D02*
X18975291Y-13631588D01*
X18975291Y-13631588D02*
X18965768Y-13650636D01*
X18965768Y-13650636D02*
X18956244Y-13660160D01*
X18956244Y-13660160D02*
X18937196Y-13669684D01*
X18937196Y-13669684D02*
X18918148Y-13669684D01*
X18918148Y-13669684D02*
X18899101Y-13660160D01*
X18899101Y-13660160D02*
X18889577Y-13650636D01*
X18889577Y-13650636D02*
X18880053Y-13631588D01*
X18880053Y-13631588D02*
X18870529Y-13593493D01*
X18870529Y-13593493D02*
X18870529Y-13545874D01*
X18870529Y-13545874D02*
X18880053Y-13507779D01*
X18880053Y-13507779D02*
X18889577Y-13488731D01*
X18889577Y-13488731D02*
X18899101Y-13479208D01*
X18899101Y-13479208D02*
X18918148Y-13469684D01*
X19061006Y-13488731D02*
X19070529Y-13479208D01*
X19070529Y-13479208D02*
X19089577Y-13469684D01*
X19089577Y-13469684D02*
X19137196Y-13469684D01*
X19137196Y-13469684D02*
X19156244Y-13479208D01*
X19156244Y-13479208D02*
X19165768Y-13488731D01*
X19165768Y-13488731D02*
X19175291Y-13507779D01*
X19175291Y-13507779D02*
X19175291Y-13526827D01*
X19175291Y-13526827D02*
X19165768Y-13555398D01*
X19165768Y-13555398D02*
X19051482Y-13669684D01*
X19051482Y-13669684D02*
X19175291Y-13669684D01*
X19241958Y-13469684D02*
X19365768Y-13469684D01*
X19365768Y-13469684D02*
X19299101Y-13545874D01*
X19299101Y-13545874D02*
X19327672Y-13545874D01*
X19327672Y-13545874D02*
X19346720Y-13555398D01*
X19346720Y-13555398D02*
X19356244Y-13564922D01*
X19356244Y-13564922D02*
X19365768Y-13583969D01*
X19365768Y-13583969D02*
X19365768Y-13631588D01*
X19365768Y-13631588D02*
X19356244Y-13650636D01*
X19356244Y-13650636D02*
X19346720Y-13660160D01*
X19346720Y-13660160D02*
X19327672Y-13669684D01*
X19327672Y-13669684D02*
X19270529Y-13669684D01*
X19270529Y-13669684D02*
X19251482Y-13660160D01*
X19251482Y-13660160D02*
X19241958Y-13650636D01*
X19537196Y-13469684D02*
X19499101Y-13469684D01*
X19499101Y-13469684D02*
X19480053Y-13479208D01*
X19480053Y-13479208D02*
X19470529Y-13488731D01*
X19470529Y-13488731D02*
X19451482Y-13517303D01*
X19451482Y-13517303D02*
X19441958Y-13555398D01*
X19441958Y-13555398D02*
X19441958Y-13631588D01*
X19441958Y-13631588D02*
X19451482Y-13650636D01*
X19451482Y-13650636D02*
X19461006Y-13660160D01*
X19461006Y-13660160D02*
X19480053Y-13669684D01*
X19480053Y-13669684D02*
X19518149Y-13669684D01*
X19518149Y-13669684D02*
X19537196Y-13660160D01*
X19537196Y-13660160D02*
X19546720Y-13650636D01*
X19546720Y-13650636D02*
X19556244Y-13631588D01*
X19556244Y-13631588D02*
X19556244Y-13583969D01*
X19556244Y-13583969D02*
X19546720Y-13564922D01*
X19546720Y-13564922D02*
X19537196Y-13555398D01*
X19537196Y-13555398D02*
X19518149Y-13545874D01*
X19518149Y-13545874D02*
X19480053Y-13545874D01*
X19480053Y-13545874D02*
X19461006Y-13555398D01*
X19461006Y-13555398D02*
X19451482Y-13564922D01*
X19451482Y-13564922D02*
X19441958Y-13583969D01*
X19632434Y-13469684D02*
X19632434Y-13507779D01*
X19708625Y-13469684D02*
X19708625Y-13507779D01*
X20003863Y-13745874D02*
X19994339Y-13736350D01*
X19994339Y-13736350D02*
X19975291Y-13707779D01*
X19975291Y-13707779D02*
X19965768Y-13688731D01*
X19965768Y-13688731D02*
X19956244Y-13660160D01*
X19956244Y-13660160D02*
X19946720Y-13612541D01*
X19946720Y-13612541D02*
X19946720Y-13574446D01*
X19946720Y-13574446D02*
X19956244Y-13526827D01*
X19956244Y-13526827D02*
X19965768Y-13498255D01*
X19965768Y-13498255D02*
X19975291Y-13479208D01*
X19975291Y-13479208D02*
X19994339Y-13450636D01*
X19994339Y-13450636D02*
X20003863Y-13441112D01*
X20118149Y-13469684D02*
X20137196Y-13469684D01*
X20137196Y-13469684D02*
X20156244Y-13479208D01*
X20156244Y-13479208D02*
X20165768Y-13488731D01*
X20165768Y-13488731D02*
X20175291Y-13507779D01*
X20175291Y-13507779D02*
X20184815Y-13545874D01*
X20184815Y-13545874D02*
X20184815Y-13593493D01*
X20184815Y-13593493D02*
X20175291Y-13631588D01*
X20175291Y-13631588D02*
X20165768Y-13650636D01*
X20165768Y-13650636D02*
X20156244Y-13660160D01*
X20156244Y-13660160D02*
X20137196Y-13669684D01*
X20137196Y-13669684D02*
X20118149Y-13669684D01*
X20118149Y-13669684D02*
X20099101Y-13660160D01*
X20099101Y-13660160D02*
X20089577Y-13650636D01*
X20089577Y-13650636D02*
X20080053Y-13631588D01*
X20080053Y-13631588D02*
X20070530Y-13593493D01*
X20070530Y-13593493D02*
X20070530Y-13545874D01*
X20070530Y-13545874D02*
X20080053Y-13507779D01*
X20080053Y-13507779D02*
X20089577Y-13488731D01*
X20089577Y-13488731D02*
X20099101Y-13479208D01*
X20099101Y-13479208D02*
X20118149Y-13469684D01*
X20422911Y-13669684D02*
X20422911Y-13469684D01*
X20508625Y-13669684D02*
X20508625Y-13564922D01*
X20508625Y-13564922D02*
X20499101Y-13545874D01*
X20499101Y-13545874D02*
X20480053Y-13536350D01*
X20480053Y-13536350D02*
X20451482Y-13536350D01*
X20451482Y-13536350D02*
X20432434Y-13545874D01*
X20432434Y-13545874D02*
X20422911Y-13555398D01*
X20632434Y-13669684D02*
X20613387Y-13660160D01*
X20613387Y-13660160D02*
X20603863Y-13650636D01*
X20603863Y-13650636D02*
X20594339Y-13631588D01*
X20594339Y-13631588D02*
X20594339Y-13574446D01*
X20594339Y-13574446D02*
X20603863Y-13555398D01*
X20603863Y-13555398D02*
X20613387Y-13545874D01*
X20613387Y-13545874D02*
X20632434Y-13536350D01*
X20632434Y-13536350D02*
X20661006Y-13536350D01*
X20661006Y-13536350D02*
X20680053Y-13545874D01*
X20680053Y-13545874D02*
X20689577Y-13555398D01*
X20689577Y-13555398D02*
X20699101Y-13574446D01*
X20699101Y-13574446D02*
X20699101Y-13631588D01*
X20699101Y-13631588D02*
X20689577Y-13650636D01*
X20689577Y-13650636D02*
X20680053Y-13660160D01*
X20680053Y-13660160D02*
X20661006Y-13669684D01*
X20661006Y-13669684D02*
X20632434Y-13669684D01*
X20813387Y-13669684D02*
X20794339Y-13660160D01*
X20794339Y-13660160D02*
X20784815Y-13641112D01*
X20784815Y-13641112D02*
X20784815Y-13469684D01*
X20965768Y-13660160D02*
X20946720Y-13669684D01*
X20946720Y-13669684D02*
X20908625Y-13669684D01*
X20908625Y-13669684D02*
X20889577Y-13660160D01*
X20889577Y-13660160D02*
X20880053Y-13641112D01*
X20880053Y-13641112D02*
X20880053Y-13564922D01*
X20880053Y-13564922D02*
X20889577Y-13545874D01*
X20889577Y-13545874D02*
X20908625Y-13536350D01*
X20908625Y-13536350D02*
X20946720Y-13536350D01*
X20946720Y-13536350D02*
X20965768Y-13545874D01*
X20965768Y-13545874D02*
X20975292Y-13564922D01*
X20975292Y-13564922D02*
X20975292Y-13583969D01*
X20975292Y-13583969D02*
X20880053Y-13603017D01*
X21051482Y-13660160D02*
X21070530Y-13669684D01*
X21070530Y-13669684D02*
X21108625Y-13669684D01*
X21108625Y-13669684D02*
X21127673Y-13660160D01*
X21127673Y-13660160D02*
X21137196Y-13641112D01*
X21137196Y-13641112D02*
X21137196Y-13631588D01*
X21137196Y-13631588D02*
X21127673Y-13612541D01*
X21127673Y-13612541D02*
X21108625Y-13603017D01*
X21108625Y-13603017D02*
X21080053Y-13603017D01*
X21080053Y-13603017D02*
X21061006Y-13593493D01*
X21061006Y-13593493D02*
X21051482Y-13574446D01*
X21051482Y-13574446D02*
X21051482Y-13564922D01*
X21051482Y-13564922D02*
X21061006Y-13545874D01*
X21061006Y-13545874D02*
X21080053Y-13536350D01*
X21080053Y-13536350D02*
X21108625Y-13536350D01*
X21108625Y-13536350D02*
X21127673Y-13545874D01*
X21375292Y-13593493D02*
X21527673Y-13593493D01*
X21451482Y-13669684D02*
X21451482Y-13517303D01*
X21861006Y-13536350D02*
X21861006Y-13669684D01*
X21813387Y-13460160D02*
X21765768Y-13603017D01*
X21765768Y-13603017D02*
X21889577Y-13603017D01*
X22108625Y-13660160D02*
X22127673Y-13669684D01*
X22127673Y-13669684D02*
X22165768Y-13669684D01*
X22165768Y-13669684D02*
X22184816Y-13660160D01*
X22184816Y-13660160D02*
X22194339Y-13641112D01*
X22194339Y-13641112D02*
X22194339Y-13631588D01*
X22194339Y-13631588D02*
X22184816Y-13612541D01*
X22184816Y-13612541D02*
X22165768Y-13603017D01*
X22165768Y-13603017D02*
X22137196Y-13603017D01*
X22137196Y-13603017D02*
X22118149Y-13593493D01*
X22118149Y-13593493D02*
X22108625Y-13574446D01*
X22108625Y-13574446D02*
X22108625Y-13564922D01*
X22108625Y-13564922D02*
X22118149Y-13545874D01*
X22118149Y-13545874D02*
X22137196Y-13536350D01*
X22137196Y-13536350D02*
X22165768Y-13536350D01*
X22165768Y-13536350D02*
X22184816Y-13545874D01*
X22308625Y-13669684D02*
X22289577Y-13660160D01*
X22289577Y-13660160D02*
X22280054Y-13641112D01*
X22280054Y-13641112D02*
X22280054Y-13469684D01*
X22413387Y-13669684D02*
X22394339Y-13660160D01*
X22394339Y-13660160D02*
X22384815Y-13650636D01*
X22384815Y-13650636D02*
X22375292Y-13631588D01*
X22375292Y-13631588D02*
X22375292Y-13574446D01*
X22375292Y-13574446D02*
X22384815Y-13555398D01*
X22384815Y-13555398D02*
X22394339Y-13545874D01*
X22394339Y-13545874D02*
X22413387Y-13536350D01*
X22413387Y-13536350D02*
X22441958Y-13536350D01*
X22441958Y-13536350D02*
X22461006Y-13545874D01*
X22461006Y-13545874D02*
X22470530Y-13555398D01*
X22470530Y-13555398D02*
X22480054Y-13574446D01*
X22480054Y-13574446D02*
X22480054Y-13631588D01*
X22480054Y-13631588D02*
X22470530Y-13650636D01*
X22470530Y-13650636D02*
X22461006Y-13660160D01*
X22461006Y-13660160D02*
X22441958Y-13669684D01*
X22441958Y-13669684D02*
X22413387Y-13669684D01*
X22537196Y-13536350D02*
X22613387Y-13536350D01*
X22565768Y-13469684D02*
X22565768Y-13641112D01*
X22565768Y-13641112D02*
X22575292Y-13660160D01*
X22575292Y-13660160D02*
X22594339Y-13669684D01*
X22594339Y-13669684D02*
X22613387Y-13669684D01*
X22670530Y-13660160D02*
X22689577Y-13669684D01*
X22689577Y-13669684D02*
X22727673Y-13669684D01*
X22727673Y-13669684D02*
X22746720Y-13660160D01*
X22746720Y-13660160D02*
X22756244Y-13641112D01*
X22756244Y-13641112D02*
X22756244Y-13631588D01*
X22756244Y-13631588D02*
X22746720Y-13612541D01*
X22746720Y-13612541D02*
X22727673Y-13603017D01*
X22727673Y-13603017D02*
X22699101Y-13603017D01*
X22699101Y-13603017D02*
X22680054Y-13593493D01*
X22680054Y-13593493D02*
X22670530Y-13574446D01*
X22670530Y-13574446D02*
X22670530Y-13564922D01*
X22670530Y-13564922D02*
X22680054Y-13545874D01*
X22680054Y-13545874D02*
X22699101Y-13536350D01*
X22699101Y-13536350D02*
X22727673Y-13536350D01*
X22727673Y-13536350D02*
X22746720Y-13545874D01*
X22822911Y-13745874D02*
X22832435Y-13736350D01*
X22832435Y-13736350D02*
X22851482Y-13707779D01*
X22851482Y-13707779D02*
X22861006Y-13688731D01*
X22861006Y-13688731D02*
X22870530Y-13660160D01*
X22870530Y-13660160D02*
X22880054Y-13612541D01*
X22880054Y-13612541D02*
X22880054Y-13574446D01*
X22880054Y-13574446D02*
X22870530Y-13526827D01*
X22870530Y-13526827D02*
X22861006Y-13498255D01*
X22861006Y-13498255D02*
X22851482Y-13479208D01*
X22851482Y-13479208D02*
X22832435Y-13450636D01*
X22832435Y-13450636D02*
X22822911Y-13441112D01*
D10*
X16378800Y-13892200D02*
X16428800Y-13842200D01*
X16378800Y-13792200D01*
X16328800Y-13842200D01*
X16378800Y-13892200D01*
D11*
X16794339Y-13933684D02*
X16680053Y-13933684D01*
X16737196Y-13933684D02*
X16737196Y-13733684D01*
X16737196Y-13733684D02*
X16718148Y-13762255D01*
X16718148Y-13762255D02*
X16699101Y-13781303D01*
X16699101Y-13781303D02*
X16680053Y-13790827D01*
X16880053Y-13914636D02*
X16889577Y-13924160D01*
X16889577Y-13924160D02*
X16880053Y-13933684D01*
X16880053Y-13933684D02*
X16870529Y-13924160D01*
X16870529Y-13924160D02*
X16880053Y-13914636D01*
X16880053Y-13914636D02*
X16880053Y-13933684D01*
X17013386Y-13733684D02*
X17032434Y-13733684D01*
X17032434Y-13733684D02*
X17051482Y-13743208D01*
X17051482Y-13743208D02*
X17061005Y-13752731D01*
X17061005Y-13752731D02*
X17070529Y-13771779D01*
X17070529Y-13771779D02*
X17080053Y-13809874D01*
X17080053Y-13809874D02*
X17080053Y-13857493D01*
X17080053Y-13857493D02*
X17070529Y-13895588D01*
X17070529Y-13895588D02*
X17061005Y-13914636D01*
X17061005Y-13914636D02*
X17051482Y-13924160D01*
X17051482Y-13924160D02*
X17032434Y-13933684D01*
X17032434Y-13933684D02*
X17013386Y-13933684D01*
X17013386Y-13933684D02*
X16994339Y-13924160D01*
X16994339Y-13924160D02*
X16984815Y-13914636D01*
X16984815Y-13914636D02*
X16975291Y-13895588D01*
X16975291Y-13895588D02*
X16965767Y-13857493D01*
X16965767Y-13857493D02*
X16965767Y-13809874D01*
X16965767Y-13809874D02*
X16975291Y-13771779D01*
X16975291Y-13771779D02*
X16984815Y-13752731D01*
X16984815Y-13752731D02*
X16994339Y-13743208D01*
X16994339Y-13743208D02*
X17013386Y-13733684D01*
X17203863Y-13733684D02*
X17222910Y-13733684D01*
X17222910Y-13733684D02*
X17241958Y-13743208D01*
X17241958Y-13743208D02*
X17251482Y-13752731D01*
X17251482Y-13752731D02*
X17261005Y-13771779D01*
X17261005Y-13771779D02*
X17270529Y-13809874D01*
X17270529Y-13809874D02*
X17270529Y-13857493D01*
X17270529Y-13857493D02*
X17261005Y-13895588D01*
X17261005Y-13895588D02*
X17251482Y-13914636D01*
X17251482Y-13914636D02*
X17241958Y-13924160D01*
X17241958Y-13924160D02*
X17222910Y-13933684D01*
X17222910Y-13933684D02*
X17203863Y-13933684D01*
X17203863Y-13933684D02*
X17184815Y-13924160D01*
X17184815Y-13924160D02*
X17175291Y-13914636D01*
X17175291Y-13914636D02*
X17165767Y-13895588D01*
X17165767Y-13895588D02*
X17156244Y-13857493D01*
X17156244Y-13857493D02*
X17156244Y-13809874D01*
X17156244Y-13809874D02*
X17165767Y-13771779D01*
X17165767Y-13771779D02*
X17175291Y-13752731D01*
X17175291Y-13752731D02*
X17184815Y-13743208D01*
X17184815Y-13743208D02*
X17203863Y-13733684D01*
X17394339Y-13733684D02*
X17413386Y-13733684D01*
X17413386Y-13733684D02*
X17432434Y-13743208D01*
X17432434Y-13743208D02*
X17441958Y-13752731D01*
X17441958Y-13752731D02*
X17451482Y-13771779D01*
X17451482Y-13771779D02*
X17461005Y-13809874D01*
X17461005Y-13809874D02*
X17461005Y-13857493D01*
X17461005Y-13857493D02*
X17451482Y-13895588D01*
X17451482Y-13895588D02*
X17441958Y-13914636D01*
X17441958Y-13914636D02*
X17432434Y-13924160D01*
X17432434Y-13924160D02*
X17413386Y-13933684D01*
X17413386Y-13933684D02*
X17394339Y-13933684D01*
X17394339Y-13933684D02*
X17375291Y-13924160D01*
X17375291Y-13924160D02*
X17365767Y-13914636D01*
X17365767Y-13914636D02*
X17356244Y-13895588D01*
X17356244Y-13895588D02*
X17346720Y-13857493D01*
X17346720Y-13857493D02*
X17346720Y-13809874D01*
X17346720Y-13809874D02*
X17356244Y-13771779D01*
X17356244Y-13771779D02*
X17365767Y-13752731D01*
X17365767Y-13752731D02*
X17375291Y-13743208D01*
X17375291Y-13743208D02*
X17394339Y-13733684D01*
X17546720Y-13933684D02*
X17546720Y-13800350D01*
X17546720Y-13819398D02*
X17556244Y-13809874D01*
X17556244Y-13809874D02*
X17575291Y-13800350D01*
X17575291Y-13800350D02*
X17603863Y-13800350D01*
X17603863Y-13800350D02*
X17622910Y-13809874D01*
X17622910Y-13809874D02*
X17632434Y-13828922D01*
X17632434Y-13828922D02*
X17632434Y-13933684D01*
X17632434Y-13828922D02*
X17641958Y-13809874D01*
X17641958Y-13809874D02*
X17661005Y-13800350D01*
X17661005Y-13800350D02*
X17689577Y-13800350D01*
X17689577Y-13800350D02*
X17708625Y-13809874D01*
X17708625Y-13809874D02*
X17718148Y-13828922D01*
X17718148Y-13828922D02*
X17718148Y-13933684D01*
X17813386Y-13933684D02*
X17813386Y-13800350D01*
X17813386Y-13819398D02*
X17822910Y-13809874D01*
X17822910Y-13809874D02*
X17841958Y-13800350D01*
X17841958Y-13800350D02*
X17870529Y-13800350D01*
X17870529Y-13800350D02*
X17889577Y-13809874D01*
X17889577Y-13809874D02*
X17899101Y-13828922D01*
X17899101Y-13828922D02*
X17899101Y-13933684D01*
X17899101Y-13828922D02*
X17908625Y-13809874D01*
X17908625Y-13809874D02*
X17927672Y-13800350D01*
X17927672Y-13800350D02*
X17956244Y-13800350D01*
X17956244Y-13800350D02*
X17975291Y-13809874D01*
X17975291Y-13809874D02*
X17984815Y-13828922D01*
X17984815Y-13828922D02*
X17984815Y-13933684D01*
X18375291Y-13724160D02*
X18203863Y-13981303D01*
X18632434Y-13733684D02*
X18651482Y-13733684D01*
X18651482Y-13733684D02*
X18670529Y-13743208D01*
X18670529Y-13743208D02*
X18680053Y-13752731D01*
X18680053Y-13752731D02*
X18689577Y-13771779D01*
X18689577Y-13771779D02*
X18699101Y-13809874D01*
X18699101Y-13809874D02*
X18699101Y-13857493D01*
X18699101Y-13857493D02*
X18689577Y-13895588D01*
X18689577Y-13895588D02*
X18680053Y-13914636D01*
X18680053Y-13914636D02*
X18670529Y-13924160D01*
X18670529Y-13924160D02*
X18651482Y-13933684D01*
X18651482Y-13933684D02*
X18632434Y-13933684D01*
X18632434Y-13933684D02*
X18613387Y-13924160D01*
X18613387Y-13924160D02*
X18603863Y-13914636D01*
X18603863Y-13914636D02*
X18594339Y-13895588D01*
X18594339Y-13895588D02*
X18584815Y-13857493D01*
X18584815Y-13857493D02*
X18584815Y-13809874D01*
X18584815Y-13809874D02*
X18594339Y-13771779D01*
X18594339Y-13771779D02*
X18603863Y-13752731D01*
X18603863Y-13752731D02*
X18613387Y-13743208D01*
X18613387Y-13743208D02*
X18632434Y-13733684D01*
X18784815Y-13914636D02*
X18794339Y-13924160D01*
X18794339Y-13924160D02*
X18784815Y-13933684D01*
X18784815Y-13933684D02*
X18775291Y-13924160D01*
X18775291Y-13924160D02*
X18784815Y-13914636D01*
X18784815Y-13914636D02*
X18784815Y-13933684D01*
X18918148Y-13733684D02*
X18937196Y-13733684D01*
X18937196Y-13733684D02*
X18956244Y-13743208D01*
X18956244Y-13743208D02*
X18965768Y-13752731D01*
X18965768Y-13752731D02*
X18975291Y-13771779D01*
X18975291Y-13771779D02*
X18984815Y-13809874D01*
X18984815Y-13809874D02*
X18984815Y-13857493D01*
X18984815Y-13857493D02*
X18975291Y-13895588D01*
X18975291Y-13895588D02*
X18965768Y-13914636D01*
X18965768Y-13914636D02*
X18956244Y-13924160D01*
X18956244Y-13924160D02*
X18937196Y-13933684D01*
X18937196Y-13933684D02*
X18918148Y-13933684D01*
X18918148Y-13933684D02*
X18899101Y-13924160D01*
X18899101Y-13924160D02*
X18889577Y-13914636D01*
X18889577Y-13914636D02*
X18880053Y-13895588D01*
X18880053Y-13895588D02*
X18870529Y-13857493D01*
X18870529Y-13857493D02*
X18870529Y-13809874D01*
X18870529Y-13809874D02*
X18880053Y-13771779D01*
X18880053Y-13771779D02*
X18889577Y-13752731D01*
X18889577Y-13752731D02*
X18899101Y-13743208D01*
X18899101Y-13743208D02*
X18918148Y-13733684D01*
X19051482Y-13733684D02*
X19175291Y-13733684D01*
X19175291Y-13733684D02*
X19108625Y-13809874D01*
X19108625Y-13809874D02*
X19137196Y-13809874D01*
X19137196Y-13809874D02*
X19156244Y-13819398D01*
X19156244Y-13819398D02*
X19165768Y-13828922D01*
X19165768Y-13828922D02*
X19175291Y-13847969D01*
X19175291Y-13847969D02*
X19175291Y-13895588D01*
X19175291Y-13895588D02*
X19165768Y-13914636D01*
X19165768Y-13914636D02*
X19156244Y-13924160D01*
X19156244Y-13924160D02*
X19137196Y-13933684D01*
X19137196Y-13933684D02*
X19080053Y-13933684D01*
X19080053Y-13933684D02*
X19061006Y-13924160D01*
X19061006Y-13924160D02*
X19051482Y-13914636D01*
X19270529Y-13933684D02*
X19308625Y-13933684D01*
X19308625Y-13933684D02*
X19327672Y-13924160D01*
X19327672Y-13924160D02*
X19337196Y-13914636D01*
X19337196Y-13914636D02*
X19356244Y-13886065D01*
X19356244Y-13886065D02*
X19365768Y-13847969D01*
X19365768Y-13847969D02*
X19365768Y-13771779D01*
X19365768Y-13771779D02*
X19356244Y-13752731D01*
X19356244Y-13752731D02*
X19346720Y-13743208D01*
X19346720Y-13743208D02*
X19327672Y-13733684D01*
X19327672Y-13733684D02*
X19289577Y-13733684D01*
X19289577Y-13733684D02*
X19270529Y-13743208D01*
X19270529Y-13743208D02*
X19261006Y-13752731D01*
X19261006Y-13752731D02*
X19251482Y-13771779D01*
X19251482Y-13771779D02*
X19251482Y-13819398D01*
X19251482Y-13819398D02*
X19261006Y-13838446D01*
X19261006Y-13838446D02*
X19270529Y-13847969D01*
X19270529Y-13847969D02*
X19289577Y-13857493D01*
X19289577Y-13857493D02*
X19327672Y-13857493D01*
X19327672Y-13857493D02*
X19346720Y-13847969D01*
X19346720Y-13847969D02*
X19356244Y-13838446D01*
X19356244Y-13838446D02*
X19365768Y-13819398D01*
X19537196Y-13800350D02*
X19537196Y-13933684D01*
X19489577Y-13724160D02*
X19441958Y-13867017D01*
X19441958Y-13867017D02*
X19565768Y-13867017D01*
X19632434Y-13733684D02*
X19632434Y-13771779D01*
X19708625Y-13733684D02*
X19708625Y-13771779D01*
X20003863Y-14009874D02*
X19994339Y-14000350D01*
X19994339Y-14000350D02*
X19975291Y-13971779D01*
X19975291Y-13971779D02*
X19965768Y-13952731D01*
X19965768Y-13952731D02*
X19956244Y-13924160D01*
X19956244Y-13924160D02*
X19946720Y-13876541D01*
X19946720Y-13876541D02*
X19946720Y-13838446D01*
X19946720Y-13838446D02*
X19956244Y-13790827D01*
X19956244Y-13790827D02*
X19965768Y-13762255D01*
X19965768Y-13762255D02*
X19975291Y-13743208D01*
X19975291Y-13743208D02*
X19994339Y-13714636D01*
X19994339Y-13714636D02*
X20003863Y-13705112D01*
X20070530Y-13752731D02*
X20080053Y-13743208D01*
X20080053Y-13743208D02*
X20099101Y-13733684D01*
X20099101Y-13733684D02*
X20146720Y-13733684D01*
X20146720Y-13733684D02*
X20165768Y-13743208D01*
X20165768Y-13743208D02*
X20175291Y-13752731D01*
X20175291Y-13752731D02*
X20184815Y-13771779D01*
X20184815Y-13771779D02*
X20184815Y-13790827D01*
X20184815Y-13790827D02*
X20175291Y-13819398D01*
X20175291Y-13819398D02*
X20061006Y-13933684D01*
X20061006Y-13933684D02*
X20184815Y-13933684D01*
X20422911Y-13933684D02*
X20422911Y-13733684D01*
X20508625Y-13933684D02*
X20508625Y-13828922D01*
X20508625Y-13828922D02*
X20499101Y-13809874D01*
X20499101Y-13809874D02*
X20480053Y-13800350D01*
X20480053Y-13800350D02*
X20451482Y-13800350D01*
X20451482Y-13800350D02*
X20432434Y-13809874D01*
X20432434Y-13809874D02*
X20422911Y-13819398D01*
X20632434Y-13933684D02*
X20613387Y-13924160D01*
X20613387Y-13924160D02*
X20603863Y-13914636D01*
X20603863Y-13914636D02*
X20594339Y-13895588D01*
X20594339Y-13895588D02*
X20594339Y-13838446D01*
X20594339Y-13838446D02*
X20603863Y-13819398D01*
X20603863Y-13819398D02*
X20613387Y-13809874D01*
X20613387Y-13809874D02*
X20632434Y-13800350D01*
X20632434Y-13800350D02*
X20661006Y-13800350D01*
X20661006Y-13800350D02*
X20680053Y-13809874D01*
X20680053Y-13809874D02*
X20689577Y-13819398D01*
X20689577Y-13819398D02*
X20699101Y-13838446D01*
X20699101Y-13838446D02*
X20699101Y-13895588D01*
X20699101Y-13895588D02*
X20689577Y-13914636D01*
X20689577Y-13914636D02*
X20680053Y-13924160D01*
X20680053Y-13924160D02*
X20661006Y-13933684D01*
X20661006Y-13933684D02*
X20632434Y-13933684D01*
X20813387Y-13933684D02*
X20794339Y-13924160D01*
X20794339Y-13924160D02*
X20784815Y-13905112D01*
X20784815Y-13905112D02*
X20784815Y-13733684D01*
X20965768Y-13924160D02*
X20946720Y-13933684D01*
X20946720Y-13933684D02*
X20908625Y-13933684D01*
X20908625Y-13933684D02*
X20889577Y-13924160D01*
X20889577Y-13924160D02*
X20880053Y-13905112D01*
X20880053Y-13905112D02*
X20880053Y-13828922D01*
X20880053Y-13828922D02*
X20889577Y-13809874D01*
X20889577Y-13809874D02*
X20908625Y-13800350D01*
X20908625Y-13800350D02*
X20946720Y-13800350D01*
X20946720Y-13800350D02*
X20965768Y-13809874D01*
X20965768Y-13809874D02*
X20975292Y-13828922D01*
X20975292Y-13828922D02*
X20975292Y-13847969D01*
X20975292Y-13847969D02*
X20880053Y-13867017D01*
X21051482Y-13924160D02*
X21070530Y-13933684D01*
X21070530Y-13933684D02*
X21108625Y-13933684D01*
X21108625Y-13933684D02*
X21127673Y-13924160D01*
X21127673Y-13924160D02*
X21137196Y-13905112D01*
X21137196Y-13905112D02*
X21137196Y-13895588D01*
X21137196Y-13895588D02*
X21127673Y-13876541D01*
X21127673Y-13876541D02*
X21108625Y-13867017D01*
X21108625Y-13867017D02*
X21080053Y-13867017D01*
X21080053Y-13867017D02*
X21061006Y-13857493D01*
X21061006Y-13857493D02*
X21051482Y-13838446D01*
X21051482Y-13838446D02*
X21051482Y-13828922D01*
X21051482Y-13828922D02*
X21061006Y-13809874D01*
X21061006Y-13809874D02*
X21080053Y-13800350D01*
X21080053Y-13800350D02*
X21108625Y-13800350D01*
X21108625Y-13800350D02*
X21127673Y-13809874D01*
X21203863Y-14009874D02*
X21213387Y-14000350D01*
X21213387Y-14000350D02*
X21232434Y-13971779D01*
X21232434Y-13971779D02*
X21241958Y-13952731D01*
X21241958Y-13952731D02*
X21251482Y-13924160D01*
X21251482Y-13924160D02*
X21261006Y-13876541D01*
X21261006Y-13876541D02*
X21261006Y-13838446D01*
X21261006Y-13838446D02*
X21251482Y-13790827D01*
X21251482Y-13790827D02*
X21241958Y-13762255D01*
X21241958Y-13762255D02*
X21232434Y-13743208D01*
X21232434Y-13743208D02*
X21213387Y-13714636D01*
X21213387Y-13714636D02*
X21203863Y-13705112D01*
D15*
X16318800Y-14051200D02*
X16428800Y-14161200D01*
X16428800Y-14051200D02*
X16318800Y-14161200D01*
X16428800Y-14106200D02*
G75*
G03*
X16428800Y-14106200I-55000J0D01*
G01*
D11*
X16794339Y-14197684D02*
X16680053Y-14197684D01*
X16737196Y-14197684D02*
X16737196Y-13997684D01*
X16737196Y-13997684D02*
X16718148Y-14026255D01*
X16718148Y-14026255D02*
X16699101Y-14045303D01*
X16699101Y-14045303D02*
X16680053Y-14054827D01*
X16880053Y-14178636D02*
X16889577Y-14188160D01*
X16889577Y-14188160D02*
X16880053Y-14197684D01*
X16880053Y-14197684D02*
X16870529Y-14188160D01*
X16870529Y-14188160D02*
X16880053Y-14178636D01*
X16880053Y-14178636D02*
X16880053Y-14197684D01*
X17080053Y-14197684D02*
X16965767Y-14197684D01*
X17022910Y-14197684D02*
X17022910Y-13997684D01*
X17022910Y-13997684D02*
X17003863Y-14026255D01*
X17003863Y-14026255D02*
X16984815Y-14045303D01*
X16984815Y-14045303D02*
X16965767Y-14054827D01*
X17203863Y-13997684D02*
X17222910Y-13997684D01*
X17222910Y-13997684D02*
X17241958Y-14007208D01*
X17241958Y-14007208D02*
X17251482Y-14016731D01*
X17251482Y-14016731D02*
X17261005Y-14035779D01*
X17261005Y-14035779D02*
X17270529Y-14073874D01*
X17270529Y-14073874D02*
X17270529Y-14121493D01*
X17270529Y-14121493D02*
X17261005Y-14159588D01*
X17261005Y-14159588D02*
X17251482Y-14178636D01*
X17251482Y-14178636D02*
X17241958Y-14188160D01*
X17241958Y-14188160D02*
X17222910Y-14197684D01*
X17222910Y-14197684D02*
X17203863Y-14197684D01*
X17203863Y-14197684D02*
X17184815Y-14188160D01*
X17184815Y-14188160D02*
X17175291Y-14178636D01*
X17175291Y-14178636D02*
X17165767Y-14159588D01*
X17165767Y-14159588D02*
X17156244Y-14121493D01*
X17156244Y-14121493D02*
X17156244Y-14073874D01*
X17156244Y-14073874D02*
X17165767Y-14035779D01*
X17165767Y-14035779D02*
X17175291Y-14016731D01*
X17175291Y-14016731D02*
X17184815Y-14007208D01*
X17184815Y-14007208D02*
X17203863Y-13997684D01*
X17394339Y-13997684D02*
X17413386Y-13997684D01*
X17413386Y-13997684D02*
X17432434Y-14007208D01*
X17432434Y-14007208D02*
X17441958Y-14016731D01*
X17441958Y-14016731D02*
X17451482Y-14035779D01*
X17451482Y-14035779D02*
X17461005Y-14073874D01*
X17461005Y-14073874D02*
X17461005Y-14121493D01*
X17461005Y-14121493D02*
X17451482Y-14159588D01*
X17451482Y-14159588D02*
X17441958Y-14178636D01*
X17441958Y-14178636D02*
X17432434Y-14188160D01*
X17432434Y-14188160D02*
X17413386Y-14197684D01*
X17413386Y-14197684D02*
X17394339Y-14197684D01*
X17394339Y-14197684D02*
X17375291Y-14188160D01*
X17375291Y-14188160D02*
X17365767Y-14178636D01*
X17365767Y-14178636D02*
X17356244Y-14159588D01*
X17356244Y-14159588D02*
X17346720Y-14121493D01*
X17346720Y-14121493D02*
X17346720Y-14073874D01*
X17346720Y-14073874D02*
X17356244Y-14035779D01*
X17356244Y-14035779D02*
X17365767Y-14016731D01*
X17365767Y-14016731D02*
X17375291Y-14007208D01*
X17375291Y-14007208D02*
X17394339Y-13997684D01*
X17546720Y-14197684D02*
X17546720Y-14064350D01*
X17546720Y-14083398D02*
X17556244Y-14073874D01*
X17556244Y-14073874D02*
X17575291Y-14064350D01*
X17575291Y-14064350D02*
X17603863Y-14064350D01*
X17603863Y-14064350D02*
X17622910Y-14073874D01*
X17622910Y-14073874D02*
X17632434Y-14092922D01*
X17632434Y-14092922D02*
X17632434Y-14197684D01*
X17632434Y-14092922D02*
X17641958Y-14073874D01*
X17641958Y-14073874D02*
X17661005Y-14064350D01*
X17661005Y-14064350D02*
X17689577Y-14064350D01*
X17689577Y-14064350D02*
X17708625Y-14073874D01*
X17708625Y-14073874D02*
X17718148Y-14092922D01*
X17718148Y-14092922D02*
X17718148Y-14197684D01*
X17813386Y-14197684D02*
X17813386Y-14064350D01*
X17813386Y-14083398D02*
X17822910Y-14073874D01*
X17822910Y-14073874D02*
X17841958Y-14064350D01*
X17841958Y-14064350D02*
X17870529Y-14064350D01*
X17870529Y-14064350D02*
X17889577Y-14073874D01*
X17889577Y-14073874D02*
X17899101Y-14092922D01*
X17899101Y-14092922D02*
X17899101Y-14197684D01*
X17899101Y-14092922D02*
X17908625Y-14073874D01*
X17908625Y-14073874D02*
X17927672Y-14064350D01*
X17927672Y-14064350D02*
X17956244Y-14064350D01*
X17956244Y-14064350D02*
X17975291Y-14073874D01*
X17975291Y-14073874D02*
X17984815Y-14092922D01*
X17984815Y-14092922D02*
X17984815Y-14197684D01*
X18375291Y-13988160D02*
X18203863Y-14245303D01*
X18632434Y-13997684D02*
X18651482Y-13997684D01*
X18651482Y-13997684D02*
X18670529Y-14007208D01*
X18670529Y-14007208D02*
X18680053Y-14016731D01*
X18680053Y-14016731D02*
X18689577Y-14035779D01*
X18689577Y-14035779D02*
X18699101Y-14073874D01*
X18699101Y-14073874D02*
X18699101Y-14121493D01*
X18699101Y-14121493D02*
X18689577Y-14159588D01*
X18689577Y-14159588D02*
X18680053Y-14178636D01*
X18680053Y-14178636D02*
X18670529Y-14188160D01*
X18670529Y-14188160D02*
X18651482Y-14197684D01*
X18651482Y-14197684D02*
X18632434Y-14197684D01*
X18632434Y-14197684D02*
X18613387Y-14188160D01*
X18613387Y-14188160D02*
X18603863Y-14178636D01*
X18603863Y-14178636D02*
X18594339Y-14159588D01*
X18594339Y-14159588D02*
X18584815Y-14121493D01*
X18584815Y-14121493D02*
X18584815Y-14073874D01*
X18584815Y-14073874D02*
X18594339Y-14035779D01*
X18594339Y-14035779D02*
X18603863Y-14016731D01*
X18603863Y-14016731D02*
X18613387Y-14007208D01*
X18613387Y-14007208D02*
X18632434Y-13997684D01*
X18784815Y-14178636D02*
X18794339Y-14188160D01*
X18794339Y-14188160D02*
X18784815Y-14197684D01*
X18784815Y-14197684D02*
X18775291Y-14188160D01*
X18775291Y-14188160D02*
X18784815Y-14178636D01*
X18784815Y-14178636D02*
X18784815Y-14197684D01*
X18918148Y-13997684D02*
X18937196Y-13997684D01*
X18937196Y-13997684D02*
X18956244Y-14007208D01*
X18956244Y-14007208D02*
X18965768Y-14016731D01*
X18965768Y-14016731D02*
X18975291Y-14035779D01*
X18975291Y-14035779D02*
X18984815Y-14073874D01*
X18984815Y-14073874D02*
X18984815Y-14121493D01*
X18984815Y-14121493D02*
X18975291Y-14159588D01*
X18975291Y-14159588D02*
X18965768Y-14178636D01*
X18965768Y-14178636D02*
X18956244Y-14188160D01*
X18956244Y-14188160D02*
X18937196Y-14197684D01*
X18937196Y-14197684D02*
X18918148Y-14197684D01*
X18918148Y-14197684D02*
X18899101Y-14188160D01*
X18899101Y-14188160D02*
X18889577Y-14178636D01*
X18889577Y-14178636D02*
X18880053Y-14159588D01*
X18880053Y-14159588D02*
X18870529Y-14121493D01*
X18870529Y-14121493D02*
X18870529Y-14073874D01*
X18870529Y-14073874D02*
X18880053Y-14035779D01*
X18880053Y-14035779D02*
X18889577Y-14016731D01*
X18889577Y-14016731D02*
X18899101Y-14007208D01*
X18899101Y-14007208D02*
X18918148Y-13997684D01*
X19156244Y-14064350D02*
X19156244Y-14197684D01*
X19108625Y-13988160D02*
X19061006Y-14131017D01*
X19061006Y-14131017D02*
X19184815Y-14131017D01*
X19241958Y-13997684D02*
X19365768Y-13997684D01*
X19365768Y-13997684D02*
X19299101Y-14073874D01*
X19299101Y-14073874D02*
X19327672Y-14073874D01*
X19327672Y-14073874D02*
X19346720Y-14083398D01*
X19346720Y-14083398D02*
X19356244Y-14092922D01*
X19356244Y-14092922D02*
X19365768Y-14111969D01*
X19365768Y-14111969D02*
X19365768Y-14159588D01*
X19365768Y-14159588D02*
X19356244Y-14178636D01*
X19356244Y-14178636D02*
X19346720Y-14188160D01*
X19346720Y-14188160D02*
X19327672Y-14197684D01*
X19327672Y-14197684D02*
X19270529Y-14197684D01*
X19270529Y-14197684D02*
X19251482Y-14188160D01*
X19251482Y-14188160D02*
X19241958Y-14178636D01*
X19432434Y-13997684D02*
X19556244Y-13997684D01*
X19556244Y-13997684D02*
X19489577Y-14073874D01*
X19489577Y-14073874D02*
X19518149Y-14073874D01*
X19518149Y-14073874D02*
X19537196Y-14083398D01*
X19537196Y-14083398D02*
X19546720Y-14092922D01*
X19546720Y-14092922D02*
X19556244Y-14111969D01*
X19556244Y-14111969D02*
X19556244Y-14159588D01*
X19556244Y-14159588D02*
X19546720Y-14178636D01*
X19546720Y-14178636D02*
X19537196Y-14188160D01*
X19537196Y-14188160D02*
X19518149Y-14197684D01*
X19518149Y-14197684D02*
X19461006Y-14197684D01*
X19461006Y-14197684D02*
X19441958Y-14188160D01*
X19441958Y-14188160D02*
X19432434Y-14178636D01*
X19632434Y-13997684D02*
X19632434Y-14035779D01*
X19708625Y-13997684D02*
X19708625Y-14035779D01*
X20003863Y-14273874D02*
X19994339Y-14264350D01*
X19994339Y-14264350D02*
X19975291Y-14235779D01*
X19975291Y-14235779D02*
X19965768Y-14216731D01*
X19965768Y-14216731D02*
X19956244Y-14188160D01*
X19956244Y-14188160D02*
X19946720Y-14140541D01*
X19946720Y-14140541D02*
X19946720Y-14102446D01*
X19946720Y-14102446D02*
X19956244Y-14054827D01*
X19956244Y-14054827D02*
X19965768Y-14026255D01*
X19965768Y-14026255D02*
X19975291Y-14007208D01*
X19975291Y-14007208D02*
X19994339Y-13978636D01*
X19994339Y-13978636D02*
X20003863Y-13969112D01*
X20165768Y-13997684D02*
X20127672Y-13997684D01*
X20127672Y-13997684D02*
X20108625Y-14007208D01*
X20108625Y-14007208D02*
X20099101Y-14016731D01*
X20099101Y-14016731D02*
X20080053Y-14045303D01*
X20080053Y-14045303D02*
X20070530Y-14083398D01*
X20070530Y-14083398D02*
X20070530Y-14159588D01*
X20070530Y-14159588D02*
X20080053Y-14178636D01*
X20080053Y-14178636D02*
X20089577Y-14188160D01*
X20089577Y-14188160D02*
X20108625Y-14197684D01*
X20108625Y-14197684D02*
X20146720Y-14197684D01*
X20146720Y-14197684D02*
X20165768Y-14188160D01*
X20165768Y-14188160D02*
X20175291Y-14178636D01*
X20175291Y-14178636D02*
X20184815Y-14159588D01*
X20184815Y-14159588D02*
X20184815Y-14111969D01*
X20184815Y-14111969D02*
X20175291Y-14092922D01*
X20175291Y-14092922D02*
X20165768Y-14083398D01*
X20165768Y-14083398D02*
X20146720Y-14073874D01*
X20146720Y-14073874D02*
X20108625Y-14073874D01*
X20108625Y-14073874D02*
X20089577Y-14083398D01*
X20089577Y-14083398D02*
X20080053Y-14092922D01*
X20080053Y-14092922D02*
X20070530Y-14111969D01*
X20422911Y-14197684D02*
X20422911Y-13997684D01*
X20508625Y-14197684D02*
X20508625Y-14092922D01*
X20508625Y-14092922D02*
X20499101Y-14073874D01*
X20499101Y-14073874D02*
X20480053Y-14064350D01*
X20480053Y-14064350D02*
X20451482Y-14064350D01*
X20451482Y-14064350D02*
X20432434Y-14073874D01*
X20432434Y-14073874D02*
X20422911Y-14083398D01*
X20632434Y-14197684D02*
X20613387Y-14188160D01*
X20613387Y-14188160D02*
X20603863Y-14178636D01*
X20603863Y-14178636D02*
X20594339Y-14159588D01*
X20594339Y-14159588D02*
X20594339Y-14102446D01*
X20594339Y-14102446D02*
X20603863Y-14083398D01*
X20603863Y-14083398D02*
X20613387Y-14073874D01*
X20613387Y-14073874D02*
X20632434Y-14064350D01*
X20632434Y-14064350D02*
X20661006Y-14064350D01*
X20661006Y-14064350D02*
X20680053Y-14073874D01*
X20680053Y-14073874D02*
X20689577Y-14083398D01*
X20689577Y-14083398D02*
X20699101Y-14102446D01*
X20699101Y-14102446D02*
X20699101Y-14159588D01*
X20699101Y-14159588D02*
X20689577Y-14178636D01*
X20689577Y-14178636D02*
X20680053Y-14188160D01*
X20680053Y-14188160D02*
X20661006Y-14197684D01*
X20661006Y-14197684D02*
X20632434Y-14197684D01*
X20813387Y-14197684D02*
X20794339Y-14188160D01*
X20794339Y-14188160D02*
X20784815Y-14169112D01*
X20784815Y-14169112D02*
X20784815Y-13997684D01*
X20965768Y-14188160D02*
X20946720Y-14197684D01*
X20946720Y-14197684D02*
X20908625Y-14197684D01*
X20908625Y-14197684D02*
X20889577Y-14188160D01*
X20889577Y-14188160D02*
X20880053Y-14169112D01*
X20880053Y-14169112D02*
X20880053Y-14092922D01*
X20880053Y-14092922D02*
X20889577Y-14073874D01*
X20889577Y-14073874D02*
X20908625Y-14064350D01*
X20908625Y-14064350D02*
X20946720Y-14064350D01*
X20946720Y-14064350D02*
X20965768Y-14073874D01*
X20965768Y-14073874D02*
X20975292Y-14092922D01*
X20975292Y-14092922D02*
X20975292Y-14111969D01*
X20975292Y-14111969D02*
X20880053Y-14131017D01*
X21051482Y-14188160D02*
X21070530Y-14197684D01*
X21070530Y-14197684D02*
X21108625Y-14197684D01*
X21108625Y-14197684D02*
X21127673Y-14188160D01*
X21127673Y-14188160D02*
X21137196Y-14169112D01*
X21137196Y-14169112D02*
X21137196Y-14159588D01*
X21137196Y-14159588D02*
X21127673Y-14140541D01*
X21127673Y-14140541D02*
X21108625Y-14131017D01*
X21108625Y-14131017D02*
X21080053Y-14131017D01*
X21080053Y-14131017D02*
X21061006Y-14121493D01*
X21061006Y-14121493D02*
X21051482Y-14102446D01*
X21051482Y-14102446D02*
X21051482Y-14092922D01*
X21051482Y-14092922D02*
X21061006Y-14073874D01*
X21061006Y-14073874D02*
X21080053Y-14064350D01*
X21080053Y-14064350D02*
X21108625Y-14064350D01*
X21108625Y-14064350D02*
X21127673Y-14073874D01*
X21203863Y-14273874D02*
X21213387Y-14264350D01*
X21213387Y-14264350D02*
X21232434Y-14235779D01*
X21232434Y-14235779D02*
X21241958Y-14216731D01*
X21241958Y-14216731D02*
X21251482Y-14188160D01*
X21251482Y-14188160D02*
X21261006Y-14140541D01*
X21261006Y-14140541D02*
X21261006Y-14102446D01*
X21261006Y-14102446D02*
X21251482Y-14054827D01*
X21251482Y-14054827D02*
X21241958Y-14026255D01*
X21241958Y-14026255D02*
X21232434Y-14007208D01*
X21232434Y-14007208D02*
X21213387Y-13978636D01*
X21213387Y-13978636D02*
X21203863Y-13969112D01*
D16*
X16278800Y-14295200D02*
X16428800Y-14445200D01*
X16428800Y-14295200D02*
X16278800Y-14445200D01*
X16353800Y-14295200D02*
X16353800Y-14445200D01*
X16278800Y-14370200D02*
X16428800Y-14370200D01*
D11*
X16794339Y-14461684D02*
X16680053Y-14461684D01*
X16737196Y-14461684D02*
X16737196Y-14261684D01*
X16737196Y-14261684D02*
X16718148Y-14290255D01*
X16718148Y-14290255D02*
X16699101Y-14309303D01*
X16699101Y-14309303D02*
X16680053Y-14318827D01*
X16880053Y-14442636D02*
X16889577Y-14452160D01*
X16889577Y-14452160D02*
X16880053Y-14461684D01*
X16880053Y-14461684D02*
X16870529Y-14452160D01*
X16870529Y-14452160D02*
X16880053Y-14442636D01*
X16880053Y-14442636D02*
X16880053Y-14461684D01*
X17070529Y-14261684D02*
X16975291Y-14261684D01*
X16975291Y-14261684D02*
X16965767Y-14356922D01*
X16965767Y-14356922D02*
X16975291Y-14347398D01*
X16975291Y-14347398D02*
X16994339Y-14337874D01*
X16994339Y-14337874D02*
X17041958Y-14337874D01*
X17041958Y-14337874D02*
X17061005Y-14347398D01*
X17061005Y-14347398D02*
X17070529Y-14356922D01*
X17070529Y-14356922D02*
X17080053Y-14375969D01*
X17080053Y-14375969D02*
X17080053Y-14423588D01*
X17080053Y-14423588D02*
X17070529Y-14442636D01*
X17070529Y-14442636D02*
X17061005Y-14452160D01*
X17061005Y-14452160D02*
X17041958Y-14461684D01*
X17041958Y-14461684D02*
X16994339Y-14461684D01*
X16994339Y-14461684D02*
X16975291Y-14452160D01*
X16975291Y-14452160D02*
X16965767Y-14442636D01*
X17203863Y-14261684D02*
X17222910Y-14261684D01*
X17222910Y-14261684D02*
X17241958Y-14271208D01*
X17241958Y-14271208D02*
X17251482Y-14280731D01*
X17251482Y-14280731D02*
X17261005Y-14299779D01*
X17261005Y-14299779D02*
X17270529Y-14337874D01*
X17270529Y-14337874D02*
X17270529Y-14385493D01*
X17270529Y-14385493D02*
X17261005Y-14423588D01*
X17261005Y-14423588D02*
X17251482Y-14442636D01*
X17251482Y-14442636D02*
X17241958Y-14452160D01*
X17241958Y-14452160D02*
X17222910Y-14461684D01*
X17222910Y-14461684D02*
X17203863Y-14461684D01*
X17203863Y-14461684D02*
X17184815Y-14452160D01*
X17184815Y-14452160D02*
X17175291Y-14442636D01*
X17175291Y-14442636D02*
X17165767Y-14423588D01*
X17165767Y-14423588D02*
X17156244Y-14385493D01*
X17156244Y-14385493D02*
X17156244Y-14337874D01*
X17156244Y-14337874D02*
X17165767Y-14299779D01*
X17165767Y-14299779D02*
X17175291Y-14280731D01*
X17175291Y-14280731D02*
X17184815Y-14271208D01*
X17184815Y-14271208D02*
X17203863Y-14261684D01*
X17394339Y-14261684D02*
X17413386Y-14261684D01*
X17413386Y-14261684D02*
X17432434Y-14271208D01*
X17432434Y-14271208D02*
X17441958Y-14280731D01*
X17441958Y-14280731D02*
X17451482Y-14299779D01*
X17451482Y-14299779D02*
X17461005Y-14337874D01*
X17461005Y-14337874D02*
X17461005Y-14385493D01*
X17461005Y-14385493D02*
X17451482Y-14423588D01*
X17451482Y-14423588D02*
X17441958Y-14442636D01*
X17441958Y-14442636D02*
X17432434Y-14452160D01*
X17432434Y-14452160D02*
X17413386Y-14461684D01*
X17413386Y-14461684D02*
X17394339Y-14461684D01*
X17394339Y-14461684D02*
X17375291Y-14452160D01*
X17375291Y-14452160D02*
X17365767Y-14442636D01*
X17365767Y-14442636D02*
X17356244Y-14423588D01*
X17356244Y-14423588D02*
X17346720Y-14385493D01*
X17346720Y-14385493D02*
X17346720Y-14337874D01*
X17346720Y-14337874D02*
X17356244Y-14299779D01*
X17356244Y-14299779D02*
X17365767Y-14280731D01*
X17365767Y-14280731D02*
X17375291Y-14271208D01*
X17375291Y-14271208D02*
X17394339Y-14261684D01*
X17546720Y-14461684D02*
X17546720Y-14328350D01*
X17546720Y-14347398D02*
X17556244Y-14337874D01*
X17556244Y-14337874D02*
X17575291Y-14328350D01*
X17575291Y-14328350D02*
X17603863Y-14328350D01*
X17603863Y-14328350D02*
X17622910Y-14337874D01*
X17622910Y-14337874D02*
X17632434Y-14356922D01*
X17632434Y-14356922D02*
X17632434Y-14461684D01*
X17632434Y-14356922D02*
X17641958Y-14337874D01*
X17641958Y-14337874D02*
X17661005Y-14328350D01*
X17661005Y-14328350D02*
X17689577Y-14328350D01*
X17689577Y-14328350D02*
X17708625Y-14337874D01*
X17708625Y-14337874D02*
X17718148Y-14356922D01*
X17718148Y-14356922D02*
X17718148Y-14461684D01*
X17813386Y-14461684D02*
X17813386Y-14328350D01*
X17813386Y-14347398D02*
X17822910Y-14337874D01*
X17822910Y-14337874D02*
X17841958Y-14328350D01*
X17841958Y-14328350D02*
X17870529Y-14328350D01*
X17870529Y-14328350D02*
X17889577Y-14337874D01*
X17889577Y-14337874D02*
X17899101Y-14356922D01*
X17899101Y-14356922D02*
X17899101Y-14461684D01*
X17899101Y-14356922D02*
X17908625Y-14337874D01*
X17908625Y-14337874D02*
X17927672Y-14328350D01*
X17927672Y-14328350D02*
X17956244Y-14328350D01*
X17956244Y-14328350D02*
X17975291Y-14337874D01*
X17975291Y-14337874D02*
X17984815Y-14356922D01*
X17984815Y-14356922D02*
X17984815Y-14461684D01*
X18375291Y-14252160D02*
X18203863Y-14509303D01*
X18632434Y-14261684D02*
X18651482Y-14261684D01*
X18651482Y-14261684D02*
X18670529Y-14271208D01*
X18670529Y-14271208D02*
X18680053Y-14280731D01*
X18680053Y-14280731D02*
X18689577Y-14299779D01*
X18689577Y-14299779D02*
X18699101Y-14337874D01*
X18699101Y-14337874D02*
X18699101Y-14385493D01*
X18699101Y-14385493D02*
X18689577Y-14423588D01*
X18689577Y-14423588D02*
X18680053Y-14442636D01*
X18680053Y-14442636D02*
X18670529Y-14452160D01*
X18670529Y-14452160D02*
X18651482Y-14461684D01*
X18651482Y-14461684D02*
X18632434Y-14461684D01*
X18632434Y-14461684D02*
X18613387Y-14452160D01*
X18613387Y-14452160D02*
X18603863Y-14442636D01*
X18603863Y-14442636D02*
X18594339Y-14423588D01*
X18594339Y-14423588D02*
X18584815Y-14385493D01*
X18584815Y-14385493D02*
X18584815Y-14337874D01*
X18584815Y-14337874D02*
X18594339Y-14299779D01*
X18594339Y-14299779D02*
X18603863Y-14280731D01*
X18603863Y-14280731D02*
X18613387Y-14271208D01*
X18613387Y-14271208D02*
X18632434Y-14261684D01*
X18784815Y-14442636D02*
X18794339Y-14452160D01*
X18794339Y-14452160D02*
X18784815Y-14461684D01*
X18784815Y-14461684D02*
X18775291Y-14452160D01*
X18775291Y-14452160D02*
X18784815Y-14442636D01*
X18784815Y-14442636D02*
X18784815Y-14461684D01*
X18918148Y-14261684D02*
X18937196Y-14261684D01*
X18937196Y-14261684D02*
X18956244Y-14271208D01*
X18956244Y-14271208D02*
X18965768Y-14280731D01*
X18965768Y-14280731D02*
X18975291Y-14299779D01*
X18975291Y-14299779D02*
X18984815Y-14337874D01*
X18984815Y-14337874D02*
X18984815Y-14385493D01*
X18984815Y-14385493D02*
X18975291Y-14423588D01*
X18975291Y-14423588D02*
X18965768Y-14442636D01*
X18965768Y-14442636D02*
X18956244Y-14452160D01*
X18956244Y-14452160D02*
X18937196Y-14461684D01*
X18937196Y-14461684D02*
X18918148Y-14461684D01*
X18918148Y-14461684D02*
X18899101Y-14452160D01*
X18899101Y-14452160D02*
X18889577Y-14442636D01*
X18889577Y-14442636D02*
X18880053Y-14423588D01*
X18880053Y-14423588D02*
X18870529Y-14385493D01*
X18870529Y-14385493D02*
X18870529Y-14337874D01*
X18870529Y-14337874D02*
X18880053Y-14299779D01*
X18880053Y-14299779D02*
X18889577Y-14280731D01*
X18889577Y-14280731D02*
X18899101Y-14271208D01*
X18899101Y-14271208D02*
X18918148Y-14261684D01*
X19165768Y-14261684D02*
X19070529Y-14261684D01*
X19070529Y-14261684D02*
X19061006Y-14356922D01*
X19061006Y-14356922D02*
X19070529Y-14347398D01*
X19070529Y-14347398D02*
X19089577Y-14337874D01*
X19089577Y-14337874D02*
X19137196Y-14337874D01*
X19137196Y-14337874D02*
X19156244Y-14347398D01*
X19156244Y-14347398D02*
X19165768Y-14356922D01*
X19165768Y-14356922D02*
X19175291Y-14375969D01*
X19175291Y-14375969D02*
X19175291Y-14423588D01*
X19175291Y-14423588D02*
X19165768Y-14442636D01*
X19165768Y-14442636D02*
X19156244Y-14452160D01*
X19156244Y-14452160D02*
X19137196Y-14461684D01*
X19137196Y-14461684D02*
X19089577Y-14461684D01*
X19089577Y-14461684D02*
X19070529Y-14452160D01*
X19070529Y-14452160D02*
X19061006Y-14442636D01*
X19270529Y-14461684D02*
X19308625Y-14461684D01*
X19308625Y-14461684D02*
X19327672Y-14452160D01*
X19327672Y-14452160D02*
X19337196Y-14442636D01*
X19337196Y-14442636D02*
X19356244Y-14414065D01*
X19356244Y-14414065D02*
X19365768Y-14375969D01*
X19365768Y-14375969D02*
X19365768Y-14299779D01*
X19365768Y-14299779D02*
X19356244Y-14280731D01*
X19356244Y-14280731D02*
X19346720Y-14271208D01*
X19346720Y-14271208D02*
X19327672Y-14261684D01*
X19327672Y-14261684D02*
X19289577Y-14261684D01*
X19289577Y-14261684D02*
X19270529Y-14271208D01*
X19270529Y-14271208D02*
X19261006Y-14280731D01*
X19261006Y-14280731D02*
X19251482Y-14299779D01*
X19251482Y-14299779D02*
X19251482Y-14347398D01*
X19251482Y-14347398D02*
X19261006Y-14366446D01*
X19261006Y-14366446D02*
X19270529Y-14375969D01*
X19270529Y-14375969D02*
X19289577Y-14385493D01*
X19289577Y-14385493D02*
X19327672Y-14385493D01*
X19327672Y-14385493D02*
X19346720Y-14375969D01*
X19346720Y-14375969D02*
X19356244Y-14366446D01*
X19356244Y-14366446D02*
X19365768Y-14347398D01*
X19556244Y-14461684D02*
X19441958Y-14461684D01*
X19499101Y-14461684D02*
X19499101Y-14261684D01*
X19499101Y-14261684D02*
X19480053Y-14290255D01*
X19480053Y-14290255D02*
X19461006Y-14309303D01*
X19461006Y-14309303D02*
X19441958Y-14318827D01*
X19632434Y-14261684D02*
X19632434Y-14299779D01*
X19708625Y-14261684D02*
X19708625Y-14299779D01*
X20003863Y-14537874D02*
X19994339Y-14528350D01*
X19994339Y-14528350D02*
X19975291Y-14499779D01*
X19975291Y-14499779D02*
X19965768Y-14480731D01*
X19965768Y-14480731D02*
X19956244Y-14452160D01*
X19956244Y-14452160D02*
X19946720Y-14404541D01*
X19946720Y-14404541D02*
X19946720Y-14366446D01*
X19946720Y-14366446D02*
X19956244Y-14318827D01*
X19956244Y-14318827D02*
X19965768Y-14290255D01*
X19965768Y-14290255D02*
X19975291Y-14271208D01*
X19975291Y-14271208D02*
X19994339Y-14242636D01*
X19994339Y-14242636D02*
X20003863Y-14233112D01*
X20184815Y-14461684D02*
X20070530Y-14461684D01*
X20127672Y-14461684D02*
X20127672Y-14261684D01*
X20127672Y-14261684D02*
X20108625Y-14290255D01*
X20108625Y-14290255D02*
X20089577Y-14309303D01*
X20089577Y-14309303D02*
X20070530Y-14318827D01*
X20422911Y-14461684D02*
X20422911Y-14261684D01*
X20508625Y-14461684D02*
X20508625Y-14356922D01*
X20508625Y-14356922D02*
X20499101Y-14337874D01*
X20499101Y-14337874D02*
X20480053Y-14328350D01*
X20480053Y-14328350D02*
X20451482Y-14328350D01*
X20451482Y-14328350D02*
X20432434Y-14337874D01*
X20432434Y-14337874D02*
X20422911Y-14347398D01*
X20632434Y-14461684D02*
X20613387Y-14452160D01*
X20613387Y-14452160D02*
X20603863Y-14442636D01*
X20603863Y-14442636D02*
X20594339Y-14423588D01*
X20594339Y-14423588D02*
X20594339Y-14366446D01*
X20594339Y-14366446D02*
X20603863Y-14347398D01*
X20603863Y-14347398D02*
X20613387Y-14337874D01*
X20613387Y-14337874D02*
X20632434Y-14328350D01*
X20632434Y-14328350D02*
X20661006Y-14328350D01*
X20661006Y-14328350D02*
X20680053Y-14337874D01*
X20680053Y-14337874D02*
X20689577Y-14347398D01*
X20689577Y-14347398D02*
X20699101Y-14366446D01*
X20699101Y-14366446D02*
X20699101Y-14423588D01*
X20699101Y-14423588D02*
X20689577Y-14442636D01*
X20689577Y-14442636D02*
X20680053Y-14452160D01*
X20680053Y-14452160D02*
X20661006Y-14461684D01*
X20661006Y-14461684D02*
X20632434Y-14461684D01*
X20813387Y-14461684D02*
X20794339Y-14452160D01*
X20794339Y-14452160D02*
X20784815Y-14433112D01*
X20784815Y-14433112D02*
X20784815Y-14261684D01*
X20965768Y-14452160D02*
X20946720Y-14461684D01*
X20946720Y-14461684D02*
X20908625Y-14461684D01*
X20908625Y-14461684D02*
X20889577Y-14452160D01*
X20889577Y-14452160D02*
X20880053Y-14433112D01*
X20880053Y-14433112D02*
X20880053Y-14356922D01*
X20880053Y-14356922D02*
X20889577Y-14337874D01*
X20889577Y-14337874D02*
X20908625Y-14328350D01*
X20908625Y-14328350D02*
X20946720Y-14328350D01*
X20946720Y-14328350D02*
X20965768Y-14337874D01*
X20965768Y-14337874D02*
X20975292Y-14356922D01*
X20975292Y-14356922D02*
X20975292Y-14375969D01*
X20975292Y-14375969D02*
X20880053Y-14395017D01*
X21041958Y-14537874D02*
X21051482Y-14528350D01*
X21051482Y-14528350D02*
X21070530Y-14499779D01*
X21070530Y-14499779D02*
X21080053Y-14480731D01*
X21080053Y-14480731D02*
X21089577Y-14452160D01*
X21089577Y-14452160D02*
X21099101Y-14404541D01*
X21099101Y-14404541D02*
X21099101Y-14366446D01*
X21099101Y-14366446D02*
X21089577Y-14318827D01*
X21089577Y-14318827D02*
X21080053Y-14290255D01*
X21080053Y-14290255D02*
X21070530Y-14271208D01*
X21070530Y-14271208D02*
X21051482Y-14242636D01*
X21051482Y-14242636D02*
X21041958Y-14233112D01*
D17*
X16258800Y-14555200D02*
X16428800Y-14725200D01*
X16428800Y-14555200D02*
X16258800Y-14725200D01*
X16403905Y-14700305D02*
X16403905Y-14580095D01*
X16283695Y-14580095D01*
X16283695Y-14700305D01*
X16403905Y-14700305D01*
D11*
X16794339Y-14731684D02*
X16680053Y-14731684D01*
X16737196Y-14731684D02*
X16737196Y-14531684D01*
X16737196Y-14531684D02*
X16718148Y-14560255D01*
X16718148Y-14560255D02*
X16699101Y-14579303D01*
X16699101Y-14579303D02*
X16680053Y-14588827D01*
X16880053Y-14712636D02*
X16889577Y-14722160D01*
X16889577Y-14722160D02*
X16880053Y-14731684D01*
X16880053Y-14731684D02*
X16870529Y-14722160D01*
X16870529Y-14722160D02*
X16880053Y-14712636D01*
X16880053Y-14712636D02*
X16880053Y-14731684D01*
X16956244Y-14531684D02*
X17089577Y-14531684D01*
X17089577Y-14531684D02*
X17003863Y-14731684D01*
X17203863Y-14531684D02*
X17222910Y-14531684D01*
X17222910Y-14531684D02*
X17241958Y-14541208D01*
X17241958Y-14541208D02*
X17251482Y-14550731D01*
X17251482Y-14550731D02*
X17261005Y-14569779D01*
X17261005Y-14569779D02*
X17270529Y-14607874D01*
X17270529Y-14607874D02*
X17270529Y-14655493D01*
X17270529Y-14655493D02*
X17261005Y-14693588D01*
X17261005Y-14693588D02*
X17251482Y-14712636D01*
X17251482Y-14712636D02*
X17241958Y-14722160D01*
X17241958Y-14722160D02*
X17222910Y-14731684D01*
X17222910Y-14731684D02*
X17203863Y-14731684D01*
X17203863Y-14731684D02*
X17184815Y-14722160D01*
X17184815Y-14722160D02*
X17175291Y-14712636D01*
X17175291Y-14712636D02*
X17165767Y-14693588D01*
X17165767Y-14693588D02*
X17156244Y-14655493D01*
X17156244Y-14655493D02*
X17156244Y-14607874D01*
X17156244Y-14607874D02*
X17165767Y-14569779D01*
X17165767Y-14569779D02*
X17175291Y-14550731D01*
X17175291Y-14550731D02*
X17184815Y-14541208D01*
X17184815Y-14541208D02*
X17203863Y-14531684D01*
X17394339Y-14531684D02*
X17413386Y-14531684D01*
X17413386Y-14531684D02*
X17432434Y-14541208D01*
X17432434Y-14541208D02*
X17441958Y-14550731D01*
X17441958Y-14550731D02*
X17451482Y-14569779D01*
X17451482Y-14569779D02*
X17461005Y-14607874D01*
X17461005Y-14607874D02*
X17461005Y-14655493D01*
X17461005Y-14655493D02*
X17451482Y-14693588D01*
X17451482Y-14693588D02*
X17441958Y-14712636D01*
X17441958Y-14712636D02*
X17432434Y-14722160D01*
X17432434Y-14722160D02*
X17413386Y-14731684D01*
X17413386Y-14731684D02*
X17394339Y-14731684D01*
X17394339Y-14731684D02*
X17375291Y-14722160D01*
X17375291Y-14722160D02*
X17365767Y-14712636D01*
X17365767Y-14712636D02*
X17356244Y-14693588D01*
X17356244Y-14693588D02*
X17346720Y-14655493D01*
X17346720Y-14655493D02*
X17346720Y-14607874D01*
X17346720Y-14607874D02*
X17356244Y-14569779D01*
X17356244Y-14569779D02*
X17365767Y-14550731D01*
X17365767Y-14550731D02*
X17375291Y-14541208D01*
X17375291Y-14541208D02*
X17394339Y-14531684D01*
X17546720Y-14731684D02*
X17546720Y-14598350D01*
X17546720Y-14617398D02*
X17556244Y-14607874D01*
X17556244Y-14607874D02*
X17575291Y-14598350D01*
X17575291Y-14598350D02*
X17603863Y-14598350D01*
X17603863Y-14598350D02*
X17622910Y-14607874D01*
X17622910Y-14607874D02*
X17632434Y-14626922D01*
X17632434Y-14626922D02*
X17632434Y-14731684D01*
X17632434Y-14626922D02*
X17641958Y-14607874D01*
X17641958Y-14607874D02*
X17661005Y-14598350D01*
X17661005Y-14598350D02*
X17689577Y-14598350D01*
X17689577Y-14598350D02*
X17708625Y-14607874D01*
X17708625Y-14607874D02*
X17718148Y-14626922D01*
X17718148Y-14626922D02*
X17718148Y-14731684D01*
X17813386Y-14731684D02*
X17813386Y-14598350D01*
X17813386Y-14617398D02*
X17822910Y-14607874D01*
X17822910Y-14607874D02*
X17841958Y-14598350D01*
X17841958Y-14598350D02*
X17870529Y-14598350D01*
X17870529Y-14598350D02*
X17889577Y-14607874D01*
X17889577Y-14607874D02*
X17899101Y-14626922D01*
X17899101Y-14626922D02*
X17899101Y-14731684D01*
X17899101Y-14626922D02*
X17908625Y-14607874D01*
X17908625Y-14607874D02*
X17927672Y-14598350D01*
X17927672Y-14598350D02*
X17956244Y-14598350D01*
X17956244Y-14598350D02*
X17975291Y-14607874D01*
X17975291Y-14607874D02*
X17984815Y-14626922D01*
X17984815Y-14626922D02*
X17984815Y-14731684D01*
X18375291Y-14522160D02*
X18203863Y-14779303D01*
X18632434Y-14531684D02*
X18651482Y-14531684D01*
X18651482Y-14531684D02*
X18670529Y-14541208D01*
X18670529Y-14541208D02*
X18680053Y-14550731D01*
X18680053Y-14550731D02*
X18689577Y-14569779D01*
X18689577Y-14569779D02*
X18699101Y-14607874D01*
X18699101Y-14607874D02*
X18699101Y-14655493D01*
X18699101Y-14655493D02*
X18689577Y-14693588D01*
X18689577Y-14693588D02*
X18680053Y-14712636D01*
X18680053Y-14712636D02*
X18670529Y-14722160D01*
X18670529Y-14722160D02*
X18651482Y-14731684D01*
X18651482Y-14731684D02*
X18632434Y-14731684D01*
X18632434Y-14731684D02*
X18613387Y-14722160D01*
X18613387Y-14722160D02*
X18603863Y-14712636D01*
X18603863Y-14712636D02*
X18594339Y-14693588D01*
X18594339Y-14693588D02*
X18584815Y-14655493D01*
X18584815Y-14655493D02*
X18584815Y-14607874D01*
X18584815Y-14607874D02*
X18594339Y-14569779D01*
X18594339Y-14569779D02*
X18603863Y-14550731D01*
X18603863Y-14550731D02*
X18613387Y-14541208D01*
X18613387Y-14541208D02*
X18632434Y-14531684D01*
X18784815Y-14712636D02*
X18794339Y-14722160D01*
X18794339Y-14722160D02*
X18784815Y-14731684D01*
X18784815Y-14731684D02*
X18775291Y-14722160D01*
X18775291Y-14722160D02*
X18784815Y-14712636D01*
X18784815Y-14712636D02*
X18784815Y-14731684D01*
X18918148Y-14531684D02*
X18937196Y-14531684D01*
X18937196Y-14531684D02*
X18956244Y-14541208D01*
X18956244Y-14541208D02*
X18965768Y-14550731D01*
X18965768Y-14550731D02*
X18975291Y-14569779D01*
X18975291Y-14569779D02*
X18984815Y-14607874D01*
X18984815Y-14607874D02*
X18984815Y-14655493D01*
X18984815Y-14655493D02*
X18975291Y-14693588D01*
X18975291Y-14693588D02*
X18965768Y-14712636D01*
X18965768Y-14712636D02*
X18956244Y-14722160D01*
X18956244Y-14722160D02*
X18937196Y-14731684D01*
X18937196Y-14731684D02*
X18918148Y-14731684D01*
X18918148Y-14731684D02*
X18899101Y-14722160D01*
X18899101Y-14722160D02*
X18889577Y-14712636D01*
X18889577Y-14712636D02*
X18880053Y-14693588D01*
X18880053Y-14693588D02*
X18870529Y-14655493D01*
X18870529Y-14655493D02*
X18870529Y-14607874D01*
X18870529Y-14607874D02*
X18880053Y-14569779D01*
X18880053Y-14569779D02*
X18889577Y-14550731D01*
X18889577Y-14550731D02*
X18899101Y-14541208D01*
X18899101Y-14541208D02*
X18918148Y-14531684D01*
X19156244Y-14531684D02*
X19118148Y-14531684D01*
X19118148Y-14531684D02*
X19099101Y-14541208D01*
X19099101Y-14541208D02*
X19089577Y-14550731D01*
X19089577Y-14550731D02*
X19070529Y-14579303D01*
X19070529Y-14579303D02*
X19061006Y-14617398D01*
X19061006Y-14617398D02*
X19061006Y-14693588D01*
X19061006Y-14693588D02*
X19070529Y-14712636D01*
X19070529Y-14712636D02*
X19080053Y-14722160D01*
X19080053Y-14722160D02*
X19099101Y-14731684D01*
X19099101Y-14731684D02*
X19137196Y-14731684D01*
X19137196Y-14731684D02*
X19156244Y-14722160D01*
X19156244Y-14722160D02*
X19165768Y-14712636D01*
X19165768Y-14712636D02*
X19175291Y-14693588D01*
X19175291Y-14693588D02*
X19175291Y-14645969D01*
X19175291Y-14645969D02*
X19165768Y-14626922D01*
X19165768Y-14626922D02*
X19156244Y-14617398D01*
X19156244Y-14617398D02*
X19137196Y-14607874D01*
X19137196Y-14607874D02*
X19099101Y-14607874D01*
X19099101Y-14607874D02*
X19080053Y-14617398D01*
X19080053Y-14617398D02*
X19070529Y-14626922D01*
X19070529Y-14626922D02*
X19061006Y-14645969D01*
X19346720Y-14531684D02*
X19308625Y-14531684D01*
X19308625Y-14531684D02*
X19289577Y-14541208D01*
X19289577Y-14541208D02*
X19280053Y-14550731D01*
X19280053Y-14550731D02*
X19261006Y-14579303D01*
X19261006Y-14579303D02*
X19251482Y-14617398D01*
X19251482Y-14617398D02*
X19251482Y-14693588D01*
X19251482Y-14693588D02*
X19261006Y-14712636D01*
X19261006Y-14712636D02*
X19270529Y-14722160D01*
X19270529Y-14722160D02*
X19289577Y-14731684D01*
X19289577Y-14731684D02*
X19327672Y-14731684D01*
X19327672Y-14731684D02*
X19346720Y-14722160D01*
X19346720Y-14722160D02*
X19356244Y-14712636D01*
X19356244Y-14712636D02*
X19365768Y-14693588D01*
X19365768Y-14693588D02*
X19365768Y-14645969D01*
X19365768Y-14645969D02*
X19356244Y-14626922D01*
X19356244Y-14626922D02*
X19346720Y-14617398D01*
X19346720Y-14617398D02*
X19327672Y-14607874D01*
X19327672Y-14607874D02*
X19289577Y-14607874D01*
X19289577Y-14607874D02*
X19270529Y-14617398D01*
X19270529Y-14617398D02*
X19261006Y-14626922D01*
X19261006Y-14626922D02*
X19251482Y-14645969D01*
X19461006Y-14731684D02*
X19499101Y-14731684D01*
X19499101Y-14731684D02*
X19518149Y-14722160D01*
X19518149Y-14722160D02*
X19527672Y-14712636D01*
X19527672Y-14712636D02*
X19546720Y-14684065D01*
X19546720Y-14684065D02*
X19556244Y-14645969D01*
X19556244Y-14645969D02*
X19556244Y-14569779D01*
X19556244Y-14569779D02*
X19546720Y-14550731D01*
X19546720Y-14550731D02*
X19537196Y-14541208D01*
X19537196Y-14541208D02*
X19518149Y-14531684D01*
X19518149Y-14531684D02*
X19480053Y-14531684D01*
X19480053Y-14531684D02*
X19461006Y-14541208D01*
X19461006Y-14541208D02*
X19451482Y-14550731D01*
X19451482Y-14550731D02*
X19441958Y-14569779D01*
X19441958Y-14569779D02*
X19441958Y-14617398D01*
X19441958Y-14617398D02*
X19451482Y-14636446D01*
X19451482Y-14636446D02*
X19461006Y-14645969D01*
X19461006Y-14645969D02*
X19480053Y-14655493D01*
X19480053Y-14655493D02*
X19518149Y-14655493D01*
X19518149Y-14655493D02*
X19537196Y-14645969D01*
X19537196Y-14645969D02*
X19546720Y-14636446D01*
X19546720Y-14636446D02*
X19556244Y-14617398D01*
X19632434Y-14531684D02*
X19632434Y-14569779D01*
X19708625Y-14531684D02*
X19708625Y-14569779D01*
X20003863Y-14807874D02*
X19994339Y-14798350D01*
X19994339Y-14798350D02*
X19975291Y-14769779D01*
X19975291Y-14769779D02*
X19965768Y-14750731D01*
X19965768Y-14750731D02*
X19956244Y-14722160D01*
X19956244Y-14722160D02*
X19946720Y-14674541D01*
X19946720Y-14674541D02*
X19946720Y-14636446D01*
X19946720Y-14636446D02*
X19956244Y-14588827D01*
X19956244Y-14588827D02*
X19965768Y-14560255D01*
X19965768Y-14560255D02*
X19975291Y-14541208D01*
X19975291Y-14541208D02*
X19994339Y-14512636D01*
X19994339Y-14512636D02*
X20003863Y-14503112D01*
X20165768Y-14598350D02*
X20165768Y-14731684D01*
X20118149Y-14522160D02*
X20070530Y-14665017D01*
X20070530Y-14665017D02*
X20194339Y-14665017D01*
X20422911Y-14731684D02*
X20422911Y-14531684D01*
X20508625Y-14731684D02*
X20508625Y-14626922D01*
X20508625Y-14626922D02*
X20499101Y-14607874D01*
X20499101Y-14607874D02*
X20480053Y-14598350D01*
X20480053Y-14598350D02*
X20451482Y-14598350D01*
X20451482Y-14598350D02*
X20432434Y-14607874D01*
X20432434Y-14607874D02*
X20422911Y-14617398D01*
X20632434Y-14731684D02*
X20613387Y-14722160D01*
X20613387Y-14722160D02*
X20603863Y-14712636D01*
X20603863Y-14712636D02*
X20594339Y-14693588D01*
X20594339Y-14693588D02*
X20594339Y-14636446D01*
X20594339Y-14636446D02*
X20603863Y-14617398D01*
X20603863Y-14617398D02*
X20613387Y-14607874D01*
X20613387Y-14607874D02*
X20632434Y-14598350D01*
X20632434Y-14598350D02*
X20661006Y-14598350D01*
X20661006Y-14598350D02*
X20680053Y-14607874D01*
X20680053Y-14607874D02*
X20689577Y-14617398D01*
X20689577Y-14617398D02*
X20699101Y-14636446D01*
X20699101Y-14636446D02*
X20699101Y-14693588D01*
X20699101Y-14693588D02*
X20689577Y-14712636D01*
X20689577Y-14712636D02*
X20680053Y-14722160D01*
X20680053Y-14722160D02*
X20661006Y-14731684D01*
X20661006Y-14731684D02*
X20632434Y-14731684D01*
X20813387Y-14731684D02*
X20794339Y-14722160D01*
X20794339Y-14722160D02*
X20784815Y-14703112D01*
X20784815Y-14703112D02*
X20784815Y-14531684D01*
X20965768Y-14722160D02*
X20946720Y-14731684D01*
X20946720Y-14731684D02*
X20908625Y-14731684D01*
X20908625Y-14731684D02*
X20889577Y-14722160D01*
X20889577Y-14722160D02*
X20880053Y-14703112D01*
X20880053Y-14703112D02*
X20880053Y-14626922D01*
X20880053Y-14626922D02*
X20889577Y-14607874D01*
X20889577Y-14607874D02*
X20908625Y-14598350D01*
X20908625Y-14598350D02*
X20946720Y-14598350D01*
X20946720Y-14598350D02*
X20965768Y-14607874D01*
X20965768Y-14607874D02*
X20975292Y-14626922D01*
X20975292Y-14626922D02*
X20975292Y-14645969D01*
X20975292Y-14645969D02*
X20880053Y-14665017D01*
X21051482Y-14722160D02*
X21070530Y-14731684D01*
X21070530Y-14731684D02*
X21108625Y-14731684D01*
X21108625Y-14731684D02*
X21127673Y-14722160D01*
X21127673Y-14722160D02*
X21137196Y-14703112D01*
X21137196Y-14703112D02*
X21137196Y-14693588D01*
X21137196Y-14693588D02*
X21127673Y-14674541D01*
X21127673Y-14674541D02*
X21108625Y-14665017D01*
X21108625Y-14665017D02*
X21080053Y-14665017D01*
X21080053Y-14665017D02*
X21061006Y-14655493D01*
X21061006Y-14655493D02*
X21051482Y-14636446D01*
X21051482Y-14636446D02*
X21051482Y-14626922D01*
X21051482Y-14626922D02*
X21061006Y-14607874D01*
X21061006Y-14607874D02*
X21080053Y-14598350D01*
X21080053Y-14598350D02*
X21108625Y-14598350D01*
X21108625Y-14598350D02*
X21127673Y-14607874D01*
X21203863Y-14807874D02*
X21213387Y-14798350D01*
X21213387Y-14798350D02*
X21232434Y-14769779D01*
X21232434Y-14769779D02*
X21241958Y-14750731D01*
X21241958Y-14750731D02*
X21251482Y-14722160D01*
X21251482Y-14722160D02*
X21261006Y-14674541D01*
X21261006Y-14674541D02*
X21261006Y-14636446D01*
X21261006Y-14636446D02*
X21251482Y-14588827D01*
X21251482Y-14588827D02*
X21241958Y-14560255D01*
X21241958Y-14560255D02*
X21232434Y-14541208D01*
X21232434Y-14541208D02*
X21213387Y-14512636D01*
X21213387Y-14512636D02*
X21203863Y-14503112D01*
D18*
X16238800Y-14835200D02*
X16428800Y-15025200D01*
X16428800Y-14835200D02*
X16238800Y-15025200D01*
X16333800Y-15025200D02*
X16428800Y-14930200D01*
X16333800Y-14835200D01*
X16238800Y-14930200D01*
X16333800Y-15025200D01*
D11*
X16794339Y-15021684D02*
X16680053Y-15021684D01*
X16737196Y-15021684D02*
X16737196Y-14821684D01*
X16737196Y-14821684D02*
X16718148Y-14850255D01*
X16718148Y-14850255D02*
X16699101Y-14869303D01*
X16699101Y-14869303D02*
X16680053Y-14878827D01*
X16880053Y-15002636D02*
X16889577Y-15012160D01*
X16889577Y-15012160D02*
X16880053Y-15021684D01*
X16880053Y-15021684D02*
X16870529Y-15012160D01*
X16870529Y-15012160D02*
X16880053Y-15002636D01*
X16880053Y-15002636D02*
X16880053Y-15021684D01*
X16984815Y-15021684D02*
X17022910Y-15021684D01*
X17022910Y-15021684D02*
X17041958Y-15012160D01*
X17041958Y-15012160D02*
X17051482Y-15002636D01*
X17051482Y-15002636D02*
X17070529Y-14974065D01*
X17070529Y-14974065D02*
X17080053Y-14935969D01*
X17080053Y-14935969D02*
X17080053Y-14859779D01*
X17080053Y-14859779D02*
X17070529Y-14840731D01*
X17070529Y-14840731D02*
X17061005Y-14831208D01*
X17061005Y-14831208D02*
X17041958Y-14821684D01*
X17041958Y-14821684D02*
X17003863Y-14821684D01*
X17003863Y-14821684D02*
X16984815Y-14831208D01*
X16984815Y-14831208D02*
X16975291Y-14840731D01*
X16975291Y-14840731D02*
X16965767Y-14859779D01*
X16965767Y-14859779D02*
X16965767Y-14907398D01*
X16965767Y-14907398D02*
X16975291Y-14926446D01*
X16975291Y-14926446D02*
X16984815Y-14935969D01*
X16984815Y-14935969D02*
X17003863Y-14945493D01*
X17003863Y-14945493D02*
X17041958Y-14945493D01*
X17041958Y-14945493D02*
X17061005Y-14935969D01*
X17061005Y-14935969D02*
X17070529Y-14926446D01*
X17070529Y-14926446D02*
X17080053Y-14907398D01*
X17203863Y-14821684D02*
X17222910Y-14821684D01*
X17222910Y-14821684D02*
X17241958Y-14831208D01*
X17241958Y-14831208D02*
X17251482Y-14840731D01*
X17251482Y-14840731D02*
X17261005Y-14859779D01*
X17261005Y-14859779D02*
X17270529Y-14897874D01*
X17270529Y-14897874D02*
X17270529Y-14945493D01*
X17270529Y-14945493D02*
X17261005Y-14983588D01*
X17261005Y-14983588D02*
X17251482Y-15002636D01*
X17251482Y-15002636D02*
X17241958Y-15012160D01*
X17241958Y-15012160D02*
X17222910Y-15021684D01*
X17222910Y-15021684D02*
X17203863Y-15021684D01*
X17203863Y-15021684D02*
X17184815Y-15012160D01*
X17184815Y-15012160D02*
X17175291Y-15002636D01*
X17175291Y-15002636D02*
X17165767Y-14983588D01*
X17165767Y-14983588D02*
X17156244Y-14945493D01*
X17156244Y-14945493D02*
X17156244Y-14897874D01*
X17156244Y-14897874D02*
X17165767Y-14859779D01*
X17165767Y-14859779D02*
X17175291Y-14840731D01*
X17175291Y-14840731D02*
X17184815Y-14831208D01*
X17184815Y-14831208D02*
X17203863Y-14821684D01*
X17394339Y-14821684D02*
X17413386Y-14821684D01*
X17413386Y-14821684D02*
X17432434Y-14831208D01*
X17432434Y-14831208D02*
X17441958Y-14840731D01*
X17441958Y-14840731D02*
X17451482Y-14859779D01*
X17451482Y-14859779D02*
X17461005Y-14897874D01*
X17461005Y-14897874D02*
X17461005Y-14945493D01*
X17461005Y-14945493D02*
X17451482Y-14983588D01*
X17451482Y-14983588D02*
X17441958Y-15002636D01*
X17441958Y-15002636D02*
X17432434Y-15012160D01*
X17432434Y-15012160D02*
X17413386Y-15021684D01*
X17413386Y-15021684D02*
X17394339Y-15021684D01*
X17394339Y-15021684D02*
X17375291Y-15012160D01*
X17375291Y-15012160D02*
X17365767Y-15002636D01*
X17365767Y-15002636D02*
X17356244Y-14983588D01*
X17356244Y-14983588D02*
X17346720Y-14945493D01*
X17346720Y-14945493D02*
X17346720Y-14897874D01*
X17346720Y-14897874D02*
X17356244Y-14859779D01*
X17356244Y-14859779D02*
X17365767Y-14840731D01*
X17365767Y-14840731D02*
X17375291Y-14831208D01*
X17375291Y-14831208D02*
X17394339Y-14821684D01*
X17546720Y-15021684D02*
X17546720Y-14888350D01*
X17546720Y-14907398D02*
X17556244Y-14897874D01*
X17556244Y-14897874D02*
X17575291Y-14888350D01*
X17575291Y-14888350D02*
X17603863Y-14888350D01*
X17603863Y-14888350D02*
X17622910Y-14897874D01*
X17622910Y-14897874D02*
X17632434Y-14916922D01*
X17632434Y-14916922D02*
X17632434Y-15021684D01*
X17632434Y-14916922D02*
X17641958Y-14897874D01*
X17641958Y-14897874D02*
X17661005Y-14888350D01*
X17661005Y-14888350D02*
X17689577Y-14888350D01*
X17689577Y-14888350D02*
X17708625Y-14897874D01*
X17708625Y-14897874D02*
X17718148Y-14916922D01*
X17718148Y-14916922D02*
X17718148Y-15021684D01*
X17813386Y-15021684D02*
X17813386Y-14888350D01*
X17813386Y-14907398D02*
X17822910Y-14897874D01*
X17822910Y-14897874D02*
X17841958Y-14888350D01*
X17841958Y-14888350D02*
X17870529Y-14888350D01*
X17870529Y-14888350D02*
X17889577Y-14897874D01*
X17889577Y-14897874D02*
X17899101Y-14916922D01*
X17899101Y-14916922D02*
X17899101Y-15021684D01*
X17899101Y-14916922D02*
X17908625Y-14897874D01*
X17908625Y-14897874D02*
X17927672Y-14888350D01*
X17927672Y-14888350D02*
X17956244Y-14888350D01*
X17956244Y-14888350D02*
X17975291Y-14897874D01*
X17975291Y-14897874D02*
X17984815Y-14916922D01*
X17984815Y-14916922D02*
X17984815Y-15021684D01*
X18375291Y-14812160D02*
X18203863Y-15069303D01*
X18632434Y-14821684D02*
X18651482Y-14821684D01*
X18651482Y-14821684D02*
X18670529Y-14831208D01*
X18670529Y-14831208D02*
X18680053Y-14840731D01*
X18680053Y-14840731D02*
X18689577Y-14859779D01*
X18689577Y-14859779D02*
X18699101Y-14897874D01*
X18699101Y-14897874D02*
X18699101Y-14945493D01*
X18699101Y-14945493D02*
X18689577Y-14983588D01*
X18689577Y-14983588D02*
X18680053Y-15002636D01*
X18680053Y-15002636D02*
X18670529Y-15012160D01*
X18670529Y-15012160D02*
X18651482Y-15021684D01*
X18651482Y-15021684D02*
X18632434Y-15021684D01*
X18632434Y-15021684D02*
X18613387Y-15012160D01*
X18613387Y-15012160D02*
X18603863Y-15002636D01*
X18603863Y-15002636D02*
X18594339Y-14983588D01*
X18594339Y-14983588D02*
X18584815Y-14945493D01*
X18584815Y-14945493D02*
X18584815Y-14897874D01*
X18584815Y-14897874D02*
X18594339Y-14859779D01*
X18594339Y-14859779D02*
X18603863Y-14840731D01*
X18603863Y-14840731D02*
X18613387Y-14831208D01*
X18613387Y-14831208D02*
X18632434Y-14821684D01*
X18784815Y-15002636D02*
X18794339Y-15012160D01*
X18794339Y-15012160D02*
X18784815Y-15021684D01*
X18784815Y-15021684D02*
X18775291Y-15012160D01*
X18775291Y-15012160D02*
X18784815Y-15002636D01*
X18784815Y-15002636D02*
X18784815Y-15021684D01*
X18918148Y-14821684D02*
X18937196Y-14821684D01*
X18937196Y-14821684D02*
X18956244Y-14831208D01*
X18956244Y-14831208D02*
X18965768Y-14840731D01*
X18965768Y-14840731D02*
X18975291Y-14859779D01*
X18975291Y-14859779D02*
X18984815Y-14897874D01*
X18984815Y-14897874D02*
X18984815Y-14945493D01*
X18984815Y-14945493D02*
X18975291Y-14983588D01*
X18975291Y-14983588D02*
X18965768Y-15002636D01*
X18965768Y-15002636D02*
X18956244Y-15012160D01*
X18956244Y-15012160D02*
X18937196Y-15021684D01*
X18937196Y-15021684D02*
X18918148Y-15021684D01*
X18918148Y-15021684D02*
X18899101Y-15012160D01*
X18899101Y-15012160D02*
X18889577Y-15002636D01*
X18889577Y-15002636D02*
X18880053Y-14983588D01*
X18880053Y-14983588D02*
X18870529Y-14945493D01*
X18870529Y-14945493D02*
X18870529Y-14897874D01*
X18870529Y-14897874D02*
X18880053Y-14859779D01*
X18880053Y-14859779D02*
X18889577Y-14840731D01*
X18889577Y-14840731D02*
X18899101Y-14831208D01*
X18899101Y-14831208D02*
X18918148Y-14821684D01*
X19051482Y-14821684D02*
X19184815Y-14821684D01*
X19184815Y-14821684D02*
X19099101Y-15021684D01*
X19346720Y-14888350D02*
X19346720Y-15021684D01*
X19299101Y-14812160D02*
X19251482Y-14955017D01*
X19251482Y-14955017D02*
X19375291Y-14955017D01*
X19480053Y-14907398D02*
X19461006Y-14897874D01*
X19461006Y-14897874D02*
X19451482Y-14888350D01*
X19451482Y-14888350D02*
X19441958Y-14869303D01*
X19441958Y-14869303D02*
X19441958Y-14859779D01*
X19441958Y-14859779D02*
X19451482Y-14840731D01*
X19451482Y-14840731D02*
X19461006Y-14831208D01*
X19461006Y-14831208D02*
X19480053Y-14821684D01*
X19480053Y-14821684D02*
X19518149Y-14821684D01*
X19518149Y-14821684D02*
X19537196Y-14831208D01*
X19537196Y-14831208D02*
X19546720Y-14840731D01*
X19546720Y-14840731D02*
X19556244Y-14859779D01*
X19556244Y-14859779D02*
X19556244Y-14869303D01*
X19556244Y-14869303D02*
X19546720Y-14888350D01*
X19546720Y-14888350D02*
X19537196Y-14897874D01*
X19537196Y-14897874D02*
X19518149Y-14907398D01*
X19518149Y-14907398D02*
X19480053Y-14907398D01*
X19480053Y-14907398D02*
X19461006Y-14916922D01*
X19461006Y-14916922D02*
X19451482Y-14926446D01*
X19451482Y-14926446D02*
X19441958Y-14945493D01*
X19441958Y-14945493D02*
X19441958Y-14983588D01*
X19441958Y-14983588D02*
X19451482Y-15002636D01*
X19451482Y-15002636D02*
X19461006Y-15012160D01*
X19461006Y-15012160D02*
X19480053Y-15021684D01*
X19480053Y-15021684D02*
X19518149Y-15021684D01*
X19518149Y-15021684D02*
X19537196Y-15012160D01*
X19537196Y-15012160D02*
X19546720Y-15002636D01*
X19546720Y-15002636D02*
X19556244Y-14983588D01*
X19556244Y-14983588D02*
X19556244Y-14945493D01*
X19556244Y-14945493D02*
X19546720Y-14926446D01*
X19546720Y-14926446D02*
X19537196Y-14916922D01*
X19537196Y-14916922D02*
X19518149Y-14907398D01*
X19632434Y-14821684D02*
X19632434Y-14859779D01*
X19708625Y-14821684D02*
X19708625Y-14859779D01*
X20003863Y-15097874D02*
X19994339Y-15088350D01*
X19994339Y-15088350D02*
X19975291Y-15059779D01*
X19975291Y-15059779D02*
X19965768Y-15040731D01*
X19965768Y-15040731D02*
X19956244Y-15012160D01*
X19956244Y-15012160D02*
X19946720Y-14964541D01*
X19946720Y-14964541D02*
X19946720Y-14926446D01*
X19946720Y-14926446D02*
X19956244Y-14878827D01*
X19956244Y-14878827D02*
X19965768Y-14850255D01*
X19965768Y-14850255D02*
X19975291Y-14831208D01*
X19975291Y-14831208D02*
X19994339Y-14802636D01*
X19994339Y-14802636D02*
X20003863Y-14793112D01*
X20070530Y-14840731D02*
X20080053Y-14831208D01*
X20080053Y-14831208D02*
X20099101Y-14821684D01*
X20099101Y-14821684D02*
X20146720Y-14821684D01*
X20146720Y-14821684D02*
X20165768Y-14831208D01*
X20165768Y-14831208D02*
X20175291Y-14840731D01*
X20175291Y-14840731D02*
X20184815Y-14859779D01*
X20184815Y-14859779D02*
X20184815Y-14878827D01*
X20184815Y-14878827D02*
X20175291Y-14907398D01*
X20175291Y-14907398D02*
X20061006Y-15021684D01*
X20061006Y-15021684D02*
X20184815Y-15021684D01*
X20422911Y-15021684D02*
X20422911Y-14821684D01*
X20508625Y-15021684D02*
X20508625Y-14916922D01*
X20508625Y-14916922D02*
X20499101Y-14897874D01*
X20499101Y-14897874D02*
X20480053Y-14888350D01*
X20480053Y-14888350D02*
X20451482Y-14888350D01*
X20451482Y-14888350D02*
X20432434Y-14897874D01*
X20432434Y-14897874D02*
X20422911Y-14907398D01*
X20632434Y-15021684D02*
X20613387Y-15012160D01*
X20613387Y-15012160D02*
X20603863Y-15002636D01*
X20603863Y-15002636D02*
X20594339Y-14983588D01*
X20594339Y-14983588D02*
X20594339Y-14926446D01*
X20594339Y-14926446D02*
X20603863Y-14907398D01*
X20603863Y-14907398D02*
X20613387Y-14897874D01*
X20613387Y-14897874D02*
X20632434Y-14888350D01*
X20632434Y-14888350D02*
X20661006Y-14888350D01*
X20661006Y-14888350D02*
X20680053Y-14897874D01*
X20680053Y-14897874D02*
X20689577Y-14907398D01*
X20689577Y-14907398D02*
X20699101Y-14926446D01*
X20699101Y-14926446D02*
X20699101Y-14983588D01*
X20699101Y-14983588D02*
X20689577Y-15002636D01*
X20689577Y-15002636D02*
X20680053Y-15012160D01*
X20680053Y-15012160D02*
X20661006Y-15021684D01*
X20661006Y-15021684D02*
X20632434Y-15021684D01*
X20813387Y-15021684D02*
X20794339Y-15012160D01*
X20794339Y-15012160D02*
X20784815Y-14993112D01*
X20784815Y-14993112D02*
X20784815Y-14821684D01*
X20965768Y-15012160D02*
X20946720Y-15021684D01*
X20946720Y-15021684D02*
X20908625Y-15021684D01*
X20908625Y-15021684D02*
X20889577Y-15012160D01*
X20889577Y-15012160D02*
X20880053Y-14993112D01*
X20880053Y-14993112D02*
X20880053Y-14916922D01*
X20880053Y-14916922D02*
X20889577Y-14897874D01*
X20889577Y-14897874D02*
X20908625Y-14888350D01*
X20908625Y-14888350D02*
X20946720Y-14888350D01*
X20946720Y-14888350D02*
X20965768Y-14897874D01*
X20965768Y-14897874D02*
X20975292Y-14916922D01*
X20975292Y-14916922D02*
X20975292Y-14935969D01*
X20975292Y-14935969D02*
X20880053Y-14955017D01*
X21051482Y-15012160D02*
X21070530Y-15021684D01*
X21070530Y-15021684D02*
X21108625Y-15021684D01*
X21108625Y-15021684D02*
X21127673Y-15012160D01*
X21127673Y-15012160D02*
X21137196Y-14993112D01*
X21137196Y-14993112D02*
X21137196Y-14983588D01*
X21137196Y-14983588D02*
X21127673Y-14964541D01*
X21127673Y-14964541D02*
X21108625Y-14955017D01*
X21108625Y-14955017D02*
X21080053Y-14955017D01*
X21080053Y-14955017D02*
X21061006Y-14945493D01*
X21061006Y-14945493D02*
X21051482Y-14926446D01*
X21051482Y-14926446D02*
X21051482Y-14916922D01*
X21051482Y-14916922D02*
X21061006Y-14897874D01*
X21061006Y-14897874D02*
X21080053Y-14888350D01*
X21080053Y-14888350D02*
X21108625Y-14888350D01*
X21108625Y-14888350D02*
X21127673Y-14897874D01*
X21203863Y-15097874D02*
X21213387Y-15088350D01*
X21213387Y-15088350D02*
X21232434Y-15059779D01*
X21232434Y-15059779D02*
X21241958Y-15040731D01*
X21241958Y-15040731D02*
X21251482Y-15012160D01*
X21251482Y-15012160D02*
X21261006Y-14964541D01*
X21261006Y-14964541D02*
X21261006Y-14926446D01*
X21261006Y-14926446D02*
X21251482Y-14878827D01*
X21251482Y-14878827D02*
X21241958Y-14850255D01*
X21241958Y-14850255D02*
X21232434Y-14831208D01*
X21232434Y-14831208D02*
X21213387Y-14802636D01*
X21213387Y-14802636D02*
X21203863Y-14793112D01*
X16328800Y-15140200D02*
X16328800Y-15340200D01*
X16228800Y-15240200D02*
X16428800Y-15240200D01*
X16428800Y-15240200D02*
G75*
G03*
X16428800Y-15240200I-100000J0D01*
G01*
X16680053Y-15150731D02*
X16689577Y-15141208D01*
X16689577Y-15141208D02*
X16708624Y-15131684D01*
X16708624Y-15131684D02*
X16756243Y-15131684D01*
X16756243Y-15131684D02*
X16775291Y-15141208D01*
X16775291Y-15141208D02*
X16784815Y-15150731D01*
X16784815Y-15150731D02*
X16794339Y-15169779D01*
X16794339Y-15169779D02*
X16794339Y-15188827D01*
X16794339Y-15188827D02*
X16784815Y-15217398D01*
X16784815Y-15217398D02*
X16670529Y-15331684D01*
X16670529Y-15331684D02*
X16794339Y-15331684D01*
X16880053Y-15312636D02*
X16889577Y-15322160D01*
X16889577Y-15322160D02*
X16880053Y-15331684D01*
X16880053Y-15331684D02*
X16870529Y-15322160D01*
X16870529Y-15322160D02*
X16880053Y-15312636D01*
X16880053Y-15312636D02*
X16880053Y-15331684D01*
X16965767Y-15150731D02*
X16975291Y-15141208D01*
X16975291Y-15141208D02*
X16994339Y-15131684D01*
X16994339Y-15131684D02*
X17041958Y-15131684D01*
X17041958Y-15131684D02*
X17061005Y-15141208D01*
X17061005Y-15141208D02*
X17070529Y-15150731D01*
X17070529Y-15150731D02*
X17080053Y-15169779D01*
X17080053Y-15169779D02*
X17080053Y-15188827D01*
X17080053Y-15188827D02*
X17070529Y-15217398D01*
X17070529Y-15217398D02*
X16956244Y-15331684D01*
X16956244Y-15331684D02*
X17080053Y-15331684D01*
X17203863Y-15131684D02*
X17222910Y-15131684D01*
X17222910Y-15131684D02*
X17241958Y-15141208D01*
X17241958Y-15141208D02*
X17251482Y-15150731D01*
X17251482Y-15150731D02*
X17261005Y-15169779D01*
X17261005Y-15169779D02*
X17270529Y-15207874D01*
X17270529Y-15207874D02*
X17270529Y-15255493D01*
X17270529Y-15255493D02*
X17261005Y-15293588D01*
X17261005Y-15293588D02*
X17251482Y-15312636D01*
X17251482Y-15312636D02*
X17241958Y-15322160D01*
X17241958Y-15322160D02*
X17222910Y-15331684D01*
X17222910Y-15331684D02*
X17203863Y-15331684D01*
X17203863Y-15331684D02*
X17184815Y-15322160D01*
X17184815Y-15322160D02*
X17175291Y-15312636D01*
X17175291Y-15312636D02*
X17165767Y-15293588D01*
X17165767Y-15293588D02*
X17156244Y-15255493D01*
X17156244Y-15255493D02*
X17156244Y-15207874D01*
X17156244Y-15207874D02*
X17165767Y-15169779D01*
X17165767Y-15169779D02*
X17175291Y-15150731D01*
X17175291Y-15150731D02*
X17184815Y-15141208D01*
X17184815Y-15141208D02*
X17203863Y-15131684D01*
X17394339Y-15131684D02*
X17413386Y-15131684D01*
X17413386Y-15131684D02*
X17432434Y-15141208D01*
X17432434Y-15141208D02*
X17441958Y-15150731D01*
X17441958Y-15150731D02*
X17451482Y-15169779D01*
X17451482Y-15169779D02*
X17461005Y-15207874D01*
X17461005Y-15207874D02*
X17461005Y-15255493D01*
X17461005Y-15255493D02*
X17451482Y-15293588D01*
X17451482Y-15293588D02*
X17441958Y-15312636D01*
X17441958Y-15312636D02*
X17432434Y-15322160D01*
X17432434Y-15322160D02*
X17413386Y-15331684D01*
X17413386Y-15331684D02*
X17394339Y-15331684D01*
X17394339Y-15331684D02*
X17375291Y-15322160D01*
X17375291Y-15322160D02*
X17365767Y-15312636D01*
X17365767Y-15312636D02*
X17356244Y-15293588D01*
X17356244Y-15293588D02*
X17346720Y-15255493D01*
X17346720Y-15255493D02*
X17346720Y-15207874D01*
X17346720Y-15207874D02*
X17356244Y-15169779D01*
X17356244Y-15169779D02*
X17365767Y-15150731D01*
X17365767Y-15150731D02*
X17375291Y-15141208D01*
X17375291Y-15141208D02*
X17394339Y-15131684D01*
X17546720Y-15331684D02*
X17546720Y-15198350D01*
X17546720Y-15217398D02*
X17556244Y-15207874D01*
X17556244Y-15207874D02*
X17575291Y-15198350D01*
X17575291Y-15198350D02*
X17603863Y-15198350D01*
X17603863Y-15198350D02*
X17622910Y-15207874D01*
X17622910Y-15207874D02*
X17632434Y-15226922D01*
X17632434Y-15226922D02*
X17632434Y-15331684D01*
X17632434Y-15226922D02*
X17641958Y-15207874D01*
X17641958Y-15207874D02*
X17661005Y-15198350D01*
X17661005Y-15198350D02*
X17689577Y-15198350D01*
X17689577Y-15198350D02*
X17708625Y-15207874D01*
X17708625Y-15207874D02*
X17718148Y-15226922D01*
X17718148Y-15226922D02*
X17718148Y-15331684D01*
X17813386Y-15331684D02*
X17813386Y-15198350D01*
X17813386Y-15217398D02*
X17822910Y-15207874D01*
X17822910Y-15207874D02*
X17841958Y-15198350D01*
X17841958Y-15198350D02*
X17870529Y-15198350D01*
X17870529Y-15198350D02*
X17889577Y-15207874D01*
X17889577Y-15207874D02*
X17899101Y-15226922D01*
X17899101Y-15226922D02*
X17899101Y-15331684D01*
X17899101Y-15226922D02*
X17908625Y-15207874D01*
X17908625Y-15207874D02*
X17927672Y-15198350D01*
X17927672Y-15198350D02*
X17956244Y-15198350D01*
X17956244Y-15198350D02*
X17975291Y-15207874D01*
X17975291Y-15207874D02*
X17984815Y-15226922D01*
X17984815Y-15226922D02*
X17984815Y-15331684D01*
X18375291Y-15122160D02*
X18203863Y-15379303D01*
X18632434Y-15131684D02*
X18651482Y-15131684D01*
X18651482Y-15131684D02*
X18670529Y-15141208D01*
X18670529Y-15141208D02*
X18680053Y-15150731D01*
X18680053Y-15150731D02*
X18689577Y-15169779D01*
X18689577Y-15169779D02*
X18699101Y-15207874D01*
X18699101Y-15207874D02*
X18699101Y-15255493D01*
X18699101Y-15255493D02*
X18689577Y-15293588D01*
X18689577Y-15293588D02*
X18680053Y-15312636D01*
X18680053Y-15312636D02*
X18670529Y-15322160D01*
X18670529Y-15322160D02*
X18651482Y-15331684D01*
X18651482Y-15331684D02*
X18632434Y-15331684D01*
X18632434Y-15331684D02*
X18613387Y-15322160D01*
X18613387Y-15322160D02*
X18603863Y-15312636D01*
X18603863Y-15312636D02*
X18594339Y-15293588D01*
X18594339Y-15293588D02*
X18584815Y-15255493D01*
X18584815Y-15255493D02*
X18584815Y-15207874D01*
X18584815Y-15207874D02*
X18594339Y-15169779D01*
X18594339Y-15169779D02*
X18603863Y-15150731D01*
X18603863Y-15150731D02*
X18613387Y-15141208D01*
X18613387Y-15141208D02*
X18632434Y-15131684D01*
X18784815Y-15312636D02*
X18794339Y-15322160D01*
X18794339Y-15322160D02*
X18784815Y-15331684D01*
X18784815Y-15331684D02*
X18775291Y-15322160D01*
X18775291Y-15322160D02*
X18784815Y-15312636D01*
X18784815Y-15312636D02*
X18784815Y-15331684D01*
X18918148Y-15131684D02*
X18937196Y-15131684D01*
X18937196Y-15131684D02*
X18956244Y-15141208D01*
X18956244Y-15141208D02*
X18965768Y-15150731D01*
X18965768Y-15150731D02*
X18975291Y-15169779D01*
X18975291Y-15169779D02*
X18984815Y-15207874D01*
X18984815Y-15207874D02*
X18984815Y-15255493D01*
X18984815Y-15255493D02*
X18975291Y-15293588D01*
X18975291Y-15293588D02*
X18965768Y-15312636D01*
X18965768Y-15312636D02*
X18956244Y-15322160D01*
X18956244Y-15322160D02*
X18937196Y-15331684D01*
X18937196Y-15331684D02*
X18918148Y-15331684D01*
X18918148Y-15331684D02*
X18899101Y-15322160D01*
X18899101Y-15322160D02*
X18889577Y-15312636D01*
X18889577Y-15312636D02*
X18880053Y-15293588D01*
X18880053Y-15293588D02*
X18870529Y-15255493D01*
X18870529Y-15255493D02*
X18870529Y-15207874D01*
X18870529Y-15207874D02*
X18880053Y-15169779D01*
X18880053Y-15169779D02*
X18889577Y-15150731D01*
X18889577Y-15150731D02*
X18899101Y-15141208D01*
X18899101Y-15141208D02*
X18918148Y-15131684D01*
X19099101Y-15217398D02*
X19080053Y-15207874D01*
X19080053Y-15207874D02*
X19070529Y-15198350D01*
X19070529Y-15198350D02*
X19061006Y-15179303D01*
X19061006Y-15179303D02*
X19061006Y-15169779D01*
X19061006Y-15169779D02*
X19070529Y-15150731D01*
X19070529Y-15150731D02*
X19080053Y-15141208D01*
X19080053Y-15141208D02*
X19099101Y-15131684D01*
X19099101Y-15131684D02*
X19137196Y-15131684D01*
X19137196Y-15131684D02*
X19156244Y-15141208D01*
X19156244Y-15141208D02*
X19165768Y-15150731D01*
X19165768Y-15150731D02*
X19175291Y-15169779D01*
X19175291Y-15169779D02*
X19175291Y-15179303D01*
X19175291Y-15179303D02*
X19165768Y-15198350D01*
X19165768Y-15198350D02*
X19156244Y-15207874D01*
X19156244Y-15207874D02*
X19137196Y-15217398D01*
X19137196Y-15217398D02*
X19099101Y-15217398D01*
X19099101Y-15217398D02*
X19080053Y-15226922D01*
X19080053Y-15226922D02*
X19070529Y-15236446D01*
X19070529Y-15236446D02*
X19061006Y-15255493D01*
X19061006Y-15255493D02*
X19061006Y-15293588D01*
X19061006Y-15293588D02*
X19070529Y-15312636D01*
X19070529Y-15312636D02*
X19080053Y-15322160D01*
X19080053Y-15322160D02*
X19099101Y-15331684D01*
X19099101Y-15331684D02*
X19137196Y-15331684D01*
X19137196Y-15331684D02*
X19156244Y-15322160D01*
X19156244Y-15322160D02*
X19165768Y-15312636D01*
X19165768Y-15312636D02*
X19175291Y-15293588D01*
X19175291Y-15293588D02*
X19175291Y-15255493D01*
X19175291Y-15255493D02*
X19165768Y-15236446D01*
X19165768Y-15236446D02*
X19156244Y-15226922D01*
X19156244Y-15226922D02*
X19137196Y-15217398D01*
X19346720Y-15131684D02*
X19308625Y-15131684D01*
X19308625Y-15131684D02*
X19289577Y-15141208D01*
X19289577Y-15141208D02*
X19280053Y-15150731D01*
X19280053Y-15150731D02*
X19261006Y-15179303D01*
X19261006Y-15179303D02*
X19251482Y-15217398D01*
X19251482Y-15217398D02*
X19251482Y-15293588D01*
X19251482Y-15293588D02*
X19261006Y-15312636D01*
X19261006Y-15312636D02*
X19270529Y-15322160D01*
X19270529Y-15322160D02*
X19289577Y-15331684D01*
X19289577Y-15331684D02*
X19327672Y-15331684D01*
X19327672Y-15331684D02*
X19346720Y-15322160D01*
X19346720Y-15322160D02*
X19356244Y-15312636D01*
X19356244Y-15312636D02*
X19365768Y-15293588D01*
X19365768Y-15293588D02*
X19365768Y-15245969D01*
X19365768Y-15245969D02*
X19356244Y-15226922D01*
X19356244Y-15226922D02*
X19346720Y-15217398D01*
X19346720Y-15217398D02*
X19327672Y-15207874D01*
X19327672Y-15207874D02*
X19289577Y-15207874D01*
X19289577Y-15207874D02*
X19270529Y-15217398D01*
X19270529Y-15217398D02*
X19261006Y-15226922D01*
X19261006Y-15226922D02*
X19251482Y-15245969D01*
X19537196Y-15131684D02*
X19499101Y-15131684D01*
X19499101Y-15131684D02*
X19480053Y-15141208D01*
X19480053Y-15141208D02*
X19470529Y-15150731D01*
X19470529Y-15150731D02*
X19451482Y-15179303D01*
X19451482Y-15179303D02*
X19441958Y-15217398D01*
X19441958Y-15217398D02*
X19441958Y-15293588D01*
X19441958Y-15293588D02*
X19451482Y-15312636D01*
X19451482Y-15312636D02*
X19461006Y-15322160D01*
X19461006Y-15322160D02*
X19480053Y-15331684D01*
X19480053Y-15331684D02*
X19518149Y-15331684D01*
X19518149Y-15331684D02*
X19537196Y-15322160D01*
X19537196Y-15322160D02*
X19546720Y-15312636D01*
X19546720Y-15312636D02*
X19556244Y-15293588D01*
X19556244Y-15293588D02*
X19556244Y-15245969D01*
X19556244Y-15245969D02*
X19546720Y-15226922D01*
X19546720Y-15226922D02*
X19537196Y-15217398D01*
X19537196Y-15217398D02*
X19518149Y-15207874D01*
X19518149Y-15207874D02*
X19480053Y-15207874D01*
X19480053Y-15207874D02*
X19461006Y-15217398D01*
X19461006Y-15217398D02*
X19451482Y-15226922D01*
X19451482Y-15226922D02*
X19441958Y-15245969D01*
X19632434Y-15131684D02*
X19632434Y-15169779D01*
X19708625Y-15131684D02*
X19708625Y-15169779D01*
X20003863Y-15407874D02*
X19994339Y-15398350D01*
X19994339Y-15398350D02*
X19975291Y-15369779D01*
X19975291Y-15369779D02*
X19965768Y-15350731D01*
X19965768Y-15350731D02*
X19956244Y-15322160D01*
X19956244Y-15322160D02*
X19946720Y-15274541D01*
X19946720Y-15274541D02*
X19946720Y-15236446D01*
X19946720Y-15236446D02*
X19956244Y-15188827D01*
X19956244Y-15188827D02*
X19965768Y-15160255D01*
X19965768Y-15160255D02*
X19975291Y-15141208D01*
X19975291Y-15141208D02*
X19994339Y-15112636D01*
X19994339Y-15112636D02*
X20003863Y-15103112D01*
X20165768Y-15198350D02*
X20165768Y-15331684D01*
X20118149Y-15122160D02*
X20070530Y-15265017D01*
X20070530Y-15265017D02*
X20194339Y-15265017D01*
X20422911Y-15331684D02*
X20422911Y-15131684D01*
X20508625Y-15331684D02*
X20508625Y-15226922D01*
X20508625Y-15226922D02*
X20499101Y-15207874D01*
X20499101Y-15207874D02*
X20480053Y-15198350D01*
X20480053Y-15198350D02*
X20451482Y-15198350D01*
X20451482Y-15198350D02*
X20432434Y-15207874D01*
X20432434Y-15207874D02*
X20422911Y-15217398D01*
X20632434Y-15331684D02*
X20613387Y-15322160D01*
X20613387Y-15322160D02*
X20603863Y-15312636D01*
X20603863Y-15312636D02*
X20594339Y-15293588D01*
X20594339Y-15293588D02*
X20594339Y-15236446D01*
X20594339Y-15236446D02*
X20603863Y-15217398D01*
X20603863Y-15217398D02*
X20613387Y-15207874D01*
X20613387Y-15207874D02*
X20632434Y-15198350D01*
X20632434Y-15198350D02*
X20661006Y-15198350D01*
X20661006Y-15198350D02*
X20680053Y-15207874D01*
X20680053Y-15207874D02*
X20689577Y-15217398D01*
X20689577Y-15217398D02*
X20699101Y-15236446D01*
X20699101Y-15236446D02*
X20699101Y-15293588D01*
X20699101Y-15293588D02*
X20689577Y-15312636D01*
X20689577Y-15312636D02*
X20680053Y-15322160D01*
X20680053Y-15322160D02*
X20661006Y-15331684D01*
X20661006Y-15331684D02*
X20632434Y-15331684D01*
X20813387Y-15331684D02*
X20794339Y-15322160D01*
X20794339Y-15322160D02*
X20784815Y-15303112D01*
X20784815Y-15303112D02*
X20784815Y-15131684D01*
X20965768Y-15322160D02*
X20946720Y-15331684D01*
X20946720Y-15331684D02*
X20908625Y-15331684D01*
X20908625Y-15331684D02*
X20889577Y-15322160D01*
X20889577Y-15322160D02*
X20880053Y-15303112D01*
X20880053Y-15303112D02*
X20880053Y-15226922D01*
X20880053Y-15226922D02*
X20889577Y-15207874D01*
X20889577Y-15207874D02*
X20908625Y-15198350D01*
X20908625Y-15198350D02*
X20946720Y-15198350D01*
X20946720Y-15198350D02*
X20965768Y-15207874D01*
X20965768Y-15207874D02*
X20975292Y-15226922D01*
X20975292Y-15226922D02*
X20975292Y-15245969D01*
X20975292Y-15245969D02*
X20880053Y-15265017D01*
X21051482Y-15322160D02*
X21070530Y-15331684D01*
X21070530Y-15331684D02*
X21108625Y-15331684D01*
X21108625Y-15331684D02*
X21127673Y-15322160D01*
X21127673Y-15322160D02*
X21137196Y-15303112D01*
X21137196Y-15303112D02*
X21137196Y-15293588D01*
X21137196Y-15293588D02*
X21127673Y-15274541D01*
X21127673Y-15274541D02*
X21108625Y-15265017D01*
X21108625Y-15265017D02*
X21080053Y-15265017D01*
X21080053Y-15265017D02*
X21061006Y-15255493D01*
X21061006Y-15255493D02*
X21051482Y-15236446D01*
X21051482Y-15236446D02*
X21051482Y-15226922D01*
X21051482Y-15226922D02*
X21061006Y-15207874D01*
X21061006Y-15207874D02*
X21080053Y-15198350D01*
X21080053Y-15198350D02*
X21108625Y-15198350D01*
X21108625Y-15198350D02*
X21127673Y-15207874D01*
X21203863Y-15407874D02*
X21213387Y-15398350D01*
X21213387Y-15398350D02*
X21232434Y-15369779D01*
X21232434Y-15369779D02*
X21241958Y-15350731D01*
X21241958Y-15350731D02*
X21251482Y-15322160D01*
X21251482Y-15322160D02*
X21261006Y-15274541D01*
X21261006Y-15274541D02*
X21261006Y-15236446D01*
X21261006Y-15236446D02*
X21251482Y-15188827D01*
X21251482Y-15188827D02*
X21241958Y-15160255D01*
X21241958Y-15160255D02*
X21232434Y-15141208D01*
X21232434Y-15141208D02*
X21213387Y-15112636D01*
X21213387Y-15112636D02*
X21203863Y-15103112D01*
M02*
