G04 #@! TF.GenerationSoftware,KiCad,Pcbnew,7.0.5*
G04 #@! TF.CreationDate,2023-06-15T17:11:32+02:00*
G04 #@! TF.ProjectId,euroc_controller,6575726f-635f-4636-9f6e-74726f6c6c65,rev?*
G04 #@! TF.SameCoordinates,Original*
G04 #@! TF.FileFunction,Legend,Top*
G04 #@! TF.FilePolarity,Positive*
%FSLAX46Y46*%
G04 Gerber Fmt 4.6, Leading zero omitted, Abs format (unit mm)*
G04 Created by KiCad (PCBNEW 7.0.5) date 2023-06-15 17:11:32*
%MOMM*%
%LPD*%
G01*
G04 APERTURE LIST*
G04 Aperture macros list*
%AMRoundRect*
0 Rectangle with rounded corners*
0 $1 Rounding radius*
0 $2 $3 $4 $5 $6 $7 $8 $9 X,Y pos of 4 corners*
0 Add a 4 corners polygon primitive as box body*
4,1,4,$2,$3,$4,$5,$6,$7,$8,$9,$2,$3,0*
0 Add four circle primitives for the rounded corners*
1,1,$1+$1,$2,$3*
1,1,$1+$1,$4,$5*
1,1,$1+$1,$6,$7*
1,1,$1+$1,$8,$9*
0 Add four rect primitives between the rounded corners*
20,1,$1+$1,$2,$3,$4,$5,0*
20,1,$1+$1,$4,$5,$6,$7,0*
20,1,$1+$1,$6,$7,$8,$9,0*
20,1,$1+$1,$8,$9,$2,$3,0*%
G04 Aperture macros list end*
%ADD10C,0.300000*%
%ADD11C,0.220000*%
%ADD12C,0.250000*%
%ADD13C,0.150000*%
%ADD14C,0.120000*%
%ADD15C,0.100000*%
%ADD16RoundRect,0.150000X-0.625000X0.150000X-0.625000X-0.150000X0.625000X-0.150000X0.625000X0.150000X0*%
%ADD17RoundRect,0.250000X-0.650000X0.350000X-0.650000X-0.350000X0.650000X-0.350000X0.650000X0.350000X0*%
%ADD18R,2.500000X1.000000*%
%ADD19C,0.700000*%
%ADD20C,4.400000*%
%ADD21RoundRect,0.218750X-0.256250X0.218750X-0.256250X-0.218750X0.256250X-0.218750X0.256250X0.218750X0*%
%ADD22RoundRect,0.200000X-0.275000X0.200000X-0.275000X-0.200000X0.275000X-0.200000X0.275000X0.200000X0*%
%ADD23C,1.400000*%
%ADD24R,3.500000X3.500000*%
%ADD25C,3.500000*%
%ADD26RoundRect,0.200100X-0.949900X-0.949900X0.949900X-0.949900X0.949900X0.949900X-0.949900X0.949900X0*%
%ADD27C,2.500000*%
%ADD28R,2.100000X2.100000*%
%ADD29C,2.100000*%
%ADD30R,2.500000X2.500000*%
%ADD31R,1.000000X2.500000*%
%ADD32C,0.600000*%
%ADD33O,1.700000X0.900000*%
%ADD34O,2.000000X0.900000*%
G04 APERTURE END LIST*
D10*
X193605161Y-65493584D02*
X193700400Y-65588822D01*
X193700400Y-65588822D02*
X193795638Y-65874536D01*
X193795638Y-65874536D02*
X193795638Y-66065012D01*
X193795638Y-66065012D02*
X193700400Y-66350727D01*
X193700400Y-66350727D02*
X193509923Y-66541203D01*
X193509923Y-66541203D02*
X193319447Y-66636441D01*
X193319447Y-66636441D02*
X192938495Y-66731679D01*
X192938495Y-66731679D02*
X192652780Y-66731679D01*
X192652780Y-66731679D02*
X192271828Y-66636441D01*
X192271828Y-66636441D02*
X192081352Y-66541203D01*
X192081352Y-66541203D02*
X191890876Y-66350727D01*
X191890876Y-66350727D02*
X191795638Y-66065012D01*
X191795638Y-66065012D02*
X191795638Y-65874536D01*
X191795638Y-65874536D02*
X191890876Y-65588822D01*
X191890876Y-65588822D02*
X191986114Y-65493584D01*
X193224209Y-64731679D02*
X193224209Y-63779298D01*
X193795638Y-64922155D02*
X191795638Y-64255489D01*
X191795638Y-64255489D02*
X193795638Y-63588822D01*
X193795638Y-62922155D02*
X191795638Y-62922155D01*
X191795638Y-62922155D02*
X193795638Y-61779298D01*
X193795638Y-61779298D02*
X191795638Y-61779298D01*
D11*
X192901369Y-83192787D02*
X192839464Y-83316597D01*
X192839464Y-83316597D02*
X192839464Y-83502311D01*
X192839464Y-83502311D02*
X192901369Y-83688025D01*
X192901369Y-83688025D02*
X193025179Y-83811835D01*
X193025179Y-83811835D02*
X193148988Y-83873740D01*
X193148988Y-83873740D02*
X193396607Y-83935644D01*
X193396607Y-83935644D02*
X193582321Y-83935644D01*
X193582321Y-83935644D02*
X193829940Y-83873740D01*
X193829940Y-83873740D02*
X193953750Y-83811835D01*
X193953750Y-83811835D02*
X194077560Y-83688025D01*
X194077560Y-83688025D02*
X194139464Y-83502311D01*
X194139464Y-83502311D02*
X194139464Y-83378502D01*
X194139464Y-83378502D02*
X194077560Y-83192787D01*
X194077560Y-83192787D02*
X194015655Y-83130883D01*
X194015655Y-83130883D02*
X193582321Y-83130883D01*
X193582321Y-83130883D02*
X193582321Y-83378502D01*
X194139464Y-82573740D02*
X192839464Y-82573740D01*
X192839464Y-82573740D02*
X192839464Y-82078502D01*
X192839464Y-82078502D02*
X192901369Y-81954692D01*
X192901369Y-81954692D02*
X192963274Y-81892787D01*
X192963274Y-81892787D02*
X193087083Y-81830883D01*
X193087083Y-81830883D02*
X193272798Y-81830883D01*
X193272798Y-81830883D02*
X193396607Y-81892787D01*
X193396607Y-81892787D02*
X193458512Y-81954692D01*
X193458512Y-81954692D02*
X193520417Y-82078502D01*
X193520417Y-82078502D02*
X193520417Y-82573740D01*
X194077560Y-81335644D02*
X194139464Y-81149930D01*
X194139464Y-81149930D02*
X194139464Y-80840406D01*
X194139464Y-80840406D02*
X194077560Y-80716597D01*
X194077560Y-80716597D02*
X194015655Y-80654692D01*
X194015655Y-80654692D02*
X193891845Y-80592787D01*
X193891845Y-80592787D02*
X193768036Y-80592787D01*
X193768036Y-80592787D02*
X193644226Y-80654692D01*
X193644226Y-80654692D02*
X193582321Y-80716597D01*
X193582321Y-80716597D02*
X193520417Y-80840406D01*
X193520417Y-80840406D02*
X193458512Y-81088025D01*
X193458512Y-81088025D02*
X193396607Y-81211835D01*
X193396607Y-81211835D02*
X193334702Y-81273740D01*
X193334702Y-81273740D02*
X193210893Y-81335644D01*
X193210893Y-81335644D02*
X193087083Y-81335644D01*
X193087083Y-81335644D02*
X192963274Y-81273740D01*
X192963274Y-81273740D02*
X192901369Y-81211835D01*
X192901369Y-81211835D02*
X192839464Y-81088025D01*
X192839464Y-81088025D02*
X192839464Y-80778502D01*
X192839464Y-80778502D02*
X192901369Y-80592787D01*
X194139464Y-92255740D02*
X192839464Y-92255740D01*
X192839464Y-91389073D02*
X192839464Y-91141454D01*
X192839464Y-91141454D02*
X192901369Y-91017644D01*
X192901369Y-91017644D02*
X193025179Y-90893835D01*
X193025179Y-90893835D02*
X193272798Y-90831930D01*
X193272798Y-90831930D02*
X193706131Y-90831930D01*
X193706131Y-90831930D02*
X193953750Y-90893835D01*
X193953750Y-90893835D02*
X194077560Y-91017644D01*
X194077560Y-91017644D02*
X194139464Y-91141454D01*
X194139464Y-91141454D02*
X194139464Y-91389073D01*
X194139464Y-91389073D02*
X194077560Y-91512882D01*
X194077560Y-91512882D02*
X193953750Y-91636692D01*
X193953750Y-91636692D02*
X193706131Y-91698596D01*
X193706131Y-91698596D02*
X193272798Y-91698596D01*
X193272798Y-91698596D02*
X193025179Y-91636692D01*
X193025179Y-91636692D02*
X192901369Y-91512882D01*
X192901369Y-91512882D02*
X192839464Y-91389073D01*
D10*
X191795638Y-75272441D02*
X193414685Y-75272441D01*
X193414685Y-75272441D02*
X193605161Y-75177203D01*
X193605161Y-75177203D02*
X193700400Y-75081965D01*
X193700400Y-75081965D02*
X193795638Y-74891489D01*
X193795638Y-74891489D02*
X193795638Y-74510536D01*
X193795638Y-74510536D02*
X193700400Y-74320060D01*
X193700400Y-74320060D02*
X193605161Y-74224822D01*
X193605161Y-74224822D02*
X193414685Y-74129584D01*
X193414685Y-74129584D02*
X191795638Y-74129584D01*
X193224209Y-73272441D02*
X193224209Y-72320060D01*
X193795638Y-73462917D02*
X191795638Y-72796251D01*
X191795638Y-72796251D02*
X193795638Y-72129584D01*
X193795638Y-70320060D02*
X192843257Y-70986727D01*
X193795638Y-71462917D02*
X191795638Y-71462917D01*
X191795638Y-71462917D02*
X191795638Y-70701012D01*
X191795638Y-70701012D02*
X191890876Y-70510536D01*
X191890876Y-70510536D02*
X191986114Y-70415298D01*
X191986114Y-70415298D02*
X192176590Y-70320060D01*
X192176590Y-70320060D02*
X192462304Y-70320060D01*
X192462304Y-70320060D02*
X192652780Y-70415298D01*
X192652780Y-70415298D02*
X192748019Y-70510536D01*
X192748019Y-70510536D02*
X192843257Y-70701012D01*
X192843257Y-70701012D02*
X192843257Y-71462917D01*
X191795638Y-69748631D02*
X191795638Y-68605774D01*
X193795638Y-69177203D02*
X191795638Y-69177203D01*
D11*
X194139464Y-88699740D02*
X192839464Y-88699740D01*
X192839464Y-88699740D02*
X192839464Y-88204502D01*
X192839464Y-88204502D02*
X192901369Y-88080692D01*
X192901369Y-88080692D02*
X192963274Y-88018787D01*
X192963274Y-88018787D02*
X193087083Y-87956883D01*
X193087083Y-87956883D02*
X193272798Y-87956883D01*
X193272798Y-87956883D02*
X193396607Y-88018787D01*
X193396607Y-88018787D02*
X193458512Y-88080692D01*
X193458512Y-88080692D02*
X193520417Y-88204502D01*
X193520417Y-88204502D02*
X193520417Y-88699740D01*
X192839464Y-87523549D02*
X194139464Y-87214025D01*
X194139464Y-87214025D02*
X193210893Y-86966406D01*
X193210893Y-86966406D02*
X194139464Y-86718787D01*
X194139464Y-86718787D02*
X192839464Y-86409264D01*
X194139464Y-85171169D02*
X193520417Y-85604502D01*
X194139464Y-85914026D02*
X192839464Y-85914026D01*
X192839464Y-85914026D02*
X192839464Y-85418788D01*
X192839464Y-85418788D02*
X192901369Y-85294978D01*
X192901369Y-85294978D02*
X192963274Y-85233073D01*
X192963274Y-85233073D02*
X193087083Y-85171169D01*
X193087083Y-85171169D02*
X193272798Y-85171169D01*
X193272798Y-85171169D02*
X193396607Y-85233073D01*
X193396607Y-85233073D02*
X193458512Y-85294978D01*
X193458512Y-85294978D02*
X193520417Y-85418788D01*
X193520417Y-85418788D02*
X193520417Y-85914026D01*
D10*
X182770939Y-118516638D02*
X184194748Y-118516638D01*
X184194748Y-118516638D02*
X183428082Y-119278542D01*
X183428082Y-119278542D02*
X183756653Y-119278542D01*
X183756653Y-119278542D02*
X183975701Y-119373780D01*
X183975701Y-119373780D02*
X184085225Y-119469019D01*
X184085225Y-119469019D02*
X184194748Y-119659495D01*
X184194748Y-119659495D02*
X184194748Y-120135685D01*
X184194748Y-120135685D02*
X184085225Y-120326161D01*
X184085225Y-120326161D02*
X183975701Y-120421400D01*
X183975701Y-120421400D02*
X183756653Y-120516638D01*
X183756653Y-120516638D02*
X183099510Y-120516638D01*
X183099510Y-120516638D02*
X182880463Y-120421400D01*
X182880463Y-120421400D02*
X182770939Y-120326161D01*
X185180463Y-119754733D02*
X186932844Y-119754733D01*
X187918558Y-118707114D02*
X188028082Y-118611876D01*
X188028082Y-118611876D02*
X188247129Y-118516638D01*
X188247129Y-118516638D02*
X188794748Y-118516638D01*
X188794748Y-118516638D02*
X189013796Y-118611876D01*
X189013796Y-118611876D02*
X189123320Y-118707114D01*
X189123320Y-118707114D02*
X189232843Y-118897590D01*
X189232843Y-118897590D02*
X189232843Y-119088066D01*
X189232843Y-119088066D02*
X189123320Y-119373780D01*
X189123320Y-119373780D02*
X187809034Y-120516638D01*
X187809034Y-120516638D02*
X189232843Y-120516638D01*
X190218558Y-119754733D02*
X191970939Y-119754733D01*
X194270938Y-120516638D02*
X192956653Y-120516638D01*
X193613796Y-120516638D02*
X193613796Y-118516638D01*
X193613796Y-118516638D02*
X193394748Y-118802352D01*
X193394748Y-118802352D02*
X193175700Y-118992828D01*
X193175700Y-118992828D02*
X192956653Y-119088066D01*
X195256653Y-119754733D02*
X197009034Y-119754733D01*
D12*
X183476187Y-96339571D02*
X183076187Y-96339571D01*
X183076187Y-96968142D02*
X183076187Y-95768142D01*
X183076187Y-95768142D02*
X183647615Y-95768142D01*
X184104758Y-96168142D02*
X184104758Y-97196714D01*
X184104758Y-97196714D02*
X184047615Y-97311000D01*
X184047615Y-97311000D02*
X183933329Y-97368142D01*
X183933329Y-97368142D02*
X183876186Y-97368142D01*
X184104758Y-95768142D02*
X184047615Y-95825285D01*
X184047615Y-95825285D02*
X184104758Y-95882428D01*
X184104758Y-95882428D02*
X184161901Y-95825285D01*
X184161901Y-95825285D02*
X184104758Y-95768142D01*
X184104758Y-95768142D02*
X184104758Y-95882428D01*
X185190473Y-96968142D02*
X185190473Y-96339571D01*
X185190473Y-96339571D02*
X185133330Y-96225285D01*
X185133330Y-96225285D02*
X185019044Y-96168142D01*
X185019044Y-96168142D02*
X184790473Y-96168142D01*
X184790473Y-96168142D02*
X184676187Y-96225285D01*
X185190473Y-96911000D02*
X185076187Y-96968142D01*
X185076187Y-96968142D02*
X184790473Y-96968142D01*
X184790473Y-96968142D02*
X184676187Y-96911000D01*
X184676187Y-96911000D02*
X184619044Y-96796714D01*
X184619044Y-96796714D02*
X184619044Y-96682428D01*
X184619044Y-96682428D02*
X184676187Y-96568142D01*
X184676187Y-96568142D02*
X184790473Y-96511000D01*
X184790473Y-96511000D02*
X185076187Y-96511000D01*
X185076187Y-96511000D02*
X185190473Y-96453857D01*
X185933329Y-96968142D02*
X185819044Y-96911000D01*
X185819044Y-96911000D02*
X185761901Y-96796714D01*
X185761901Y-96796714D02*
X185761901Y-95768142D01*
X186904758Y-96968142D02*
X186904758Y-96339571D01*
X186904758Y-96339571D02*
X186847615Y-96225285D01*
X186847615Y-96225285D02*
X186733329Y-96168142D01*
X186733329Y-96168142D02*
X186504758Y-96168142D01*
X186504758Y-96168142D02*
X186390472Y-96225285D01*
X186904758Y-96911000D02*
X186790472Y-96968142D01*
X186790472Y-96968142D02*
X186504758Y-96968142D01*
X186504758Y-96968142D02*
X186390472Y-96911000D01*
X186390472Y-96911000D02*
X186333329Y-96796714D01*
X186333329Y-96796714D02*
X186333329Y-96682428D01*
X186333329Y-96682428D02*
X186390472Y-96568142D01*
X186390472Y-96568142D02*
X186504758Y-96511000D01*
X186504758Y-96511000D02*
X186790472Y-96511000D01*
X186790472Y-96511000D02*
X186904758Y-96453857D01*
X187476186Y-96968142D02*
X187476186Y-96168142D01*
X187476186Y-96396714D02*
X187533329Y-96282428D01*
X187533329Y-96282428D02*
X187590472Y-96225285D01*
X187590472Y-96225285D02*
X187704757Y-96168142D01*
X187704757Y-96168142D02*
X187819043Y-96168142D01*
X188961900Y-95768142D02*
X189361900Y-96968142D01*
X189361900Y-96968142D02*
X189761900Y-95768142D01*
X190790471Y-96968142D02*
X190104757Y-96968142D01*
X190447614Y-96968142D02*
X190447614Y-95768142D01*
X190447614Y-95768142D02*
X190333328Y-95939571D01*
X190333328Y-95939571D02*
X190219043Y-96053857D01*
X190219043Y-96053857D02*
X190104757Y-96111000D01*
X191304757Y-96853857D02*
X191361900Y-96911000D01*
X191361900Y-96911000D02*
X191304757Y-96968142D01*
X191304757Y-96968142D02*
X191247614Y-96911000D01*
X191247614Y-96911000D02*
X191304757Y-96853857D01*
X191304757Y-96853857D02*
X191304757Y-96968142D01*
X192104757Y-95768142D02*
X192219043Y-95768142D01*
X192219043Y-95768142D02*
X192333329Y-95825285D01*
X192333329Y-95825285D02*
X192390472Y-95882428D01*
X192390472Y-95882428D02*
X192447614Y-95996714D01*
X192447614Y-95996714D02*
X192504757Y-96225285D01*
X192504757Y-96225285D02*
X192504757Y-96511000D01*
X192504757Y-96511000D02*
X192447614Y-96739571D01*
X192447614Y-96739571D02*
X192390472Y-96853857D01*
X192390472Y-96853857D02*
X192333329Y-96911000D01*
X192333329Y-96911000D02*
X192219043Y-96968142D01*
X192219043Y-96968142D02*
X192104757Y-96968142D01*
X192104757Y-96968142D02*
X191990472Y-96911000D01*
X191990472Y-96911000D02*
X191933329Y-96853857D01*
X191933329Y-96853857D02*
X191876186Y-96739571D01*
X191876186Y-96739571D02*
X191819043Y-96511000D01*
X191819043Y-96511000D02*
X191819043Y-96225285D01*
X191819043Y-96225285D02*
X191876186Y-95996714D01*
X191876186Y-95996714D02*
X191933329Y-95882428D01*
X191933329Y-95882428D02*
X191990472Y-95825285D01*
X191990472Y-95825285D02*
X192104757Y-95768142D01*
X183076187Y-98900142D02*
X183076187Y-97700142D01*
X183076187Y-97700142D02*
X183476187Y-98557285D01*
X183476187Y-98557285D02*
X183876187Y-97700142D01*
X183876187Y-97700142D02*
X183876187Y-98900142D01*
X184961902Y-98900142D02*
X184961902Y-98271571D01*
X184961902Y-98271571D02*
X184904759Y-98157285D01*
X184904759Y-98157285D02*
X184790473Y-98100142D01*
X184790473Y-98100142D02*
X184561902Y-98100142D01*
X184561902Y-98100142D02*
X184447616Y-98157285D01*
X184961902Y-98843000D02*
X184847616Y-98900142D01*
X184847616Y-98900142D02*
X184561902Y-98900142D01*
X184561902Y-98900142D02*
X184447616Y-98843000D01*
X184447616Y-98843000D02*
X184390473Y-98728714D01*
X184390473Y-98728714D02*
X184390473Y-98614428D01*
X184390473Y-98614428D02*
X184447616Y-98500142D01*
X184447616Y-98500142D02*
X184561902Y-98443000D01*
X184561902Y-98443000D02*
X184847616Y-98443000D01*
X184847616Y-98443000D02*
X184961902Y-98385857D01*
X185419044Y-98100142D02*
X185704758Y-98900142D01*
X185990473Y-98100142D02*
X185704758Y-98900142D01*
X185704758Y-98900142D02*
X185590473Y-99185857D01*
X185590473Y-99185857D02*
X185533330Y-99243000D01*
X185533330Y-99243000D02*
X185419044Y-99300142D01*
X187304759Y-97814428D02*
X187361902Y-97757285D01*
X187361902Y-97757285D02*
X187476188Y-97700142D01*
X187476188Y-97700142D02*
X187761902Y-97700142D01*
X187761902Y-97700142D02*
X187876188Y-97757285D01*
X187876188Y-97757285D02*
X187933330Y-97814428D01*
X187933330Y-97814428D02*
X187990473Y-97928714D01*
X187990473Y-97928714D02*
X187990473Y-98043000D01*
X187990473Y-98043000D02*
X187933330Y-98214428D01*
X187933330Y-98214428D02*
X187247616Y-98900142D01*
X187247616Y-98900142D02*
X187990473Y-98900142D01*
X188733330Y-97700142D02*
X188847616Y-97700142D01*
X188847616Y-97700142D02*
X188961902Y-97757285D01*
X188961902Y-97757285D02*
X189019045Y-97814428D01*
X189019045Y-97814428D02*
X189076187Y-97928714D01*
X189076187Y-97928714D02*
X189133330Y-98157285D01*
X189133330Y-98157285D02*
X189133330Y-98443000D01*
X189133330Y-98443000D02*
X189076187Y-98671571D01*
X189076187Y-98671571D02*
X189019045Y-98785857D01*
X189019045Y-98785857D02*
X188961902Y-98843000D01*
X188961902Y-98843000D02*
X188847616Y-98900142D01*
X188847616Y-98900142D02*
X188733330Y-98900142D01*
X188733330Y-98900142D02*
X188619045Y-98843000D01*
X188619045Y-98843000D02*
X188561902Y-98785857D01*
X188561902Y-98785857D02*
X188504759Y-98671571D01*
X188504759Y-98671571D02*
X188447616Y-98443000D01*
X188447616Y-98443000D02*
X188447616Y-98157285D01*
X188447616Y-98157285D02*
X188504759Y-97928714D01*
X188504759Y-97928714D02*
X188561902Y-97814428D01*
X188561902Y-97814428D02*
X188619045Y-97757285D01*
X188619045Y-97757285D02*
X188733330Y-97700142D01*
X189590473Y-97814428D02*
X189647616Y-97757285D01*
X189647616Y-97757285D02*
X189761902Y-97700142D01*
X189761902Y-97700142D02*
X190047616Y-97700142D01*
X190047616Y-97700142D02*
X190161902Y-97757285D01*
X190161902Y-97757285D02*
X190219044Y-97814428D01*
X190219044Y-97814428D02*
X190276187Y-97928714D01*
X190276187Y-97928714D02*
X190276187Y-98043000D01*
X190276187Y-98043000D02*
X190219044Y-98214428D01*
X190219044Y-98214428D02*
X189533330Y-98900142D01*
X189533330Y-98900142D02*
X190276187Y-98900142D01*
X190676187Y-97700142D02*
X191419044Y-97700142D01*
X191419044Y-97700142D02*
X191019044Y-98157285D01*
X191019044Y-98157285D02*
X191190473Y-98157285D01*
X191190473Y-98157285D02*
X191304759Y-98214428D01*
X191304759Y-98214428D02*
X191361901Y-98271571D01*
X191361901Y-98271571D02*
X191419044Y-98385857D01*
X191419044Y-98385857D02*
X191419044Y-98671571D01*
X191419044Y-98671571D02*
X191361901Y-98785857D01*
X191361901Y-98785857D02*
X191304759Y-98843000D01*
X191304759Y-98843000D02*
X191190473Y-98900142D01*
X191190473Y-98900142D02*
X190847616Y-98900142D01*
X190847616Y-98900142D02*
X190733330Y-98843000D01*
X190733330Y-98843000D02*
X190676187Y-98785857D01*
D10*
X193795638Y-58254441D02*
X191795638Y-58254441D01*
X191986114Y-57397298D02*
X191890876Y-57302060D01*
X191890876Y-57302060D02*
X191795638Y-57111584D01*
X191795638Y-57111584D02*
X191795638Y-56635393D01*
X191795638Y-56635393D02*
X191890876Y-56444917D01*
X191890876Y-56444917D02*
X191986114Y-56349679D01*
X191986114Y-56349679D02*
X192176590Y-56254441D01*
X192176590Y-56254441D02*
X192367066Y-56254441D01*
X192367066Y-56254441D02*
X192652780Y-56349679D01*
X192652780Y-56349679D02*
X193795638Y-57492536D01*
X193795638Y-57492536D02*
X193795638Y-56254441D01*
X193605161Y-54254441D02*
X193700400Y-54349679D01*
X193700400Y-54349679D02*
X193795638Y-54635393D01*
X193795638Y-54635393D02*
X193795638Y-54825869D01*
X193795638Y-54825869D02*
X193700400Y-55111584D01*
X193700400Y-55111584D02*
X193509923Y-55302060D01*
X193509923Y-55302060D02*
X193319447Y-55397298D01*
X193319447Y-55397298D02*
X192938495Y-55492536D01*
X192938495Y-55492536D02*
X192652780Y-55492536D01*
X192652780Y-55492536D02*
X192271828Y-55397298D01*
X192271828Y-55397298D02*
X192081352Y-55302060D01*
X192081352Y-55302060D02*
X191890876Y-55111584D01*
X191890876Y-55111584D02*
X191795638Y-54825869D01*
X191795638Y-54825869D02*
X191795638Y-54635393D01*
X191795638Y-54635393D02*
X191890876Y-54349679D01*
X191890876Y-54349679D02*
X191986114Y-54254441D01*
D13*
X196804428Y-80603164D02*
X196804428Y-79853164D01*
X196804428Y-79853164D02*
X196982999Y-79853164D01*
X196982999Y-79853164D02*
X197090142Y-79888878D01*
X197090142Y-79888878D02*
X197161571Y-79960307D01*
X197161571Y-79960307D02*
X197197285Y-80031735D01*
X197197285Y-80031735D02*
X197232999Y-80174592D01*
X197232999Y-80174592D02*
X197232999Y-80281735D01*
X197232999Y-80281735D02*
X197197285Y-80424592D01*
X197197285Y-80424592D02*
X197161571Y-80496021D01*
X197161571Y-80496021D02*
X197090142Y-80567450D01*
X197090142Y-80567450D02*
X196982999Y-80603164D01*
X196982999Y-80603164D02*
X196804428Y-80603164D01*
X197518714Y-79924592D02*
X197554428Y-79888878D01*
X197554428Y-79888878D02*
X197625857Y-79853164D01*
X197625857Y-79853164D02*
X197804428Y-79853164D01*
X197804428Y-79853164D02*
X197875857Y-79888878D01*
X197875857Y-79888878D02*
X197911571Y-79924592D01*
X197911571Y-79924592D02*
X197947285Y-79996021D01*
X197947285Y-79996021D02*
X197947285Y-80067450D01*
X197947285Y-80067450D02*
X197911571Y-80174592D01*
X197911571Y-80174592D02*
X197482999Y-80603164D01*
X197482999Y-80603164D02*
X197947285Y-80603164D01*
X195200999Y-85175164D02*
X194950999Y-84818021D01*
X194772428Y-85175164D02*
X194772428Y-84425164D01*
X194772428Y-84425164D02*
X195058142Y-84425164D01*
X195058142Y-84425164D02*
X195129571Y-84460878D01*
X195129571Y-84460878D02*
X195165285Y-84496592D01*
X195165285Y-84496592D02*
X195200999Y-84568021D01*
X195200999Y-84568021D02*
X195200999Y-84675164D01*
X195200999Y-84675164D02*
X195165285Y-84746592D01*
X195165285Y-84746592D02*
X195129571Y-84782307D01*
X195129571Y-84782307D02*
X195058142Y-84818021D01*
X195058142Y-84818021D02*
X194772428Y-84818021D01*
X195558142Y-85175164D02*
X195700999Y-85175164D01*
X195700999Y-85175164D02*
X195772428Y-85139450D01*
X195772428Y-85139450D02*
X195808142Y-85103735D01*
X195808142Y-85103735D02*
X195879571Y-84996592D01*
X195879571Y-84996592D02*
X195915285Y-84853735D01*
X195915285Y-84853735D02*
X195915285Y-84568021D01*
X195915285Y-84568021D02*
X195879571Y-84496592D01*
X195879571Y-84496592D02*
X195843857Y-84460878D01*
X195843857Y-84460878D02*
X195772428Y-84425164D01*
X195772428Y-84425164D02*
X195629571Y-84425164D01*
X195629571Y-84425164D02*
X195558142Y-84460878D01*
X195558142Y-84460878D02*
X195522428Y-84496592D01*
X195522428Y-84496592D02*
X195486714Y-84568021D01*
X195486714Y-84568021D02*
X195486714Y-84746592D01*
X195486714Y-84746592D02*
X195522428Y-84818021D01*
X195522428Y-84818021D02*
X195558142Y-84853735D01*
X195558142Y-84853735D02*
X195629571Y-84889450D01*
X195629571Y-84889450D02*
X195772428Y-84889450D01*
X195772428Y-84889450D02*
X195843857Y-84853735D01*
X195843857Y-84853735D02*
X195879571Y-84818021D01*
X195879571Y-84818021D02*
X195915285Y-84746592D01*
X196804428Y-89747164D02*
X196804428Y-88997164D01*
X196804428Y-88997164D02*
X196982999Y-88997164D01*
X196982999Y-88997164D02*
X197090142Y-89032878D01*
X197090142Y-89032878D02*
X197161571Y-89104307D01*
X197161571Y-89104307D02*
X197197285Y-89175735D01*
X197197285Y-89175735D02*
X197232999Y-89318592D01*
X197232999Y-89318592D02*
X197232999Y-89425735D01*
X197232999Y-89425735D02*
X197197285Y-89568592D01*
X197197285Y-89568592D02*
X197161571Y-89640021D01*
X197161571Y-89640021D02*
X197090142Y-89711450D01*
X197090142Y-89711450D02*
X196982999Y-89747164D01*
X196982999Y-89747164D02*
X196804428Y-89747164D01*
X197590142Y-89747164D02*
X197732999Y-89747164D01*
X197732999Y-89747164D02*
X197804428Y-89711450D01*
X197804428Y-89711450D02*
X197840142Y-89675735D01*
X197840142Y-89675735D02*
X197911571Y-89568592D01*
X197911571Y-89568592D02*
X197947285Y-89425735D01*
X197947285Y-89425735D02*
X197947285Y-89140021D01*
X197947285Y-89140021D02*
X197911571Y-89068592D01*
X197911571Y-89068592D02*
X197875857Y-89032878D01*
X197875857Y-89032878D02*
X197804428Y-88997164D01*
X197804428Y-88997164D02*
X197661571Y-88997164D01*
X197661571Y-88997164D02*
X197590142Y-89032878D01*
X197590142Y-89032878D02*
X197554428Y-89068592D01*
X197554428Y-89068592D02*
X197518714Y-89140021D01*
X197518714Y-89140021D02*
X197518714Y-89318592D01*
X197518714Y-89318592D02*
X197554428Y-89390021D01*
X197554428Y-89390021D02*
X197590142Y-89425735D01*
X197590142Y-89425735D02*
X197661571Y-89461450D01*
X197661571Y-89461450D02*
X197804428Y-89461450D01*
X197804428Y-89461450D02*
X197875857Y-89425735D01*
X197875857Y-89425735D02*
X197911571Y-89390021D01*
X197911571Y-89390021D02*
X197947285Y-89318592D01*
X195097856Y-89747164D02*
X194847856Y-89390021D01*
X194669285Y-89747164D02*
X194669285Y-88997164D01*
X194669285Y-88997164D02*
X194954999Y-88997164D01*
X194954999Y-88997164D02*
X195026428Y-89032878D01*
X195026428Y-89032878D02*
X195062142Y-89068592D01*
X195062142Y-89068592D02*
X195097856Y-89140021D01*
X195097856Y-89140021D02*
X195097856Y-89247164D01*
X195097856Y-89247164D02*
X195062142Y-89318592D01*
X195062142Y-89318592D02*
X195026428Y-89354307D01*
X195026428Y-89354307D02*
X194954999Y-89390021D01*
X194954999Y-89390021D02*
X194669285Y-89390021D01*
X195812142Y-89747164D02*
X195383571Y-89747164D01*
X195597856Y-89747164D02*
X195597856Y-88997164D01*
X195597856Y-88997164D02*
X195526428Y-89104307D01*
X195526428Y-89104307D02*
X195454999Y-89175735D01*
X195454999Y-89175735D02*
X195383571Y-89211450D01*
X196455000Y-89247164D02*
X196455000Y-89747164D01*
X196276428Y-88961450D02*
X196097857Y-89497164D01*
X196097857Y-89497164D02*
X196562142Y-89497164D01*
X177228571Y-108224700D02*
X178371429Y-108224700D01*
X177800000Y-108796128D02*
X177800000Y-107653271D01*
X166228571Y-108224700D02*
X167371429Y-108224700D01*
X189049866Y-110362951D02*
X189049866Y-109601047D01*
X189430819Y-109981999D02*
X188668914Y-109981999D01*
X196804428Y-85175164D02*
X196804428Y-84425164D01*
X196804428Y-84425164D02*
X196982999Y-84425164D01*
X196982999Y-84425164D02*
X197090142Y-84460878D01*
X197090142Y-84460878D02*
X197161571Y-84532307D01*
X197161571Y-84532307D02*
X197197285Y-84603735D01*
X197197285Y-84603735D02*
X197232999Y-84746592D01*
X197232999Y-84746592D02*
X197232999Y-84853735D01*
X197232999Y-84853735D02*
X197197285Y-84996592D01*
X197197285Y-84996592D02*
X197161571Y-85068021D01*
X197161571Y-85068021D02*
X197090142Y-85139450D01*
X197090142Y-85139450D02*
X196982999Y-85175164D01*
X196982999Y-85175164D02*
X196804428Y-85175164D01*
X197947285Y-85175164D02*
X197518714Y-85175164D01*
X197732999Y-85175164D02*
X197732999Y-84425164D01*
X197732999Y-84425164D02*
X197661571Y-84532307D01*
X197661571Y-84532307D02*
X197590142Y-84603735D01*
X197590142Y-84603735D02*
X197518714Y-84639450D01*
X195097856Y-80603164D02*
X194847856Y-80246021D01*
X194669285Y-80603164D02*
X194669285Y-79853164D01*
X194669285Y-79853164D02*
X194954999Y-79853164D01*
X194954999Y-79853164D02*
X195026428Y-79888878D01*
X195026428Y-79888878D02*
X195062142Y-79924592D01*
X195062142Y-79924592D02*
X195097856Y-79996021D01*
X195097856Y-79996021D02*
X195097856Y-80103164D01*
X195097856Y-80103164D02*
X195062142Y-80174592D01*
X195062142Y-80174592D02*
X195026428Y-80210307D01*
X195026428Y-80210307D02*
X194954999Y-80246021D01*
X194954999Y-80246021D02*
X194669285Y-80246021D01*
X195812142Y-80603164D02*
X195383571Y-80603164D01*
X195597856Y-80603164D02*
X195597856Y-79853164D01*
X195597856Y-79853164D02*
X195526428Y-79960307D01*
X195526428Y-79960307D02*
X195454999Y-80031735D01*
X195454999Y-80031735D02*
X195383571Y-80067450D01*
X196276428Y-79853164D02*
X196347857Y-79853164D01*
X196347857Y-79853164D02*
X196419285Y-79888878D01*
X196419285Y-79888878D02*
X196455000Y-79924592D01*
X196455000Y-79924592D02*
X196490714Y-79996021D01*
X196490714Y-79996021D02*
X196526428Y-80138878D01*
X196526428Y-80138878D02*
X196526428Y-80317450D01*
X196526428Y-80317450D02*
X196490714Y-80460307D01*
X196490714Y-80460307D02*
X196455000Y-80531735D01*
X196455000Y-80531735D02*
X196419285Y-80567450D01*
X196419285Y-80567450D02*
X196347857Y-80603164D01*
X196347857Y-80603164D02*
X196276428Y-80603164D01*
X196276428Y-80603164D02*
X196205000Y-80567450D01*
X196205000Y-80567450D02*
X196169285Y-80531735D01*
X196169285Y-80531735D02*
X196133571Y-80460307D01*
X196133571Y-80460307D02*
X196097857Y-80317450D01*
X196097857Y-80317450D02*
X196097857Y-80138878D01*
X196097857Y-80138878D02*
X196133571Y-79996021D01*
X196133571Y-79996021D02*
X196169285Y-79924592D01*
X196169285Y-79924592D02*
X196205000Y-79888878D01*
X196205000Y-79888878D02*
X196276428Y-79853164D01*
D14*
X196886934Y-61152000D02*
X195736934Y-61152000D01*
X195736934Y-61152000D02*
X195736934Y-62202000D01*
X195736934Y-62202000D02*
X194746934Y-62202000D01*
X198856934Y-62322000D02*
X198856934Y-66202000D01*
X196886934Y-67372000D02*
X195736934Y-67372000D01*
X195736934Y-67372000D02*
X195736934Y-66322000D01*
X196890000Y-53272000D02*
X195740000Y-53272000D01*
X195740000Y-53272000D02*
X195740000Y-54322000D01*
X195740000Y-54322000D02*
X194750000Y-54322000D01*
X198860000Y-54442000D02*
X198860000Y-58322000D01*
X196890000Y-59492000D02*
X195740000Y-59492000D01*
X195740000Y-59492000D02*
X195740000Y-58442000D01*
X190517945Y-94970000D02*
X190517945Y-93360000D01*
X174407945Y-94970000D02*
X190517945Y-94970000D01*
X174407945Y-78750000D02*
X190407945Y-78750000D01*
X198093000Y-81002000D02*
X196623000Y-81002000D01*
X196623000Y-81002000D02*
X196623000Y-83287000D01*
X198093000Y-83287000D02*
X198093000Y-81002000D01*
G36*
X174323794Y-96021107D02*
G01*
X174351165Y-96062947D01*
X174351654Y-96064722D01*
X174366609Y-96164718D01*
X174370436Y-96302395D01*
X174364119Y-96467675D01*
X174348646Y-96650478D01*
X174325003Y-96840725D01*
X174294176Y-97028338D01*
X174257150Y-97203238D01*
X174230282Y-97305141D01*
X174221609Y-97336374D01*
X174214713Y-97363024D01*
X174208569Y-97387043D01*
X174202152Y-97410385D01*
X174194436Y-97435000D01*
X174184396Y-97462843D01*
X174171007Y-97495864D01*
X174153243Y-97536018D01*
X174130080Y-97585255D01*
X174100492Y-97645528D01*
X174063454Y-97718790D01*
X174017940Y-97806993D01*
X173962925Y-97912090D01*
X173897384Y-98036033D01*
X173820291Y-98180774D01*
X173730623Y-98348265D01*
X173627352Y-98540460D01*
X173509454Y-98759311D01*
X173375903Y-99006769D01*
X173225675Y-99284788D01*
X173057744Y-99595319D01*
X172871084Y-99940316D01*
X172664671Y-100321730D01*
X172437479Y-100741514D01*
X172188483Y-101201621D01*
X172040060Y-101475919D01*
X171877203Y-101777139D01*
X171720759Y-102066942D01*
X171572359Y-102342286D01*
X171433630Y-102600126D01*
X171306204Y-102837420D01*
X171191710Y-103051124D01*
X171091776Y-103238194D01*
X171008034Y-103395586D01*
X170942111Y-103520258D01*
X170895639Y-103609166D01*
X170870246Y-103659266D01*
X170866023Y-103668636D01*
X170861037Y-103705883D01*
X170864373Y-103769571D01*
X170876704Y-103864394D01*
X170898707Y-103995046D01*
X170931055Y-104166221D01*
X170954764Y-104285618D01*
X170996086Y-104494221D01*
X171027094Y-104660652D01*
X171048126Y-104790849D01*
X171059525Y-104890746D01*
X171061629Y-104966281D01*
X171054781Y-105023388D01*
X171039320Y-105068004D01*
X171015586Y-105106064D01*
X171002747Y-105122101D01*
X170960344Y-105166969D01*
X170915210Y-105198668D01*
X170860247Y-105217583D01*
X170788357Y-105224101D01*
X170692442Y-105218608D01*
X170565404Y-105201490D01*
X170400145Y-105173134D01*
X170323517Y-105159060D01*
X170178047Y-105131757D01*
X170047384Y-105106683D01*
X169940033Y-105085512D01*
X169864495Y-105069920D01*
X169829822Y-105061762D01*
X169812586Y-105061642D01*
X169786869Y-105072398D01*
X169748897Y-105097130D01*
X169694894Y-105138941D01*
X169621086Y-105200932D01*
X169523699Y-105286204D01*
X169398960Y-105397858D01*
X169243092Y-105538996D01*
X169187405Y-105589637D01*
X169144098Y-105625588D01*
X169120892Y-105638114D01*
X169119655Y-105636410D01*
X169123298Y-105608202D01*
X169133363Y-105539885D01*
X169148554Y-105440015D01*
X169167576Y-105317145D01*
X169180993Y-105231461D01*
X169201919Y-105096115D01*
X169219809Y-104976065D01*
X169233335Y-104880574D01*
X169241169Y-104818906D01*
X169242584Y-104801990D01*
X169226240Y-104772846D01*
X169180519Y-104714634D01*
X169110631Y-104633381D01*
X169021783Y-104535113D01*
X168919185Y-104425858D01*
X168901889Y-104407810D01*
X168795476Y-104295906D01*
X168699684Y-104192955D01*
X168620284Y-104105339D01*
X168563047Y-104039437D01*
X168533743Y-104001629D01*
X168532345Y-103999222D01*
X168505727Y-103901341D01*
X168515928Y-103792447D01*
X168559180Y-103695168D01*
X168581372Y-103667441D01*
X168612443Y-103640432D01*
X168658176Y-103611235D01*
X168724351Y-103576947D01*
X168816749Y-103534666D01*
X168941152Y-103481486D01*
X169103341Y-103414505D01*
X169181246Y-103382728D01*
X169339724Y-103317231D01*
X169484469Y-103255514D01*
X169608706Y-103200617D01*
X169705659Y-103155581D01*
X169768554Y-103123449D01*
X169789101Y-103109853D01*
X169810217Y-103078731D01*
X169851529Y-103009463D01*
X169910043Y-102907377D01*
X169982763Y-102777800D01*
X170066694Y-102626061D01*
X170158840Y-102457487D01*
X170235333Y-102316177D01*
X170321830Y-102155702D01*
X170428161Y-101958430D01*
X170550781Y-101730937D01*
X170686147Y-101479800D01*
X170830713Y-101211594D01*
X170980934Y-100932896D01*
X171133267Y-100650282D01*
X171284166Y-100370327D01*
X171410543Y-100135867D01*
X171558450Y-99861457D01*
X171711705Y-99577110D01*
X171866637Y-99289638D01*
X172019575Y-99005854D01*
X172166848Y-98732571D01*
X172304782Y-98476603D01*
X172429708Y-98244761D01*
X172537953Y-98043861D01*
X172612071Y-97906284D01*
X172714886Y-97716694D01*
X172814805Y-97534812D01*
X172908402Y-97366704D01*
X172992248Y-97218437D01*
X173062916Y-97096078D01*
X173116978Y-97005692D01*
X173148644Y-96956638D01*
X173279168Y-96791929D01*
X173442034Y-96617480D01*
X173625010Y-96444548D01*
X173815862Y-96284391D01*
X174002357Y-96148265D01*
X174082415Y-96097357D01*
X174193053Y-96037871D01*
X174272301Y-96012601D01*
X174323794Y-96021107D01*
G37*
G36*
X178122803Y-97783614D02*
G01*
X178437789Y-97783979D01*
X178735161Y-97784604D01*
X179011445Y-97785471D01*
X179263166Y-97786557D01*
X179486850Y-97787843D01*
X179679022Y-97789309D01*
X179836208Y-97790934D01*
X179954933Y-97792699D01*
X180031723Y-97794581D01*
X180063103Y-97796563D01*
X180063636Y-97796790D01*
X180068021Y-97830382D01*
X180058537Y-97898988D01*
X180038216Y-97991340D01*
X180010089Y-98096168D01*
X179977187Y-98202203D01*
X179942541Y-98298175D01*
X179909181Y-98372814D01*
X179908242Y-98374586D01*
X179817906Y-98510252D01*
X179696875Y-98645056D01*
X179560597Y-98763798D01*
X179424522Y-98851279D01*
X179422862Y-98852123D01*
X179356383Y-98884768D01*
X179293958Y-98911831D01*
X179230294Y-98933835D01*
X179160096Y-98951300D01*
X179078069Y-98964748D01*
X178978920Y-98974701D01*
X178857355Y-98981679D01*
X178708079Y-98986205D01*
X178525797Y-98988799D01*
X178305217Y-98989983D01*
X178041043Y-98990279D01*
X178020062Y-98990280D01*
X177027039Y-98990280D01*
X177033628Y-99600028D01*
X177040218Y-100209775D01*
X178416836Y-100216143D01*
X179793455Y-100222510D01*
X179777442Y-100343220D01*
X179721685Y-100584857D01*
X179622941Y-100804361D01*
X179483927Y-100998008D01*
X179307364Y-101162071D01*
X179095968Y-101292824D01*
X179078376Y-101301379D01*
X178887938Y-101392317D01*
X177964078Y-101404635D01*
X177040218Y-101416953D01*
X177040218Y-102069814D01*
X177040218Y-102722675D01*
X178563108Y-102729023D01*
X178875110Y-102730386D01*
X179141403Y-102731752D01*
X179365552Y-102733235D01*
X179551121Y-102734954D01*
X179701673Y-102737024D01*
X179820773Y-102739561D01*
X179911985Y-102742681D01*
X179978872Y-102746502D01*
X180025000Y-102751138D01*
X180053931Y-102756707D01*
X180069229Y-102763324D01*
X180074460Y-102771106D01*
X180073776Y-102778296D01*
X180062627Y-102824896D01*
X180046382Y-102901209D01*
X180032814Y-102969038D01*
X179964088Y-103197785D01*
X179852786Y-103404073D01*
X179702023Y-103583882D01*
X179514917Y-103733193D01*
X179381972Y-103808712D01*
X179186190Y-103905217D01*
X177392593Y-103912144D01*
X175598995Y-103919072D01*
X175598995Y-103129942D01*
X175598995Y-102340813D01*
X174952293Y-102341449D01*
X174728790Y-102342487D01*
X174547090Y-102345995D01*
X174399736Y-102353291D01*
X174279271Y-102365692D01*
X174178240Y-102384519D01*
X174089185Y-102411089D01*
X174004651Y-102446720D01*
X173917181Y-102492731D01*
X173839602Y-102538186D01*
X173752049Y-102595689D01*
X173672893Y-102659933D01*
X173597692Y-102736770D01*
X173522008Y-102832054D01*
X173441400Y-102951639D01*
X173351427Y-103101378D01*
X173247650Y-103287125D01*
X173188678Y-103396298D01*
X172909399Y-103917535D01*
X172308500Y-103917535D01*
X171707600Y-103917535D01*
X171664870Y-103852320D01*
X171645245Y-103819089D01*
X171638605Y-103788719D01*
X171647597Y-103749665D01*
X171674872Y-103690383D01*
X171722827Y-103599798D01*
X171755271Y-103539405D01*
X171808148Y-103440928D01*
X171878596Y-103309699D01*
X171963751Y-103151053D01*
X172060753Y-102970323D01*
X172166737Y-102772841D01*
X172278842Y-102563942D01*
X172372135Y-102390086D01*
X172589555Y-101984976D01*
X172822192Y-101551650D01*
X173006978Y-101207545D01*
X174372059Y-101207545D01*
X174985527Y-101207545D01*
X175598995Y-101207545D01*
X175597945Y-100129707D01*
X175596895Y-99051870D01*
X175505559Y-99156135D01*
X175465755Y-99210133D01*
X175408537Y-99299305D01*
X175339064Y-99415030D01*
X175262494Y-99548685D01*
X175183988Y-99691646D01*
X175173916Y-99710451D01*
X175086354Y-99874326D01*
X174983579Y-100066488D01*
X174873688Y-100271815D01*
X174764773Y-100475183D01*
X174664930Y-100661467D01*
X174652833Y-100684024D01*
X174372059Y-101207545D01*
X173006978Y-101207545D01*
X173064616Y-101100212D01*
X173311399Y-100640768D01*
X173557112Y-100183422D01*
X173796328Y-99738279D01*
X174023618Y-99315445D01*
X174233554Y-98925024D01*
X174251458Y-98891735D01*
X174347981Y-98713571D01*
X174426406Y-98572528D01*
X174491062Y-98461853D01*
X174546279Y-98374793D01*
X174596388Y-98304598D01*
X174645719Y-98244516D01*
X174698601Y-98187793D01*
X174710909Y-98175330D01*
X174859880Y-98044109D01*
X175009531Y-97946608D01*
X175032361Y-97934967D01*
X175083084Y-97910261D01*
X175130222Y-97888409D01*
X175176978Y-97869234D01*
X175226553Y-97852561D01*
X175282151Y-97838214D01*
X175346974Y-97826017D01*
X175424224Y-97815796D01*
X175517104Y-97807374D01*
X175628815Y-97800575D01*
X175762560Y-97795225D01*
X175921542Y-97791148D01*
X176108962Y-97788167D01*
X176328024Y-97786107D01*
X176581929Y-97784793D01*
X176873880Y-97784049D01*
X177207080Y-97783700D01*
X177584730Y-97783569D01*
X177793677Y-97783530D01*
X178122803Y-97783614D01*
G37*
X195848500Y-86884742D02*
X195848500Y-87359258D01*
X194803500Y-86884742D02*
X194803500Y-87359258D01*
G36*
X172578307Y-49664769D02*
G01*
X172619249Y-49678611D01*
X172666457Y-49702559D01*
X172716882Y-49734476D01*
X172767476Y-49772225D01*
X172815189Y-49813667D01*
X172856973Y-49856666D01*
X172864449Y-49865383D01*
X172915875Y-49938723D01*
X172955181Y-50021177D01*
X172982283Y-50112278D01*
X172997097Y-50211556D01*
X172999538Y-50318543D01*
X172989521Y-50432771D01*
X172978593Y-50498923D01*
X172951498Y-50601947D01*
X172910566Y-50699032D01*
X172855218Y-50791515D01*
X172846846Y-50803392D01*
X172813107Y-50852483D01*
X172788031Y-50894508D01*
X172769651Y-50933525D01*
X172755999Y-50973591D01*
X172747207Y-51008916D01*
X172740158Y-51038578D01*
X172733671Y-51061500D01*
X172728756Y-51074294D01*
X172727296Y-51075846D01*
X172723358Y-51068961D01*
X172719042Y-51051362D01*
X172716808Y-51037667D01*
X172713813Y-51003402D01*
X172714302Y-50966662D01*
X172718634Y-50925819D01*
X172727166Y-50879246D01*
X172740257Y-50825314D01*
X172758266Y-50762395D01*
X172781549Y-50688861D01*
X172810466Y-50603084D01*
X172815893Y-50587384D01*
X172836875Y-50524685D01*
X172852375Y-50472401D01*
X172863125Y-50426869D01*
X172869852Y-50384429D01*
X172873288Y-50341420D01*
X172874165Y-50295076D01*
X172870896Y-50212537D01*
X172860964Y-50138487D01*
X172843493Y-50067161D01*
X172835810Y-50042899D01*
X172801407Y-49953748D01*
X172760774Y-49873003D01*
X172715004Y-49802316D01*
X172665189Y-49743337D01*
X172612421Y-49697716D01*
X172603126Y-49691335D01*
X172580065Y-49675614D01*
X172569241Y-49666723D01*
X172569675Y-49663615D01*
X172578307Y-49664769D01*
G37*
G36*
X173718033Y-48218101D02*
G01*
X173784920Y-48238729D01*
X173812923Y-48251084D01*
X173855230Y-48271750D01*
X173809076Y-48273789D01*
X173780827Y-48275618D01*
X173747168Y-48278659D01*
X173711796Y-48282467D01*
X173678405Y-48286597D01*
X173650691Y-48290604D01*
X173632350Y-48294044D01*
X173627333Y-48295679D01*
X173627752Y-48303722D01*
X173633753Y-48322132D01*
X173644145Y-48347462D01*
X173648561Y-48357241D01*
X173673833Y-48429137D01*
X173686642Y-48506358D01*
X173686357Y-48584398D01*
X173683609Y-48607399D01*
X173674845Y-48645336D01*
X173659834Y-48689213D01*
X173640631Y-48734430D01*
X173619294Y-48776391D01*
X173597878Y-48810497D01*
X173586479Y-48824601D01*
X173573647Y-48839724D01*
X173566958Y-48850098D01*
X173566687Y-48851242D01*
X173561552Y-48859355D01*
X173548694Y-48873550D01*
X173541687Y-48880474D01*
X173469819Y-48939769D01*
X173393457Y-48984404D01*
X173312776Y-49014318D01*
X173227952Y-49029447D01*
X173139161Y-49029732D01*
X173120615Y-49027965D01*
X173051679Y-49013101D01*
X173014204Y-48997893D01*
X172968269Y-48971342D01*
X172925624Y-48938784D01*
X172888801Y-48902817D01*
X172860334Y-48866042D01*
X172842754Y-48831057D01*
X172839399Y-48818478D01*
X172834742Y-48793652D01*
X172800089Y-48801582D01*
X172757343Y-48805180D01*
X172707004Y-48799178D01*
X172652949Y-48784233D01*
X172647379Y-48782009D01*
X172934330Y-48782009D01*
X172936658Y-48789116D01*
X172959110Y-48827977D01*
X172994051Y-48862813D01*
X173038719Y-48891633D01*
X173090353Y-48912446D01*
X173116769Y-48919001D01*
X173155634Y-48925817D01*
X173187068Y-48928424D01*
X173218403Y-48926937D01*
X173256971Y-48921470D01*
X173258446Y-48921224D01*
X173326023Y-48902532D01*
X173391510Y-48870537D01*
X173452589Y-48827319D01*
X173454118Y-48825846D01*
X173551384Y-48825846D01*
X173555230Y-48829692D01*
X173559076Y-48825846D01*
X173555230Y-48822000D01*
X173551384Y-48825846D01*
X173454118Y-48825846D01*
X173506941Y-48774960D01*
X173552247Y-48715539D01*
X173586187Y-48651137D01*
X173598680Y-48616014D01*
X173613045Y-48545628D01*
X173613170Y-48477260D01*
X173598946Y-48407885D01*
X173590119Y-48381615D01*
X173575922Y-48346409D01*
X173563988Y-48323621D01*
X173554957Y-48314440D01*
X173554006Y-48314307D01*
X173540748Y-48317046D01*
X173521187Y-48323926D01*
X173499868Y-48332939D01*
X173481336Y-48342081D01*
X173470138Y-48349344D01*
X173468800Y-48351915D01*
X173489547Y-48395395D01*
X173505545Y-48440545D01*
X173512936Y-48472080D01*
X173515438Y-48527071D01*
X173507124Y-48586315D01*
X173489198Y-48644469D01*
X173462869Y-48696190D01*
X173462009Y-48697514D01*
X173452125Y-48709404D01*
X173443019Y-48709077D01*
X173437408Y-48705207D01*
X173428707Y-48698933D01*
X173430944Y-48703278D01*
X173434713Y-48708170D01*
X173439117Y-48721938D01*
X173431981Y-48738773D01*
X173412482Y-48759905D01*
X173384870Y-48782705D01*
X173330488Y-48815146D01*
X173271010Y-48833385D01*
X173225526Y-48837384D01*
X173167795Y-48831844D01*
X173120684Y-48815244D01*
X173084248Y-48787612D01*
X173058540Y-48748978D01*
X173057438Y-48746520D01*
X173193692Y-48746520D01*
X173230183Y-48742106D01*
X173258860Y-48735770D01*
X173290929Y-48724595D01*
X173306154Y-48717685D01*
X173332040Y-48702891D01*
X173355034Y-48686950D01*
X173364600Y-48678714D01*
X173378751Y-48666622D01*
X173388874Y-48665224D01*
X173396321Y-48669720D01*
X173404850Y-48675848D01*
X173402557Y-48671446D01*
X173398756Y-48666515D01*
X173393794Y-48656963D01*
X173394609Y-48644825D01*
X173401954Y-48625776D01*
X173408136Y-48612669D01*
X173420223Y-48583933D01*
X173429556Y-48554988D01*
X173432626Y-48541028D01*
X173433721Y-48510096D01*
X173429921Y-48471633D01*
X173422164Y-48432342D01*
X173413454Y-48404062D01*
X173405132Y-48382279D01*
X173375714Y-48404062D01*
X173351001Y-48422990D01*
X173326296Y-48442844D01*
X173320985Y-48447287D01*
X173305647Y-48461464D01*
X173300930Y-48470889D01*
X173305040Y-48479896D01*
X173306657Y-48481902D01*
X173320896Y-48504607D01*
X173331106Y-48531430D01*
X173336181Y-48557587D01*
X173335014Y-48578296D01*
X173330801Y-48586172D01*
X173322230Y-48585178D01*
X173308043Y-48575925D01*
X173305801Y-48574021D01*
X173293843Y-48563683D01*
X173291879Y-48562831D01*
X173300043Y-48572255D01*
X173306772Y-48579742D01*
X173327544Y-48602814D01*
X173313480Y-48633560D01*
X173290023Y-48669913D01*
X173254568Y-48705113D01*
X173220615Y-48729647D01*
X173193692Y-48746520D01*
X173057438Y-48746520D01*
X173057165Y-48745911D01*
X173047801Y-48725000D01*
X173040995Y-48710802D01*
X173039097Y-48707505D01*
X173031816Y-48709818D01*
X173014725Y-48718565D01*
X172991075Y-48732047D01*
X172982830Y-48736975D01*
X172956443Y-48753300D01*
X172941091Y-48764523D01*
X172934484Y-48773231D01*
X172934330Y-48782009D01*
X172647379Y-48782009D01*
X172619624Y-48770926D01*
X172570615Y-48748923D01*
X172662923Y-48744497D01*
X172725852Y-48739405D01*
X172781877Y-48729769D01*
X172833299Y-48714394D01*
X172882424Y-48692082D01*
X172931552Y-48661638D01*
X172982989Y-48621864D01*
X173039036Y-48571565D01*
X173079603Y-48531897D01*
X173260316Y-48531897D01*
X173262188Y-48536196D01*
X173269933Y-48544454D01*
X173274386Y-48542760D01*
X173274461Y-48541684D01*
X173268997Y-48535178D01*
X173265580Y-48532803D01*
X173260316Y-48531897D01*
X173079603Y-48531897D01*
X173088045Y-48523642D01*
X173111096Y-48501128D01*
X173229547Y-48501128D01*
X173231419Y-48505426D01*
X173239164Y-48513684D01*
X173243617Y-48511990D01*
X173243692Y-48510915D01*
X173238228Y-48504409D01*
X173234811Y-48502034D01*
X173229547Y-48501128D01*
X173111096Y-48501128D01*
X173116457Y-48495892D01*
X173141382Y-48473025D01*
X173147138Y-48468212D01*
X173198042Y-48468212D01*
X173199952Y-48472195D01*
X173204249Y-48477769D01*
X173215477Y-48489728D01*
X173220489Y-48489676D01*
X173220615Y-48488326D01*
X173215358Y-48481905D01*
X173207153Y-48474864D01*
X173198042Y-48468212D01*
X173147138Y-48468212D01*
X173160723Y-48456852D01*
X173172383Y-48449185D01*
X173174496Y-48448944D01*
X173178919Y-48447700D01*
X173177887Y-48442908D01*
X173181728Y-48433299D01*
X173196082Y-48416774D01*
X173218833Y-48395199D01*
X173247861Y-48370442D01*
X173281050Y-48344369D01*
X173316282Y-48318847D01*
X173326730Y-48311713D01*
X173374565Y-48282773D01*
X173428904Y-48255076D01*
X173483149Y-48231784D01*
X173520295Y-48218961D01*
X173581560Y-48207760D01*
X173648859Y-48207626D01*
X173718033Y-48218101D01*
G37*
G36*
X173665344Y-44684447D02*
G01*
X173700506Y-44698322D01*
X173746740Y-44718894D01*
X173778307Y-44733769D01*
X173879983Y-44787791D01*
X173967224Y-44845720D01*
X174040626Y-44908184D01*
X174100784Y-44975812D01*
X174148294Y-45049232D01*
X174183753Y-45129071D01*
X174198509Y-45176602D01*
X174208250Y-45226846D01*
X174214178Y-45287742D01*
X174216239Y-45355022D01*
X174214381Y-45424418D01*
X174208549Y-45491663D01*
X174202947Y-45530214D01*
X174197421Y-45566700D01*
X174191545Y-45612829D01*
X174185994Y-45662896D01*
X174181440Y-45711194D01*
X174181138Y-45714830D01*
X174176364Y-45765615D01*
X174171452Y-45802517D01*
X174166148Y-45827035D01*
X174160199Y-45840670D01*
X174159772Y-45841230D01*
X174151778Y-45851613D01*
X174153725Y-45851250D01*
X174163731Y-45842970D01*
X174172704Y-45836091D01*
X174177989Y-45836274D01*
X174181201Y-45846047D01*
X174183954Y-45867937D01*
X174184797Y-45875957D01*
X174194036Y-45924474D01*
X174210203Y-45967729D01*
X174231774Y-46003464D01*
X174257227Y-46029419D01*
X174285039Y-46043335D01*
X174298821Y-46045076D01*
X174328206Y-46038217D01*
X174360424Y-46019102D01*
X174393034Y-45989930D01*
X174423593Y-45952897D01*
X174449659Y-45910200D01*
X174450432Y-45908685D01*
X174471601Y-45854748D01*
X174486635Y-45790706D01*
X174495039Y-45720768D01*
X174496318Y-45649143D01*
X174489978Y-45580041D01*
X174489448Y-45576703D01*
X174485513Y-45549506D01*
X174485182Y-45532428D01*
X174489151Y-45520479D01*
X174498119Y-45508670D01*
X174499121Y-45507527D01*
X174516769Y-45487494D01*
X174499414Y-45502136D01*
X174486378Y-45511556D01*
X174479455Y-45513619D01*
X174476560Y-45505307D01*
X174470803Y-45485363D01*
X174469261Y-45479692D01*
X174520615Y-45479692D01*
X174524461Y-45483538D01*
X174528307Y-45479692D01*
X174524461Y-45475846D01*
X174520615Y-45479692D01*
X174469261Y-45479692D01*
X174465076Y-45464307D01*
X174536000Y-45464307D01*
X174539846Y-45468153D01*
X174543692Y-45464307D01*
X174539846Y-45460461D01*
X174536000Y-45464307D01*
X174465076Y-45464307D01*
X174463107Y-45457068D01*
X174456928Y-45433538D01*
X174447575Y-45397886D01*
X174438712Y-45364903D01*
X174431620Y-45339325D01*
X174428807Y-45329692D01*
X174420609Y-45302769D01*
X174445612Y-45330838D01*
X174487805Y-45376865D01*
X174531103Y-45421138D01*
X174578542Y-45466588D01*
X174633155Y-45516148D01*
X174678250Y-45555701D01*
X174734904Y-45605229D01*
X174781100Y-45646656D01*
X174818304Y-45681598D01*
X174847985Y-45711670D01*
X174871610Y-45738489D01*
X174890647Y-45763671D01*
X174906564Y-45788832D01*
X174920829Y-45815588D01*
X174928175Y-45830867D01*
X174946879Y-45878717D01*
X174958850Y-45929448D01*
X174964456Y-45986177D01*
X174964063Y-46052022D01*
X174960411Y-46105235D01*
X174955660Y-46165607D01*
X174952716Y-46217687D01*
X174951594Y-46260021D01*
X174952310Y-46291151D01*
X174954879Y-46309622D01*
X174958244Y-46314307D01*
X174967078Y-46309509D01*
X174983510Y-46296957D01*
X175003070Y-46280173D01*
X175042789Y-46235106D01*
X175075081Y-46179565D01*
X175098378Y-46117304D01*
X175111110Y-46052075D01*
X175113040Y-46017043D01*
X175114438Y-45983352D01*
X175118454Y-45964754D01*
X175125145Y-45961170D01*
X175134570Y-45972523D01*
X175139284Y-45981574D01*
X175168184Y-46044968D01*
X175196981Y-46113978D01*
X175224712Y-46185811D01*
X175250415Y-46257668D01*
X175273127Y-46326754D01*
X175291884Y-46390273D01*
X175305725Y-46445428D01*
X175313424Y-46487384D01*
X175319471Y-46581074D01*
X175313482Y-46675108D01*
X175296075Y-46766621D01*
X175267868Y-46852746D01*
X175229480Y-46930615D01*
X175211914Y-46958081D01*
X175177774Y-47001125D01*
X175134194Y-47046245D01*
X175085717Y-47089097D01*
X175036945Y-47125301D01*
X175000097Y-47148774D01*
X174962428Y-47170562D01*
X174922109Y-47191448D01*
X174877307Y-47212212D01*
X174826195Y-47233635D01*
X174766940Y-47256497D01*
X174697713Y-47281579D01*
X174616683Y-47309662D01*
X174559076Y-47329137D01*
X174462620Y-47362281D01*
X174377388Y-47393520D01*
X174300591Y-47424263D01*
X174229441Y-47455920D01*
X174161150Y-47489900D01*
X174092930Y-47527613D01*
X174021993Y-47570467D01*
X173945550Y-47619873D01*
X173860813Y-47677239D01*
X173834614Y-47695341D01*
X173813245Y-47710615D01*
X173798327Y-47722159D01*
X173792918Y-47727600D01*
X173792961Y-47727679D01*
X173800796Y-47726794D01*
X173818647Y-47722309D01*
X173832808Y-47718176D01*
X173909818Y-47699581D01*
X173992031Y-47688483D01*
X174075985Y-47684812D01*
X174158222Y-47688500D01*
X174235279Y-47699478D01*
X174303697Y-47717678D01*
X174330399Y-47728055D01*
X174361059Y-47741425D01*
X174300452Y-47766718D01*
X174210483Y-47806724D01*
X174134966Y-47845668D01*
X174075547Y-47882276D01*
X174042685Y-47905430D01*
X174012216Y-47928247D01*
X173986569Y-47948766D01*
X173968173Y-47965024D01*
X173959458Y-47975060D01*
X173959076Y-47976354D01*
X173965887Y-47980732D01*
X173983912Y-47987828D01*
X174009540Y-47996254D01*
X174015058Y-47997916D01*
X174075374Y-48018689D01*
X174134388Y-48045356D01*
X174196281Y-48079979D01*
X174246625Y-48112089D01*
X174293524Y-48145113D01*
X174336873Y-48179105D01*
X174375192Y-48212570D01*
X174407003Y-48244016D01*
X174430827Y-48271949D01*
X174445186Y-48294876D01*
X174448601Y-48311303D01*
X174447281Y-48314724D01*
X174447782Y-48320465D01*
X174450646Y-48320267D01*
X174457879Y-48325494D01*
X174470556Y-48341269D01*
X174486524Y-48364761D01*
X174495448Y-48379145D01*
X174513353Y-48408187D01*
X174527089Y-48427183D01*
X174540165Y-48439419D01*
X174556089Y-48448180D01*
X174578307Y-48456730D01*
X174614992Y-48470922D01*
X174651543Y-48487335D01*
X174689140Y-48506791D01*
X174728963Y-48530112D01*
X174772194Y-48558119D01*
X174820012Y-48591635D01*
X174873597Y-48631482D01*
X174934132Y-48678481D01*
X175002795Y-48733454D01*
X175080767Y-48797224D01*
X175151384Y-48855743D01*
X175299807Y-48983072D01*
X175436270Y-49108410D01*
X175563431Y-49234568D01*
X175683945Y-49364359D01*
X175800469Y-49500591D01*
X175915659Y-49646078D01*
X175982153Y-49734784D01*
X176085304Y-49883710D01*
X176173873Y-50030805D01*
X176248343Y-50177370D01*
X176309197Y-50324703D01*
X176356915Y-50474103D01*
X176391981Y-50626870D01*
X176414875Y-50784304D01*
X176425417Y-50929692D01*
X176425637Y-51052201D01*
X176417190Y-51181052D01*
X176400728Y-51310782D01*
X176376897Y-51435933D01*
X176355012Y-51522000D01*
X176344330Y-51559087D01*
X176336747Y-51583528D01*
X176331104Y-51597459D01*
X176326246Y-51603020D01*
X176321016Y-51602347D01*
X176314257Y-51597580D01*
X176314161Y-51597506D01*
X176305791Y-51591431D01*
X176307453Y-51594767D01*
X176314142Y-51602901D01*
X176318968Y-51609874D01*
X176320941Y-51618063D01*
X176319466Y-51630086D01*
X176313948Y-51648560D01*
X176303792Y-51676101D01*
X176288807Y-51714307D01*
X176256063Y-51793127D01*
X176219682Y-51874101D01*
X176181999Y-51952287D01*
X176145347Y-52022742D01*
X176130774Y-52048923D01*
X176105863Y-52091344D01*
X176081828Y-52129963D01*
X176059966Y-52162908D01*
X176041578Y-52188304D01*
X176027964Y-52204281D01*
X176020421Y-52208965D01*
X176019954Y-52208645D01*
X176015466Y-52199776D01*
X176006622Y-52179079D01*
X175994475Y-52149129D01*
X175980075Y-52112501D01*
X175970409Y-52087384D01*
X175946077Y-52027351D01*
X175915871Y-51958590D01*
X175881902Y-51885522D01*
X175846280Y-51812571D01*
X175811114Y-51744158D01*
X175778515Y-51684706D01*
X175777021Y-51682100D01*
X175758656Y-51649763D01*
X175739396Y-51615235D01*
X175726255Y-51591230D01*
X175713299Y-51567702D01*
X175702725Y-51549328D01*
X175697603Y-51541230D01*
X175691731Y-51531342D01*
X175680797Y-51511201D01*
X175666672Y-51484285D01*
X175658605Y-51468609D01*
X175625415Y-51403680D01*
X175608118Y-51483993D01*
X175593103Y-51549707D01*
X175578139Y-51605591D01*
X175561540Y-51657102D01*
X175541616Y-51709698D01*
X175528560Y-51741230D01*
X175498941Y-51807809D01*
X175463119Y-51882998D01*
X175423290Y-51962516D01*
X175381647Y-52042083D01*
X175340384Y-52117418D01*
X175301696Y-52184240D01*
X175300268Y-52186617D01*
X175283232Y-52215132D01*
X175269629Y-52238284D01*
X175261119Y-52253221D01*
X175259076Y-52257307D01*
X175255258Y-52264314D01*
X175244889Y-52281658D01*
X175229600Y-52306646D01*
X175212923Y-52333538D01*
X175194569Y-52363253D01*
X175179675Y-52387912D01*
X175169877Y-52404768D01*
X175166769Y-52410994D01*
X175162681Y-52418248D01*
X175151534Y-52435684D01*
X175135000Y-52460819D01*
X175114753Y-52491170D01*
X175092467Y-52524254D01*
X175069814Y-52557587D01*
X175048469Y-52588686D01*
X175030104Y-52615067D01*
X175016393Y-52634248D01*
X175015600Y-52635325D01*
X174959484Y-52707142D01*
X174897015Y-52778776D01*
X174826747Y-52851656D01*
X174747234Y-52927211D01*
X174657030Y-53006869D01*
X174554690Y-53092060D01*
X174547807Y-53097642D01*
X174518979Y-53120765D01*
X174494833Y-53139711D01*
X174477655Y-53152718D01*
X174469732Y-53158024D01*
X174469476Y-53158040D01*
X174471411Y-53150649D01*
X174477876Y-53131516D01*
X174487942Y-53103283D01*
X174500680Y-53068592D01*
X174505195Y-53056489D01*
X174528733Y-52985771D01*
X174551557Y-52902030D01*
X174573222Y-52807628D01*
X174593283Y-52704924D01*
X174611294Y-52596280D01*
X174626810Y-52484055D01*
X174639385Y-52370610D01*
X174643781Y-52322000D01*
X174648329Y-52268954D01*
X174652748Y-52219358D01*
X174656792Y-52175833D01*
X174660215Y-52141000D01*
X174662769Y-52117481D01*
X174663692Y-52110461D01*
X174668414Y-52079692D01*
X174644904Y-52123962D01*
X174624075Y-52160660D01*
X174597245Y-52204144D01*
X174566167Y-52251918D01*
X174532594Y-52301484D01*
X174498278Y-52350348D01*
X174464971Y-52396012D01*
X174434428Y-52435979D01*
X174408400Y-52467754D01*
X174388899Y-52488598D01*
X174375218Y-52501798D01*
X174352983Y-52523720D01*
X174324439Y-52552131D01*
X174291832Y-52584796D01*
X174259076Y-52617793D01*
X174155230Y-52722697D01*
X174153065Y-52487384D01*
X174351384Y-52487384D01*
X174355230Y-52491230D01*
X174359076Y-52487384D01*
X174355230Y-52483538D01*
X174351384Y-52487384D01*
X174153065Y-52487384D01*
X174152909Y-52470425D01*
X174152880Y-52452827D01*
X174321119Y-52452827D01*
X174323029Y-52456811D01*
X174327326Y-52462384D01*
X174338554Y-52474343D01*
X174343566Y-52474291D01*
X174343692Y-52472941D01*
X174338435Y-52466520D01*
X174330230Y-52459480D01*
X174321119Y-52452827D01*
X174152880Y-52452827D01*
X174152782Y-52393435D01*
X174260316Y-52393435D01*
X174262188Y-52397734D01*
X174269933Y-52405992D01*
X174274386Y-52404298D01*
X174274461Y-52403223D01*
X174268997Y-52396716D01*
X174265580Y-52394342D01*
X174260316Y-52393435D01*
X174152782Y-52393435D01*
X174152731Y-52362666D01*
X174229547Y-52362666D01*
X174231419Y-52366965D01*
X174239164Y-52375223D01*
X174243617Y-52373529D01*
X174243692Y-52372453D01*
X174238228Y-52365947D01*
X174234811Y-52363573D01*
X174229547Y-52362666D01*
X174152731Y-52362666D01*
X174152699Y-52343184D01*
X174152874Y-52331897D01*
X174198778Y-52331897D01*
X174200650Y-52336196D01*
X174208395Y-52344454D01*
X174212848Y-52342760D01*
X174212923Y-52341684D01*
X174207459Y-52335178D01*
X174204042Y-52332803D01*
X174198778Y-52331897D01*
X174152874Y-52331897D01*
X174153324Y-52302769D01*
X174166769Y-52302769D01*
X174170615Y-52306615D01*
X174174461Y-52302769D01*
X174170615Y-52298923D01*
X174166769Y-52302769D01*
X174153324Y-52302769D01*
X174154488Y-52227572D01*
X174158243Y-52124516D01*
X174163933Y-52034941D01*
X174170949Y-51964393D01*
X174171709Y-51952640D01*
X174169371Y-51953032D01*
X174163444Y-51966405D01*
X174153438Y-51993593D01*
X174152912Y-51995076D01*
X174128113Y-52058374D01*
X174096664Y-52126497D01*
X174057444Y-52201717D01*
X174009332Y-52286306D01*
X174008697Y-52287384D01*
X173986682Y-52324833D01*
X173966210Y-52359706D01*
X173949136Y-52388843D01*
X173937314Y-52409083D01*
X173934592Y-52413771D01*
X173912776Y-52449178D01*
X173882883Y-52494361D01*
X173846519Y-52547139D01*
X173805288Y-52605330D01*
X173760797Y-52666755D01*
X173714648Y-52729231D01*
X173668449Y-52790579D01*
X173623802Y-52848618D01*
X173582315Y-52901166D01*
X173545591Y-52946043D01*
X173525915Y-52969063D01*
X173482289Y-53017880D01*
X173435783Y-53068029D01*
X173387735Y-53118230D01*
X173339481Y-53167203D01*
X173292359Y-53213667D01*
X173247707Y-53256344D01*
X173206861Y-53293953D01*
X173171158Y-53325214D01*
X173141937Y-53348848D01*
X173120533Y-53363573D01*
X173108946Y-53368153D01*
X173106574Y-53361201D01*
X173106242Y-53343058D01*
X173107812Y-53320076D01*
X173110492Y-53294033D01*
X173114370Y-53257312D01*
X173118957Y-53214528D01*
X173123758Y-53170296D01*
X173124413Y-53164307D01*
X173129020Y-53112168D01*
X173132336Y-53050862D01*
X173134416Y-52978703D01*
X173135315Y-52894008D01*
X173135285Y-52829692D01*
X173135363Y-52744829D01*
X173136403Y-52674043D01*
X173138485Y-52616053D01*
X173141691Y-52569577D01*
X173146102Y-52533331D01*
X173151800Y-52506036D01*
X173156734Y-52491230D01*
X173161785Y-52474427D01*
X173163199Y-52467653D01*
X173176347Y-52467653D01*
X173177399Y-52468153D01*
X173184419Y-52462738D01*
X173186000Y-52460461D01*
X173187960Y-52453270D01*
X173186907Y-52452769D01*
X173179888Y-52458184D01*
X173178307Y-52460461D01*
X173176347Y-52467653D01*
X173163199Y-52467653D01*
X173164495Y-52461442D01*
X173169014Y-52444576D01*
X173199424Y-52444576D01*
X173200476Y-52445076D01*
X173207496Y-52439661D01*
X173209076Y-52437384D01*
X173211037Y-52430193D01*
X173209984Y-52429692D01*
X173202964Y-52435107D01*
X173201384Y-52437384D01*
X173199424Y-52444576D01*
X173169014Y-52444576D01*
X173170528Y-52438926D01*
X173183040Y-52403875D01*
X173201597Y-52357497D01*
X173201934Y-52356687D01*
X173199202Y-52356205D01*
X173187392Y-52365216D01*
X173168214Y-52382244D01*
X173143379Y-52405815D01*
X173131763Y-52417220D01*
X173065278Y-52480205D01*
X172994638Y-52541141D01*
X172916762Y-52602537D01*
X172828571Y-52666905D01*
X172805666Y-52682979D01*
X172729035Y-52737312D01*
X172663500Y-52786099D01*
X172606801Y-52831434D01*
X172556680Y-52875409D01*
X172510878Y-52920119D01*
X172467138Y-52967657D01*
X172423200Y-53020117D01*
X172376805Y-53079592D01*
X172374461Y-53082681D01*
X172332153Y-53138495D01*
X172326308Y-53105247D01*
X172323481Y-53070209D01*
X172324658Y-53022541D01*
X172329550Y-52964387D01*
X172337869Y-52897892D01*
X172349324Y-52825199D01*
X172363627Y-52748452D01*
X172380489Y-52669795D01*
X172390910Y-52625846D01*
X172427937Y-52482178D01*
X172466604Y-52345580D01*
X172506485Y-52217232D01*
X172547156Y-52098317D01*
X172588193Y-51990015D01*
X172629170Y-51893508D01*
X172669664Y-51809977D01*
X172708855Y-51741230D01*
X172722686Y-51719164D01*
X172733372Y-51702006D01*
X172737627Y-51695076D01*
X172731741Y-51692411D01*
X172710745Y-51690299D01*
X172674904Y-51688751D01*
X172624483Y-51687778D01*
X172559748Y-51687391D01*
X172548728Y-51687384D01*
X172467962Y-51686831D01*
X172399169Y-51684920D01*
X172338971Y-51681271D01*
X172283988Y-51675506D01*
X172230841Y-51667246D01*
X172176149Y-51656112D01*
X172116535Y-51641726D01*
X172097538Y-51636811D01*
X172040106Y-51619060D01*
X171977783Y-51595184D01*
X171914948Y-51567207D01*
X171855980Y-51537154D01*
X171805257Y-51507050D01*
X171782153Y-51490974D01*
X171704951Y-51424608D01*
X171641400Y-51351351D01*
X171591376Y-51270948D01*
X171562940Y-51202769D01*
X171574461Y-51202769D01*
X171578307Y-51206615D01*
X171582153Y-51202769D01*
X171578307Y-51198923D01*
X171574461Y-51202769D01*
X171562940Y-51202769D01*
X171556523Y-51187384D01*
X171589846Y-51187384D01*
X171593692Y-51191230D01*
X171597538Y-51187384D01*
X171593692Y-51183538D01*
X171589846Y-51187384D01*
X171556523Y-51187384D01*
X171554755Y-51183145D01*
X171552030Y-51172000D01*
X171605230Y-51172000D01*
X171609076Y-51175846D01*
X171612923Y-51172000D01*
X171609076Y-51168153D01*
X171605230Y-51172000D01*
X171552030Y-51172000D01*
X171545324Y-51144576D01*
X171637885Y-51144576D01*
X171638938Y-51145076D01*
X171645958Y-51139661D01*
X171647538Y-51137384D01*
X171649498Y-51130193D01*
X171648446Y-51129692D01*
X171641426Y-51135107D01*
X171639846Y-51137384D01*
X171637885Y-51144576D01*
X171545324Y-51144576D01*
X171531413Y-51087689D01*
X171521227Y-50984325D01*
X171520716Y-50954965D01*
X171521150Y-50941289D01*
X171651826Y-50941289D01*
X171655867Y-51002731D01*
X171662925Y-51048293D01*
X171668659Y-51079834D01*
X171669698Y-51099776D01*
X171666166Y-51111131D01*
X171665549Y-51111930D01*
X171661100Y-51119308D01*
X171668214Y-51118010D01*
X171677217Y-51119988D01*
X171685400Y-51134673D01*
X171689399Y-51146680D01*
X171698389Y-51171650D01*
X171711483Y-51201757D01*
X171727043Y-51233921D01*
X171743432Y-51265063D01*
X171759011Y-51292102D01*
X171772143Y-51311959D01*
X171781190Y-51321552D01*
X171782617Y-51321986D01*
X171782321Y-51315271D01*
X171777867Y-51297308D01*
X171770118Y-51271392D01*
X171765960Y-51258538D01*
X171745856Y-51179216D01*
X171734555Y-51091957D01*
X171732536Y-51001762D01*
X171736082Y-50947299D01*
X171743902Y-50883724D01*
X171754221Y-50829071D01*
X171768535Y-50776912D01*
X171788339Y-50720816D01*
X171789404Y-50718042D01*
X171800237Y-50692048D01*
X171814017Y-50661980D01*
X171829131Y-50630994D01*
X171843962Y-50602244D01*
X171856896Y-50578883D01*
X171866319Y-50564068D01*
X171870075Y-50560461D01*
X171868905Y-50567167D01*
X171863609Y-50585096D01*
X171855185Y-50610966D01*
X171850777Y-50623923D01*
X171821904Y-50729391D01*
X171808065Y-50834124D01*
X171807755Y-50914307D01*
X171816576Y-50996509D01*
X171833666Y-51079278D01*
X171857967Y-51159981D01*
X171888422Y-51235987D01*
X171923975Y-51304665D01*
X171963569Y-51363381D01*
X172006147Y-51409505D01*
X172006824Y-51410105D01*
X172052510Y-51445805D01*
X172098741Y-51471213D01*
X172149171Y-51487602D01*
X172207454Y-51496240D01*
X172261000Y-51498416D01*
X172292847Y-51498233D01*
X172317980Y-51497331D01*
X172333099Y-51495872D01*
X172336000Y-51494742D01*
X172331323Y-51487584D01*
X172318583Y-51471163D01*
X172299715Y-51447908D01*
X172276657Y-51420248D01*
X172276230Y-51419742D01*
X172216983Y-51346373D01*
X172169232Y-51279412D01*
X172131950Y-51216332D01*
X172104108Y-51154606D01*
X172084681Y-51091705D01*
X172072640Y-51025103D01*
X172066959Y-50952271D01*
X172066366Y-50914674D01*
X172183065Y-50914674D01*
X172193488Y-51007235D01*
X172214911Y-51096061D01*
X172246850Y-51178303D01*
X172284684Y-51245076D01*
X172337069Y-51312877D01*
X172395226Y-51368314D01*
X172461054Y-51412637D01*
X172536451Y-51447099D01*
X172623318Y-51472951D01*
X172634256Y-51475457D01*
X172720567Y-51488696D01*
X172800327Y-51488648D01*
X172873098Y-51475438D01*
X172938444Y-51449189D01*
X172995928Y-51410024D01*
X173043836Y-51359717D01*
X173059129Y-51340394D01*
X173070625Y-51326438D01*
X173074669Y-51322000D01*
X173081601Y-51314005D01*
X173094050Y-51298173D01*
X173100867Y-51289194D01*
X173114983Y-51272000D01*
X173124612Y-51265847D01*
X173133373Y-51268699D01*
X173135075Y-51269964D01*
X173143308Y-51275863D01*
X173141068Y-51271547D01*
X173136714Y-51265909D01*
X173130538Y-51254757D01*
X173133230Y-51243365D01*
X173141688Y-51230757D01*
X173170368Y-51184125D01*
X173197621Y-51124638D01*
X173222580Y-51054814D01*
X173244377Y-50977172D01*
X173262143Y-50894233D01*
X173266645Y-50868153D01*
X173273130Y-50830790D01*
X173278212Y-50808207D01*
X173282279Y-50799905D01*
X173285715Y-50805384D01*
X173288908Y-50824145D01*
X173290432Y-50837384D01*
X173293967Y-50883852D01*
X173295826Y-50937625D01*
X173296064Y-50994382D01*
X173294738Y-51049803D01*
X173291904Y-51099569D01*
X173287620Y-51139358D01*
X173286395Y-51146869D01*
X173278525Y-51180246D01*
X173266483Y-51218960D01*
X173252014Y-51258385D01*
X173236866Y-51293897D01*
X173222786Y-51320870D01*
X173217927Y-51328123D01*
X173210819Y-51331590D01*
X173199112Y-51325979D01*
X173180191Y-51310000D01*
X173178994Y-51308892D01*
X173147538Y-51279692D01*
X173177247Y-51311669D01*
X173206955Y-51343646D01*
X173188081Y-51375297D01*
X173164553Y-51409394D01*
X173133494Y-51447029D01*
X173098978Y-51483808D01*
X173065078Y-51515337D01*
X173041091Y-51533859D01*
X173022759Y-51547409D01*
X173013212Y-51556991D01*
X173014333Y-51560461D01*
X173026315Y-51558411D01*
X173049750Y-51552819D01*
X173081342Y-51544520D01*
X173117796Y-51534348D01*
X173120734Y-51533504D01*
X173205321Y-51504736D01*
X173276720Y-51470507D01*
X173336492Y-51429741D01*
X173386195Y-51381366D01*
X173427389Y-51324308D01*
X173429434Y-51320904D01*
X173454718Y-51271922D01*
X173480233Y-51210486D01*
X173505100Y-51139488D01*
X173528439Y-51061818D01*
X173549370Y-50980366D01*
X173567014Y-50898024D01*
X173578562Y-50830865D01*
X173583922Y-50782573D01*
X173587521Y-50723342D01*
X173589361Y-50657464D01*
X173589442Y-50589226D01*
X173587767Y-50522919D01*
X173584337Y-50462832D01*
X173579151Y-50413253D01*
X173578453Y-50408487D01*
X173562527Y-50321770D01*
X173541681Y-50236431D01*
X173516951Y-50155761D01*
X173489374Y-50083051D01*
X173459986Y-50021592D01*
X173452376Y-50008199D01*
X173439719Y-49986144D01*
X173431001Y-49969727D01*
X173428307Y-49963217D01*
X173423570Y-49952371D01*
X173410694Y-49932526D01*
X173391680Y-49906253D01*
X173368532Y-49876122D01*
X173343252Y-49844702D01*
X173317843Y-49814565D01*
X173294306Y-49788279D01*
X173282258Y-49775767D01*
X173211524Y-49712806D01*
X173133820Y-49657485D01*
X173110965Y-49644576D01*
X173122501Y-49644576D01*
X173123553Y-49645076D01*
X173130573Y-49639661D01*
X173132153Y-49637384D01*
X173134114Y-49630193D01*
X173133061Y-49629692D01*
X173126041Y-49635107D01*
X173124461Y-49637384D01*
X173122501Y-49644576D01*
X173110965Y-49644576D01*
X173070107Y-49621499D01*
X173145578Y-49621499D01*
X173146630Y-49622000D01*
X173153650Y-49616584D01*
X173155230Y-49614307D01*
X173157190Y-49607116D01*
X173156138Y-49606615D01*
X173149118Y-49612030D01*
X173147538Y-49614307D01*
X173145578Y-49621499D01*
X173070107Y-49621499D01*
X173051837Y-49611180D01*
X173022146Y-49598422D01*
X173168655Y-49598422D01*
X173169707Y-49598923D01*
X173176727Y-49593507D01*
X173178307Y-49591230D01*
X173180267Y-49584039D01*
X173179215Y-49583538D01*
X173172195Y-49588953D01*
X173170615Y-49591230D01*
X173168655Y-49598422D01*
X173022146Y-49598422D01*
X172968264Y-49575269D01*
X172885791Y-49551126D01*
X172824104Y-49541363D01*
X172768824Y-49540287D01*
X172712518Y-49546377D01*
X172658392Y-49558687D01*
X172609651Y-49576272D01*
X172569503Y-49598189D01*
X172541152Y-49623491D01*
X172539875Y-49625123D01*
X172523259Y-49652900D01*
X172513487Y-49685331D01*
X172510006Y-49725606D01*
X172512264Y-49776916D01*
X172512711Y-49781971D01*
X172514727Y-49847872D01*
X172510211Y-49920216D01*
X172499908Y-49992961D01*
X172484560Y-50060064D01*
X172474651Y-50091230D01*
X172464717Y-50118062D01*
X172452467Y-50149854D01*
X172439270Y-50183217D01*
X172426494Y-50214759D01*
X172415507Y-50241091D01*
X172407678Y-50258822D01*
X172404804Y-50264307D01*
X172398179Y-50275111D01*
X172384438Y-50299296D01*
X172363693Y-50336662D01*
X172336054Y-50387010D01*
X172301632Y-50450140D01*
X172289135Y-50473133D01*
X172244932Y-50568827D01*
X172210278Y-50675113D01*
X172197152Y-50729748D01*
X172184125Y-50821229D01*
X172183065Y-50914674D01*
X172066366Y-50914674D01*
X172066180Y-50902890D01*
X172067006Y-50855927D01*
X172069628Y-50815814D01*
X172074763Y-50777313D01*
X172083131Y-50735186D01*
X172095448Y-50684194D01*
X172096950Y-50678307D01*
X172107163Y-50641375D01*
X172118944Y-50605387D01*
X172133417Y-50567650D01*
X172151708Y-50525472D01*
X172174943Y-50476163D01*
X172204245Y-50417029D01*
X172215349Y-50395076D01*
X172249625Y-50327344D01*
X172277649Y-50271357D01*
X172300291Y-50225221D01*
X172318421Y-50187043D01*
X172332907Y-50154932D01*
X172344620Y-50126993D01*
X172354429Y-50101335D01*
X172363204Y-50076065D01*
X172366443Y-50066184D01*
X172378608Y-50026105D01*
X172390153Y-49983649D01*
X172400194Y-49942556D01*
X172407847Y-49906566D01*
X172412228Y-49879421D01*
X172412923Y-49869523D01*
X172405612Y-49858612D01*
X172385194Y-49848133D01*
X172353940Y-49838974D01*
X172318067Y-49832540D01*
X172286000Y-49828162D01*
X172249527Y-49905508D01*
X172200781Y-49998254D01*
X172143537Y-50089212D01*
X172081541Y-50172598D01*
X172059414Y-50198923D01*
X172035067Y-50226643D01*
X172003618Y-50262095D01*
X171968322Y-50301634D01*
X171932433Y-50341616D01*
X171899207Y-50378395D01*
X171894832Y-50383214D01*
X171816525Y-50476546D01*
X171753403Y-50567432D01*
X171705469Y-50655871D01*
X171672721Y-50741860D01*
X171666746Y-50763615D01*
X171657344Y-50815878D01*
X171652344Y-50877053D01*
X171651826Y-50941289D01*
X171521150Y-50941289D01*
X171522990Y-50883273D01*
X171530514Y-50815697D01*
X171544085Y-50749735D01*
X171564494Y-50682886D01*
X171592536Y-50612647D01*
X171629005Y-50536516D01*
X171674695Y-50451992D01*
X171687401Y-50429692D01*
X171703472Y-50403831D01*
X171727094Y-50368617D01*
X171756317Y-50326802D01*
X171789195Y-50281136D01*
X171823781Y-50234370D01*
X171851775Y-50197488D01*
X171876160Y-50165571D01*
X171898985Y-50135325D01*
X171917534Y-50110370D01*
X171928307Y-50095458D01*
X171973531Y-50032702D01*
X172018192Y-49974407D01*
X172059966Y-49923503D01*
X172096530Y-49882921D01*
X172097792Y-49881615D01*
X172121050Y-49857460D01*
X172134679Y-49842273D01*
X172139759Y-49833973D01*
X172137371Y-49830482D01*
X172128595Y-49829720D01*
X172124754Y-49829713D01*
X172096808Y-49830582D01*
X172065542Y-49833326D01*
X172029599Y-49838232D01*
X171987624Y-49845582D01*
X171938260Y-49855660D01*
X171880152Y-49868752D01*
X171811943Y-49885141D01*
X171732278Y-49905111D01*
X171639800Y-49928947D01*
X171593692Y-49940997D01*
X171523806Y-49962913D01*
X171448977Y-49992552D01*
X171375506Y-50027137D01*
X171309694Y-50063890D01*
X171297538Y-50071558D01*
X171262110Y-50096116D01*
X171222972Y-50125942D01*
X171183977Y-50157852D01*
X171148978Y-50188659D01*
X171121827Y-50215178D01*
X171115746Y-50221870D01*
X171099093Y-50240971D01*
X171093414Y-50195515D01*
X171090485Y-50138754D01*
X171093937Y-50070692D01*
X171103275Y-49993793D01*
X171112934Y-49939181D01*
X171213073Y-49939181D01*
X171217457Y-49939104D01*
X171227191Y-49930471D01*
X171318932Y-49930471D01*
X171320124Y-49931669D01*
X171330866Y-49926007D01*
X171338169Y-49921822D01*
X171360898Y-49909395D01*
X171390437Y-49894117D01*
X171415071Y-49881896D01*
X171473031Y-49855323D01*
X171532953Y-49831172D01*
X171590835Y-49810354D01*
X171641825Y-49792782D01*
X171659780Y-49809314D01*
X171677736Y-49825846D01*
X171663513Y-49808698D01*
X171657623Y-49801787D01*
X171654397Y-49796520D01*
X171655647Y-49792159D01*
X171663180Y-49787966D01*
X171678807Y-49783202D01*
X171704339Y-49777130D01*
X171741584Y-49769010D01*
X171782097Y-49760313D01*
X171857251Y-49746072D01*
X171937568Y-49734287D01*
X172020191Y-49725129D01*
X172102262Y-49718770D01*
X172180922Y-49715382D01*
X172253312Y-49715137D01*
X172316574Y-49718205D01*
X172367850Y-49724760D01*
X172369349Y-49725046D01*
X172399871Y-49730070D01*
X172417597Y-49730646D01*
X172424439Y-49726829D01*
X172424485Y-49726687D01*
X172427939Y-49715149D01*
X172434286Y-49693943D01*
X172440493Y-49673199D01*
X172460314Y-49622777D01*
X172487879Y-49574407D01*
X172520058Y-49533018D01*
X172543692Y-49510807D01*
X172580710Y-49488288D01*
X172629020Y-49468944D01*
X172684698Y-49453683D01*
X172743817Y-49443414D01*
X172802455Y-49439044D01*
X172847538Y-49440510D01*
X172882895Y-49445176D01*
X172924135Y-49452687D01*
X172962417Y-49461430D01*
X172962923Y-49461562D01*
X172998285Y-49472411D01*
X173038330Y-49487225D01*
X173079537Y-49504419D01*
X173118390Y-49522407D01*
X173151370Y-49539603D01*
X173174959Y-49554420D01*
X173182031Y-49560339D01*
X173195143Y-49571611D01*
X173203307Y-49575796D01*
X173218409Y-49581155D01*
X173241731Y-49596186D01*
X173271278Y-49619056D01*
X173305057Y-49647933D01*
X173341073Y-49680984D01*
X173377331Y-49716376D01*
X173411838Y-49752277D01*
X173442599Y-49786855D01*
X173467620Y-49818275D01*
X173468561Y-49819561D01*
X173503226Y-49867123D01*
X173506177Y-49798923D01*
X173632542Y-49798923D01*
X173633247Y-49854864D01*
X173635977Y-49899087D01*
X173641593Y-49935214D01*
X173650953Y-49966866D01*
X173664918Y-49997665D01*
X173684346Y-50031234D01*
X173689695Y-50039754D01*
X173722067Y-50079759D01*
X173761464Y-50110995D01*
X173805084Y-50132396D01*
X173850126Y-50142897D01*
X173893790Y-50141434D01*
X173927419Y-50130145D01*
X173964620Y-50103536D01*
X173998513Y-50064418D01*
X174026637Y-50015642D01*
X174027064Y-50014720D01*
X174035148Y-49995860D01*
X174040684Y-49978286D01*
X174044164Y-49958406D01*
X174046079Y-49932627D01*
X174046922Y-49897357D01*
X174047126Y-49868153D01*
X174046289Y-49815867D01*
X174043569Y-49767219D01*
X174039279Y-49726842D01*
X174036492Y-49710461D01*
X174030700Y-49682906D01*
X174026885Y-49668810D01*
X174023962Y-49666555D01*
X174020845Y-49674522D01*
X174018431Y-49683538D01*
X174004413Y-49735269D01*
X173992563Y-49774716D01*
X173983157Y-49801046D01*
X173976475Y-49813424D01*
X173974858Y-49814307D01*
X173967876Y-49806787D01*
X173958523Y-49784506D01*
X173946937Y-49747880D01*
X173933256Y-49697327D01*
X173924165Y-49660758D01*
X173907275Y-49586738D01*
X173895211Y-49522929D01*
X173887392Y-49465139D01*
X173883238Y-49409174D01*
X173882153Y-49357506D01*
X173884100Y-49294724D01*
X173887078Y-49270358D01*
X173998778Y-49270358D01*
X174000650Y-49274657D01*
X174008395Y-49282915D01*
X174012848Y-49281221D01*
X174012923Y-49280146D01*
X174007459Y-49273640D01*
X174004042Y-49271265D01*
X173998778Y-49270358D01*
X173887078Y-49270358D01*
X173889698Y-49248923D01*
X173974461Y-49248923D01*
X173978307Y-49252769D01*
X173982153Y-49248923D01*
X173978307Y-49245076D01*
X173974461Y-49248923D01*
X173889698Y-49248923D01*
X173890666Y-49241002D01*
X173898999Y-49206673D01*
X173936503Y-49206673D01*
X173938414Y-49210657D01*
X173942711Y-49216230D01*
X173953938Y-49228189D01*
X173958950Y-49228137D01*
X173959076Y-49226788D01*
X173953820Y-49220366D01*
X173945615Y-49213326D01*
X173936503Y-49206673D01*
X173898999Y-49206673D01*
X173902942Y-49190427D01*
X173904030Y-49187384D01*
X173912923Y-49187384D01*
X173916769Y-49191230D01*
X173920615Y-49187384D01*
X173916769Y-49183538D01*
X173912923Y-49187384D01*
X173904030Y-49187384D01*
X173922020Y-49137084D01*
X173923457Y-49133538D01*
X173935998Y-49102769D01*
X173912501Y-49128361D01*
X173897101Y-49143703D01*
X173886882Y-49148654D01*
X173877617Y-49144994D01*
X173875963Y-49143746D01*
X173867182Y-49137402D01*
X173869378Y-49141705D01*
X173873174Y-49146631D01*
X173876731Y-49153897D01*
X173875839Y-49163587D01*
X173869385Y-49178268D01*
X173856252Y-49200504D01*
X173836387Y-49231247D01*
X173794081Y-49301029D01*
X173751916Y-49380556D01*
X173712525Y-49464390D01*
X173678541Y-49547095D01*
X173664256Y-49586743D01*
X173632583Y-49679692D01*
X173632542Y-49798923D01*
X173506177Y-49798923D01*
X173507447Y-49769561D01*
X173520162Y-49652790D01*
X173548009Y-49538058D01*
X173590810Y-49425906D01*
X173648383Y-49316872D01*
X173668480Y-49284896D01*
X173684944Y-49259320D01*
X173697594Y-49239020D01*
X173704504Y-49227120D01*
X173705230Y-49225377D01*
X173699371Y-49227470D01*
X173684085Y-49236080D01*
X173664846Y-49247978D01*
X173605670Y-49282619D01*
X173545654Y-49312064D01*
X173490116Y-49333757D01*
X173479518Y-49337089D01*
X173446929Y-49346688D01*
X173418882Y-49354332D01*
X173393075Y-49360225D01*
X173367206Y-49364571D01*
X173338974Y-49367572D01*
X173306078Y-49369431D01*
X173266216Y-49370351D01*
X173217086Y-49370535D01*
X173156388Y-49370186D01*
X173109076Y-49369765D01*
X173002689Y-49369560D01*
X172908220Y-49371389D01*
X172822706Y-49375728D01*
X172743184Y-49383055D01*
X172666690Y-49393847D01*
X172590262Y-49408580D01*
X172510935Y-49427732D01*
X172425747Y-49451779D01*
X172331734Y-49481200D01*
X172251384Y-49507843D01*
X172162200Y-49537853D01*
X172082869Y-49564363D01*
X172014095Y-49587144D01*
X171956587Y-49605965D01*
X171911049Y-49620597D01*
X171878188Y-49630809D01*
X171858711Y-49636371D01*
X171853602Y-49637384D01*
X171842636Y-49640112D01*
X171820622Y-49647490D01*
X171790735Y-49658306D01*
X171756151Y-49671352D01*
X171720046Y-49685416D01*
X171685598Y-49699289D01*
X171655981Y-49711760D01*
X171641871Y-49718058D01*
X171617378Y-49727864D01*
X171597657Y-49733071D01*
X171588025Y-49732822D01*
X171582486Y-49731111D01*
X171584043Y-49733553D01*
X171580523Y-49739921D01*
X171566175Y-49751424D01*
X171543751Y-49765968D01*
X171534043Y-49771651D01*
X171453715Y-49820876D01*
X171386402Y-49869442D01*
X171347538Y-49902728D01*
X171327875Y-49921221D01*
X171318932Y-49930471D01*
X171227191Y-49930471D01*
X171228710Y-49929124D01*
X171241919Y-49914307D01*
X171263013Y-49890100D01*
X171289018Y-49861949D01*
X171310511Y-49839793D01*
X171396391Y-49763107D01*
X171458477Y-49718153D01*
X171566769Y-49718153D01*
X171570615Y-49722000D01*
X171574461Y-49718153D01*
X171570615Y-49714307D01*
X171566769Y-49718153D01*
X171458477Y-49718153D01*
X171496520Y-49690607D01*
X171504665Y-49685743D01*
X171537239Y-49685743D01*
X171539111Y-49690042D01*
X171546856Y-49698300D01*
X171551309Y-49696606D01*
X171551384Y-49695530D01*
X171545920Y-49689024D01*
X171542503Y-49686650D01*
X171537239Y-49685743D01*
X171504665Y-49685743D01*
X171611021Y-49622227D01*
X171740020Y-49557900D01*
X171883643Y-49497558D01*
X172042014Y-49441134D01*
X172074461Y-49430635D01*
X172154235Y-49405464D01*
X172221607Y-49384820D01*
X172278702Y-49368156D01*
X172327642Y-49354927D01*
X172370551Y-49344586D01*
X172409551Y-49336587D01*
X172427843Y-49333538D01*
X173428307Y-49333538D01*
X173432153Y-49337384D01*
X173436000Y-49333538D01*
X173432153Y-49329692D01*
X173428307Y-49333538D01*
X172427843Y-49333538D01*
X172446765Y-49330384D01*
X172482453Y-49325650D01*
X172534252Y-49319095D01*
X173443692Y-49319095D01*
X173447434Y-49321398D01*
X173457660Y-49311516D01*
X173460058Y-49308538D01*
X173466710Y-49299426D01*
X173462727Y-49301337D01*
X173457153Y-49305634D01*
X173446500Y-49315123D01*
X173443692Y-49319095D01*
X172534252Y-49319095D01*
X172543363Y-49317942D01*
X172593580Y-49310591D01*
X172632066Y-49303792D01*
X172657782Y-49297738D01*
X172669691Y-49292623D01*
X172670215Y-49290583D01*
X172659971Y-49284143D01*
X172645054Y-49280634D01*
X173482153Y-49280634D01*
X173485895Y-49282936D01*
X173496121Y-49273055D01*
X173498519Y-49270076D01*
X173505172Y-49260965D01*
X173501188Y-49262875D01*
X173495615Y-49267172D01*
X173484961Y-49276661D01*
X173482153Y-49280634D01*
X172645054Y-49280634D01*
X172637598Y-49278880D01*
X172602584Y-49274764D01*
X172554418Y-49271768D01*
X172492586Y-49269862D01*
X172416578Y-49269017D01*
X172325882Y-49269205D01*
X172296050Y-49269455D01*
X172223070Y-49270073D01*
X172163593Y-49270335D01*
X172115740Y-49270177D01*
X172077632Y-49269534D01*
X172047389Y-49268344D01*
X172023132Y-49266541D01*
X172002983Y-49264062D01*
X171985062Y-49260842D01*
X171974461Y-49258496D01*
X171945792Y-49252268D01*
X173514809Y-49252268D01*
X173515861Y-49252769D01*
X173522881Y-49247353D01*
X173524461Y-49245076D01*
X173526421Y-49237885D01*
X173525369Y-49237384D01*
X173518349Y-49242799D01*
X173516769Y-49245076D01*
X173514809Y-49252268D01*
X171945792Y-49252268D01*
X171943421Y-49251753D01*
X171920476Y-49248961D01*
X171898867Y-49250059D01*
X171871838Y-49254985D01*
X171860533Y-49257449D01*
X171805226Y-49265537D01*
X171745197Y-49267319D01*
X171685875Y-49263053D01*
X171632687Y-49252996D01*
X171609076Y-49245497D01*
X171576237Y-49233727D01*
X171553601Y-49228619D01*
X171537207Y-49230835D01*
X171523092Y-49241037D01*
X171507295Y-49259886D01*
X171505011Y-49262875D01*
X171488044Y-49286918D01*
X171466996Y-49319315D01*
X171443980Y-49356511D01*
X171421115Y-49394953D01*
X171400514Y-49431086D01*
X171384296Y-49461355D01*
X171374844Y-49481517D01*
X171366360Y-49496690D01*
X171358190Y-49501926D01*
X171356995Y-49501482D01*
X171352662Y-49501537D01*
X171354175Y-49504907D01*
X171353911Y-49515793D01*
X171348097Y-49535881D01*
X171339198Y-49558018D01*
X171322763Y-49596651D01*
X171304947Y-49642142D01*
X171286603Y-49691916D01*
X171268582Y-49743395D01*
X171251738Y-49794005D01*
X171236922Y-49841168D01*
X171224986Y-49882310D01*
X171216785Y-49914854D01*
X171213168Y-49936225D01*
X171213073Y-49939181D01*
X171112934Y-49939181D01*
X171118004Y-49910519D01*
X171137630Y-49823333D01*
X171161658Y-49734698D01*
X171189594Y-49647076D01*
X171219890Y-49565550D01*
X171236355Y-49525975D01*
X171252211Y-49490510D01*
X171258279Y-49478051D01*
X171329547Y-49478051D01*
X171331419Y-49482349D01*
X171339164Y-49490607D01*
X171343617Y-49488913D01*
X171343692Y-49487838D01*
X171338228Y-49481332D01*
X171334811Y-49478957D01*
X171329547Y-49478051D01*
X171258279Y-49478051D01*
X171266116Y-49461958D01*
X171270051Y-49454974D01*
X171306470Y-49454974D01*
X171308342Y-49459273D01*
X171316087Y-49467531D01*
X171320540Y-49465837D01*
X171320615Y-49464761D01*
X171315151Y-49458255D01*
X171311734Y-49455880D01*
X171306470Y-49454974D01*
X171270051Y-49454974D01*
X171276728Y-49443122D01*
X171281264Y-49437384D01*
X171286398Y-49427395D01*
X171288620Y-49418510D01*
X171294310Y-49403042D01*
X171306999Y-49377550D01*
X171325104Y-49344777D01*
X171347044Y-49307469D01*
X171371237Y-49268369D01*
X171396099Y-49230223D01*
X171403270Y-49219640D01*
X171444371Y-49159588D01*
X171433674Y-49148285D01*
X172113567Y-49148285D01*
X172122274Y-49150073D01*
X172143554Y-49152342D01*
X172174610Y-49154916D01*
X172212644Y-49157616D01*
X172254859Y-49160266D01*
X172298458Y-49162689D01*
X172340643Y-49164707D01*
X172378618Y-49166143D01*
X172405230Y-49166769D01*
X172470615Y-49167666D01*
X172450019Y-49152290D01*
X172416691Y-49124558D01*
X172382918Y-49091568D01*
X172351651Y-49056680D01*
X172325838Y-49023259D01*
X172308430Y-48994665D01*
X172305142Y-48987153D01*
X172296901Y-48965476D01*
X172237604Y-49027167D01*
X172209345Y-49055876D01*
X172180892Y-49083616D01*
X172156283Y-49106504D01*
X172144286Y-49116920D01*
X172126521Y-49132524D01*
X172115521Y-49144060D01*
X172113567Y-49148285D01*
X171433674Y-49148285D01*
X171373831Y-49085053D01*
X171343646Y-49051877D01*
X171314077Y-49017149D01*
X171288584Y-48985061D01*
X171271063Y-48960490D01*
X171248925Y-48923625D01*
X171230328Y-48887890D01*
X171216551Y-48856212D01*
X171208871Y-48831518D01*
X171208453Y-48817005D01*
X171208929Y-48809446D01*
X171206079Y-48809937D01*
X171200059Y-48806877D01*
X171195367Y-48791444D01*
X171194831Y-48787384D01*
X171228307Y-48787384D01*
X171232153Y-48791230D01*
X171236000Y-48787384D01*
X171232153Y-48783538D01*
X171228307Y-48787384D01*
X171194831Y-48787384D01*
X171192085Y-48766601D01*
X171191954Y-48764307D01*
X171251384Y-48764307D01*
X171255230Y-48768153D01*
X171259076Y-48764307D01*
X171255230Y-48760461D01*
X171251384Y-48764307D01*
X171191954Y-48764307D01*
X171190296Y-48735308D01*
X171190082Y-48700528D01*
X171190168Y-48698422D01*
X171322501Y-48698422D01*
X171323553Y-48698923D01*
X171330573Y-48693507D01*
X171332153Y-48691230D01*
X171334114Y-48684039D01*
X171333061Y-48683538D01*
X171326041Y-48688953D01*
X171324461Y-48691230D01*
X171322501Y-48698422D01*
X171190168Y-48698422D01*
X171191528Y-48665222D01*
X171194716Y-48632352D01*
X171199727Y-48604879D01*
X171200282Y-48602729D01*
X171214840Y-48558113D01*
X171236109Y-48509661D01*
X171265134Y-48455366D01*
X171302958Y-48393222D01*
X171333855Y-48346029D01*
X171351244Y-48320059D01*
X171307860Y-48273198D01*
X171247062Y-48203917D01*
X171197819Y-48139185D01*
X171158302Y-48075963D01*
X171126682Y-48011213D01*
X171101131Y-47941897D01*
X171093683Y-47917379D01*
X171063784Y-47788595D01*
X171048354Y-47659496D01*
X171047695Y-47575846D01*
X171166964Y-47575846D01*
X171170180Y-47635681D01*
X171178855Y-47703277D01*
X171191931Y-47772460D01*
X171208353Y-47837053D01*
X171215701Y-47860461D01*
X171225280Y-47887337D01*
X171237185Y-47918252D01*
X171250422Y-47950944D01*
X171263997Y-47983151D01*
X171276915Y-48012612D01*
X171288184Y-48037065D01*
X171296809Y-48054249D01*
X171301796Y-48061902D01*
X171302153Y-48057763D01*
X171301896Y-48056615D01*
X171298424Y-48042101D01*
X171292444Y-48017391D01*
X171285104Y-47987231D01*
X171283264Y-47979692D01*
X171264215Y-47885332D01*
X171252667Y-47790830D01*
X171248923Y-47700247D01*
X171253285Y-47617641D01*
X171255141Y-47602550D01*
X171259139Y-47579906D01*
X171265767Y-47549135D01*
X171274047Y-47514112D01*
X171283000Y-47478709D01*
X171291648Y-47446800D01*
X171299010Y-47422258D01*
X171304040Y-47409077D01*
X171305611Y-47413443D01*
X171306981Y-47431007D01*
X171308070Y-47459584D01*
X171308796Y-47496986D01*
X171309076Y-47541029D01*
X171309076Y-47543692D01*
X171309358Y-47598954D01*
X171310393Y-47642451D01*
X171312470Y-47677793D01*
X171315874Y-47708594D01*
X171320895Y-47738464D01*
X171326780Y-47766418D01*
X171348413Y-47851927D01*
X171373999Y-47934268D01*
X171402549Y-48011007D01*
X171433073Y-48079712D01*
X171464583Y-48137948D01*
X171496089Y-48183281D01*
X171496300Y-48183538D01*
X171518484Y-48211256D01*
X171539984Y-48239294D01*
X171557760Y-48263601D01*
X171568770Y-48280124D01*
X171568790Y-48280158D01*
X171567059Y-48290329D01*
X171557163Y-48306620D01*
X171550619Y-48314773D01*
X171531863Y-48336917D01*
X171514120Y-48358661D01*
X171510681Y-48363024D01*
X171496107Y-48381423D01*
X171476947Y-48405243D01*
X171464372Y-48420716D01*
X171415160Y-48489474D01*
X171380887Y-48557593D01*
X171361240Y-48626430D01*
X171355903Y-48697343D01*
X171364562Y-48771688D01*
X171374011Y-48810461D01*
X171398020Y-48878753D01*
X171429811Y-48943695D01*
X171467584Y-49002708D01*
X171509544Y-49053210D01*
X171553892Y-49092624D01*
X171583617Y-49111319D01*
X171643190Y-49133941D01*
X171710494Y-49144226D01*
X171783868Y-49142026D01*
X171833574Y-49133926D01*
X171869706Y-49124587D01*
X171908179Y-49112135D01*
X171932153Y-49102819D01*
X171951681Y-49093686D01*
X171960354Y-49088119D01*
X171956575Y-49087183D01*
X171955230Y-49087429D01*
X171923714Y-49091863D01*
X171883488Y-49094977D01*
X171839272Y-49096675D01*
X171795786Y-49096863D01*
X171757747Y-49095445D01*
X171729876Y-49092328D01*
X171728164Y-49091990D01*
X171661061Y-49070392D01*
X171599568Y-49035467D01*
X171545795Y-48988865D01*
X171501849Y-48932241D01*
X171484335Y-48900917D01*
X171471345Y-48873664D01*
X171462788Y-48851658D01*
X171457579Y-48830031D01*
X171454633Y-48803915D01*
X171452864Y-48768443D01*
X171452497Y-48758088D01*
X171451640Y-48718698D01*
X171452336Y-48693337D01*
X171454677Y-48680719D01*
X171458191Y-48679145D01*
X171466257Y-48689361D01*
X171466769Y-48692366D01*
X171469928Y-48702224D01*
X171478462Y-48722622D01*
X171490958Y-48750292D01*
X171501829Y-48773336D01*
X171538242Y-48839054D01*
X171578467Y-48891130D01*
X171624197Y-48931157D01*
X171677123Y-48960732D01*
X171715789Y-48974984D01*
X171790615Y-48990235D01*
X171866722Y-48990220D01*
X171943998Y-48974997D01*
X172022333Y-48944621D01*
X172101619Y-48899149D01*
X172157675Y-48856814D01*
X172440069Y-48856814D01*
X172441615Y-48906021D01*
X172447585Y-48945312D01*
X172459492Y-48979878D01*
X172478848Y-49014909D01*
X172491753Y-49034165D01*
X172528472Y-49075104D01*
X172578855Y-49113303D01*
X172641309Y-49147997D01*
X172714243Y-49178421D01*
X172796064Y-49203809D01*
X172885177Y-49223398D01*
X172886000Y-49223544D01*
X172950500Y-49232776D01*
X173022299Y-49239306D01*
X173097189Y-49243029D01*
X173170959Y-49243844D01*
X173239401Y-49241646D01*
X173298306Y-49236331D01*
X173313814Y-49234061D01*
X173352942Y-49226242D01*
X173370121Y-49222000D01*
X173544520Y-49222000D01*
X173551639Y-49216959D01*
X173565465Y-49204126D01*
X173574461Y-49195076D01*
X173588715Y-49179649D01*
X173596371Y-49169908D01*
X173596710Y-49168153D01*
X173589591Y-49173193D01*
X173575764Y-49186027D01*
X173566769Y-49195076D01*
X173552515Y-49210504D01*
X173544859Y-49220244D01*
X173544520Y-49222000D01*
X173370121Y-49222000D01*
X173399636Y-49214712D01*
X173449921Y-49200676D01*
X173499822Y-49185338D01*
X173545367Y-49169901D01*
X173582579Y-49155571D01*
X173601384Y-49146924D01*
X173616463Y-49139490D01*
X173620060Y-49139745D01*
X173614292Y-49148181D01*
X173613155Y-49149657D01*
X173607641Y-49157640D01*
X173611761Y-49155459D01*
X173620848Y-49147786D01*
X173635571Y-49137775D01*
X173660166Y-49123743D01*
X173673895Y-49116512D01*
X173844932Y-49116512D01*
X173846803Y-49120811D01*
X173854549Y-49129069D01*
X173859002Y-49127375D01*
X173859076Y-49126300D01*
X173853613Y-49119793D01*
X173850196Y-49117419D01*
X173844932Y-49116512D01*
X173673895Y-49116512D01*
X173690466Y-49107784D01*
X173722308Y-49091989D01*
X173735789Y-49085743D01*
X173814163Y-49085743D01*
X173816034Y-49090042D01*
X173823780Y-49098300D01*
X173828232Y-49096606D01*
X173828307Y-49095530D01*
X173822844Y-49089024D01*
X173819426Y-49086650D01*
X173814163Y-49085743D01*
X173735789Y-49085743D01*
X173751525Y-49078452D01*
X173773951Y-49069263D01*
X173782153Y-49066762D01*
X173794843Y-49061752D01*
X173797538Y-49059502D01*
X173805670Y-49054250D01*
X173824490Y-49043961D01*
X173850850Y-49030319D01*
X173870615Y-49020413D01*
X173929900Y-48992038D01*
X173977571Y-48971658D01*
X174014991Y-48959005D01*
X174043526Y-48953813D01*
X174064539Y-48955816D01*
X174079396Y-48964748D01*
X174088366Y-48977931D01*
X174092342Y-48989036D01*
X174094008Y-49003014D01*
X174093229Y-49022844D01*
X174089871Y-49051507D01*
X174083799Y-49091985D01*
X174082979Y-49097161D01*
X174076532Y-49142218D01*
X174070959Y-49189409D01*
X174066917Y-49232672D01*
X174065174Y-49261816D01*
X174062923Y-49328556D01*
X174043692Y-49311844D01*
X174032990Y-49302815D01*
X174032265Y-49303377D01*
X174041733Y-49314284D01*
X174045615Y-49318602D01*
X174061930Y-49343387D01*
X174066767Y-49371910D01*
X174066769Y-49372613D01*
X174068847Y-49393908D01*
X174074526Y-49426385D01*
X174082972Y-49466498D01*
X174093348Y-49510697D01*
X174104822Y-49555435D01*
X174116558Y-49597163D01*
X174127722Y-49632333D01*
X174128140Y-49633538D01*
X174141109Y-49674676D01*
X174154407Y-49723409D01*
X174166853Y-49774738D01*
X174177266Y-49823663D01*
X174184465Y-49865186D01*
X174186296Y-49879692D01*
X174185920Y-49944493D01*
X174172613Y-50011088D01*
X174147787Y-50075710D01*
X174112855Y-50134589D01*
X174073797Y-50179699D01*
X174018516Y-50223383D01*
X173960274Y-50252014D01*
X173899437Y-50265560D01*
X173836373Y-50263989D01*
X173771451Y-50247266D01*
X173705038Y-50215360D01*
X173700781Y-50212823D01*
X173676543Y-50198670D01*
X173657993Y-50188716D01*
X173648458Y-50184724D01*
X173647901Y-50184820D01*
X173648083Y-50192895D01*
X173649913Y-50213812D01*
X173653141Y-50245148D01*
X173657517Y-50284479D01*
X173662791Y-50329381D01*
X173662829Y-50329692D01*
X173676946Y-50453741D01*
X173687722Y-50564226D01*
X173695209Y-50662587D01*
X173699457Y-50750267D01*
X173700516Y-50828707D01*
X173698439Y-50899349D01*
X173693276Y-50963633D01*
X173686908Y-51011768D01*
X173673314Y-51077070D01*
X173653169Y-51146105D01*
X173628533Y-51212708D01*
X173601466Y-51270714D01*
X173598683Y-51275846D01*
X173575858Y-51310722D01*
X173544102Y-51350509D01*
X173507070Y-51391275D01*
X173468417Y-51429084D01*
X173431800Y-51460004D01*
X173418901Y-51469317D01*
X173373053Y-51500452D01*
X173348757Y-51478533D01*
X173324461Y-51456615D01*
X173346244Y-51480769D01*
X173368026Y-51504923D01*
X173306263Y-51536393D01*
X173236424Y-51568484D01*
X173161733Y-51595610D01*
X173078561Y-51618952D01*
X172995520Y-51637287D01*
X172955334Y-51645440D01*
X172920495Y-51652825D01*
X172893801Y-51658826D01*
X172878053Y-51662823D01*
X172875189Y-51663857D01*
X172869797Y-51673435D01*
X172864993Y-51691679D01*
X172864529Y-51694359D01*
X172860312Y-51710131D01*
X172851322Y-51737221D01*
X172838602Y-51772703D01*
X172823195Y-51813652D01*
X172809646Y-51848351D01*
X172793332Y-51889841D01*
X172779207Y-51926498D01*
X172768187Y-51955887D01*
X172761186Y-51975575D01*
X172759076Y-51982937D01*
X172756503Y-51992202D01*
X172749377Y-52013328D01*
X172738591Y-52043784D01*
X172725036Y-52081041D01*
X172713628Y-52111824D01*
X172696252Y-52158441D01*
X172678570Y-52206068D01*
X172659703Y-52257082D01*
X172638776Y-52313862D01*
X172614911Y-52378785D01*
X172587232Y-52454228D01*
X172566624Y-52510461D01*
X172559420Y-52529819D01*
X172547859Y-52560525D01*
X172533083Y-52599561D01*
X172516236Y-52643907D01*
X172498459Y-52690545D01*
X172498351Y-52690828D01*
X172481879Y-52734369D01*
X172467654Y-52772735D01*
X172456470Y-52803720D01*
X172449123Y-52825118D01*
X172446405Y-52834722D01*
X172446452Y-52835016D01*
X172452055Y-52830781D01*
X172464397Y-52817476D01*
X172478905Y-52800283D01*
X172510853Y-52765025D01*
X172552868Y-52724631D01*
X172601843Y-52681916D01*
X172654677Y-52639693D01*
X172662923Y-52633441D01*
X172684074Y-52617989D01*
X172712659Y-52597766D01*
X172746449Y-52574278D01*
X172783216Y-52549033D01*
X172820729Y-52523539D01*
X172856759Y-52499301D01*
X172889078Y-52477829D01*
X172915457Y-52460629D01*
X172933666Y-52449209D01*
X172941473Y-52445076D01*
X172949290Y-52441069D01*
X172965367Y-52430828D01*
X172977050Y-52422902D01*
X173005818Y-52403387D01*
X173039156Y-52381379D01*
X173072650Y-52359734D01*
X173101884Y-52341307D01*
X173121095Y-52329726D01*
X173135824Y-52321102D01*
X173160102Y-52306726D01*
X173190285Y-52288760D01*
X173216179Y-52273289D01*
X173246232Y-52255819D01*
X173271260Y-52242240D01*
X173288490Y-52233994D01*
X173295054Y-52232336D01*
X173296012Y-52242382D01*
X173292648Y-52262971D01*
X173286080Y-52290255D01*
X173277429Y-52320388D01*
X173267812Y-52349522D01*
X173258350Y-52373809D01*
X173250161Y-52389403D01*
X173248902Y-52390997D01*
X173241084Y-52400975D01*
X173243160Y-52401454D01*
X173245462Y-52399798D01*
X173251564Y-52396089D01*
X173255139Y-52398033D01*
X173256518Y-52408049D01*
X173256034Y-52428557D01*
X173254017Y-52461975D01*
X173254009Y-52462103D01*
X173252905Y-52509409D01*
X173254809Y-52570088D01*
X173259649Y-52642438D01*
X173263299Y-52684072D01*
X173277352Y-52833538D01*
X173287634Y-52783538D01*
X173292897Y-52755995D01*
X173299567Y-52718265D01*
X173306776Y-52675376D01*
X173313476Y-52633538D01*
X173321878Y-52584317D01*
X173332345Y-52530419D01*
X173344263Y-52474354D01*
X173357018Y-52418633D01*
X173369996Y-52365767D01*
X173382583Y-52318266D01*
X173394165Y-52278642D01*
X173404128Y-52249405D01*
X173411134Y-52234159D01*
X173417153Y-52219635D01*
X173417456Y-52218153D01*
X173420615Y-52218153D01*
X173424461Y-52222000D01*
X173428307Y-52218153D01*
X173424461Y-52214307D01*
X173420615Y-52218153D01*
X173417456Y-52218153D01*
X173417657Y-52217167D01*
X173421280Y-52200616D01*
X173427416Y-52178693D01*
X173434625Y-52155833D01*
X173441468Y-52136468D01*
X173446505Y-52125032D01*
X173447999Y-52123743D01*
X173448545Y-52132575D01*
X173446192Y-52151384D01*
X173443691Y-52164954D01*
X173439697Y-52185582D01*
X173436383Y-52205812D01*
X173433679Y-52227320D01*
X173431514Y-52251780D01*
X173429817Y-52280866D01*
X173428519Y-52316254D01*
X173427548Y-52359618D01*
X173426834Y-52412633D01*
X173426307Y-52476974D01*
X173425896Y-52554315D01*
X173425740Y-52591409D01*
X173424461Y-52910819D01*
X173451503Y-52876025D01*
X173468745Y-52853501D01*
X173483681Y-52833418D01*
X173489964Y-52824609D01*
X173497963Y-52813218D01*
X173513278Y-52791627D01*
X173534268Y-52762141D01*
X173559291Y-52727067D01*
X173585788Y-52689993D01*
X173614335Y-52650073D01*
X173641575Y-52611961D01*
X173665535Y-52578414D01*
X173684245Y-52552194D01*
X173694793Y-52537384D01*
X173705521Y-52521602D01*
X173723088Y-52494948D01*
X173746111Y-52459557D01*
X173773209Y-52417559D01*
X173803001Y-52371089D01*
X173831838Y-52325846D01*
X173862228Y-52278167D01*
X173890596Y-52233920D01*
X173915700Y-52195023D01*
X173931761Y-52170358D01*
X174037239Y-52170358D01*
X174039111Y-52174657D01*
X174046856Y-52182915D01*
X174051309Y-52181221D01*
X174051384Y-52180146D01*
X174045920Y-52173640D01*
X174042503Y-52171265D01*
X174037239Y-52170358D01*
X173931761Y-52170358D01*
X173936295Y-52163396D01*
X173951138Y-52140958D01*
X173958937Y-52129692D01*
X173973593Y-52110461D01*
X174002873Y-52137384D01*
X174032153Y-52164307D01*
X174007153Y-52137018D01*
X173992449Y-52119544D01*
X173983462Y-52106124D01*
X173982153Y-52102342D01*
X173986435Y-52093471D01*
X173998039Y-52075087D01*
X174015109Y-52050024D01*
X174032381Y-52025785D01*
X174078337Y-51961567D01*
X174102881Y-51925846D01*
X174174461Y-51925846D01*
X174178307Y-51929692D01*
X174182153Y-51925846D01*
X174178307Y-51922000D01*
X174174461Y-51925846D01*
X174102881Y-51925846D01*
X174115701Y-51907187D01*
X174145757Y-51860686D01*
X174169788Y-51820107D01*
X174182484Y-51796557D01*
X174195781Y-51771920D01*
X174206670Y-51753714D01*
X174213106Y-51745315D01*
X174213622Y-51745105D01*
X174217479Y-51752332D01*
X174223112Y-51772573D01*
X174230117Y-51803609D01*
X174238092Y-51843225D01*
X174246634Y-51889202D01*
X174255339Y-51939325D01*
X174263805Y-51991377D01*
X174271629Y-52043141D01*
X174278407Y-52092400D01*
X174281925Y-52120857D01*
X174285047Y-52155251D01*
X174287511Y-52197536D01*
X174289271Y-52244301D01*
X174290275Y-52292135D01*
X174290476Y-52337629D01*
X174289823Y-52377371D01*
X174288268Y-52407950D01*
X174286299Y-52423725D01*
X174284809Y-52438265D01*
X174290050Y-52441291D01*
X174293533Y-52440227D01*
X174301817Y-52433563D01*
X174301641Y-52430108D01*
X174304156Y-52421678D01*
X174313854Y-52403957D01*
X174328918Y-52380129D01*
X174336654Y-52368712D01*
X174390047Y-52290647D01*
X174437130Y-52219836D01*
X174479877Y-52153008D01*
X174520264Y-52086892D01*
X174560265Y-52018217D01*
X174601857Y-51943711D01*
X174647014Y-51860103D01*
X174670615Y-51815628D01*
X174691030Y-51777459D01*
X174709127Y-51744527D01*
X174723647Y-51719047D01*
X174733336Y-51703233D01*
X174736762Y-51699030D01*
X174740088Y-51706162D01*
X174744968Y-51725913D01*
X174750956Y-51755647D01*
X174757606Y-51792731D01*
X174764473Y-51834528D01*
X174771109Y-51878403D01*
X174777069Y-51921721D01*
X174781907Y-51961848D01*
X174783012Y-51972269D01*
X174786828Y-52026561D01*
X174788688Y-52092315D01*
X174788706Y-52165750D01*
X174786995Y-52243080D01*
X174783668Y-52320525D01*
X174778837Y-52394302D01*
X174772615Y-52460627D01*
X174767170Y-52502769D01*
X174753003Y-52586866D01*
X174736859Y-52664493D01*
X174719335Y-52733219D01*
X174701032Y-52790610D01*
X174688729Y-52821290D01*
X174678117Y-52845889D01*
X174670977Y-52864251D01*
X174668752Y-52872648D01*
X174668820Y-52872769D01*
X174673845Y-52867915D01*
X174685421Y-52853080D01*
X174701451Y-52831006D01*
X174709273Y-52819855D01*
X174731011Y-52788620D01*
X174757344Y-52750882D01*
X174784024Y-52712726D01*
X174796232Y-52695299D01*
X174841949Y-52628577D01*
X174879561Y-52569663D01*
X174911000Y-52514707D01*
X174938201Y-52459862D01*
X174963100Y-52401279D01*
X174987630Y-52335108D01*
X175008986Y-52272000D01*
X175015550Y-52253053D01*
X175026150Y-52223603D01*
X175039373Y-52187534D01*
X175053805Y-52148730D01*
X175055175Y-52145076D01*
X175067651Y-52110989D01*
X175083832Y-52065508D01*
X175102598Y-52011852D01*
X175122831Y-51953238D01*
X175143412Y-51892880D01*
X175159518Y-51845076D01*
X175179807Y-51784527D01*
X175200764Y-51722052D01*
X175221221Y-51661124D01*
X175240014Y-51605215D01*
X175255974Y-51557798D01*
X175265455Y-51529692D01*
X175281693Y-51479178D01*
X175299297Y-51420390D01*
X175316317Y-51360074D01*
X175330799Y-51304979D01*
X175332876Y-51296587D01*
X175344623Y-51250388D01*
X175354092Y-51217688D01*
X175361436Y-51198731D01*
X175366806Y-51193759D01*
X175370356Y-51203016D01*
X175372237Y-51226745D01*
X175372602Y-51265190D01*
X175371602Y-51318594D01*
X175370455Y-51356615D01*
X175366309Y-51453204D01*
X175360345Y-51538952D01*
X175352002Y-51618350D01*
X175340724Y-51695892D01*
X175325950Y-51776069D01*
X175307784Y-51860461D01*
X175308041Y-51866375D01*
X175314147Y-51859090D01*
X175322331Y-51845076D01*
X175380629Y-51736416D01*
X175432585Y-51635497D01*
X175477707Y-51543351D01*
X175515501Y-51461008D01*
X175545473Y-51389502D01*
X175563338Y-51341230D01*
X175582576Y-51287180D01*
X175598225Y-51248053D01*
X175610302Y-51223817D01*
X175618820Y-51214437D01*
X175619682Y-51214307D01*
X175626457Y-51220206D01*
X175638089Y-51234997D01*
X175651619Y-51254322D01*
X175664085Y-51273823D01*
X175672528Y-51289142D01*
X175674461Y-51294952D01*
X175678575Y-51303289D01*
X175689496Y-51320982D01*
X175705095Y-51344860D01*
X175723245Y-51371758D01*
X175741815Y-51398505D01*
X175758677Y-51421934D01*
X175768467Y-51434846D01*
X175801608Y-51477304D01*
X175826978Y-51510729D01*
X175846566Y-51537978D01*
X175862362Y-51561909D01*
X175876357Y-51585380D01*
X175888059Y-51606615D01*
X175905790Y-51641973D01*
X175925017Y-51684008D01*
X175942182Y-51724865D01*
X175945567Y-51733538D01*
X175955425Y-51759607D01*
X175964100Y-51783553D01*
X175972507Y-51808220D01*
X175981557Y-51836452D01*
X175992166Y-51871093D01*
X176005245Y-51914988D01*
X176020706Y-51967560D01*
X176037443Y-52024659D01*
X176079884Y-51917560D01*
X176117543Y-51817416D01*
X176146251Y-51729609D01*
X176166052Y-51653993D01*
X176174879Y-51606615D01*
X176179966Y-51572479D01*
X176185082Y-51538982D01*
X176189022Y-51513979D01*
X176190783Y-51495076D01*
X176205230Y-51495076D01*
X176209076Y-51498923D01*
X176212923Y-51495076D01*
X176209076Y-51491230D01*
X176205230Y-51495076D01*
X176190783Y-51495076D01*
X176191092Y-51491765D01*
X176192458Y-51457005D01*
X176193158Y-51412520D01*
X176193232Y-51361132D01*
X176192716Y-51305661D01*
X176191649Y-51248928D01*
X176190071Y-51193755D01*
X176188018Y-51142963D01*
X176185530Y-51099371D01*
X176182970Y-51068818D01*
X176177055Y-51023361D01*
X176167963Y-50967145D01*
X176156513Y-50904267D01*
X176143523Y-50838825D01*
X176129814Y-50774917D01*
X176116204Y-50716640D01*
X176103513Y-50668092D01*
X176101319Y-50660461D01*
X176081217Y-50597318D01*
X176057014Y-50531914D01*
X176027555Y-50461453D01*
X175991684Y-50383140D01*
X175958264Y-50314307D01*
X175934830Y-50266537D01*
X175918659Y-50232090D01*
X175910009Y-50210837D01*
X175909137Y-50202650D01*
X175916302Y-50207403D01*
X175931761Y-50224967D01*
X175955771Y-50255214D01*
X175988591Y-50298016D01*
X175989281Y-50298923D01*
X176030594Y-50355353D01*
X176067078Y-50410267D01*
X176099911Y-50466094D01*
X176130271Y-50525266D01*
X176159337Y-50590212D01*
X176188287Y-50663363D01*
X176218299Y-50747148D01*
X176244388Y-50825062D01*
X176257388Y-50864439D01*
X176268819Y-50898364D01*
X176277798Y-50924274D01*
X176283445Y-50939605D01*
X176284849Y-50942644D01*
X176287470Y-50939270D01*
X176287846Y-50922977D01*
X176286259Y-50896026D01*
X176282990Y-50860672D01*
X176278322Y-50819176D01*
X176272535Y-50773794D01*
X176265913Y-50726785D01*
X176258736Y-50680407D01*
X176251286Y-50636918D01*
X176243845Y-50598576D01*
X176239457Y-50578791D01*
X176217808Y-50496840D01*
X176190977Y-50410772D01*
X176160423Y-50324482D01*
X176127604Y-50241865D01*
X176093979Y-50166817D01*
X176061950Y-50104894D01*
X176048987Y-50081628D01*
X176039684Y-50064296D01*
X176036003Y-50056555D01*
X176036000Y-50056512D01*
X176032042Y-50047776D01*
X176021197Y-50028660D01*
X176005004Y-50001652D01*
X175985002Y-49969242D01*
X175962733Y-49933919D01*
X175939735Y-49898173D01*
X175917549Y-49864493D01*
X175913395Y-49858300D01*
X175890488Y-49823790D01*
X175875403Y-49799502D01*
X175867045Y-49783122D01*
X175864321Y-49772336D01*
X175866136Y-49764827D01*
X175867947Y-49762146D01*
X175874419Y-49753253D01*
X175870403Y-49755203D01*
X175864660Y-49759634D01*
X175853120Y-49766859D01*
X175848667Y-49767326D01*
X175843430Y-49760375D01*
X175830776Y-49743508D01*
X175820046Y-49729191D01*
X175899424Y-49729191D01*
X175900476Y-49729692D01*
X175907496Y-49724277D01*
X175909076Y-49722000D01*
X175911037Y-49714808D01*
X175909984Y-49714307D01*
X175902964Y-49719722D01*
X175901384Y-49722000D01*
X175899424Y-49729191D01*
X175820046Y-49729191D01*
X175812506Y-49719130D01*
X175800252Y-49702769D01*
X175920615Y-49702769D01*
X175924461Y-49706615D01*
X175928307Y-49702769D01*
X175924461Y-49698923D01*
X175920615Y-49702769D01*
X175800252Y-49702769D01*
X175790420Y-49689642D01*
X175786348Y-49684203D01*
X175693436Y-49565560D01*
X175593538Y-49448776D01*
X175485434Y-49332646D01*
X175367905Y-49215962D01*
X175239732Y-49097515D01*
X175099696Y-48976100D01*
X174946578Y-48850508D01*
X174936000Y-48842057D01*
X174900738Y-48813905D01*
X174868721Y-48788300D01*
X174842294Y-48767121D01*
X174823804Y-48752247D01*
X174816576Y-48746378D01*
X174761734Y-48703129D01*
X174700359Y-48657953D01*
X174639023Y-48615586D01*
X174601113Y-48591062D01*
X174550569Y-48559338D01*
X174510964Y-48533989D01*
X174480102Y-48513377D01*
X174455788Y-48495866D01*
X174435829Y-48479818D01*
X174418027Y-48463597D01*
X174400189Y-48445564D01*
X174386533Y-48431016D01*
X174363990Y-48406718D01*
X174382687Y-48385513D01*
X174401384Y-48364307D01*
X174381552Y-48381714D01*
X174361719Y-48399121D01*
X174331753Y-48360461D01*
X174406692Y-48360461D01*
X174414111Y-48355406D01*
X174424461Y-48345076D01*
X174433344Y-48333933D01*
X174434538Y-48329692D01*
X174427119Y-48334747D01*
X174416769Y-48345076D01*
X174407885Y-48356220D01*
X174406692Y-48360461D01*
X174331753Y-48360461D01*
X174314509Y-48338215D01*
X174278954Y-48295088D01*
X174244657Y-48260389D01*
X174206883Y-48229996D01*
X174160897Y-48199786D01*
X174143692Y-48189495D01*
X174066649Y-48148987D01*
X173977705Y-48111256D01*
X173875238Y-48075623D01*
X173862923Y-48071756D01*
X173811547Y-48055217D01*
X173767687Y-48039975D01*
X173733043Y-48026694D01*
X173709315Y-48016037D01*
X173698202Y-48008667D01*
X173697582Y-48007223D01*
X173704024Y-48002040D01*
X173721098Y-47992218D01*
X173745495Y-47979622D01*
X173753202Y-47975846D01*
X173796314Y-47950906D01*
X173842373Y-47915982D01*
X173878157Y-47884215D01*
X173915168Y-47851304D01*
X173949603Y-47824956D01*
X173984556Y-47803709D01*
X174023120Y-47786102D01*
X174068387Y-47770674D01*
X174123450Y-47755963D01*
X174174461Y-47744207D01*
X174198790Y-47738175D01*
X174208774Y-47734139D01*
X174205328Y-47732145D01*
X174189366Y-47732237D01*
X174161804Y-47734460D01*
X174123557Y-47738858D01*
X174107604Y-47740948D01*
X173973246Y-47766647D01*
X173840264Y-47807404D01*
X173708325Y-47863335D01*
X173610249Y-47915085D01*
X173569650Y-47938889D01*
X173536232Y-47960204D01*
X173506288Y-47981858D01*
X173476113Y-48006684D01*
X173441998Y-48037510D01*
X173409076Y-48068684D01*
X173379074Y-48096326D01*
X173350373Y-48120813D01*
X173325054Y-48140589D01*
X173305197Y-48154095D01*
X173292882Y-48159776D01*
X173289846Y-48157936D01*
X173292832Y-48150233D01*
X173301003Y-48131230D01*
X173313175Y-48103632D01*
X173328165Y-48070143D01*
X173331157Y-48063508D01*
X173364724Y-47979928D01*
X173387461Y-47900623D01*
X173400789Y-47820562D01*
X173401457Y-47814307D01*
X173404786Y-47783418D01*
X173408289Y-47753115D01*
X173409759Y-47741230D01*
X173410966Y-47722640D01*
X173408223Y-47718312D01*
X173401952Y-47727758D01*
X173392578Y-47750491D01*
X173386364Y-47768153D01*
X173369211Y-47812243D01*
X173346448Y-47861395D01*
X173320909Y-47910063D01*
X173295429Y-47952700D01*
X173282118Y-47972047D01*
X173263373Y-47994465D01*
X173236037Y-48023465D01*
X173203416Y-48055877D01*
X173168814Y-48088527D01*
X173135537Y-48118244D01*
X173106890Y-48141854D01*
X173099121Y-48147689D01*
X173082446Y-48160317D01*
X173058340Y-48179210D01*
X173031256Y-48200863D01*
X173023421Y-48207208D01*
X172996659Y-48228561D01*
X172971855Y-48247675D01*
X172953290Y-48261273D01*
X172949461Y-48263862D01*
X172928307Y-48277615D01*
X172928307Y-48241661D01*
X172929179Y-48224204D01*
X172952624Y-48224204D01*
X172954496Y-48228503D01*
X172962241Y-48236761D01*
X172966694Y-48235067D01*
X172966769Y-48233992D01*
X172961305Y-48227486D01*
X172957888Y-48225111D01*
X172952624Y-48224204D01*
X172929179Y-48224204D01*
X172929409Y-48219601D01*
X172933148Y-48210758D01*
X172937923Y-48211484D01*
X172942349Y-48212242D01*
X172936804Y-48204033D01*
X172930913Y-48187162D01*
X172929262Y-48158397D01*
X172931577Y-48120550D01*
X172937581Y-48076433D01*
X172947001Y-48028859D01*
X172958207Y-47985282D01*
X172968045Y-47952046D01*
X172976902Y-47923819D01*
X172983610Y-47904233D01*
X172986407Y-47897601D01*
X172990938Y-47889101D01*
X172988418Y-47891423D01*
X172978574Y-47904955D01*
X172961135Y-47930084D01*
X172935828Y-47967197D01*
X172902382Y-48016681D01*
X172893980Y-48029154D01*
X172838762Y-48110968D01*
X172791044Y-48181222D01*
X172749915Y-48241239D01*
X172714465Y-48292340D01*
X172683785Y-48335849D01*
X172663348Y-48364307D01*
X172602011Y-48452068D01*
X172551020Y-48531716D01*
X172510892Y-48602430D01*
X172497198Y-48629692D01*
X172472141Y-48685935D01*
X172455187Y-48734918D01*
X172445088Y-48781596D01*
X172440598Y-48830926D01*
X172440069Y-48856814D01*
X172157675Y-48856814D01*
X172181743Y-48838637D01*
X172262598Y-48763141D01*
X172344071Y-48672719D01*
X172371128Y-48639546D01*
X172388711Y-48615500D01*
X172411432Y-48581513D01*
X172437021Y-48541133D01*
X172463215Y-48497906D01*
X172479413Y-48470096D01*
X172502362Y-48430063D01*
X172523470Y-48393377D01*
X172541218Y-48362666D01*
X172554090Y-48340557D01*
X172559903Y-48330751D01*
X172568388Y-48316806D01*
X172582982Y-48292802D01*
X172601808Y-48261826D01*
X172622988Y-48226968D01*
X172628343Y-48218153D01*
X172670031Y-48150260D01*
X172705932Y-48093659D01*
X172737654Y-48046152D01*
X172766807Y-48005540D01*
X172794999Y-47969626D01*
X172823839Y-47936212D01*
X172854936Y-47903100D01*
X172870615Y-47887191D01*
X172906113Y-47852236D01*
X172934675Y-47826004D01*
X172959723Y-47805848D01*
X172984684Y-47789118D01*
X173012982Y-47773167D01*
X173028307Y-47765237D01*
X173061792Y-47747965D01*
X173092961Y-47731448D01*
X173117467Y-47718010D01*
X173127557Y-47712154D01*
X173153731Y-47696217D01*
X173148128Y-47718724D01*
X173140851Y-47738211D01*
X173128387Y-47763365D01*
X173119827Y-47778217D01*
X173105512Y-47805147D01*
X173090405Y-47839179D01*
X173078630Y-47870525D01*
X173070072Y-47899526D01*
X173060959Y-47935921D01*
X173052162Y-47975502D01*
X173044547Y-48014066D01*
X173038984Y-48047404D01*
X173036340Y-48071312D01*
X173036242Y-48075846D01*
X173040348Y-48079085D01*
X173051400Y-48071223D01*
X173067979Y-48054065D01*
X173088661Y-48029418D01*
X173112025Y-47999089D01*
X173136650Y-47964885D01*
X173161113Y-47928613D01*
X173183993Y-47892079D01*
X173193186Y-47876399D01*
X173212708Y-47843223D01*
X173232812Y-47810574D01*
X173250124Y-47783883D01*
X173255292Y-47776399D01*
X173268338Y-47756944D01*
X173286975Y-47727709D01*
X173309014Y-47692193D01*
X173332269Y-47653891D01*
X173339840Y-47641230D01*
X173359575Y-47609638D01*
X173383035Y-47574494D01*
X173408541Y-47538044D01*
X173434413Y-47502535D01*
X173458970Y-47470212D01*
X173480533Y-47443322D01*
X173497422Y-47424111D01*
X173507957Y-47414823D01*
X173509567Y-47414307D01*
X173508685Y-47420696D01*
X173503398Y-47436890D01*
X173499630Y-47447000D01*
X173494283Y-47469800D01*
X173490272Y-47505402D01*
X173487645Y-47551276D01*
X173486446Y-47604892D01*
X173486722Y-47663721D01*
X173488517Y-47725234D01*
X173491878Y-47786902D01*
X173493169Y-47804678D01*
X173496534Y-47844774D01*
X173500230Y-47870133D01*
X173505681Y-47881365D01*
X173514315Y-47879078D01*
X173527557Y-47863882D01*
X173546834Y-47836385D01*
X173551466Y-47829571D01*
X173571328Y-47798582D01*
X173586934Y-47769267D01*
X173600209Y-47737132D01*
X173613073Y-47697682D01*
X173623354Y-47661520D01*
X173640900Y-47605055D01*
X173661123Y-47557190D01*
X173686516Y-47513693D01*
X173719569Y-47470332D01*
X173762773Y-47422874D01*
X173765515Y-47420040D01*
X173851463Y-47339094D01*
X173943634Y-47267697D01*
X174043896Y-47204741D01*
X174154121Y-47149117D01*
X174276178Y-47099717D01*
X174347144Y-47075408D01*
X174394124Y-47061021D01*
X174446994Y-47046111D01*
X174498153Y-47032766D01*
X174528307Y-47025602D01*
X174626517Y-47002337D01*
X174710719Y-46979423D01*
X174782259Y-46956195D01*
X174842481Y-46931986D01*
X174892728Y-46906132D01*
X174934346Y-46877967D01*
X174968677Y-46846825D01*
X174997068Y-46812040D01*
X175014219Y-46785005D01*
X175026901Y-46764158D01*
X175036574Y-46750576D01*
X175040753Y-46747266D01*
X175040263Y-46755993D01*
X175035026Y-46774825D01*
X175026403Y-46799744D01*
X175015753Y-46826734D01*
X175007647Y-46845076D01*
X174990019Y-46872415D01*
X174961858Y-46904001D01*
X174926256Y-46936937D01*
X174886306Y-46968323D01*
X174851384Y-46991531D01*
X174817359Y-47011330D01*
X174782953Y-47029484D01*
X174745902Y-47046929D01*
X174703943Y-47064600D01*
X174654813Y-47083434D01*
X174596250Y-47104365D01*
X174525991Y-47128330D01*
X174497538Y-47137833D01*
X174426630Y-47161586D01*
X174368137Y-47181629D01*
X174319786Y-47198837D01*
X174279307Y-47214082D01*
X174244427Y-47228239D01*
X174212876Y-47242183D01*
X174182382Y-47256788D01*
X174162923Y-47266603D01*
X174052042Y-47330631D01*
X173953019Y-47403334D01*
X173864220Y-47485997D01*
X173818576Y-47536846D01*
X173802031Y-47556869D01*
X173792048Y-47570353D01*
X173789491Y-47576945D01*
X173795222Y-47576290D01*
X173810104Y-47568035D01*
X173834999Y-47551826D01*
X173870770Y-47527311D01*
X173911923Y-47498590D01*
X173936647Y-47482264D01*
X173971156Y-47460810D01*
X174011718Y-47436449D01*
X174054601Y-47411400D01*
X174096073Y-47387883D01*
X174121439Y-47373967D01*
X174158238Y-47354906D01*
X174195851Y-47337189D01*
X174236289Y-47320085D01*
X174281568Y-47302867D01*
X174333702Y-47284804D01*
X174394703Y-47265167D01*
X174466587Y-47243227D01*
X174551368Y-47218254D01*
X174551671Y-47218166D01*
X174632833Y-47193801D01*
X174701381Y-47171465D01*
X174759804Y-47150243D01*
X174810591Y-47129225D01*
X174856229Y-47107499D01*
X174862923Y-47104050D01*
X174948169Y-47052145D01*
X175020524Y-46991850D01*
X175080008Y-46923139D01*
X175126642Y-46845983D01*
X175160450Y-46760355D01*
X175174228Y-46706615D01*
X175182443Y-46653502D01*
X175187584Y-46589530D01*
X175189606Y-46518924D01*
X175188464Y-46445908D01*
X175184113Y-46374707D01*
X175178307Y-46322000D01*
X175173723Y-46287972D01*
X175170017Y-46259464D01*
X175167642Y-46240019D01*
X175167006Y-46233538D01*
X175163952Y-46235879D01*
X175156166Y-46249336D01*
X175145306Y-46271031D01*
X175144845Y-46272000D01*
X175115197Y-46319192D01*
X175074917Y-46361684D01*
X175028758Y-46394599D01*
X175021686Y-46398376D01*
X174986468Y-46410692D01*
X174948799Y-46414713D01*
X174913795Y-46410470D01*
X174886570Y-46397992D01*
X174886070Y-46397604D01*
X174863190Y-46373775D01*
X174847625Y-46343114D01*
X174839136Y-46304044D01*
X174837479Y-46254989D01*
X174842412Y-46194371D01*
X174848377Y-46152162D01*
X174856254Y-46080550D01*
X174858184Y-46007924D01*
X174857854Y-45996085D01*
X174855956Y-45958278D01*
X174852738Y-45930311D01*
X174846938Y-45906639D01*
X174837295Y-45881717D01*
X174826512Y-45858299D01*
X174808751Y-45823691D01*
X174788320Y-45789889D01*
X174763424Y-45754446D01*
X174732268Y-45714918D01*
X174693056Y-45668860D01*
X174660353Y-45631982D01*
X174623121Y-45590611D01*
X174594992Y-45559704D01*
X174574904Y-45538173D01*
X174561797Y-45524934D01*
X174554610Y-45518900D01*
X174552281Y-45518984D01*
X174552938Y-45522000D01*
X174567615Y-45566822D01*
X174577149Y-45605171D01*
X174582525Y-45643089D01*
X174584729Y-45686619D01*
X174584938Y-45718153D01*
X174584283Y-45761613D01*
X174582220Y-45794637D01*
X174578083Y-45822158D01*
X174571209Y-45849107D01*
X174564454Y-45870149D01*
X174538741Y-45933246D01*
X174505523Y-45995175D01*
X174468132Y-46050019D01*
X174452694Y-46068714D01*
X174418732Y-46099824D01*
X174376935Y-46127044D01*
X174332716Y-46147385D01*
X174291487Y-46157854D01*
X174291344Y-46157871D01*
X174238297Y-46156776D01*
X174188136Y-46141770D01*
X174143464Y-46114323D01*
X174106884Y-46075905D01*
X174087108Y-46042472D01*
X174070812Y-46004514D01*
X174062792Y-45976372D01*
X174062745Y-45955091D01*
X174070367Y-45937717D01*
X174075635Y-45931040D01*
X174085963Y-45918955D01*
X174086046Y-45917334D01*
X174077335Y-45924310D01*
X174065181Y-45933217D01*
X174059147Y-45931781D01*
X174056181Y-45925549D01*
X174052724Y-45905747D01*
X174052536Y-45898422D01*
X174107116Y-45898422D01*
X174108168Y-45898923D01*
X174115188Y-45893507D01*
X174116769Y-45891230D01*
X174118729Y-45884039D01*
X174117677Y-45883538D01*
X174110657Y-45888953D01*
X174109076Y-45891230D01*
X174107116Y-45898422D01*
X174052536Y-45898422D01*
X174051871Y-45872493D01*
X174052166Y-45864307D01*
X174136000Y-45864307D01*
X174139846Y-45868153D01*
X174143692Y-45864307D01*
X174139846Y-45860461D01*
X174136000Y-45864307D01*
X174052166Y-45864307D01*
X174053492Y-45827474D01*
X174057459Y-45772378D01*
X174063643Y-45708892D01*
X174071914Y-45638703D01*
X174082143Y-45563500D01*
X174085724Y-45539219D01*
X174091489Y-45490007D01*
X174095338Y-45434282D01*
X174097277Y-45375620D01*
X174097307Y-45317601D01*
X174095432Y-45263801D01*
X174091656Y-45217800D01*
X174085981Y-45183174D01*
X174085394Y-45180802D01*
X174060743Y-45111565D01*
X174022266Y-45042566D01*
X173969588Y-44973307D01*
X173902336Y-44903290D01*
X173828307Y-44838620D01*
X173809167Y-44822499D01*
X173795580Y-44810022D01*
X173791242Y-44805035D01*
X173784135Y-44798002D01*
X173768110Y-44785162D01*
X173750055Y-44771779D01*
X173730435Y-44758172D01*
X173720425Y-44752971D01*
X173720080Y-44757005D01*
X173729455Y-44771100D01*
X173748604Y-44796085D01*
X173751945Y-44800344D01*
X173798958Y-44870281D01*
X173836074Y-44948252D01*
X173863451Y-45035033D01*
X173881243Y-45131400D01*
X173889607Y-45238128D01*
X173888699Y-45355992D01*
X173882325Y-45448923D01*
X173874521Y-45514206D01*
X173862597Y-45587535D01*
X173847383Y-45665345D01*
X173829706Y-45744075D01*
X173810395Y-45820161D01*
X173790279Y-45890040D01*
X173770186Y-45950151D01*
X173759249Y-45978228D01*
X173724653Y-46044561D01*
X173678779Y-46107534D01*
X173625277Y-46162549D01*
X173591517Y-46189482D01*
X173559015Y-46206566D01*
X173517515Y-46219818D01*
X173473217Y-46227781D01*
X173432322Y-46228998D01*
X173425877Y-46228397D01*
X173407868Y-46226874D01*
X173402278Y-46229486D01*
X173406296Y-46238195D01*
X173408019Y-46240863D01*
X173420816Y-46254005D01*
X173441282Y-46269033D01*
X173451511Y-46275205D01*
X173493373Y-46290257D01*
X173540717Y-46293147D01*
X173590200Y-46284312D01*
X173638482Y-46264194D01*
X173665222Y-46247084D01*
X173682769Y-46236883D01*
X173768655Y-46236883D01*
X173769707Y-46237384D01*
X173776727Y-46231969D01*
X173778307Y-46229692D01*
X173780267Y-46222500D01*
X173779215Y-46222000D01*
X173772195Y-46227415D01*
X173770615Y-46229692D01*
X173768655Y-46236883D01*
X173682769Y-46236883D01*
X173683870Y-46236243D01*
X173699170Y-46232258D01*
X173702160Y-46232771D01*
X173709788Y-46233099D01*
X173708894Y-46229396D01*
X173711317Y-46220305D01*
X173715567Y-46213806D01*
X173791732Y-46213806D01*
X173792784Y-46214307D01*
X173799804Y-46208892D01*
X173801384Y-46206615D01*
X173803344Y-46199423D01*
X173802292Y-46198923D01*
X173795272Y-46204338D01*
X173793692Y-46206615D01*
X173791732Y-46213806D01*
X173715567Y-46213806D01*
X173722208Y-46203649D01*
X173739286Y-46182865D01*
X173741187Y-46180757D01*
X173753621Y-46164307D01*
X173836000Y-46164307D01*
X173839846Y-46168153D01*
X173843692Y-46164307D01*
X173839846Y-46160461D01*
X173836000Y-46164307D01*
X173753621Y-46164307D01*
X173776283Y-46134327D01*
X173809041Y-46076176D01*
X173838014Y-46009945D01*
X173861758Y-45939271D01*
X173878825Y-45867794D01*
X173886451Y-45815087D01*
X173889849Y-45787644D01*
X173893728Y-45766832D01*
X173897296Y-45756821D01*
X173897569Y-45756596D01*
X173901217Y-45761405D01*
X173904321Y-45778724D01*
X173906787Y-45805685D01*
X173908516Y-45839421D01*
X173909413Y-45877062D01*
X173909381Y-45915743D01*
X173908324Y-45952593D01*
X173906144Y-45984746D01*
X173905468Y-45991230D01*
X173898509Y-46043233D01*
X173890628Y-46082269D01*
X173881183Y-46110754D01*
X173869535Y-46131103D01*
X173867719Y-46133405D01*
X173859531Y-46143822D01*
X173861819Y-46143444D01*
X173870037Y-46137252D01*
X173874762Y-46136629D01*
X173872625Y-46146281D01*
X173865069Y-46163530D01*
X173853535Y-46185701D01*
X173839464Y-46210116D01*
X173824298Y-46234097D01*
X173809479Y-46254969D01*
X173801220Y-46265037D01*
X173785598Y-46281949D01*
X173775894Y-46288779D01*
X173767912Y-46287034D01*
X173759473Y-46280051D01*
X173749089Y-46267633D01*
X173750646Y-46256931D01*
X173752963Y-46253524D01*
X173758453Y-46245501D01*
X173753874Y-46248642D01*
X173751581Y-46250663D01*
X173739399Y-46256135D01*
X173728875Y-46251034D01*
X173720996Y-46245677D01*
X173724322Y-46250441D01*
X173726201Y-46252572D01*
X173731755Y-46264270D01*
X173726201Y-46275278D01*
X173720573Y-46283302D01*
X173725618Y-46280448D01*
X173729063Y-46277796D01*
X173740151Y-46272780D01*
X173751103Y-46279218D01*
X173755366Y-46283687D01*
X173764718Y-46295538D01*
X173763218Y-46303133D01*
X173754610Y-46310333D01*
X173740801Y-46319225D01*
X173717869Y-46332470D01*
X173690397Y-46347433D01*
X173686000Y-46349752D01*
X173632153Y-46378004D01*
X173655181Y-46351925D01*
X173678209Y-46325846D01*
X173647489Y-46353998D01*
X173627920Y-46369994D01*
X173608431Y-46380114D01*
X173583135Y-46386866D01*
X173561779Y-46390486D01*
X173493994Y-46394082D01*
X173432313Y-46383850D01*
X173377428Y-46360359D01*
X173330029Y-46324183D01*
X173315353Y-46306114D01*
X173699424Y-46306114D01*
X173700476Y-46306615D01*
X173707496Y-46301200D01*
X173709076Y-46298923D01*
X173711037Y-46291731D01*
X173709984Y-46291230D01*
X173702964Y-46296646D01*
X173701384Y-46298923D01*
X173699424Y-46306114D01*
X173315353Y-46306114D01*
X173290806Y-46275892D01*
X173260451Y-46216058D01*
X173239655Y-46145251D01*
X173235110Y-46120229D01*
X173231806Y-46085743D01*
X173560316Y-46085743D01*
X173562188Y-46090042D01*
X173569933Y-46098300D01*
X173574386Y-46096606D01*
X173574461Y-46095530D01*
X173568997Y-46089024D01*
X173565580Y-46086650D01*
X173560316Y-46085743D01*
X173231806Y-46085743D01*
X173231074Y-46078103D01*
X173229955Y-46025524D01*
X173231597Y-45967112D01*
X173235848Y-45907490D01*
X173242554Y-45851278D01*
X173244386Y-45839589D01*
X173314163Y-45839589D01*
X173316034Y-45843888D01*
X173323780Y-45852146D01*
X173328232Y-45850452D01*
X173328307Y-45849377D01*
X173322844Y-45842870D01*
X173319426Y-45840496D01*
X173314163Y-45839589D01*
X173244386Y-45839589D01*
X173244461Y-45839110D01*
X173246739Y-45825846D01*
X173297538Y-45825846D01*
X173301384Y-45829692D01*
X173305230Y-45825846D01*
X173301384Y-45822000D01*
X173297538Y-45825846D01*
X173246739Y-45825846D01*
X173249350Y-45810641D01*
X173253217Y-45794915D01*
X173257529Y-45789490D01*
X173263751Y-45791927D01*
X173269844Y-45796850D01*
X173286000Y-45810461D01*
X173271176Y-45792965D01*
X173264760Y-45784639D01*
X173261100Y-45775929D01*
X173260150Y-45763594D01*
X173261864Y-45744393D01*
X173266196Y-45715082D01*
X173269761Y-45692965D01*
X173278654Y-45627209D01*
X173284751Y-45558661D01*
X173287883Y-45491482D01*
X173287878Y-45429835D01*
X173284568Y-45377882D01*
X173283091Y-45366090D01*
X173273387Y-45319361D01*
X173257411Y-45265551D01*
X173237239Y-45210503D01*
X173214949Y-45160059D01*
X173199709Y-45131484D01*
X173178307Y-45095076D01*
X173173437Y-45179692D01*
X173169850Y-45222276D01*
X173163586Y-45266506D01*
X173153965Y-45316167D01*
X173140310Y-45375041D01*
X173133375Y-45402769D01*
X173121745Y-45449191D01*
X173111150Y-45492721D01*
X173102320Y-45530265D01*
X173095983Y-45558728D01*
X173093053Y-45573783D01*
X173088802Y-45592751D01*
X173084075Y-45602534D01*
X173082304Y-45602862D01*
X173079244Y-45606387D01*
X173080095Y-45617232D01*
X173079710Y-45631832D01*
X173076003Y-45657361D01*
X173069633Y-45689889D01*
X173063389Y-45716978D01*
X173055172Y-45753800D01*
X173045874Y-45800937D01*
X173036404Y-45853451D01*
X173027673Y-45906402D01*
X173023855Y-45931593D01*
X173007405Y-46036318D01*
X172990651Y-46126911D01*
X172973245Y-46204622D01*
X172954834Y-46270705D01*
X172935069Y-46326410D01*
X172913598Y-46372989D01*
X172890070Y-46411695D01*
X172888822Y-46413463D01*
X172843725Y-46466641D01*
X172794502Y-46505631D01*
X172741805Y-46530179D01*
X172686288Y-46540026D01*
X172628604Y-46534916D01*
X172599942Y-46526942D01*
X172556216Y-46504580D01*
X172522603Y-46470642D01*
X172499109Y-46425149D01*
X172485739Y-46368123D01*
X172482499Y-46299587D01*
X172489395Y-46219561D01*
X172501868Y-46148923D01*
X172517679Y-46072940D01*
X172530476Y-46009434D01*
X172540668Y-45955878D01*
X172548661Y-45909749D01*
X172554864Y-45868523D01*
X172559684Y-45829675D01*
X172563529Y-45790682D01*
X172566806Y-45749019D01*
X172567085Y-45745076D01*
X172571452Y-45658608D01*
X172571656Y-45583653D01*
X172569172Y-45537384D01*
X172562333Y-45456615D01*
X172516069Y-45548923D01*
X172496431Y-45586759D01*
X172471193Y-45633390D01*
X172442763Y-45684471D01*
X172413551Y-45735662D01*
X172392291Y-45772000D01*
X172349058Y-45846032D01*
X172313620Y-45909558D01*
X172285074Y-45964764D01*
X172262522Y-46013837D01*
X172245062Y-46058962D01*
X172231795Y-46102326D01*
X172221821Y-46146116D01*
X172214238Y-46192517D01*
X172211964Y-46209936D01*
X172207729Y-46264091D01*
X172206604Y-46330432D01*
X172208479Y-46406101D01*
X172213244Y-46488240D01*
X172220789Y-46573991D01*
X172228494Y-46641230D01*
X172237535Y-46730735D01*
X172241970Y-46818117D01*
X172241847Y-46900610D01*
X172237213Y-46975446D01*
X172228118Y-47039856D01*
X172221082Y-47070381D01*
X172191357Y-47153032D01*
X172150006Y-47227712D01*
X172098150Y-47292997D01*
X172036913Y-47347469D01*
X171969793Y-47388540D01*
X171936270Y-47403963D01*
X171908278Y-47413211D01*
X171878413Y-47418216D01*
X171847224Y-47420513D01*
X171809866Y-47421475D01*
X171779468Y-47419146D01*
X171748443Y-47412537D01*
X171718851Y-47403748D01*
X171680238Y-47389610D01*
X171638786Y-47371476D01*
X171603115Y-47353134D01*
X171601384Y-47352131D01*
X171578791Y-47338509D01*
X171564640Y-47329107D01*
X171560984Y-47325337D01*
X171562923Y-47325723D01*
X171650205Y-47349126D01*
X171729513Y-47359402D01*
X171801008Y-47356481D01*
X171864850Y-47340295D01*
X171921199Y-47310773D01*
X171970215Y-47267847D01*
X172012060Y-47211448D01*
X172046892Y-47141507D01*
X172058016Y-47112237D01*
X172089550Y-47002508D01*
X172106560Y-46892323D01*
X172108142Y-46872000D01*
X172109543Y-46845820D01*
X172109759Y-46829009D01*
X172108792Y-46824075D01*
X172108111Y-46825846D01*
X172085388Y-46902408D01*
X172061216Y-46966197D01*
X172034284Y-47019822D01*
X172003280Y-47065893D01*
X171966894Y-47107020D01*
X171966845Y-47107069D01*
X171910289Y-47155056D01*
X171850285Y-47190126D01*
X171788380Y-47211897D01*
X171726119Y-47219987D01*
X171665047Y-47214012D01*
X171610296Y-47195320D01*
X171569552Y-47170037D01*
X171538045Y-47136081D01*
X171513686Y-47090920D01*
X171505026Y-47067830D01*
X171498221Y-47046150D01*
X171493739Y-47026263D01*
X171491281Y-47004469D01*
X171490546Y-46977070D01*
X171491237Y-46940368D01*
X171492281Y-46910461D01*
X171494143Y-46868932D01*
X171494414Y-46864307D01*
X171574461Y-46864307D01*
X171578307Y-46868153D01*
X171582153Y-46864307D01*
X171578307Y-46860461D01*
X171574461Y-46864307D01*
X171494414Y-46864307D01*
X171496374Y-46830816D01*
X171498721Y-46799816D01*
X171500932Y-46779636D01*
X171501396Y-46776907D01*
X171503870Y-46760505D01*
X171501590Y-46756644D01*
X171495572Y-46761185D01*
X171486240Y-46773537D01*
X171484413Y-46779354D01*
X171480505Y-46788899D01*
X171470177Y-46808422D01*
X171455122Y-46834833D01*
X171441567Y-46857597D01*
X171372697Y-46975135D01*
X171314504Y-47083049D01*
X171266588Y-47182388D01*
X171228546Y-47274205D01*
X171199977Y-47359547D01*
X171180480Y-47439466D01*
X171169653Y-47515012D01*
X171166964Y-47575846D01*
X171047695Y-47575846D01*
X171047345Y-47531356D01*
X171060704Y-47405451D01*
X171088382Y-47283056D01*
X171122844Y-47183432D01*
X171136454Y-47150968D01*
X171150163Y-47121354D01*
X171165220Y-47092671D01*
X171182874Y-47063002D01*
X171204374Y-47030427D01*
X171230969Y-46993030D01*
X171263908Y-46948891D01*
X171304440Y-46896094D01*
X171338145Y-46852769D01*
X171361453Y-46822277D01*
X171386805Y-46788165D01*
X171402528Y-46766455D01*
X171417391Y-46747281D01*
X171460316Y-46747281D01*
X171462188Y-46751580D01*
X171469933Y-46759838D01*
X171474386Y-46758144D01*
X171474461Y-46757069D01*
X171468997Y-46750563D01*
X171465580Y-46748188D01*
X171460316Y-46747281D01*
X171417391Y-46747281D01*
X171418727Y-46745558D01*
X171432013Y-46731753D01*
X171439707Y-46727785D01*
X171440021Y-46727993D01*
X171442650Y-46728093D01*
X171440828Y-46724251D01*
X171441516Y-46713079D01*
X171448710Y-46693498D01*
X171458418Y-46674251D01*
X171474876Y-46638971D01*
X171491534Y-46592553D01*
X171507147Y-46539177D01*
X171520468Y-46483020D01*
X171528696Y-46438530D01*
X171532938Y-46411882D01*
X171536602Y-46396622D01*
X171541397Y-46393162D01*
X171549029Y-46401913D01*
X171561209Y-46423286D01*
X171575388Y-46449777D01*
X171600922Y-46512519D01*
X171615822Y-46584530D01*
X171619874Y-46663761D01*
X171612864Y-46748162D01*
X171608970Y-46772000D01*
X171596190Y-46857460D01*
X171591180Y-46930032D01*
X171594078Y-46990186D01*
X171605026Y-47038393D01*
X171624161Y-47075123D01*
X171651625Y-47100848D01*
X171687555Y-47116036D01*
X171712220Y-47120194D01*
X171757775Y-47117046D01*
X171802405Y-47099439D01*
X171845121Y-47068298D01*
X171884933Y-47024550D01*
X171920852Y-46969118D01*
X171951887Y-46902930D01*
X171956059Y-46892134D01*
X171971993Y-46844345D01*
X171985360Y-46791608D01*
X171996595Y-46731496D01*
X172006130Y-46661580D01*
X172014400Y-46579433D01*
X172016640Y-46552769D01*
X172022498Y-46486748D01*
X172029387Y-46419764D01*
X172036954Y-46354522D01*
X172044847Y-46293726D01*
X172052716Y-46240079D01*
X172060208Y-46196286D01*
X172066971Y-46165051D01*
X172067167Y-46164307D01*
X172094796Y-46074111D01*
X172128591Y-45991135D01*
X172170453Y-45911748D01*
X172222283Y-45832323D01*
X172281864Y-45754292D01*
X172334518Y-45688683D01*
X172378392Y-45632495D01*
X172414957Y-45583675D01*
X172445682Y-45540173D01*
X172472039Y-45499936D01*
X172495499Y-45460914D01*
X172507550Y-45439498D01*
X172526523Y-45404465D01*
X172543000Y-45372974D01*
X172555397Y-45348131D01*
X172562127Y-45333043D01*
X172562611Y-45331615D01*
X172568324Y-45318071D01*
X172574224Y-45316588D01*
X172580833Y-45327992D01*
X172588670Y-45353106D01*
X172596596Y-45385461D01*
X172626976Y-45536053D01*
X172647066Y-45678104D01*
X172656690Y-45810352D01*
X172656819Y-45814307D01*
X172658063Y-45865127D01*
X172658025Y-45907652D01*
X172656413Y-45946730D01*
X172652935Y-45987211D01*
X172647297Y-46033941D01*
X172640722Y-46081271D01*
X172628986Y-46173797D01*
X172622448Y-46252265D01*
X172621167Y-46317114D01*
X172625202Y-46368788D01*
X172634611Y-46407727D01*
X172649453Y-46434373D01*
X172669787Y-46449169D01*
X172690123Y-46452769D01*
X172712995Y-46446282D01*
X172738951Y-46428815D01*
X172764634Y-46403357D01*
X172786684Y-46372900D01*
X172793256Y-46360949D01*
X172806465Y-46328545D01*
X172820650Y-46282772D01*
X172835361Y-46225578D01*
X172850144Y-46158913D01*
X172864547Y-46084726D01*
X172878118Y-46004965D01*
X172882624Y-45975846D01*
X172890859Y-45922455D01*
X172899464Y-45868793D01*
X172907795Y-45818727D01*
X172915209Y-45776126D01*
X172921062Y-45744855D01*
X172921095Y-45744686D01*
X172928907Y-45710158D01*
X172939179Y-45671114D01*
X172950862Y-45630891D01*
X172962909Y-45592824D01*
X172968062Y-45578051D01*
X173052624Y-45578051D01*
X173054496Y-45582349D01*
X173062241Y-45590607D01*
X173066694Y-45588913D01*
X173066769Y-45587838D01*
X173061305Y-45581332D01*
X173057888Y-45578957D01*
X173052624Y-45578051D01*
X172968062Y-45578051D01*
X172974272Y-45560248D01*
X172983903Y-45536497D01*
X172986474Y-45531897D01*
X173006470Y-45531897D01*
X173008342Y-45536196D01*
X173016087Y-45544454D01*
X173020540Y-45542760D01*
X173020615Y-45541684D01*
X173015151Y-45535178D01*
X173011734Y-45532803D01*
X173006470Y-45531897D01*
X172986474Y-45531897D01*
X172989856Y-45525846D01*
X172996920Y-45513013D01*
X172997584Y-45510461D01*
X173001300Y-45498800D01*
X173008726Y-45479902D01*
X173010438Y-45475846D01*
X173032651Y-45420276D01*
X173054644Y-45359017D01*
X173073854Y-45299440D01*
X173083405Y-45265968D01*
X173095003Y-45206976D01*
X173100365Y-45143804D01*
X173099477Y-45081433D01*
X173092325Y-45024843D01*
X173084190Y-44993153D01*
X173076890Y-44968871D01*
X173072999Y-44951589D01*
X173073345Y-44945081D01*
X173082341Y-44949051D01*
X173101007Y-44959675D01*
X173126241Y-44975030D01*
X173154940Y-44993194D01*
X173184002Y-45012245D01*
X173206479Y-45027565D01*
X173259041Y-45071449D01*
X173302401Y-45123728D01*
X173336766Y-45185116D01*
X173362343Y-45256325D01*
X173379340Y-45338068D01*
X173387964Y-45431058D01*
X173388422Y-45536009D01*
X173382681Y-45633538D01*
X173378973Y-45680327D01*
X173375071Y-45733084D01*
X173371619Y-45782996D01*
X173370468Y-45800842D01*
X173367435Y-45840104D01*
X173364046Y-45865195D01*
X173360083Y-45877330D01*
X173356413Y-45878560D01*
X173352631Y-45878184D01*
X173357153Y-45883948D01*
X173362558Y-45897271D01*
X173366010Y-45920589D01*
X173366769Y-45939362D01*
X173370100Y-45992888D01*
X173380201Y-46033019D01*
X173397229Y-46060252D01*
X173408265Y-46069111D01*
X173435040Y-46079387D01*
X173462361Y-46076115D01*
X173469771Y-46072000D01*
X173543692Y-46072000D01*
X173547538Y-46075846D01*
X173551384Y-46072000D01*
X173547538Y-46068153D01*
X173543692Y-46072000D01*
X173469771Y-46072000D01*
X173492222Y-46059533D01*
X173508399Y-46049707D01*
X173519489Y-46049526D01*
X173526838Y-46054126D01*
X173535592Y-46060446D01*
X173533379Y-46056125D01*
X173529601Y-46051223D01*
X173524830Y-46041864D01*
X173526719Y-46030673D01*
X173536477Y-46013480D01*
X173543601Y-46002901D01*
X173575657Y-45949935D01*
X173608310Y-45884108D01*
X173640656Y-45807873D01*
X173671790Y-45723678D01*
X173700808Y-45633976D01*
X173726806Y-45541217D01*
X173748878Y-45447851D01*
X173749468Y-45445076D01*
X173757126Y-45407013D01*
X173762639Y-45373642D01*
X173766357Y-45340954D01*
X173768628Y-45304936D01*
X173769802Y-45261577D01*
X173770229Y-45206867D01*
X173770229Y-45206615D01*
X173770219Y-45155025D01*
X173769645Y-45115331D01*
X173768168Y-45084042D01*
X173765450Y-45057672D01*
X173761152Y-45032732D01*
X173754935Y-45005734D01*
X173748205Y-44979754D01*
X173734662Y-44933724D01*
X173717373Y-44882461D01*
X173697909Y-44830025D01*
X173677839Y-44780474D01*
X173658733Y-44737867D01*
X173642934Y-44707568D01*
X173634090Y-44690260D01*
X173630904Y-44679234D01*
X173631325Y-44677956D01*
X173642026Y-44677560D01*
X173665344Y-44684447D01*
G37*
X198093000Y-90272000D02*
X196623000Y-90272000D01*
X196623000Y-90272000D02*
X196623000Y-92557000D01*
X198093000Y-92557000D02*
X198093000Y-90272000D01*
X195848500Y-91519742D02*
X195848500Y-91994258D01*
X194803500Y-91519742D02*
X194803500Y-91994258D01*
X177950000Y-119220000D02*
X177360000Y-119220000D01*
X177950000Y-117000000D02*
X177360000Y-117000000D01*
X177360000Y-121320000D02*
X177360000Y-119220000D01*
X177360000Y-121320000D02*
X167240000Y-121320000D01*
X177360000Y-117000000D02*
X177360000Y-112100000D01*
X177360000Y-112100000D02*
X167240000Y-112100000D01*
X167240000Y-121320000D02*
X167240000Y-119220000D01*
X167240000Y-119220000D02*
X166650000Y-119220000D01*
X167240000Y-117000000D02*
X167240000Y-112100000D01*
X167240000Y-117000000D02*
X166650000Y-117000000D01*
X177950000Y-119220000D02*
G75*
G03*
X177950000Y-117000000I0J1110000D01*
G01*
X166650000Y-117000000D02*
G75*
G03*
X166650000Y-119220000I0J-1110000D01*
G01*
X177764000Y-44962000D02*
X177764000Y-53162000D01*
X177764000Y-44962000D02*
X185964000Y-44962000D01*
X177764000Y-53162000D02*
X185964000Y-53162000D01*
X185964000Y-44962000D02*
X185964000Y-53162000D01*
X197948000Y-111838000D02*
X197948000Y-111198000D01*
X197948000Y-111198000D02*
X197548000Y-111198000D01*
X197708000Y-118178000D02*
X197708000Y-111438000D01*
X197708000Y-118178000D02*
X181768000Y-118178000D01*
X197708000Y-117058000D02*
X181768000Y-117058000D01*
X197708000Y-111958000D02*
X181768000Y-111958000D01*
X197708000Y-111438000D02*
X181768000Y-111438000D01*
X181768000Y-118178000D02*
X181768000Y-111438000D01*
X192375000Y-109825000D02*
X191375000Y-109825000D01*
X192375000Y-108825000D02*
X192375000Y-109825000D01*
X191675000Y-106775000D02*
X191675000Y-102775000D01*
X189325000Y-100425000D02*
X185325000Y-100425000D01*
X185325000Y-109125000D02*
X189325000Y-109125000D01*
X182975000Y-102775000D02*
X182975000Y-106775000D01*
X198093000Y-85637000D02*
X196623000Y-85637000D01*
X196623000Y-85637000D02*
X196623000Y-87922000D01*
X198093000Y-87922000D02*
X198093000Y-85637000D01*
D15*
X168410000Y-74395000D02*
X168810000Y-74395000D01*
X168410000Y-74395000D02*
X168410000Y-64395000D01*
X184410000Y-74395000D02*
X184810000Y-74395000D01*
X184810000Y-74395000D02*
X184810000Y-73895000D01*
X168410000Y-54795000D02*
X168410000Y-54295000D01*
X184810000Y-54795000D02*
X184810000Y-54295000D01*
X168410000Y-54295000D02*
X168810000Y-54295000D01*
X184410000Y-54295000D02*
X184810000Y-54295000D01*
D14*
X196945000Y-69002000D02*
X195795000Y-69002000D01*
X195795000Y-69002000D02*
X195795000Y-70052000D01*
X195795000Y-70052000D02*
X194805000Y-70052000D01*
X198915000Y-70172000D02*
X198915000Y-74052000D01*
X196945000Y-75222000D02*
X195795000Y-75222000D01*
X195795000Y-75222000D02*
X195795000Y-74172000D01*
X195848500Y-82249742D02*
X195848500Y-82724258D01*
X194803500Y-82249742D02*
X194803500Y-82724258D01*
G36*
X190076919Y-47870019D02*
G01*
X190076708Y-48292272D01*
X189942367Y-48375577D01*
X189902685Y-48399869D01*
X189867260Y-48420930D01*
X189837158Y-48438162D01*
X189813442Y-48450968D01*
X189797177Y-48458750D01*
X189790463Y-48460934D01*
X189772992Y-48459255D01*
X189756701Y-48449055D01*
X189740504Y-48435127D01*
X189739104Y-48188431D01*
X189738822Y-48125806D01*
X189738762Y-48073498D01*
X189738940Y-48030696D01*
X189739374Y-47996590D01*
X189740081Y-47970371D01*
X189741079Y-47951229D01*
X189742385Y-47938353D01*
X189744016Y-47930934D01*
X189744668Y-47929475D01*
X189749126Y-47922615D01*
X189759306Y-47907530D01*
X189774580Y-47885134D01*
X189794319Y-47856342D01*
X189817896Y-47822067D01*
X189844683Y-47783223D01*
X189874052Y-47740724D01*
X189905374Y-47695484D01*
X189914381Y-47682491D01*
X190077130Y-47447766D01*
X190076919Y-47870019D01*
G37*
G36*
X188207601Y-51285487D02*
G01*
X188207601Y-51444320D01*
X187904359Y-51444320D01*
X187601117Y-51444320D01*
X187601117Y-51572294D01*
X187601117Y-51700267D01*
X187854370Y-51700267D01*
X188107624Y-51700267D01*
X188106145Y-51854670D01*
X188104666Y-52009073D01*
X187852891Y-52010521D01*
X187601117Y-52011969D01*
X187601117Y-52137104D01*
X187601117Y-52262239D01*
X187904359Y-52262239D01*
X188207601Y-52262239D01*
X188207601Y-52420815D01*
X188207601Y-52579391D01*
X187852891Y-52578741D01*
X187790134Y-52578548D01*
X187729963Y-52578213D01*
X187673421Y-52577753D01*
X187621551Y-52577182D01*
X187575397Y-52576515D01*
X187536002Y-52575769D01*
X187504410Y-52574958D01*
X187481663Y-52574098D01*
X187468805Y-52573205D01*
X187467579Y-52573035D01*
X187435211Y-52564658D01*
X187401030Y-52550825D01*
X187369647Y-52533653D01*
X187349560Y-52518852D01*
X187323144Y-52489582D01*
X187299870Y-52451605D01*
X187283007Y-52412469D01*
X187270055Y-52376302D01*
X187268472Y-51860534D01*
X187268218Y-51771436D01*
X187268041Y-51692770D01*
X187267951Y-51623841D01*
X187267955Y-51563953D01*
X187268063Y-51512410D01*
X187268282Y-51468517D01*
X187268623Y-51431579D01*
X187269093Y-51400899D01*
X187269702Y-51375782D01*
X187270457Y-51355533D01*
X187271368Y-51339455D01*
X187272444Y-51326854D01*
X187273692Y-51317034D01*
X187275123Y-51309298D01*
X187275375Y-51308181D01*
X187290569Y-51260765D01*
X187312704Y-51221338D01*
X187342582Y-51189042D01*
X187381002Y-51163018D01*
X187428764Y-51142406D01*
X187430221Y-51141906D01*
X187437347Y-51139574D01*
X187444613Y-51137565D01*
X187452882Y-51135852D01*
X187463016Y-51134406D01*
X187475877Y-51133197D01*
X187492326Y-51132198D01*
X187513226Y-51131379D01*
X187539438Y-51130712D01*
X187571825Y-51130168D01*
X187611249Y-51129719D01*
X187658572Y-51129335D01*
X187714655Y-51128988D01*
X187780360Y-51128649D01*
X187836199Y-51128385D01*
X188207601Y-51126654D01*
X188207601Y-51285487D01*
G37*
G36*
X193732727Y-51285383D02*
G01*
X193732727Y-51443597D01*
X193522683Y-51445673D01*
X193464930Y-51446288D01*
X193416970Y-51447000D01*
X193377471Y-51447978D01*
X193345098Y-51449392D01*
X193318517Y-51451411D01*
X193296396Y-51454205D01*
X193277399Y-51457943D01*
X193260194Y-51462796D01*
X193243446Y-51468933D01*
X193225821Y-51476524D01*
X193205986Y-51485738D01*
X193205362Y-51486032D01*
X193160320Y-51513246D01*
X193122356Y-51548880D01*
X193091812Y-51592496D01*
X193069029Y-51643658D01*
X193060877Y-51671056D01*
X193057242Y-51691902D01*
X193054368Y-51721551D01*
X193052252Y-51757961D01*
X193050891Y-51799093D01*
X193050282Y-51842908D01*
X193050425Y-51887367D01*
X193051315Y-51930429D01*
X193052952Y-51970055D01*
X193055331Y-52004205D01*
X193058452Y-52030841D01*
X193061316Y-52044795D01*
X193080737Y-52098302D01*
X193106802Y-52143580D01*
X193140176Y-52181262D01*
X193181524Y-52211981D01*
X193231511Y-52236369D01*
X193279255Y-52252043D01*
X193291652Y-52255237D01*
X193303935Y-52257846D01*
X193317419Y-52259945D01*
X193333416Y-52261610D01*
X193353242Y-52262918D01*
X193378211Y-52263945D01*
X193409637Y-52264766D01*
X193448835Y-52265459D01*
X193497119Y-52266099D01*
X193528247Y-52266458D01*
X193732727Y-52268746D01*
X193732727Y-52424069D01*
X193732727Y-52579391D01*
X193475389Y-52578687D01*
X193421355Y-52578435D01*
X193369465Y-52577993D01*
X193321046Y-52577388D01*
X193277425Y-52576644D01*
X193239931Y-52575787D01*
X193209891Y-52574843D01*
X193188633Y-52573836D01*
X193179102Y-52573036D01*
X193103480Y-52558409D01*
X193034122Y-52534622D01*
X192971203Y-52501830D01*
X192914897Y-52460189D01*
X192865380Y-52409853D01*
X192822824Y-52350977D01*
X192787406Y-52283715D01*
X192759300Y-52208223D01*
X192756311Y-52198221D01*
X192745307Y-52158563D01*
X192736515Y-52121952D01*
X192729708Y-52086366D01*
X192724657Y-52049781D01*
X192721135Y-52010171D01*
X192718913Y-51965513D01*
X192717764Y-51913782D01*
X192717459Y-51853279D01*
X192717846Y-51792124D01*
X192719079Y-51740070D01*
X192721384Y-51695108D01*
X192724987Y-51655227D01*
X192730115Y-51618419D01*
X192736991Y-51582674D01*
X192745844Y-51545982D01*
X192756160Y-51508861D01*
X192783114Y-51432995D01*
X192817380Y-51365046D01*
X192858708Y-51305273D01*
X192906848Y-51253934D01*
X192961553Y-51211288D01*
X193022573Y-51177593D01*
X193089659Y-51153107D01*
X193102114Y-51149760D01*
X193123798Y-51144579D01*
X193145547Y-51140234D01*
X193168549Y-51136655D01*
X193193993Y-51133772D01*
X193223069Y-51131515D01*
X193256965Y-51129814D01*
X193296870Y-51128600D01*
X193343974Y-51127802D01*
X193399466Y-51127351D01*
X193464534Y-51127177D01*
X193486371Y-51127168D01*
X193732727Y-51127168D01*
X193732727Y-51285383D01*
G37*
G36*
X188871081Y-51637671D02*
G01*
X188871569Y-51710018D01*
X188872029Y-51772139D01*
X188872493Y-51824934D01*
X188872993Y-51869304D01*
X188873561Y-51906153D01*
X188874229Y-51936379D01*
X188875030Y-51960885D01*
X188875995Y-51980573D01*
X188877158Y-51996343D01*
X188878550Y-52009096D01*
X188880203Y-52019735D01*
X188882150Y-52029160D01*
X188884422Y-52038272D01*
X188885545Y-52042458D01*
X188901336Y-52087242D01*
X188922099Y-52122655D01*
X188948452Y-52149566D01*
X188972268Y-52164700D01*
X188988518Y-52172534D01*
X189002396Y-52177470D01*
X189017359Y-52180154D01*
X189036862Y-52181234D01*
X189061293Y-52181368D01*
X189089472Y-52180834D01*
X189109780Y-52179124D01*
X189125455Y-52175732D01*
X189139733Y-52170155D01*
X189142843Y-52168666D01*
X189174787Y-52147790D01*
X189200969Y-52118945D01*
X189222037Y-52081263D01*
X189235672Y-52044075D01*
X189237488Y-52036959D01*
X189239065Y-52027832D01*
X189240423Y-52015864D01*
X189241588Y-52000222D01*
X189242581Y-51980075D01*
X189243426Y-51954591D01*
X189244146Y-51922939D01*
X189244763Y-51884286D01*
X189245300Y-51837801D01*
X189245781Y-51782652D01*
X189246228Y-51718007D01*
X189246648Y-51646018D01*
X189248667Y-51277398D01*
X189382258Y-51277398D01*
X189515850Y-51277398D01*
X189513738Y-51659928D01*
X189513287Y-51736454D01*
X189512823Y-51802725D01*
X189512322Y-51859615D01*
X189511762Y-51907997D01*
X189511118Y-51948744D01*
X189510368Y-51982730D01*
X189509488Y-52010829D01*
X189508455Y-52033913D01*
X189507245Y-52052856D01*
X189505835Y-52068532D01*
X189504201Y-52081814D01*
X189502321Y-52093574D01*
X189502091Y-52094852D01*
X189486690Y-52162716D01*
X189466610Y-52221513D01*
X189441278Y-52272522D01*
X189410121Y-52317019D01*
X189394255Y-52335037D01*
X189356874Y-52368993D01*
X189315798Y-52394506D01*
X189268307Y-52413147D01*
X189250331Y-52418170D01*
X189235894Y-52421565D01*
X189221320Y-52424181D01*
X189204941Y-52426108D01*
X189185091Y-52427439D01*
X189160105Y-52428266D01*
X189128315Y-52428681D01*
X189088056Y-52428776D01*
X189059405Y-52428719D01*
X189003214Y-52428268D01*
X188957477Y-52427266D01*
X188921533Y-52425682D01*
X188894722Y-52423489D01*
X188876684Y-52420723D01*
X188822614Y-52403460D01*
X188773662Y-52376564D01*
X188730555Y-52340628D01*
X188694018Y-52296244D01*
X188667719Y-52250335D01*
X188657188Y-52227782D01*
X188647977Y-52206650D01*
X188639998Y-52186049D01*
X188633162Y-52165085D01*
X188627382Y-52142869D01*
X188622570Y-52118508D01*
X188618636Y-52091111D01*
X188615494Y-52059786D01*
X188613055Y-52023642D01*
X188611231Y-51981787D01*
X188609934Y-51933331D01*
X188609075Y-51877380D01*
X188608566Y-51813045D01*
X188608320Y-51739433D01*
X188608248Y-51655652D01*
X188608247Y-51648800D01*
X188608214Y-51277398D01*
X188738459Y-51277398D01*
X188868703Y-51277398D01*
X188871081Y-51637671D01*
G37*
G36*
X189993669Y-46322041D02*
G01*
X189993669Y-46480281D01*
X189975586Y-46484115D01*
X189949798Y-46491139D01*
X189916140Y-46502665D01*
X189876512Y-46517873D01*
X189832816Y-46535944D01*
X189786955Y-46556057D01*
X189740828Y-46577393D01*
X189696339Y-46599130D01*
X189655388Y-46620449D01*
X189640443Y-46628665D01*
X189523060Y-46700671D01*
X189412314Y-46781346D01*
X189308610Y-46870136D01*
X189212356Y-46966490D01*
X189123957Y-47069856D01*
X189043819Y-47179680D01*
X188972347Y-47295412D01*
X188909949Y-47416499D01*
X188857029Y-47542389D01*
X188813995Y-47672530D01*
X188783888Y-47793604D01*
X188774451Y-47839816D01*
X188766926Y-47880581D01*
X188761105Y-47918154D01*
X188756780Y-47954790D01*
X188753746Y-47992742D01*
X188751792Y-48034265D01*
X188750714Y-48081613D01*
X188750302Y-48137040D01*
X188750277Y-48158734D01*
X188750506Y-48217820D01*
X188751341Y-48268053D01*
X188753004Y-48311702D01*
X188755714Y-48351036D01*
X188759692Y-48388322D01*
X188765161Y-48425831D01*
X188772339Y-48465829D01*
X188781449Y-48510587D01*
X188787084Y-48536774D01*
X188820980Y-48666497D01*
X188865394Y-48793820D01*
X188919818Y-48917864D01*
X188983746Y-49037746D01*
X189056672Y-49152587D01*
X189138089Y-49261507D01*
X189227490Y-49363623D01*
X189309175Y-49444228D01*
X189416437Y-49535664D01*
X189529508Y-49617683D01*
X189648113Y-49690119D01*
X189771974Y-49752810D01*
X189900816Y-49805592D01*
X189946374Y-49821474D01*
X190002015Y-49840024D01*
X190033005Y-49931361D01*
X190047340Y-49972443D01*
X190062856Y-50014891D01*
X190078702Y-50056539D01*
X190094030Y-50095223D01*
X190107991Y-50128777D01*
X190119736Y-50155035D01*
X190124593Y-50164909D01*
X190128423Y-50172813D01*
X190129316Y-50177922D01*
X190125839Y-50180298D01*
X190116561Y-50180002D01*
X190100048Y-50177095D01*
X190074868Y-50171637D01*
X190057656Y-50167763D01*
X189908511Y-50128613D01*
X189764688Y-50079707D01*
X189626263Y-50021085D01*
X189493314Y-49952792D01*
X189365918Y-49874869D01*
X189244153Y-49787359D01*
X189128095Y-49690303D01*
X189047456Y-49613883D01*
X188943188Y-49502192D01*
X188848355Y-49384654D01*
X188763068Y-49261497D01*
X188687433Y-49132945D01*
X188621562Y-48999223D01*
X188565563Y-48860558D01*
X188519546Y-48717174D01*
X188483619Y-48569296D01*
X188457892Y-48417151D01*
X188454390Y-48389643D01*
X188450838Y-48352287D01*
X188448041Y-48306634D01*
X188446015Y-48255079D01*
X188444777Y-48200016D01*
X188444344Y-48143839D01*
X188444733Y-48088944D01*
X188445960Y-48037724D01*
X188448042Y-47992575D01*
X188450996Y-47955891D01*
X188451331Y-47952863D01*
X188474218Y-47797344D01*
X188506873Y-47647151D01*
X188549317Y-47502240D01*
X188601570Y-47362566D01*
X188663654Y-47228085D01*
X188735592Y-47098753D01*
X188817403Y-46974524D01*
X188909109Y-46855353D01*
X189010731Y-46741197D01*
X189047559Y-46703505D01*
X189144410Y-46611899D01*
X189242579Y-46529866D01*
X189344175Y-46455880D01*
X189451306Y-46388414D01*
X189566082Y-46325942D01*
X189576363Y-46320760D01*
X189648391Y-46286401D01*
X189722961Y-46254020D01*
X189797586Y-46224566D01*
X189869775Y-46198989D01*
X189937039Y-46178237D01*
X189978368Y-46167446D01*
X189993669Y-46163801D01*
X189993669Y-46322041D01*
G37*
G36*
X190320558Y-51128498D02*
G01*
X190399776Y-51128840D01*
X190468659Y-51129184D01*
X190528000Y-51129551D01*
X190578593Y-51129962D01*
X190621230Y-51130435D01*
X190656706Y-51130993D01*
X190685813Y-51131653D01*
X190709345Y-51132438D01*
X190728094Y-51133367D01*
X190742855Y-51134460D01*
X190754420Y-51135737D01*
X190763582Y-51137219D01*
X190771136Y-51138925D01*
X190775229Y-51140066D01*
X190832387Y-51162083D01*
X190883640Y-51192113D01*
X190927860Y-51229250D01*
X190963916Y-51272592D01*
X190984351Y-51307462D01*
X191006208Y-51363800D01*
X191019002Y-51424358D01*
X191022785Y-51487003D01*
X191017605Y-51549605D01*
X191003514Y-51610030D01*
X190980561Y-51666148D01*
X190975713Y-51675229D01*
X190966812Y-51688959D01*
X190951857Y-51709407D01*
X190932136Y-51734925D01*
X190908936Y-51763869D01*
X190883545Y-51794592D01*
X190867598Y-51813425D01*
X190842287Y-51843298D01*
X190819016Y-51871272D01*
X190798903Y-51895960D01*
X190783066Y-51915979D01*
X190772625Y-51929943D01*
X190769136Y-51935354D01*
X190762729Y-51957945D01*
X190762679Y-51981353D01*
X190763691Y-51988480D01*
X190765883Y-51996909D01*
X190769674Y-52007451D01*
X190775480Y-52020919D01*
X190783718Y-52038123D01*
X190794804Y-52059875D01*
X190809155Y-52086988D01*
X190827187Y-52120271D01*
X190849319Y-52160538D01*
X190875965Y-52208599D01*
X190907544Y-52265266D01*
X190918995Y-52285772D01*
X190947488Y-52336828D01*
X190974393Y-52385132D01*
X190999211Y-52429784D01*
X191021444Y-52469882D01*
X191040592Y-52504524D01*
X191056159Y-52532811D01*
X191067645Y-52553840D01*
X191074553Y-52566710D01*
X191076412Y-52570421D01*
X191076601Y-52572817D01*
X191074446Y-52574737D01*
X191068907Y-52576221D01*
X191058948Y-52577311D01*
X191043530Y-52578045D01*
X191021616Y-52578466D01*
X190992168Y-52578614D01*
X190954147Y-52578529D01*
X190906517Y-52578253D01*
X190880969Y-52578071D01*
X190682030Y-52576609D01*
X190555188Y-52329008D01*
X190529741Y-52279090D01*
X190505502Y-52231075D01*
X190483023Y-52186089D01*
X190462856Y-52145255D01*
X190445552Y-52109699D01*
X190431662Y-52080546D01*
X190421738Y-52058922D01*
X190416332Y-52045951D01*
X190416083Y-52045240D01*
X190408634Y-52016839D01*
X190403226Y-51983595D01*
X190401300Y-51961779D01*
X190400498Y-51941717D01*
X190400809Y-51924046D01*
X190402855Y-51907658D01*
X190407256Y-51891445D01*
X190414632Y-51874300D01*
X190425603Y-51855114D01*
X190440791Y-51832780D01*
X190460815Y-51806191D01*
X190486296Y-51774238D01*
X190517854Y-51735814D01*
X190548514Y-51698926D01*
X190586294Y-51653546D01*
X190617559Y-51615835D01*
X190642929Y-51584923D01*
X190663024Y-51559941D01*
X190678463Y-51540016D01*
X190689866Y-51524280D01*
X190697852Y-51511861D01*
X190703043Y-51501890D01*
X190706056Y-51493496D01*
X190707513Y-51485808D01*
X190708032Y-51477956D01*
X190708112Y-51474790D01*
X190708358Y-51464964D01*
X190708016Y-51456820D01*
X190706133Y-51450199D01*
X190701761Y-51444945D01*
X190693950Y-51440899D01*
X190681748Y-51437904D01*
X190664207Y-51435803D01*
X190640376Y-51434439D01*
X190609305Y-51433653D01*
X190570044Y-51433288D01*
X190521644Y-51433187D01*
X190463152Y-51433191D01*
X190457206Y-51433192D01*
X190227360Y-51433192D01*
X190227360Y-52006291D01*
X190227360Y-52579391D01*
X190063220Y-52579391D01*
X189899080Y-52579391D01*
X189899080Y-51853081D01*
X189899080Y-51126770D01*
X190320558Y-51128498D01*
G37*
G36*
X191017399Y-46165703D02*
G01*
X191034690Y-46170357D01*
X191058566Y-46177357D01*
X191087052Y-46186080D01*
X191118172Y-46195907D01*
X191149952Y-46206217D01*
X191180417Y-46216390D01*
X191207591Y-46225805D01*
X191222357Y-46231151D01*
X191262764Y-46247183D01*
X191309656Y-46267526D01*
X191360540Y-46290956D01*
X191412925Y-46316248D01*
X191464315Y-46342178D01*
X191512219Y-46367521D01*
X191554142Y-46391054D01*
X191580776Y-46407169D01*
X191703430Y-46490085D01*
X191816817Y-46577928D01*
X191922114Y-46671781D01*
X192020496Y-46772726D01*
X192113140Y-46881846D01*
X192153559Y-46934290D01*
X192237734Y-47055951D01*
X192312406Y-47183014D01*
X192377440Y-47314869D01*
X192432696Y-47450907D01*
X192478038Y-47590518D01*
X192513327Y-47733091D01*
X192538427Y-47878016D01*
X192553199Y-48024685D01*
X192557505Y-48172486D01*
X192551209Y-48320810D01*
X192534172Y-48469047D01*
X192519260Y-48555027D01*
X192485241Y-48700453D01*
X192440822Y-48842430D01*
X192386346Y-48980429D01*
X192322151Y-49113921D01*
X192248579Y-49242375D01*
X192165968Y-49365263D01*
X192074659Y-49482054D01*
X191974992Y-49592220D01*
X191867307Y-49695232D01*
X191751944Y-49790558D01*
X191701840Y-49827776D01*
X191576847Y-49910966D01*
X191446376Y-49984762D01*
X191311179Y-50048831D01*
X191172005Y-50102838D01*
X191029606Y-50146451D01*
X190932704Y-50169704D01*
X190906537Y-50175281D01*
X190889366Y-50178792D01*
X190879299Y-50180470D01*
X190874442Y-50180545D01*
X190872904Y-50179250D01*
X190872793Y-50177038D01*
X190874883Y-50170490D01*
X190880544Y-50156036D01*
X190888858Y-50135955D01*
X190896866Y-50117224D01*
X190911220Y-50082618D01*
X190927687Y-50040493D01*
X190945113Y-49993966D01*
X190962340Y-49946155D01*
X190978212Y-49900179D01*
X190985425Y-49878407D01*
X190997984Y-49839832D01*
X191053625Y-49821378D01*
X191183027Y-49772632D01*
X191307924Y-49713834D01*
X191427794Y-49645320D01*
X191542116Y-49567431D01*
X191650366Y-49480503D01*
X191752024Y-49384876D01*
X191791984Y-49342899D01*
X191879056Y-49240473D01*
X191958316Y-49130921D01*
X192029199Y-49015322D01*
X192091142Y-48894756D01*
X192143582Y-48770303D01*
X192185953Y-48643044D01*
X192212915Y-48536774D01*
X192223128Y-48488607D01*
X192231294Y-48446375D01*
X192237636Y-48407808D01*
X192242374Y-48370638D01*
X192245731Y-48332595D01*
X192247927Y-48291410D01*
X192249184Y-48244815D01*
X192249724Y-48190540D01*
X192249794Y-48158734D01*
X192249727Y-48108522D01*
X192249411Y-48067491D01*
X192248745Y-48033694D01*
X192247630Y-48005184D01*
X192245964Y-47980016D01*
X192243648Y-47956241D01*
X192240581Y-47931914D01*
X192236736Y-47905569D01*
X192210209Y-47765903D01*
X192173882Y-47631423D01*
X192127610Y-47501799D01*
X192071248Y-47376700D01*
X192004653Y-47255796D01*
X191927678Y-47138759D01*
X191863806Y-47054265D01*
X191834917Y-47020067D01*
X191799495Y-46981212D01*
X191759762Y-46939911D01*
X191717940Y-46898375D01*
X191676253Y-46858815D01*
X191636922Y-46823443D01*
X191604469Y-46796289D01*
X191497450Y-46716966D01*
X191386281Y-46645973D01*
X191272244Y-46584007D01*
X191156621Y-46531770D01*
X191046670Y-46491853D01*
X191006331Y-46478975D01*
X191006331Y-46321494D01*
X191006410Y-46280927D01*
X191006633Y-46244234D01*
X191006980Y-46212814D01*
X191007430Y-46188067D01*
X191007962Y-46171394D01*
X191008555Y-46164195D01*
X191008668Y-46164013D01*
X191017399Y-46165703D01*
G37*
G36*
X191917461Y-51258068D02*
G01*
X191959169Y-51258270D01*
X191992460Y-51258707D01*
X192018689Y-51259439D01*
X192039210Y-51260530D01*
X192055380Y-51262040D01*
X192068553Y-51264033D01*
X192080084Y-51266570D01*
X192085761Y-51268092D01*
X192132685Y-51283970D01*
X192172691Y-51304047D01*
X192209609Y-51330560D01*
X192239425Y-51357838D01*
X192261489Y-51380541D01*
X192278002Y-51400177D01*
X192291701Y-51420588D01*
X192305323Y-51445617D01*
X192312935Y-51461012D01*
X192341534Y-51530542D01*
X192362912Y-51606710D01*
X192375738Y-51678011D01*
X192379150Y-51711295D01*
X192381521Y-51752986D01*
X192382868Y-51800449D01*
X192383208Y-51851045D01*
X192382561Y-51902139D01*
X192380943Y-51951093D01*
X192378374Y-51995271D01*
X192374871Y-52032036D01*
X192373234Y-52043931D01*
X192357382Y-52124425D01*
X192336029Y-52195445D01*
X192308957Y-52257315D01*
X192275943Y-52310356D01*
X192236766Y-52354891D01*
X192191204Y-52391245D01*
X192139038Y-52419739D01*
X192107195Y-52432266D01*
X192060723Y-52448350D01*
X191882672Y-52449645D01*
X191827425Y-52449907D01*
X191782187Y-52449791D01*
X191745846Y-52449263D01*
X191717290Y-52448290D01*
X191695405Y-52446840D01*
X191679080Y-52444879D01*
X191671237Y-52443387D01*
X191611800Y-52425240D01*
X191558850Y-52399029D01*
X191512209Y-52364510D01*
X191471699Y-52321444D01*
X191437143Y-52269589D01*
X191408363Y-52208703D01*
X191385181Y-52138544D01*
X191367420Y-52058873D01*
X191361602Y-52022984D01*
X191358531Y-51993766D01*
X191356371Y-51956119D01*
X191355104Y-51912537D01*
X191354710Y-51865510D01*
X191354951Y-51840234D01*
X191599692Y-51840234D01*
X191599735Y-51882804D01*
X191601486Y-51922746D01*
X191604985Y-51956648D01*
X191606727Y-51966963D01*
X191621576Y-52021687D01*
X191643142Y-52067934D01*
X191671238Y-52105493D01*
X191705677Y-52134152D01*
X191746272Y-52153698D01*
X191779414Y-52162045D01*
X191804021Y-52164794D01*
X191835933Y-52166369D01*
X191871390Y-52166777D01*
X191906630Y-52166020D01*
X191937892Y-52164105D01*
X191957019Y-52161822D01*
X192001997Y-52149698D01*
X192040541Y-52128855D01*
X192072843Y-52099090D01*
X192099095Y-52060202D01*
X192119488Y-52011988D01*
X192128318Y-51981253D01*
X192133589Y-51951039D01*
X192136913Y-51913004D01*
X192138324Y-51870278D01*
X192137854Y-51825991D01*
X192135536Y-51783273D01*
X192131404Y-51745252D01*
X192125515Y-51715154D01*
X192110151Y-51669040D01*
X192090757Y-51631613D01*
X192066182Y-51600808D01*
X192056489Y-51591520D01*
X192032398Y-51572785D01*
X192006412Y-51559102D01*
X191976156Y-51549687D01*
X191939253Y-51543758D01*
X191903147Y-51540987D01*
X191851446Y-51540177D01*
X191804067Y-51543077D01*
X191763047Y-51549461D01*
X191730421Y-51559101D01*
X191726618Y-51560707D01*
X191691136Y-51582424D01*
X191660769Y-51613678D01*
X191635878Y-51653943D01*
X191616825Y-51702696D01*
X191609424Y-51730870D01*
X191604576Y-51760854D01*
X191601318Y-51798446D01*
X191599692Y-51840234D01*
X191354951Y-51840234D01*
X191355167Y-51817533D01*
X191356456Y-51771098D01*
X191358557Y-51728697D01*
X191361449Y-51692824D01*
X191364458Y-51669665D01*
X191377267Y-51603178D01*
X191392102Y-51545806D01*
X191409635Y-51495619D01*
X191430537Y-51450686D01*
X191454520Y-51410512D01*
X191490348Y-51364756D01*
X191531917Y-51327316D01*
X191580577Y-51297183D01*
X191637678Y-51273347D01*
X191637853Y-51273287D01*
X191682366Y-51258154D01*
X191865980Y-51258039D01*
X191917461Y-51258068D01*
G37*
G36*
X190511537Y-44769235D02*
G01*
X190530362Y-44781223D01*
X190550420Y-44803838D01*
X190572465Y-44837077D01*
X190590590Y-44868672D01*
X190638774Y-44964318D01*
X190682214Y-45067517D01*
X190721044Y-45178736D01*
X190755396Y-45298447D01*
X190785405Y-45427118D01*
X190811203Y-45565218D01*
X190832924Y-45713217D01*
X190834708Y-45727233D01*
X190836487Y-45741546D01*
X190838092Y-45755153D01*
X190839534Y-45768679D01*
X190840822Y-45782748D01*
X190841967Y-45797986D01*
X190842980Y-45815016D01*
X190843871Y-45834463D01*
X190844651Y-45856952D01*
X190845331Y-45883107D01*
X190845920Y-45913551D01*
X190846429Y-45948911D01*
X190846869Y-45989810D01*
X190847250Y-46036873D01*
X190847583Y-46090724D01*
X190847878Y-46151987D01*
X190848146Y-46221288D01*
X190848398Y-46299251D01*
X190848642Y-46386499D01*
X190848892Y-46483658D01*
X190849142Y-46585681D01*
X190850984Y-47343974D01*
X191049676Y-47630562D01*
X191084785Y-47681238D01*
X191118135Y-47729442D01*
X191149162Y-47774356D01*
X191177304Y-47815163D01*
X191201999Y-47851045D01*
X191222684Y-47881186D01*
X191238797Y-47904767D01*
X191249775Y-47920972D01*
X191255057Y-47928982D01*
X191255332Y-47929442D01*
X191257081Y-47935150D01*
X191258499Y-47946032D01*
X191259603Y-47962898D01*
X191260410Y-47986558D01*
X191260938Y-48017821D01*
X191261203Y-48057498D01*
X191261224Y-48106398D01*
X191261018Y-48165331D01*
X191260896Y-48188431D01*
X191259496Y-48435127D01*
X191243884Y-48448551D01*
X191229030Y-48457695D01*
X191213815Y-48461939D01*
X191212608Y-48461976D01*
X191203487Y-48459250D01*
X191186375Y-48450983D01*
X191161035Y-48437038D01*
X191127231Y-48417281D01*
X191084726Y-48391576D01*
X191033285Y-48359788D01*
X191023740Y-48353835D01*
X190850536Y-48245695D01*
X190850536Y-48336951D01*
X190850536Y-48428207D01*
X190886242Y-48482701D01*
X190948268Y-48586832D01*
X191000415Y-48694457D01*
X191042575Y-48804888D01*
X191074639Y-48917432D01*
X191096499Y-49031399D01*
X191108049Y-49146097D01*
X191109181Y-49260837D01*
X191099786Y-49374927D01*
X191079758Y-49487675D01*
X191056500Y-49574845D01*
X191043963Y-49609711D01*
X191029984Y-49635493D01*
X191013012Y-49654235D01*
X190991497Y-49667979D01*
X190982862Y-49671880D01*
X190957855Y-49678488D01*
X190929675Y-49680210D01*
X190903935Y-49676854D01*
X190897422Y-49674789D01*
X190886102Y-49671229D01*
X190880604Y-49670842D01*
X190878670Y-49676576D01*
X190874552Y-49691139D01*
X190868786Y-49712569D01*
X190861905Y-49738903D01*
X190858982Y-49750286D01*
X190819760Y-49883847D01*
X190770251Y-50018327D01*
X190711034Y-50152229D01*
X190678512Y-50217441D01*
X190652873Y-50266301D01*
X190631048Y-50306008D01*
X190612178Y-50337514D01*
X190595409Y-50361766D01*
X190579882Y-50379715D01*
X190564742Y-50392309D01*
X190549130Y-50400498D01*
X190532191Y-50405231D01*
X190513068Y-50407458D01*
X190506715Y-50407781D01*
X190485254Y-50407710D01*
X190466480Y-50406035D01*
X190455653Y-50403503D01*
X190441722Y-50396715D01*
X190428861Y-50387999D01*
X190416280Y-50376255D01*
X190403192Y-50360382D01*
X190388807Y-50339282D01*
X190372336Y-50311853D01*
X190352991Y-50276996D01*
X190329984Y-50233611D01*
X190319814Y-50214077D01*
X190258899Y-50087183D01*
X190206136Y-49957492D01*
X190162456Y-49827419D01*
X190141017Y-49750286D01*
X190133842Y-49722549D01*
X190127570Y-49698936D01*
X190122734Y-49681412D01*
X190119868Y-49671937D01*
X190119395Y-49670842D01*
X190113548Y-49671311D01*
X190102578Y-49674789D01*
X190078703Y-49679733D01*
X190050672Y-49679541D01*
X190024101Y-49674405D01*
X190017138Y-49671880D01*
X189993723Y-49659371D01*
X189975379Y-49642560D01*
X189960555Y-49619404D01*
X189947702Y-49587859D01*
X189943500Y-49574845D01*
X189915051Y-49463657D01*
X189897316Y-49350576D01*
X189890189Y-49236296D01*
X189890700Y-49218880D01*
X190121224Y-49218880D01*
X190122138Y-49226568D01*
X190122268Y-49226734D01*
X190128285Y-49225933D01*
X190140924Y-49221013D01*
X190152070Y-49215717D01*
X190185560Y-49204460D01*
X190220655Y-49202750D01*
X190254092Y-49210690D01*
X190258010Y-49212375D01*
X190276948Y-49224001D01*
X190295298Y-49240236D01*
X190310084Y-49257969D01*
X190318329Y-49274091D01*
X190318749Y-49275824D01*
X190319756Y-49285370D01*
X190320941Y-49303905D01*
X190322194Y-49329293D01*
X190323408Y-49359399D01*
X190324196Y-49382830D01*
X190331049Y-49487350D01*
X190345330Y-49590837D01*
X190367411Y-49694839D01*
X190397662Y-49800907D01*
X190436453Y-49910588D01*
X190470230Y-49993487D01*
X190480592Y-50016914D01*
X190489670Y-50036036D01*
X190496465Y-50048836D01*
X190499913Y-50053301D01*
X190503709Y-50048535D01*
X190510705Y-50035682D01*
X190519782Y-50016908D01*
X190526582Y-50001834D01*
X190577839Y-49873934D01*
X190618314Y-49748054D01*
X190648094Y-49623830D01*
X190667266Y-49500898D01*
X190675803Y-49382830D01*
X190676920Y-49350648D01*
X190678155Y-49321644D01*
X190679401Y-49297953D01*
X190680547Y-49281711D01*
X190681250Y-49275824D01*
X190688477Y-49260119D01*
X190702614Y-49242416D01*
X190720684Y-49225827D01*
X190739710Y-49213461D01*
X190741989Y-49212375D01*
X190774987Y-49203215D01*
X190810053Y-49203718D01*
X190843924Y-49213783D01*
X190847930Y-49215717D01*
X190863265Y-49222887D01*
X190874123Y-49226855D01*
X190877392Y-49227074D01*
X190878277Y-49220299D01*
X190877873Y-49204505D01*
X190876383Y-49181700D01*
X190874007Y-49153894D01*
X190870946Y-49123094D01*
X190867400Y-49091311D01*
X190863570Y-49060552D01*
X190859657Y-49032826D01*
X190855861Y-49010142D01*
X190855540Y-49008456D01*
X190840680Y-48945279D01*
X190820008Y-48877475D01*
X190794734Y-48808087D01*
X190766068Y-48740160D01*
X190735224Y-48676739D01*
X190703410Y-48620868D01*
X190697919Y-48612226D01*
X190672711Y-48573257D01*
X190500974Y-48573257D01*
X190452259Y-48573128D01*
X190413326Y-48573022D01*
X190382837Y-48573362D01*
X190359455Y-48574572D01*
X190341840Y-48577076D01*
X190328654Y-48581298D01*
X190318560Y-48587659D01*
X190310218Y-48596585D01*
X190302290Y-48608498D01*
X190293438Y-48623821D01*
X190282722Y-48642314D01*
X190246732Y-48708852D01*
X190213350Y-48782560D01*
X190184005Y-48859709D01*
X190160122Y-48936568D01*
X190144014Y-49004778D01*
X190140058Y-49027800D01*
X190136028Y-49055872D01*
X190132120Y-49087002D01*
X190128528Y-49119202D01*
X190125447Y-49150480D01*
X190123073Y-49178845D01*
X190121600Y-49202309D01*
X190121224Y-49218880D01*
X189890700Y-49218880D01*
X189893560Y-49121512D01*
X189907322Y-49006918D01*
X189931365Y-48893209D01*
X189965583Y-48781078D01*
X190009867Y-48671220D01*
X190064109Y-48564329D01*
X190113622Y-48482908D01*
X190149192Y-48428620D01*
X190150852Y-47128004D01*
X190152512Y-45827387D01*
X190165197Y-45727233D01*
X190186247Y-45580687D01*
X190211071Y-45444105D01*
X190239828Y-45316924D01*
X190272679Y-45198585D01*
X190309782Y-45088525D01*
X190351297Y-44986182D01*
X190397385Y-44890997D01*
X190409409Y-44868672D01*
X190433423Y-44827534D01*
X190454886Y-44797021D01*
X190474555Y-44777134D01*
X190493187Y-44767871D01*
X190511537Y-44769235D01*
G37*
%LPC*%
D16*
X195521934Y-62762000D03*
X195521934Y-63762000D03*
X195521934Y-64762000D03*
X195521934Y-65762000D03*
D17*
X198046934Y-61462000D03*
X198046934Y-67062000D03*
D16*
X195525000Y-54882000D03*
X195525000Y-55882000D03*
X195525000Y-56882000D03*
X195525000Y-57882000D03*
D17*
X198050000Y-53582000D03*
X198050000Y-59182000D03*
D18*
X190157945Y-92710000D03*
X190157945Y-90170000D03*
X190157945Y-87630000D03*
X190157945Y-85090000D03*
X190157945Y-82550000D03*
X190157945Y-80010000D03*
X174657945Y-80010000D03*
X174657945Y-82550000D03*
X174657945Y-85090000D03*
X174657945Y-87630000D03*
X174657945Y-90170000D03*
X174657945Y-92710000D03*
D19*
X165714000Y-97536000D03*
X166197274Y-96369274D03*
X166197274Y-98702726D03*
X167364000Y-95886000D03*
D20*
X167364000Y-97536000D03*
D19*
X167364000Y-99186000D03*
X168530726Y-96369274D03*
X168530726Y-98702726D03*
X169014000Y-97536000D03*
D21*
X197358000Y-81699500D03*
X197358000Y-83274500D03*
D22*
X195326000Y-86297000D03*
X195326000Y-87947000D03*
D21*
X197358000Y-90969500D03*
X197358000Y-92544500D03*
D19*
X194714000Y-97536000D03*
X195197274Y-96369274D03*
X195197274Y-98702726D03*
X196364000Y-95886000D03*
D20*
X196364000Y-97536000D03*
D19*
X196364000Y-99186000D03*
X197530726Y-96369274D03*
X197530726Y-98702726D03*
X198014000Y-97536000D03*
D22*
X195326000Y-90932000D03*
X195326000Y-92582000D03*
D23*
X177800000Y-118110000D03*
X166800000Y-118110000D03*
D24*
X169800000Y-108110000D03*
D25*
X174800000Y-108110000D03*
D19*
X194714000Y-47536000D03*
X195197274Y-46369274D03*
X195197274Y-48702726D03*
X196364000Y-45886000D03*
D20*
X196364000Y-47536000D03*
D19*
X196364000Y-49186000D03*
X197530726Y-46369274D03*
X197530726Y-48702726D03*
X198014000Y-47536000D03*
D26*
X181864000Y-49062000D03*
D27*
X179324000Y-46522000D03*
X179324000Y-51602000D03*
X184404000Y-46522000D03*
X184404000Y-51602000D03*
D28*
X196088000Y-114808000D03*
D29*
X193548000Y-114808000D03*
X191008000Y-114808000D03*
X188468000Y-114808000D03*
X185928000Y-114808000D03*
X183388000Y-114808000D03*
D30*
X190825000Y-108275000D03*
X190825000Y-101275000D03*
X183825000Y-101275000D03*
X183825000Y-108275000D03*
D21*
X197358000Y-86334500D03*
X197358000Y-87909500D03*
D31*
X169610000Y-73445000D03*
X171610000Y-73445000D03*
X173610000Y-73445000D03*
X175610000Y-73445000D03*
X177610000Y-73445000D03*
X179610000Y-73445000D03*
X181610000Y-73445000D03*
X183610000Y-73445000D03*
X183610000Y-55245000D03*
X181610000Y-55245000D03*
X179610000Y-55245000D03*
X177610000Y-55245000D03*
X175610000Y-55245000D03*
X173610000Y-55245000D03*
X171610000Y-55245000D03*
X169610000Y-55245000D03*
D19*
X165714000Y-47536000D03*
X166197274Y-46369274D03*
X166197274Y-48702726D03*
X167364000Y-45886000D03*
D20*
X167364000Y-47536000D03*
D19*
X167364000Y-49186000D03*
X168530726Y-46369274D03*
X168530726Y-48702726D03*
X169014000Y-47536000D03*
D16*
X195580000Y-70612000D03*
X195580000Y-71612000D03*
X195580000Y-72612000D03*
X195580000Y-73612000D03*
D17*
X198105000Y-69312000D03*
X198105000Y-74912000D03*
D22*
X195326000Y-81662000D03*
X195326000Y-83312000D03*
D32*
X170360000Y-85440000D03*
X170360000Y-79660000D03*
D33*
X166670000Y-86870000D03*
D34*
X170840000Y-86870000D03*
D33*
X166670000Y-78230000D03*
D34*
X170840000Y-78230000D03*
%LPD*%
M02*
