G04 #@! TF.GenerationSoftware,KiCad,Pcbnew,7.0.5*
G04 #@! TF.CreationDate,2023-06-15T17:11:31+02:00*
G04 #@! TF.ProjectId,euroc_controller,6575726f-635f-4636-9f6e-74726f6c6c65,rev?*
G04 #@! TF.SameCoordinates,Original*
G04 #@! TF.FileFunction,Paste,Top*
G04 #@! TF.FilePolarity,Positive*
%FSLAX46Y46*%
G04 Gerber Fmt 4.6, Leading zero omitted, Abs format (unit mm)*
G04 Created by KiCad (PCBNEW 7.0.5) date 2023-06-15 17:11:31*
%MOMM*%
%LPD*%
G01*
G04 APERTURE LIST*
G04 Aperture macros list*
%AMRoundRect*
0 Rectangle with rounded corners*
0 $1 Rounding radius*
0 $2 $3 $4 $5 $6 $7 $8 $9 X,Y pos of 4 corners*
0 Add a 4 corners polygon primitive as box body*
4,1,4,$2,$3,$4,$5,$6,$7,$8,$9,$2,$3,0*
0 Add four circle primitives for the rounded corners*
1,1,$1+$1,$2,$3*
1,1,$1+$1,$4,$5*
1,1,$1+$1,$6,$7*
1,1,$1+$1,$8,$9*
0 Add four rect primitives between the rounded corners*
20,1,$1+$1,$2,$3,$4,$5,0*
20,1,$1+$1,$4,$5,$6,$7,0*
20,1,$1+$1,$6,$7,$8,$9,0*
20,1,$1+$1,$8,$9,$2,$3,0*%
G04 Aperture macros list end*
%ADD10RoundRect,0.150000X-0.625000X0.150000X-0.625000X-0.150000X0.625000X-0.150000X0.625000X0.150000X0*%
%ADD11RoundRect,0.250000X-0.650000X0.350000X-0.650000X-0.350000X0.650000X-0.350000X0.650000X0.350000X0*%
%ADD12R,2.500000X1.000000*%
%ADD13RoundRect,0.218750X-0.256250X0.218750X-0.256250X-0.218750X0.256250X-0.218750X0.256250X0.218750X0*%
%ADD14RoundRect,0.200000X-0.275000X0.200000X-0.275000X-0.200000X0.275000X-0.200000X0.275000X0.200000X0*%
%ADD15R,2.500000X2.500000*%
%ADD16R,1.000000X2.500000*%
G04 APERTURE END LIST*
D10*
X195521934Y-62762000D03*
X195521934Y-63762000D03*
X195521934Y-64762000D03*
X195521934Y-65762000D03*
D11*
X198046934Y-61462000D03*
X198046934Y-67062000D03*
D10*
X195525000Y-54882000D03*
X195525000Y-55882000D03*
X195525000Y-56882000D03*
X195525000Y-57882000D03*
D11*
X198050000Y-53582000D03*
X198050000Y-59182000D03*
D12*
X190157945Y-92710000D03*
X190157945Y-90170000D03*
X190157945Y-87630000D03*
X190157945Y-85090000D03*
X190157945Y-82550000D03*
X190157945Y-80010000D03*
X174657945Y-80010000D03*
X174657945Y-82550000D03*
X174657945Y-85090000D03*
X174657945Y-87630000D03*
X174657945Y-90170000D03*
X174657945Y-92710000D03*
D13*
X197358000Y-81699500D03*
X197358000Y-83274500D03*
D14*
X195326000Y-86297000D03*
X195326000Y-87947000D03*
D13*
X197358000Y-90969500D03*
X197358000Y-92544500D03*
D14*
X195326000Y-90932000D03*
X195326000Y-92582000D03*
D15*
X190825000Y-108275000D03*
X190825000Y-101275000D03*
X183825000Y-101275000D03*
X183825000Y-108275000D03*
D13*
X197358000Y-86334500D03*
X197358000Y-87909500D03*
D16*
X169610000Y-73445000D03*
X171610000Y-73445000D03*
X173610000Y-73445000D03*
X175610000Y-73445000D03*
X177610000Y-73445000D03*
X179610000Y-73445000D03*
X181610000Y-73445000D03*
X183610000Y-73445000D03*
X183610000Y-55245000D03*
X181610000Y-55245000D03*
X179610000Y-55245000D03*
X177610000Y-55245000D03*
X175610000Y-55245000D03*
X173610000Y-55245000D03*
X171610000Y-55245000D03*
X169610000Y-55245000D03*
D10*
X195580000Y-70612000D03*
X195580000Y-71612000D03*
X195580000Y-72612000D03*
X195580000Y-73612000D03*
D11*
X198105000Y-69312000D03*
X198105000Y-74912000D03*
D14*
X195326000Y-81662000D03*
X195326000Y-83312000D03*
M02*
