G04 #@! TF.GenerationSoftware,KiCad,Pcbnew,7.0.5*
G04 #@! TF.CreationDate,2023-06-15T17:11:31+02:00*
G04 #@! TF.ProjectId,euroc_controller,6575726f-635f-4636-9f6e-74726f6c6c65,rev?*
G04 #@! TF.SameCoordinates,Original*
G04 #@! TF.FileFunction,Paste,Bot*
G04 #@! TF.FilePolarity,Positive*
%FSLAX46Y46*%
G04 Gerber Fmt 4.6, Leading zero omitted, Abs format (unit mm)*
G04 Created by KiCad (PCBNEW 7.0.5) date 2023-06-15 17:11:31*
%MOMM*%
%LPD*%
G01*
G04 APERTURE LIST*
G04 Aperture macros list*
%AMRoundRect*
0 Rectangle with rounded corners*
0 $1 Rounding radius*
0 $2 $3 $4 $5 $6 $7 $8 $9 X,Y pos of 4 corners*
0 Add a 4 corners polygon primitive as box body*
4,1,4,$2,$3,$4,$5,$6,$7,$8,$9,$2,$3,0*
0 Add four circle primitives for the rounded corners*
1,1,$1+$1,$2,$3*
1,1,$1+$1,$4,$5*
1,1,$1+$1,$6,$7*
1,1,$1+$1,$8,$9*
0 Add four rect primitives between the rounded corners*
20,1,$1+$1,$2,$3,$4,$5,0*
20,1,$1+$1,$4,$5,$6,$7,0*
20,1,$1+$1,$6,$7,$8,$9,0*
20,1,$1+$1,$8,$9,$2,$3,0*%
%AMFreePoly0*
4,1,13,0.750000,1.250000,1.250000,1.250000,1.250000,-1.250000,0.750000,-1.250000,0.750000,-2.300000,-0.750000,-2.300000,-0.750000,-1.250000,-1.250000,-1.250000,-1.250000,1.250000,-0.750000,1.250000,-0.750000,2.300000,0.750000,2.300000,0.750000,1.250000,0.750000,1.250000,$1*%
G04 Aperture macros list end*
%ADD10RoundRect,0.200000X0.275000X-0.200000X0.275000X0.200000X-0.275000X0.200000X-0.275000X-0.200000X0*%
%ADD11RoundRect,0.225000X0.250000X-0.225000X0.250000X0.225000X-0.250000X0.225000X-0.250000X-0.225000X0*%
%ADD12R,0.900000X0.800000*%
%ADD13RoundRect,0.200000X-0.275000X0.200000X-0.275000X-0.200000X0.275000X-0.200000X0.275000X0.200000X0*%
%ADD14RoundRect,0.150000X0.150000X-0.825000X0.150000X0.825000X-0.150000X0.825000X-0.150000X-0.825000X0*%
%ADD15RoundRect,0.087500X0.087500X-0.225000X0.087500X0.225000X-0.087500X0.225000X-0.087500X-0.225000X0*%
%ADD16RoundRect,0.087500X0.225000X-0.087500X0.225000X0.087500X-0.225000X0.087500X-0.225000X-0.087500X0*%
%ADD17RoundRect,0.200000X-0.200000X-0.275000X0.200000X-0.275000X0.200000X0.275000X-0.200000X0.275000X0*%
%ADD18RoundRect,0.225000X-0.225000X-0.250000X0.225000X-0.250000X0.225000X0.250000X-0.225000X0.250000X0*%
%ADD19RoundRect,0.250000X0.262500X0.450000X-0.262500X0.450000X-0.262500X-0.450000X0.262500X-0.450000X0*%
%ADD20RoundRect,0.250000X0.450000X-0.262500X0.450000X0.262500X-0.450000X0.262500X-0.450000X-0.262500X0*%
%ADD21RoundRect,0.225000X-0.017678X0.335876X-0.335876X0.017678X0.017678X-0.335876X0.335876X-0.017678X0*%
%ADD22RoundRect,0.218750X0.256250X-0.218750X0.256250X0.218750X-0.256250X0.218750X-0.256250X-0.218750X0*%
%ADD23RoundRect,0.250001X-0.462499X-1.074999X0.462499X-1.074999X0.462499X1.074999X-0.462499X1.074999X0*%
%ADD24RoundRect,0.218750X0.218750X0.256250X-0.218750X0.256250X-0.218750X-0.256250X0.218750X-0.256250X0*%
%ADD25RoundRect,0.150000X0.150000X-0.650000X0.150000X0.650000X-0.150000X0.650000X-0.150000X-0.650000X0*%
%ADD26RoundRect,0.225000X0.225000X0.250000X-0.225000X0.250000X-0.225000X-0.250000X0.225000X-0.250000X0*%
%ADD27RoundRect,0.200000X0.200000X0.275000X-0.200000X0.275000X-0.200000X-0.275000X0.200000X-0.275000X0*%
%ADD28RoundRect,0.218750X-0.256250X0.218750X-0.256250X-0.218750X0.256250X-0.218750X0.256250X0.218750X0*%
%ADD29RoundRect,0.225000X-0.250000X0.225000X-0.250000X-0.225000X0.250000X-0.225000X0.250000X0.225000X0*%
%ADD30RoundRect,0.150000X0.625000X-0.150000X0.625000X0.150000X-0.625000X0.150000X-0.625000X-0.150000X0*%
%ADD31RoundRect,0.250000X0.650000X-0.350000X0.650000X0.350000X-0.650000X0.350000X-0.650000X-0.350000X0*%
%ADD32RoundRect,0.225000X0.017678X-0.335876X0.335876X-0.017678X-0.017678X0.335876X-0.335876X0.017678X0*%
%ADD33RoundRect,0.075000X0.415425X0.521491X-0.521491X-0.415425X-0.415425X-0.521491X0.521491X0.415425X0*%
%ADD34RoundRect,0.075000X-0.415425X0.521491X-0.521491X0.415425X0.415425X-0.521491X0.521491X-0.415425X0*%
%ADD35RoundRect,0.050000X-0.650000X-0.200000X0.650000X-0.200000X0.650000X0.200000X-0.650000X0.200000X0*%
%ADD36RoundRect,0.050050X-0.299950X-0.124950X0.299950X-0.124950X0.299950X0.124950X-0.299950X0.124950X0*%
%ADD37FreePoly0,0.000000*%
%ADD38R,0.533400X1.460500*%
%ADD39RoundRect,0.225000X0.335876X0.017678X0.017678X0.335876X-0.335876X-0.017678X-0.017678X-0.335876X0*%
%ADD40RoundRect,0.150000X0.468458X-0.256326X-0.256326X0.468458X-0.468458X0.256326X0.256326X-0.468458X0*%
%ADD41RoundRect,0.150000X0.587500X0.150000X-0.587500X0.150000X-0.587500X-0.150000X0.587500X-0.150000X0*%
%ADD42R,0.550000X0.950000*%
%ADD43RoundRect,0.250000X-0.450000X0.262500X-0.450000X-0.262500X0.450000X-0.262500X0.450000X0.262500X0*%
%ADD44R,1.058000X0.600000*%
%ADD45R,1.160000X0.300000*%
G04 APERTURE END LIST*
D10*
X171704000Y-74168000D03*
X171704000Y-75818000D03*
D11*
X183134000Y-73660000D03*
X183134000Y-72110000D03*
D12*
X192272082Y-75328082D03*
X193672082Y-75328082D03*
X193672082Y-76428082D03*
X192272082Y-76428082D03*
D13*
X178816000Y-98969000D03*
X178816000Y-100619000D03*
D14*
X193421000Y-66229000D03*
X192151000Y-66229000D03*
X190881000Y-66229000D03*
X189611000Y-66229000D03*
X189611000Y-61279000D03*
X190881000Y-61279000D03*
X192151000Y-61279000D03*
X193421000Y-61279000D03*
D15*
X182614000Y-60598500D03*
X182114000Y-60598500D03*
X181614000Y-60598500D03*
X181114000Y-60598500D03*
D16*
X180951500Y-59936000D03*
X180951500Y-59436000D03*
X180951500Y-58936000D03*
D15*
X181114000Y-58273500D03*
X181614000Y-58273500D03*
X182114000Y-58273500D03*
X182614000Y-58273500D03*
D16*
X182776500Y-58936000D03*
X182776500Y-59436000D03*
X182776500Y-59936000D03*
D10*
X181610000Y-97536000D03*
X181610000Y-95886000D03*
D17*
X190882000Y-55372000D03*
X192532000Y-55372000D03*
D18*
X172186000Y-95631000D03*
X173736000Y-95631000D03*
D19*
X192833000Y-53340000D03*
X191008000Y-53340000D03*
D20*
X195834000Y-69643000D03*
X195834000Y-67818000D03*
D21*
X187024016Y-73833984D03*
X185928000Y-74930000D03*
D17*
X194983500Y-119888000D03*
X196633500Y-119888000D03*
D22*
X168656000Y-90475000D03*
X168656000Y-88900000D03*
D23*
X194216500Y-111760000D03*
X197191500Y-111760000D03*
D24*
X185166000Y-116840000D03*
X183591000Y-116840000D03*
D22*
X174498000Y-91986500D03*
X174498000Y-90411500D03*
D25*
X171577000Y-64052000D03*
X170307000Y-64052000D03*
X169037000Y-64052000D03*
X167767000Y-64052000D03*
X167767000Y-56852000D03*
X169037000Y-56852000D03*
X170307000Y-56852000D03*
X171577000Y-56852000D03*
D26*
X176810000Y-95631000D03*
X175260000Y-95631000D03*
D13*
X174244000Y-84328000D03*
X174244000Y-85978000D03*
D26*
X173000000Y-90424000D03*
X171450000Y-90424000D03*
D10*
X181610000Y-100647000D03*
X181610000Y-98997000D03*
D27*
X191008000Y-94742000D03*
X189358000Y-94742000D03*
D18*
X172186000Y-103886000D03*
X173736000Y-103886000D03*
D27*
X185203500Y-118364000D03*
X183553500Y-118364000D03*
D28*
X182118000Y-91897000D03*
X182118000Y-93472000D03*
D17*
X190882000Y-56896000D03*
X192532000Y-56896000D03*
D29*
X178816000Y-58446000D03*
X178816000Y-59996000D03*
D30*
X169481510Y-74827640D03*
X169481510Y-73827640D03*
X169481510Y-72827640D03*
X169481510Y-71827640D03*
X169481510Y-70827640D03*
X169481510Y-69827640D03*
D31*
X165606510Y-76127640D03*
X165606510Y-68527640D03*
D27*
X182181000Y-70104000D03*
X180531000Y-70104000D03*
D24*
X190551000Y-116840000D03*
X188976000Y-116840000D03*
D26*
X172746000Y-54864000D03*
X171196000Y-54864000D03*
D32*
X190673984Y-88980016D03*
X191770000Y-87884000D03*
D33*
X189212788Y-76686132D03*
X189566342Y-77039686D03*
X189919895Y-77393239D03*
X190273449Y-77746793D03*
X190627002Y-78100346D03*
X190980555Y-78453899D03*
X191334109Y-78807453D03*
X191687662Y-79161006D03*
X192041215Y-79514559D03*
X192394769Y-79868113D03*
X192748322Y-80221666D03*
X193101876Y-80575220D03*
D34*
X193101876Y-82572796D03*
X192748322Y-82926350D03*
X192394769Y-83279903D03*
X192041215Y-83633457D03*
X191687662Y-83987010D03*
X191334109Y-84340563D03*
X190980555Y-84694117D03*
X190627002Y-85047670D03*
X190273449Y-85401223D03*
X189919895Y-85754777D03*
X189566342Y-86108330D03*
X189212788Y-86461884D03*
D33*
X187215212Y-86461884D03*
X186861658Y-86108330D03*
X186508105Y-85754777D03*
X186154551Y-85401223D03*
X185800998Y-85047670D03*
X185447445Y-84694117D03*
X185093891Y-84340563D03*
X184740338Y-83987010D03*
X184386785Y-83633457D03*
X184033231Y-83279903D03*
X183679678Y-82926350D03*
X183326124Y-82572796D03*
D34*
X183326124Y-80575220D03*
X183679678Y-80221666D03*
X184033231Y-79868113D03*
X184386785Y-79514559D03*
X184740338Y-79161006D03*
X185093891Y-78807453D03*
X185447445Y-78453899D03*
X185800998Y-78100346D03*
X186154551Y-77746793D03*
X186508105Y-77393239D03*
X186861658Y-77039686D03*
X187215212Y-76686132D03*
D18*
X180060000Y-63246000D03*
X181610000Y-63246000D03*
D10*
X174244000Y-80390000D03*
X174244000Y-78740000D03*
D17*
X188938500Y-119888000D03*
X190588500Y-119888000D03*
D28*
X186690000Y-91897000D03*
X186690000Y-93472000D03*
X184404000Y-91871500D03*
X184404000Y-93446500D03*
D17*
X189358000Y-96266000D03*
X191008000Y-96266000D03*
D27*
X192532000Y-58928000D03*
X190882000Y-58928000D03*
D10*
X172974000Y-69976000D03*
X172974000Y-68326000D03*
D17*
X177292000Y-70104000D03*
X178942000Y-70104000D03*
D35*
X172437000Y-101901000D03*
D36*
X172087000Y-100926000D03*
X172087000Y-100276000D03*
X172087000Y-99626000D03*
X172087000Y-98976000D03*
X172087000Y-98326000D03*
D35*
X172437000Y-97601000D03*
X176437000Y-97601000D03*
D36*
X176787000Y-98326000D03*
X176787000Y-98976000D03*
X176787000Y-99626000D03*
X176787000Y-100276000D03*
X176787000Y-100926000D03*
D35*
X176437000Y-101901000D03*
D37*
X174437000Y-99756000D03*
D38*
X181610000Y-103124000D03*
X182880000Y-103124000D03*
X184150000Y-103124000D03*
X185420000Y-103124000D03*
X185420000Y-108572300D03*
X184150000Y-108572300D03*
X182880000Y-108572300D03*
X181610000Y-108572300D03*
X187706000Y-103124000D03*
X188976000Y-103124000D03*
X190246000Y-103124000D03*
X191516000Y-103124000D03*
X191516000Y-108572300D03*
X190246000Y-108572300D03*
X188976000Y-108572300D03*
X187706000Y-108572300D03*
D26*
X176784000Y-103886000D03*
X175234000Y-103886000D03*
D17*
X183553500Y-119888000D03*
X185203500Y-119888000D03*
D39*
X181650008Y-81574008D03*
X180553992Y-80477992D03*
D18*
X172186000Y-93726000D03*
X173736000Y-93726000D03*
D13*
X178816000Y-95834500D03*
X178816000Y-97484500D03*
D26*
X176810000Y-93726000D03*
X175260000Y-93726000D03*
D27*
X190588500Y-118364000D03*
X188938500Y-118364000D03*
D40*
X180546085Y-83698583D03*
X179874334Y-84370334D03*
X179202583Y-85042085D03*
X177593915Y-83433417D03*
X178265666Y-82761666D03*
X178937417Y-82089915D03*
D18*
X192278000Y-73533000D03*
X193828000Y-73533000D03*
D23*
X187996500Y-111760000D03*
X190971500Y-111760000D03*
D18*
X190728000Y-69088000D03*
X192278000Y-69088000D03*
D41*
X190597000Y-98110000D03*
X190597000Y-100010000D03*
X188722000Y-99060000D03*
D23*
X181900500Y-111760000D03*
X184875500Y-111760000D03*
D11*
X195580000Y-76467000D03*
X195580000Y-74917000D03*
D42*
X178947000Y-64770000D03*
X180197000Y-64770000D03*
X181447000Y-64770000D03*
X182697000Y-64770000D03*
X182697000Y-66920000D03*
X181447000Y-66920000D03*
X180197000Y-66920000D03*
X178947000Y-66920000D03*
D43*
X195834000Y-63246000D03*
X195834000Y-65071000D03*
D24*
X196596000Y-116840000D03*
X195021000Y-116840000D03*
D44*
X171471000Y-85750000D03*
X171471000Y-84950000D03*
D45*
X171420000Y-83800000D03*
X171420000Y-82800000D03*
X171420000Y-82300000D03*
X171420000Y-81300000D03*
D44*
X171471000Y-80150000D03*
X171471000Y-79350000D03*
X171471000Y-79350000D03*
X171471000Y-80150000D03*
D45*
X171420000Y-80800000D03*
X171420000Y-81800000D03*
X171420000Y-83300000D03*
X171420000Y-84300000D03*
D44*
X171471000Y-84950000D03*
X171471000Y-85750000D03*
D27*
X196633500Y-118364000D03*
X194983500Y-118364000D03*
D38*
X193802000Y-103124000D03*
X195072000Y-103124000D03*
X196342000Y-103124000D03*
X197612000Y-103124000D03*
X197612000Y-108572300D03*
X196342000Y-108572300D03*
X195072000Y-108572300D03*
X193802000Y-108572300D03*
M02*
