G04 #@! TF.GenerationSoftware,KiCad,Pcbnew,7.0.5*
G04 #@! TF.CreationDate,2023-06-15T17:11:31+02:00*
G04 #@! TF.ProjectId,euroc_controller,6575726f-635f-4636-9f6e-74726f6c6c65,rev?*
G04 #@! TF.SameCoordinates,Original*
G04 #@! TF.FileFunction,Copper,L3,Inr*
G04 #@! TF.FilePolarity,Positive*
%FSLAX46Y46*%
G04 Gerber Fmt 4.6, Leading zero omitted, Abs format (unit mm)*
G04 Created by KiCad (PCBNEW 7.0.5) date 2023-06-15 17:11:31*
%MOMM*%
%LPD*%
G01*
G04 APERTURE LIST*
G04 #@! TA.AperFunction,ComponentPad*
%ADD10C,0.700000*%
G04 #@! TD*
G04 #@! TA.AperFunction,ComponentPad*
%ADD11C,4.400000*%
G04 #@! TD*
G04 #@! TA.AperFunction,ComponentPad*
%ADD12C,1.400000*%
G04 #@! TD*
G04 #@! TA.AperFunction,ComponentPad*
%ADD13R,3.500000X3.500000*%
G04 #@! TD*
G04 #@! TA.AperFunction,ComponentPad*
%ADD14C,3.500000*%
G04 #@! TD*
G04 #@! TA.AperFunction,ComponentPad*
%ADD15C,2.500000*%
G04 #@! TD*
G04 #@! TA.AperFunction,ComponentPad*
%ADD16R,2.100000X2.100000*%
G04 #@! TD*
G04 #@! TA.AperFunction,ComponentPad*
%ADD17C,2.100000*%
G04 #@! TD*
G04 #@! TA.AperFunction,ComponentPad*
%ADD18O,1.700000X0.900000*%
G04 #@! TD*
G04 #@! TA.AperFunction,ComponentPad*
%ADD19O,2.000000X0.900000*%
G04 #@! TD*
G04 #@! TA.AperFunction,ViaPad*
%ADD20C,0.600000*%
G04 #@! TD*
G04 #@! TA.AperFunction,ViaPad*
%ADD21C,0.800000*%
G04 #@! TD*
G04 APERTURE END LIST*
D10*
X165714000Y-97536000D03*
X166197274Y-96369274D03*
X166197274Y-98702726D03*
X167364000Y-95886000D03*
D11*
X167364000Y-97536000D03*
D10*
X167364000Y-99186000D03*
X168530726Y-96369274D03*
X168530726Y-98702726D03*
X169014000Y-97536000D03*
X194714000Y-97536000D03*
X195197274Y-96369274D03*
X195197274Y-98702726D03*
X196364000Y-95886000D03*
D11*
X196364000Y-97536000D03*
D10*
X196364000Y-99186000D03*
X197530726Y-96369274D03*
X197530726Y-98702726D03*
X198014000Y-97536000D03*
D12*
X177800000Y-118110000D03*
X166800000Y-118110000D03*
D13*
X169800000Y-108110000D03*
D14*
X174800000Y-108110000D03*
D10*
X194714000Y-47536000D03*
X195197274Y-46369274D03*
X195197274Y-48702726D03*
X196364000Y-45886000D03*
D11*
X196364000Y-47536000D03*
D10*
X196364000Y-49186000D03*
X197530726Y-46369274D03*
X197530726Y-48702726D03*
X198014000Y-47536000D03*
D15*
X179324000Y-46522000D03*
X179324000Y-51602000D03*
X184404000Y-46522000D03*
X184404000Y-51602000D03*
D16*
X196088000Y-114808000D03*
D17*
X193548000Y-114808000D03*
X191008000Y-114808000D03*
X188468000Y-114808000D03*
X185928000Y-114808000D03*
X183388000Y-114808000D03*
D10*
X165714000Y-47536000D03*
X166197274Y-46369274D03*
X166197274Y-48702726D03*
X167364000Y-45886000D03*
D11*
X167364000Y-47536000D03*
D10*
X167364000Y-49186000D03*
X168530726Y-46369274D03*
X168530726Y-48702726D03*
X169014000Y-47536000D03*
D18*
X166670000Y-86870000D03*
D19*
X170840000Y-86870000D03*
D18*
X166670000Y-78230000D03*
D19*
X170840000Y-78230000D03*
D20*
X185420000Y-70612000D03*
X189738000Y-88646000D03*
D21*
X194310000Y-63754000D03*
X194280500Y-71628000D03*
D20*
X179610000Y-55245000D03*
X197358000Y-85598000D03*
X184404000Y-94234000D03*
X180340000Y-84836000D03*
X168148000Y-73660000D03*
X191770000Y-94742000D03*
X192425059Y-77860568D03*
X182372000Y-84074000D03*
X183610000Y-55245000D03*
X183642000Y-103124000D03*
X183134000Y-89916000D03*
X170434000Y-53594000D03*
D21*
X174498000Y-99822000D03*
D20*
X192278000Y-67564000D03*
X182118000Y-94234000D03*
X174498000Y-95631000D03*
X187960000Y-81026000D03*
X189738000Y-103124000D03*
X186690000Y-94234000D03*
X192278000Y-76454000D03*
X178816000Y-60960000D03*
D21*
X198120000Y-69342000D03*
D20*
X186944000Y-75184000D03*
D21*
X198120000Y-67056000D03*
X198120000Y-53594000D03*
X165608000Y-68580000D03*
D20*
X191262000Y-99314000D03*
D21*
X174498000Y-100838000D03*
D20*
X174498000Y-93726000D03*
X195834000Y-103124000D03*
D21*
X174498000Y-98806000D03*
D20*
X197358000Y-80772000D03*
X182626000Y-95758000D03*
D21*
X174498000Y-101854000D03*
D20*
X182626000Y-63246000D03*
D21*
X198120000Y-61468000D03*
X165608000Y-76200000D03*
D20*
X197358000Y-90170000D03*
D21*
X198120000Y-59182000D03*
X198120000Y-74930000D03*
X174498000Y-97790000D03*
D20*
X179832000Y-79756000D03*
D21*
X196850000Y-55880000D03*
D20*
X167640000Y-65278000D03*
D21*
X174498000Y-103886000D03*
X170434000Y-90424000D03*
D20*
X168656000Y-91440000D03*
D21*
X174498000Y-88900000D03*
D20*
X183388000Y-75184000D03*
X183134000Y-70104000D03*
X168148000Y-74930000D03*
X184150000Y-58166000D03*
X188214000Y-75692000D03*
X182372000Y-82296000D03*
X190246000Y-81534000D03*
X190754000Y-67564000D03*
X169164000Y-65278000D03*
X172466000Y-53431500D03*
X188468000Y-84836000D03*
X177292000Y-69088000D03*
X195326000Y-85598000D03*
D21*
X195834000Y-66802000D03*
D20*
X179070000Y-63246000D03*
X179832000Y-60960000D03*
D21*
X191008000Y-52070000D03*
D20*
X192963373Y-78451687D03*
X171958000Y-68326000D03*
X192532000Y-110744000D03*
D21*
X175514000Y-88900000D03*
D20*
X178816000Y-57658000D03*
X189230000Y-100584000D03*
X194056000Y-81788000D03*
X194310000Y-89408000D03*
X184150000Y-60706000D03*
X184404000Y-59182000D03*
X190754000Y-62738000D03*
X192278000Y-62738000D03*
X191262000Y-74168000D03*
X194310000Y-78994000D03*
X194310000Y-77978000D03*
X193710500Y-85090131D03*
X185166000Y-82042000D03*
X178562000Y-77886500D03*
X188214000Y-78486000D03*
X179324000Y-76454000D03*
X196850000Y-56896000D03*
X196433500Y-60198000D03*
X194310000Y-57912000D03*
X176784000Y-53594000D03*
X175610000Y-55245000D03*
X169164000Y-52324000D03*
X175514000Y-58166000D03*
X174244000Y-76708000D03*
X180594000Y-77978000D03*
X171450000Y-65532000D03*
X170688000Y-68072000D03*
X189738000Y-73152000D03*
X193802000Y-101854000D03*
X192532000Y-86268500D03*
X185420000Y-97028000D03*
X197903500Y-119126000D03*
X198120000Y-79502000D03*
X196088000Y-78486000D03*
X183388000Y-96774000D03*
X191770000Y-119126000D03*
X180340000Y-92964000D03*
X186690000Y-119126000D03*
X186944000Y-83566000D03*
X187706000Y-82550000D03*
X187198000Y-79248000D03*
X180086000Y-77216000D03*
D21*
X195580000Y-54102000D03*
X194564000Y-69596000D03*
X195580000Y-61976000D03*
G04 #@! TA.AperFunction,Conductor*
G36*
X178492979Y-44770185D02*
G01*
X178538734Y-44822989D01*
X178548678Y-44892147D01*
X178519653Y-44955703D01*
X178479742Y-44986220D01*
X178446550Y-45002204D01*
X178446546Y-45002206D01*
X178274832Y-45119278D01*
X178925390Y-45769838D01*
X178806569Y-45841331D01*
X178672342Y-45968477D01*
X178569138Y-46120691D01*
X177921874Y-45473428D01*
X177874027Y-45533426D01*
X177742883Y-45760573D01*
X177647058Y-46004729D01*
X177588693Y-46260449D01*
X177588692Y-46260454D01*
X177569093Y-46521995D01*
X177569093Y-46522004D01*
X177588692Y-46783545D01*
X177588693Y-46783550D01*
X177647058Y-47039270D01*
X177742883Y-47283426D01*
X177742882Y-47283426D01*
X177874030Y-47510577D01*
X177921873Y-47570571D01*
X178572766Y-46919678D01*
X178616316Y-47001822D01*
X178736009Y-47142735D01*
X178883195Y-47254623D01*
X178925402Y-47274150D01*
X178274831Y-47924720D01*
X178446546Y-48041793D01*
X178446550Y-48041795D01*
X178682854Y-48155594D01*
X178682858Y-48155595D01*
X178933494Y-48232907D01*
X178933500Y-48232909D01*
X179192848Y-48271999D01*
X179192857Y-48272000D01*
X179455143Y-48272000D01*
X179455151Y-48271999D01*
X179714499Y-48232909D01*
X179714505Y-48232907D01*
X179965143Y-48155595D01*
X180201445Y-48041798D01*
X180201456Y-48041791D01*
X180373167Y-47924720D01*
X179722609Y-47274161D01*
X179841431Y-47202669D01*
X179975658Y-47075523D01*
X180078861Y-46923308D01*
X180726124Y-47570571D01*
X180773974Y-47510570D01*
X180905116Y-47283426D01*
X181000941Y-47039270D01*
X181059306Y-46783550D01*
X181059307Y-46783545D01*
X181078907Y-46522004D01*
X181078907Y-46521995D01*
X181059307Y-46260454D01*
X181059306Y-46260449D01*
X181000941Y-46004729D01*
X180905116Y-45760573D01*
X180905117Y-45760573D01*
X180773971Y-45533426D01*
X180726125Y-45473427D01*
X180075232Y-46124319D01*
X180031684Y-46042178D01*
X179911991Y-45901265D01*
X179764805Y-45789377D01*
X179722596Y-45769848D01*
X180373167Y-45119278D01*
X180201449Y-45002203D01*
X180168259Y-44986220D01*
X180116400Y-44939397D01*
X180098087Y-44871970D01*
X180119135Y-44805346D01*
X180172861Y-44760678D01*
X180222061Y-44750500D01*
X183505940Y-44750500D01*
X183572979Y-44770185D01*
X183618734Y-44822989D01*
X183628678Y-44892147D01*
X183599653Y-44955703D01*
X183559742Y-44986220D01*
X183526550Y-45002204D01*
X183526546Y-45002206D01*
X183354832Y-45119278D01*
X184005390Y-45769838D01*
X183886569Y-45841331D01*
X183752342Y-45968477D01*
X183649138Y-46120691D01*
X183001874Y-45473428D01*
X182954027Y-45533426D01*
X182822883Y-45760573D01*
X182727058Y-46004729D01*
X182668693Y-46260449D01*
X182668692Y-46260454D01*
X182649093Y-46521995D01*
X182649093Y-46522004D01*
X182668692Y-46783545D01*
X182668693Y-46783550D01*
X182727058Y-47039270D01*
X182822883Y-47283426D01*
X182822882Y-47283426D01*
X182954030Y-47510577D01*
X183001873Y-47570571D01*
X183652766Y-46919678D01*
X183696316Y-47001822D01*
X183816009Y-47142735D01*
X183963195Y-47254623D01*
X184005402Y-47274150D01*
X183354831Y-47924720D01*
X183526546Y-48041793D01*
X183526550Y-48041795D01*
X183762854Y-48155594D01*
X183762858Y-48155595D01*
X184013494Y-48232907D01*
X184013500Y-48232909D01*
X184272848Y-48271999D01*
X184272857Y-48272000D01*
X184535143Y-48272000D01*
X184535151Y-48271999D01*
X184794499Y-48232909D01*
X184794505Y-48232907D01*
X185045143Y-48155595D01*
X185281445Y-48041798D01*
X185281456Y-48041791D01*
X185453167Y-47924720D01*
X184802609Y-47274161D01*
X184921431Y-47202669D01*
X185055658Y-47075523D01*
X185158861Y-46923308D01*
X185806124Y-47570571D01*
X185853974Y-47510570D01*
X185985116Y-47283426D01*
X186080941Y-47039270D01*
X186139306Y-46783550D01*
X186139307Y-46783545D01*
X186158907Y-46522004D01*
X186158907Y-46521995D01*
X186139307Y-46260454D01*
X186139306Y-46260449D01*
X186080941Y-46004729D01*
X185985116Y-45760573D01*
X185985117Y-45760573D01*
X185853971Y-45533426D01*
X185806125Y-45473427D01*
X185155232Y-46124319D01*
X185111684Y-46042178D01*
X184991991Y-45901265D01*
X184844805Y-45789377D01*
X184802596Y-45769848D01*
X185453167Y-45119278D01*
X185281449Y-45002203D01*
X185248259Y-44986220D01*
X185196400Y-44939397D01*
X185178087Y-44871970D01*
X185199135Y-44805346D01*
X185252861Y-44760678D01*
X185302061Y-44750500D01*
X195412714Y-44750500D01*
X195479753Y-44770185D01*
X195525508Y-44822989D01*
X195535452Y-44892147D01*
X195506427Y-44955703D01*
X195449604Y-44992885D01*
X195404835Y-45006835D01*
X195404824Y-45006839D01*
X195106958Y-45140897D01*
X195106956Y-45140898D01*
X194827423Y-45309881D01*
X194639030Y-45457476D01*
X194639030Y-45457477D01*
X195780693Y-46599140D01*
X195766590Y-46606411D01*
X195601460Y-46736271D01*
X195463890Y-46895035D01*
X195429334Y-46954887D01*
X194889370Y-46414923D01*
X194997274Y-46414923D01*
X195036887Y-46497179D01*
X195108266Y-46554101D01*
X195174742Y-46569274D01*
X195219806Y-46569274D01*
X195286282Y-46554101D01*
X195357661Y-46497179D01*
X195397274Y-46414923D01*
X195397274Y-46323625D01*
X195357661Y-46241369D01*
X195286282Y-46184447D01*
X195219806Y-46169274D01*
X195174742Y-46169274D01*
X195108266Y-46184447D01*
X195036887Y-46241369D01*
X194997274Y-46323625D01*
X194997274Y-46414923D01*
X194889370Y-46414923D01*
X194285477Y-45811030D01*
X194285476Y-45811030D01*
X194137881Y-45999423D01*
X193968898Y-46278956D01*
X193968897Y-46278958D01*
X193834839Y-46576824D01*
X193834835Y-46576835D01*
X193737667Y-46888658D01*
X193678786Y-47209961D01*
X193659065Y-47536000D01*
X193678786Y-47862038D01*
X193737667Y-48183341D01*
X193834835Y-48495164D01*
X193834839Y-48495175D01*
X193968897Y-48793041D01*
X193968898Y-48793043D01*
X194137887Y-49072586D01*
X194285477Y-49260968D01*
X194798070Y-48748375D01*
X194997274Y-48748375D01*
X195036887Y-48830631D01*
X195108266Y-48887553D01*
X195174742Y-48902726D01*
X195219806Y-48902726D01*
X195286282Y-48887553D01*
X195357661Y-48830631D01*
X195397274Y-48748375D01*
X195397274Y-48657077D01*
X195357661Y-48574821D01*
X195286282Y-48517899D01*
X195219806Y-48502726D01*
X195174742Y-48502726D01*
X195108266Y-48517899D01*
X195036887Y-48574821D01*
X194997274Y-48657077D01*
X194997274Y-48748375D01*
X194798070Y-48748375D01*
X195428211Y-48118235D01*
X195528894Y-48259624D01*
X195680932Y-48404592D01*
X195783222Y-48470330D01*
X194639030Y-49614521D01*
X194639030Y-49614522D01*
X194827414Y-49762112D01*
X194827423Y-49762118D01*
X195106956Y-49931101D01*
X195106958Y-49931102D01*
X195404824Y-50065160D01*
X195404835Y-50065164D01*
X195716658Y-50162332D01*
X196037961Y-50221213D01*
X196364000Y-50240934D01*
X196690038Y-50221213D01*
X197011341Y-50162332D01*
X197323164Y-50065164D01*
X197323175Y-50065160D01*
X197621041Y-49931102D01*
X197621043Y-49931101D01*
X197900576Y-49762118D01*
X197900584Y-49762112D01*
X198088968Y-49614522D01*
X198088968Y-49614521D01*
X197222822Y-48748375D01*
X197330726Y-48748375D01*
X197370339Y-48830631D01*
X197441718Y-48887553D01*
X197508194Y-48902726D01*
X197553258Y-48902726D01*
X197619734Y-48887553D01*
X197691113Y-48830631D01*
X197730726Y-48748375D01*
X197730726Y-48657077D01*
X197691113Y-48574821D01*
X197619734Y-48517899D01*
X197553258Y-48502726D01*
X197508194Y-48502726D01*
X197441718Y-48517899D01*
X197370339Y-48574821D01*
X197330726Y-48657077D01*
X197330726Y-48748375D01*
X197222822Y-48748375D01*
X196947306Y-48472859D01*
X196961410Y-48465589D01*
X197126540Y-48335729D01*
X197264110Y-48176965D01*
X197298665Y-48117112D01*
X198442521Y-49260968D01*
X198442522Y-49260968D01*
X198590112Y-49072584D01*
X198590118Y-49072576D01*
X198759101Y-48793043D01*
X198759102Y-48793041D01*
X198852424Y-48585688D01*
X198897888Y-48532634D01*
X198964818Y-48512581D01*
X199031965Y-48531897D01*
X199078010Y-48584448D01*
X199089500Y-48636579D01*
X199089500Y-79096712D01*
X199069815Y-79163751D01*
X199017011Y-79209506D01*
X198947853Y-79219450D01*
X198884297Y-79190425D01*
X198856997Y-79154723D01*
X198856748Y-79154881D01*
X198855042Y-79152166D01*
X198853781Y-79150517D01*
X198853044Y-79148988D01*
X198853043Y-79148985D01*
X198756111Y-78994719D01*
X198627281Y-78865889D01*
X198584511Y-78839015D01*
X198473017Y-78768958D01*
X198473016Y-78768957D01*
X198473015Y-78768957D01*
X198407605Y-78746069D01*
X198301046Y-78708782D01*
X198301041Y-78708781D01*
X198120004Y-78688384D01*
X198119996Y-78688384D01*
X197938958Y-78708781D01*
X197938953Y-78708782D01*
X197766982Y-78768958D01*
X197612718Y-78865889D01*
X197483889Y-78994718D01*
X197386958Y-79148982D01*
X197326782Y-79320953D01*
X197326781Y-79320958D01*
X197306384Y-79501996D01*
X197306384Y-79502003D01*
X197326781Y-79683041D01*
X197326782Y-79683046D01*
X197363234Y-79787218D01*
X197383832Y-79846085D01*
X197386958Y-79855017D01*
X197405239Y-79884111D01*
X197483889Y-80009281D01*
X197612719Y-80138111D01*
X197766985Y-80235043D01*
X197938952Y-80295216D01*
X197938953Y-80295217D01*
X197938958Y-80295218D01*
X198119996Y-80315616D01*
X198120000Y-80315616D01*
X198120004Y-80315616D01*
X198301041Y-80295218D01*
X198301044Y-80295217D01*
X198301047Y-80295217D01*
X198473015Y-80235043D01*
X198627281Y-80138111D01*
X198756111Y-80009281D01*
X198853043Y-79855015D01*
X198853042Y-79855015D01*
X198853045Y-79855012D01*
X198853779Y-79853488D01*
X198854514Y-79852672D01*
X198856748Y-79849119D01*
X198857370Y-79849510D01*
X198900600Y-79801627D01*
X198968027Y-79783313D01*
X199034651Y-79804359D01*
X199079321Y-79858085D01*
X199089500Y-79907287D01*
X199089500Y-96435420D01*
X199069815Y-96502459D01*
X199017011Y-96548214D01*
X198947853Y-96558158D01*
X198884297Y-96529133D01*
X198852424Y-96486311D01*
X198759102Y-96278958D01*
X198759101Y-96278956D01*
X198590118Y-95999423D01*
X198590112Y-95999414D01*
X198442521Y-95811030D01*
X197299788Y-96953763D01*
X197199106Y-96812376D01*
X197047068Y-96667408D01*
X196944777Y-96601669D01*
X197131523Y-96414923D01*
X197330726Y-96414923D01*
X197370339Y-96497179D01*
X197441718Y-96554101D01*
X197508194Y-96569274D01*
X197553258Y-96569274D01*
X197619734Y-96554101D01*
X197691113Y-96497179D01*
X197730726Y-96414923D01*
X197730726Y-96323625D01*
X197691113Y-96241369D01*
X197619734Y-96184447D01*
X197553258Y-96169274D01*
X197508194Y-96169274D01*
X197441718Y-96184447D01*
X197370339Y-96241369D01*
X197330726Y-96323625D01*
X197330726Y-96414923D01*
X197131523Y-96414923D01*
X198088968Y-95457477D01*
X198088968Y-95457476D01*
X197900586Y-95309887D01*
X197621043Y-95140898D01*
X197621041Y-95140897D01*
X197323175Y-95006839D01*
X197323164Y-95006835D01*
X197011341Y-94909667D01*
X196690038Y-94850786D01*
X196364000Y-94831065D01*
X196037961Y-94850786D01*
X195716658Y-94909667D01*
X195404835Y-95006835D01*
X195404824Y-95006839D01*
X195106958Y-95140897D01*
X195106956Y-95140898D01*
X194827423Y-95309881D01*
X194639030Y-95457476D01*
X194639030Y-95457477D01*
X195780693Y-96599140D01*
X195766590Y-96606411D01*
X195601460Y-96736271D01*
X195463890Y-96895035D01*
X195429334Y-96954887D01*
X194889370Y-96414923D01*
X194997274Y-96414923D01*
X195036887Y-96497179D01*
X195108266Y-96554101D01*
X195174742Y-96569274D01*
X195219806Y-96569274D01*
X195286282Y-96554101D01*
X195357661Y-96497179D01*
X195397274Y-96414923D01*
X195397274Y-96323625D01*
X195357661Y-96241369D01*
X195286282Y-96184447D01*
X195219806Y-96169274D01*
X195174742Y-96169274D01*
X195108266Y-96184447D01*
X195036887Y-96241369D01*
X194997274Y-96323625D01*
X194997274Y-96414923D01*
X194889370Y-96414923D01*
X194285477Y-95811030D01*
X194285476Y-95811030D01*
X194137881Y-95999423D01*
X193968898Y-96278956D01*
X193968897Y-96278958D01*
X193834839Y-96576824D01*
X193834835Y-96576835D01*
X193737667Y-96888658D01*
X193678786Y-97209961D01*
X193659065Y-97536000D01*
X193678786Y-97862038D01*
X193737667Y-98183341D01*
X193834835Y-98495164D01*
X193834839Y-98495175D01*
X193968897Y-98793041D01*
X193968898Y-98793043D01*
X194137887Y-99072586D01*
X194285477Y-99260968D01*
X194798070Y-98748375D01*
X194997274Y-98748375D01*
X195036887Y-98830631D01*
X195108266Y-98887553D01*
X195174742Y-98902726D01*
X195219806Y-98902726D01*
X195286282Y-98887553D01*
X195357661Y-98830631D01*
X195397274Y-98748375D01*
X195397274Y-98657077D01*
X195357661Y-98574821D01*
X195286282Y-98517899D01*
X195219806Y-98502726D01*
X195174742Y-98502726D01*
X195108266Y-98517899D01*
X195036887Y-98574821D01*
X194997274Y-98657077D01*
X194997274Y-98748375D01*
X194798070Y-98748375D01*
X195428211Y-98118235D01*
X195528894Y-98259624D01*
X195680932Y-98404592D01*
X195783222Y-98470330D01*
X194639030Y-99614521D01*
X194639030Y-99614522D01*
X194827414Y-99762112D01*
X194827423Y-99762118D01*
X195106956Y-99931101D01*
X195106958Y-99931102D01*
X195404824Y-100065160D01*
X195404835Y-100065164D01*
X195716658Y-100162332D01*
X196037961Y-100221213D01*
X196364000Y-100240934D01*
X196690038Y-100221213D01*
X197011341Y-100162332D01*
X197323164Y-100065164D01*
X197323175Y-100065160D01*
X197621041Y-99931102D01*
X197621043Y-99931101D01*
X197900576Y-99762118D01*
X197900584Y-99762112D01*
X198088968Y-99614522D01*
X198088968Y-99614521D01*
X197222822Y-98748375D01*
X197330726Y-98748375D01*
X197370339Y-98830631D01*
X197441718Y-98887553D01*
X197508194Y-98902726D01*
X197553258Y-98902726D01*
X197619734Y-98887553D01*
X197691113Y-98830631D01*
X197730726Y-98748375D01*
X197730726Y-98657077D01*
X197691113Y-98574821D01*
X197619734Y-98517899D01*
X197553258Y-98502726D01*
X197508194Y-98502726D01*
X197441718Y-98517899D01*
X197370339Y-98574821D01*
X197330726Y-98657077D01*
X197330726Y-98748375D01*
X197222822Y-98748375D01*
X196947306Y-98472859D01*
X196961410Y-98465589D01*
X197126540Y-98335729D01*
X197264110Y-98176965D01*
X197298665Y-98117112D01*
X198442521Y-99260968D01*
X198442522Y-99260968D01*
X198590112Y-99072584D01*
X198590118Y-99072576D01*
X198759101Y-98793043D01*
X198759102Y-98793041D01*
X198852424Y-98585688D01*
X198897888Y-98532634D01*
X198964818Y-98512581D01*
X199031965Y-98531897D01*
X199078010Y-98584448D01*
X199089500Y-98636579D01*
X199089500Y-118410258D01*
X199089402Y-118413735D01*
X199072721Y-118710770D01*
X199071942Y-118717684D01*
X199022401Y-119009257D01*
X199020853Y-119016040D01*
X198949345Y-119264251D01*
X198911871Y-119323222D01*
X198848464Y-119352570D01*
X198779256Y-119342980D01*
X198726219Y-119297495D01*
X198706193Y-119230557D01*
X198706971Y-119216040D01*
X198717116Y-119126002D01*
X198717116Y-119125996D01*
X198696718Y-118944958D01*
X198696717Y-118944953D01*
X198677410Y-118889778D01*
X198636543Y-118772985D01*
X198539611Y-118618719D01*
X198410781Y-118489889D01*
X198286822Y-118412000D01*
X198256517Y-118392958D01*
X198256516Y-118392957D01*
X198256515Y-118392957D01*
X198174915Y-118364404D01*
X198084546Y-118332782D01*
X198084541Y-118332781D01*
X197903504Y-118312384D01*
X197903496Y-118312384D01*
X197722458Y-118332781D01*
X197722453Y-118332782D01*
X197550482Y-118392958D01*
X197396218Y-118489889D01*
X197267389Y-118618718D01*
X197170458Y-118772982D01*
X197110282Y-118944953D01*
X197110281Y-118944958D01*
X197089884Y-119125996D01*
X197089884Y-119126003D01*
X197110281Y-119307041D01*
X197110282Y-119307046D01*
X197122856Y-119342980D01*
X197170457Y-119479015D01*
X197267389Y-119633281D01*
X197396219Y-119762111D01*
X197550485Y-119859043D01*
X197703120Y-119912452D01*
X197722453Y-119919217D01*
X197722458Y-119919218D01*
X197903496Y-119939616D01*
X197903500Y-119939616D01*
X197903504Y-119939616D01*
X198084541Y-119919218D01*
X198084544Y-119919217D01*
X198084547Y-119919217D01*
X198256515Y-119859043D01*
X198410781Y-119762111D01*
X198488409Y-119684482D01*
X198549728Y-119651000D01*
X198619420Y-119655984D01*
X198675354Y-119697855D01*
X198699771Y-119763319D01*
X198684920Y-119831592D01*
X198684613Y-119832150D01*
X198677415Y-119845172D01*
X198673714Y-119851062D01*
X198502570Y-120092268D01*
X198498232Y-120097708D01*
X198301156Y-120318236D01*
X198296236Y-120323156D01*
X198075708Y-120520232D01*
X198070268Y-120524570D01*
X197829062Y-120695715D01*
X197823170Y-120699417D01*
X197564317Y-120842480D01*
X197558048Y-120845499D01*
X197284809Y-120958677D01*
X197278242Y-120960976D01*
X196994041Y-121042853D01*
X196987257Y-121044401D01*
X196695684Y-121093942D01*
X196688770Y-121094721D01*
X196391735Y-121111402D01*
X196388258Y-121111500D01*
X167339742Y-121111500D01*
X167336265Y-121111402D01*
X167039229Y-121094721D01*
X167032315Y-121093942D01*
X166740742Y-121044401D01*
X166733958Y-121042853D01*
X166449757Y-120960976D01*
X166443190Y-120958677D01*
X166208282Y-120861376D01*
X166169947Y-120845497D01*
X166163682Y-120842480D01*
X165904829Y-120699417D01*
X165898937Y-120695715D01*
X165657731Y-120524570D01*
X165652291Y-120520232D01*
X165431763Y-120323156D01*
X165426843Y-120318236D01*
X165229767Y-120097708D01*
X165225429Y-120092268D01*
X165054284Y-119851062D01*
X165050582Y-119845170D01*
X164943268Y-119651000D01*
X164907515Y-119586309D01*
X164904505Y-119580060D01*
X164847911Y-119443428D01*
X164791322Y-119306809D01*
X164789023Y-119300242D01*
X164707146Y-119016041D01*
X164705598Y-119009257D01*
X164691965Y-118929020D01*
X164656055Y-118717670D01*
X164655279Y-118710780D01*
X164644841Y-118524910D01*
X164638598Y-118413735D01*
X164638500Y-118410258D01*
X164638500Y-118110001D01*
X165586884Y-118110001D01*
X165605313Y-118320649D01*
X165605315Y-118320660D01*
X165660041Y-118524902D01*
X165660043Y-118524906D01*
X165660044Y-118524910D01*
X165703788Y-118618719D01*
X165749410Y-118716556D01*
X165749411Y-118716558D01*
X165870700Y-118889778D01*
X166020221Y-119039299D01*
X166020224Y-119039301D01*
X166193442Y-119160589D01*
X166385090Y-119249956D01*
X166589345Y-119304686D01*
X166739812Y-119317850D01*
X166799998Y-119323116D01*
X166800000Y-119323116D01*
X166800002Y-119323116D01*
X166852663Y-119318508D01*
X167010655Y-119304686D01*
X167214910Y-119249956D01*
X167406558Y-119160589D01*
X167579776Y-119039301D01*
X167729301Y-118889776D01*
X167850589Y-118716558D01*
X167939956Y-118524910D01*
X167994686Y-118320655D01*
X168013116Y-118110001D01*
X176586884Y-118110001D01*
X176605313Y-118320649D01*
X176605315Y-118320660D01*
X176660041Y-118524902D01*
X176660043Y-118524906D01*
X176660044Y-118524910D01*
X176703788Y-118618719D01*
X176749410Y-118716556D01*
X176749411Y-118716558D01*
X176870700Y-118889778D01*
X177020221Y-119039299D01*
X177020224Y-119039301D01*
X177193442Y-119160589D01*
X177385090Y-119249956D01*
X177589345Y-119304686D01*
X177739812Y-119317850D01*
X177799998Y-119323116D01*
X177800000Y-119323116D01*
X177800002Y-119323116D01*
X177852663Y-119318508D01*
X178010655Y-119304686D01*
X178214910Y-119249956D01*
X178406558Y-119160589D01*
X178455952Y-119126003D01*
X185876384Y-119126003D01*
X185896781Y-119307041D01*
X185896782Y-119307046D01*
X185909356Y-119342980D01*
X185956957Y-119479015D01*
X186053889Y-119633281D01*
X186182719Y-119762111D01*
X186336985Y-119859043D01*
X186489620Y-119912452D01*
X186508953Y-119919217D01*
X186508958Y-119919218D01*
X186689996Y-119939616D01*
X186690000Y-119939616D01*
X186690004Y-119939616D01*
X186871041Y-119919218D01*
X186871044Y-119919217D01*
X186871047Y-119919217D01*
X187043015Y-119859043D01*
X187197281Y-119762111D01*
X187326111Y-119633281D01*
X187423043Y-119479015D01*
X187483217Y-119307047D01*
X187483483Y-119304686D01*
X187503616Y-119126003D01*
X190956384Y-119126003D01*
X190976781Y-119307041D01*
X190976782Y-119307046D01*
X190989356Y-119342980D01*
X191036957Y-119479015D01*
X191133889Y-119633281D01*
X191262719Y-119762111D01*
X191416985Y-119859043D01*
X191569620Y-119912452D01*
X191588953Y-119919217D01*
X191588958Y-119919218D01*
X191769996Y-119939616D01*
X191770000Y-119939616D01*
X191770004Y-119939616D01*
X191951041Y-119919218D01*
X191951044Y-119919217D01*
X191951047Y-119919217D01*
X192123015Y-119859043D01*
X192277281Y-119762111D01*
X192406111Y-119633281D01*
X192503043Y-119479015D01*
X192563217Y-119307047D01*
X192563483Y-119304686D01*
X192583616Y-119126003D01*
X192583616Y-119125996D01*
X192563218Y-118944958D01*
X192563217Y-118944953D01*
X192543910Y-118889778D01*
X192503043Y-118772985D01*
X192406111Y-118618719D01*
X192277281Y-118489889D01*
X192153322Y-118412000D01*
X192123017Y-118392958D01*
X192123016Y-118392957D01*
X192123015Y-118392957D01*
X192041415Y-118364404D01*
X191951046Y-118332782D01*
X191951041Y-118332781D01*
X191770004Y-118312384D01*
X191769996Y-118312384D01*
X191588958Y-118332781D01*
X191588953Y-118332782D01*
X191416982Y-118392958D01*
X191262718Y-118489889D01*
X191133889Y-118618718D01*
X191036958Y-118772982D01*
X190976782Y-118944953D01*
X190976781Y-118944958D01*
X190956384Y-119125996D01*
X190956384Y-119126003D01*
X187503616Y-119126003D01*
X187503616Y-119125996D01*
X187483218Y-118944958D01*
X187483217Y-118944953D01*
X187463910Y-118889778D01*
X187423043Y-118772985D01*
X187326111Y-118618719D01*
X187197281Y-118489889D01*
X187073322Y-118412000D01*
X187043017Y-118392958D01*
X187043016Y-118392957D01*
X187043015Y-118392957D01*
X186961415Y-118364404D01*
X186871046Y-118332782D01*
X186871041Y-118332781D01*
X186690004Y-118312384D01*
X186689996Y-118312384D01*
X186508958Y-118332781D01*
X186508953Y-118332782D01*
X186336982Y-118392958D01*
X186182718Y-118489889D01*
X186053889Y-118618718D01*
X185956958Y-118772982D01*
X185896782Y-118944953D01*
X185896781Y-118944958D01*
X185876384Y-119125996D01*
X185876384Y-119126003D01*
X178455952Y-119126003D01*
X178579776Y-119039301D01*
X178729301Y-118889776D01*
X178850589Y-118716558D01*
X178939956Y-118524910D01*
X178994686Y-118320655D01*
X179013116Y-118110000D01*
X178994686Y-117899345D01*
X178939956Y-117695090D01*
X178850589Y-117503442D01*
X178729301Y-117330224D01*
X178729299Y-117330221D01*
X178579778Y-117180700D01*
X178406558Y-117059411D01*
X178406556Y-117059410D01*
X178385071Y-117049391D01*
X178214910Y-116970044D01*
X178214906Y-116970043D01*
X178214902Y-116970041D01*
X178010660Y-116915315D01*
X178010656Y-116915314D01*
X178010655Y-116915314D01*
X178010654Y-116915313D01*
X178010649Y-116915313D01*
X177800002Y-116896884D01*
X177799998Y-116896884D01*
X177589350Y-116915313D01*
X177589339Y-116915315D01*
X177385097Y-116970041D01*
X177385088Y-116970045D01*
X177193443Y-117059410D01*
X177193441Y-117059411D01*
X177020221Y-117180700D01*
X176870700Y-117330221D01*
X176749411Y-117503441D01*
X176749410Y-117503443D01*
X176660045Y-117695088D01*
X176660041Y-117695097D01*
X176605315Y-117899339D01*
X176605313Y-117899350D01*
X176586884Y-118109998D01*
X176586884Y-118110001D01*
X168013116Y-118110001D01*
X168013116Y-118110000D01*
X167994686Y-117899345D01*
X167939956Y-117695090D01*
X167850589Y-117503442D01*
X167729301Y-117330224D01*
X167729299Y-117330221D01*
X167579778Y-117180700D01*
X167406558Y-117059411D01*
X167406556Y-117059410D01*
X167385071Y-117049391D01*
X167214910Y-116970044D01*
X167214906Y-116970043D01*
X167214902Y-116970041D01*
X167010660Y-116915315D01*
X167010656Y-116915314D01*
X167010655Y-116915314D01*
X167010654Y-116915313D01*
X167010649Y-116915313D01*
X166800002Y-116896884D01*
X166799998Y-116896884D01*
X166589350Y-116915313D01*
X166589339Y-116915315D01*
X166385097Y-116970041D01*
X166385088Y-116970045D01*
X166193443Y-117059410D01*
X166193441Y-117059411D01*
X166020221Y-117180700D01*
X165870700Y-117330221D01*
X165749411Y-117503441D01*
X165749410Y-117503443D01*
X165660045Y-117695088D01*
X165660041Y-117695097D01*
X165605315Y-117899339D01*
X165605313Y-117899350D01*
X165586884Y-118109998D01*
X165586884Y-118110001D01*
X164638500Y-118110001D01*
X164638500Y-114808000D01*
X181824681Y-114808000D01*
X181843927Y-115052554D01*
X181901193Y-115291087D01*
X181995071Y-115517730D01*
X182123246Y-115726893D01*
X182123248Y-115726896D01*
X182282567Y-115913433D01*
X182469104Y-116072752D01*
X182469106Y-116072753D01*
X182678269Y-116200928D01*
X182785108Y-116245182D01*
X182904908Y-116294805D01*
X183143443Y-116352072D01*
X183388000Y-116371319D01*
X183632557Y-116352072D01*
X183871092Y-116294805D01*
X184066438Y-116213889D01*
X184097730Y-116200928D01*
X184097732Y-116200927D01*
X184306896Y-116072752D01*
X184493433Y-115913433D01*
X184634800Y-115747914D01*
X184638092Y-115744353D01*
X185402070Y-114980376D01*
X185404884Y-114993915D01*
X185474442Y-115128156D01*
X185577638Y-115238652D01*
X185706819Y-115317209D01*
X185758002Y-115331549D01*
X185020056Y-116069494D01*
X185222138Y-116193331D01*
X185447542Y-116286696D01*
X185684780Y-116343651D01*
X185684779Y-116343651D01*
X185927999Y-116362792D01*
X186171219Y-116343651D01*
X186408457Y-116286696D01*
X186633861Y-116193331D01*
X186835942Y-116069494D01*
X186099568Y-115333121D01*
X186216458Y-115282349D01*
X186333739Y-115186934D01*
X186420928Y-115063415D01*
X186451354Y-114977802D01*
X187217914Y-115744362D01*
X187221213Y-115747930D01*
X187362567Y-115913433D01*
X187549104Y-116072752D01*
X187549106Y-116072753D01*
X187758269Y-116200928D01*
X187865108Y-116245182D01*
X187984908Y-116294805D01*
X188223443Y-116352072D01*
X188468000Y-116371319D01*
X188712557Y-116352072D01*
X188951092Y-116294805D01*
X189146438Y-116213889D01*
X189177730Y-116200928D01*
X189177732Y-116200927D01*
X189386896Y-116072752D01*
X189573433Y-115913433D01*
X189714800Y-115747914D01*
X189718092Y-115744353D01*
X190482070Y-114980375D01*
X190484884Y-114993915D01*
X190554442Y-115128156D01*
X190657638Y-115238652D01*
X190786819Y-115317209D01*
X190838002Y-115331549D01*
X190100056Y-116069494D01*
X190302138Y-116193331D01*
X190527542Y-116286696D01*
X190764780Y-116343651D01*
X190764779Y-116343651D01*
X191008000Y-116362792D01*
X191251219Y-116343651D01*
X191488457Y-116286696D01*
X191713861Y-116193331D01*
X191915942Y-116069494D01*
X191179568Y-115333121D01*
X191296458Y-115282349D01*
X191413739Y-115186934D01*
X191500928Y-115063415D01*
X191531354Y-114977801D01*
X192297914Y-115744361D01*
X192301213Y-115747930D01*
X192442567Y-115913433D01*
X192629104Y-116072752D01*
X192629106Y-116072753D01*
X192838269Y-116200928D01*
X192945108Y-116245182D01*
X193064908Y-116294805D01*
X193303443Y-116352072D01*
X193548000Y-116371319D01*
X193792557Y-116352072D01*
X194031092Y-116294805D01*
X194257732Y-116200927D01*
X194444103Y-116086719D01*
X194511547Y-116068476D01*
X194578150Y-116089593D01*
X194608157Y-116118137D01*
X194680809Y-116215187D01*
X194680812Y-116215190D01*
X194795906Y-116301350D01*
X194795913Y-116301354D01*
X194930620Y-116351596D01*
X194930627Y-116351598D01*
X194990155Y-116357999D01*
X194990172Y-116358000D01*
X195838000Y-116358000D01*
X195838000Y-115299683D01*
X195866819Y-115317209D01*
X196012404Y-115358000D01*
X196125622Y-115358000D01*
X196237783Y-115342584D01*
X196338000Y-115299053D01*
X196338000Y-116358000D01*
X197185828Y-116358000D01*
X197185844Y-116357999D01*
X197245372Y-116351598D01*
X197245379Y-116351596D01*
X197380086Y-116301354D01*
X197380093Y-116301350D01*
X197495187Y-116215190D01*
X197495190Y-116215187D01*
X197581350Y-116100093D01*
X197581354Y-116100086D01*
X197631596Y-115965379D01*
X197631598Y-115965372D01*
X197637999Y-115905844D01*
X197638000Y-115905827D01*
X197638000Y-115058000D01*
X196582852Y-115058000D01*
X196631559Y-114920953D01*
X196641877Y-114770114D01*
X196611116Y-114622085D01*
X196577910Y-114558000D01*
X197638000Y-114558000D01*
X197638000Y-113710172D01*
X197637999Y-113710155D01*
X197631598Y-113650627D01*
X197631596Y-113650620D01*
X197581354Y-113515913D01*
X197581350Y-113515906D01*
X197495190Y-113400812D01*
X197495187Y-113400809D01*
X197380093Y-113314649D01*
X197380086Y-113314645D01*
X197245379Y-113264403D01*
X197245372Y-113264401D01*
X197185844Y-113258000D01*
X196338000Y-113258000D01*
X196338000Y-114316316D01*
X196309181Y-114298791D01*
X196163596Y-114258000D01*
X196050378Y-114258000D01*
X195938217Y-114273416D01*
X195838000Y-114316946D01*
X195838000Y-113258000D01*
X194990155Y-113258000D01*
X194930627Y-113264401D01*
X194930620Y-113264403D01*
X194795913Y-113314645D01*
X194795906Y-113314649D01*
X194680812Y-113400809D01*
X194608157Y-113497863D01*
X194552223Y-113539733D01*
X194482531Y-113544717D01*
X194444102Y-113529279D01*
X194257730Y-113415072D01*
X194031087Y-113321193D01*
X193792553Y-113263927D01*
X193792554Y-113263927D01*
X193570841Y-113246478D01*
X193548000Y-113244681D01*
X193547999Y-113244681D01*
X193303445Y-113263927D01*
X193064912Y-113321193D01*
X192838269Y-113415071D01*
X192629106Y-113543246D01*
X192442570Y-113702564D01*
X192442568Y-113702565D01*
X192442567Y-113702567D01*
X192436072Y-113710172D01*
X192301219Y-113868061D01*
X192297914Y-113871637D01*
X191533929Y-114635622D01*
X191531116Y-114622085D01*
X191461558Y-114487844D01*
X191358362Y-114377348D01*
X191229181Y-114298791D01*
X191177997Y-114284450D01*
X191915942Y-113546504D01*
X191713861Y-113422668D01*
X191488457Y-113329303D01*
X191251219Y-113272348D01*
X191251220Y-113272348D01*
X191008000Y-113253207D01*
X190764780Y-113272348D01*
X190527542Y-113329303D01*
X190302146Y-113422665D01*
X190302141Y-113422668D01*
X190100056Y-113546504D01*
X190836431Y-114282878D01*
X190719542Y-114333651D01*
X190602261Y-114429066D01*
X190515072Y-114552585D01*
X190484645Y-114638198D01*
X189718091Y-113871644D01*
X189714786Y-113868068D01*
X189662128Y-113806415D01*
X189573433Y-113702567D01*
X189386896Y-113543248D01*
X189364101Y-113529279D01*
X189177730Y-113415071D01*
X188951087Y-113321193D01*
X188712553Y-113263927D01*
X188712554Y-113263927D01*
X188468000Y-113244681D01*
X188223445Y-113263927D01*
X187984912Y-113321193D01*
X187758269Y-113415071D01*
X187549106Y-113543246D01*
X187362570Y-113702564D01*
X187362568Y-113702565D01*
X187362567Y-113702567D01*
X187356072Y-113710172D01*
X187221219Y-113868061D01*
X187217914Y-113871637D01*
X186453929Y-114635622D01*
X186451116Y-114622085D01*
X186381558Y-114487844D01*
X186278362Y-114377348D01*
X186149181Y-114298791D01*
X186097995Y-114284449D01*
X186835942Y-113546504D01*
X186633861Y-113422668D01*
X186408457Y-113329303D01*
X186171219Y-113272348D01*
X186171220Y-113272348D01*
X185927999Y-113253207D01*
X185684780Y-113272348D01*
X185447542Y-113329303D01*
X185222146Y-113422665D01*
X185222141Y-113422668D01*
X185020056Y-113546504D01*
X185756431Y-114282878D01*
X185639542Y-114333651D01*
X185522261Y-114429066D01*
X185435072Y-114552585D01*
X185404645Y-114638197D01*
X184638091Y-113871644D01*
X184634786Y-113868068D01*
X184582128Y-113806415D01*
X184493433Y-113702567D01*
X184306896Y-113543248D01*
X184284101Y-113529279D01*
X184097730Y-113415071D01*
X183871087Y-113321193D01*
X183632553Y-113263927D01*
X183632554Y-113263927D01*
X183410841Y-113246478D01*
X183388000Y-113244681D01*
X183387999Y-113244681D01*
X183143445Y-113263927D01*
X182904912Y-113321193D01*
X182678269Y-113415071D01*
X182469106Y-113543246D01*
X182282567Y-113702567D01*
X182123246Y-113889106D01*
X181995071Y-114098269D01*
X181901193Y-114324912D01*
X181843927Y-114563445D01*
X181824681Y-114808000D01*
X164638500Y-114808000D01*
X164638500Y-110744003D01*
X191718384Y-110744003D01*
X191738781Y-110925041D01*
X191738782Y-110925046D01*
X191779949Y-111042693D01*
X191798957Y-111097015D01*
X191895889Y-111251281D01*
X192024719Y-111380111D01*
X192178985Y-111477043D01*
X192350953Y-111537216D01*
X192350953Y-111537217D01*
X192350958Y-111537218D01*
X192531996Y-111557616D01*
X192532000Y-111557616D01*
X192532004Y-111557616D01*
X192713041Y-111537218D01*
X192713044Y-111537217D01*
X192713047Y-111537217D01*
X192885015Y-111477043D01*
X193039281Y-111380111D01*
X193168111Y-111251281D01*
X193265043Y-111097015D01*
X193325217Y-110925047D01*
X193345616Y-110744000D01*
X193325217Y-110562953D01*
X193265043Y-110390985D01*
X193168111Y-110236719D01*
X193039281Y-110107889D01*
X192885015Y-110010957D01*
X192830693Y-109991949D01*
X192713046Y-109950782D01*
X192713041Y-109950781D01*
X192532004Y-109930384D01*
X192531996Y-109930384D01*
X192350958Y-109950781D01*
X192350953Y-109950782D01*
X192178982Y-110010958D01*
X192024718Y-110107889D01*
X191895889Y-110236718D01*
X191798958Y-110390982D01*
X191738782Y-110562953D01*
X191738781Y-110562958D01*
X191718384Y-110743996D01*
X191718384Y-110744003D01*
X164638500Y-110744003D01*
X164638500Y-109907844D01*
X167550000Y-109907844D01*
X167556401Y-109967372D01*
X167556403Y-109967379D01*
X167606645Y-110102086D01*
X167606649Y-110102093D01*
X167692809Y-110217187D01*
X167692812Y-110217190D01*
X167807906Y-110303350D01*
X167807913Y-110303354D01*
X167942620Y-110353596D01*
X167942627Y-110353598D01*
X168002155Y-110359999D01*
X168002172Y-110360000D01*
X169550000Y-110360000D01*
X169550000Y-109028476D01*
X169703394Y-109060000D01*
X169848175Y-109060000D01*
X169992220Y-109045352D01*
X170050000Y-109027223D01*
X170050000Y-110360000D01*
X171597828Y-110360000D01*
X171597844Y-110359999D01*
X171657372Y-110353598D01*
X171657379Y-110353596D01*
X171792086Y-110303354D01*
X171792093Y-110303350D01*
X171907187Y-110217190D01*
X171907190Y-110217187D01*
X171993350Y-110102093D01*
X171993354Y-110102086D01*
X172043596Y-109967379D01*
X172043598Y-109967372D01*
X172049999Y-109907844D01*
X172050000Y-109907827D01*
X172050000Y-108360000D01*
X170716597Y-108360000D01*
X170743887Y-108254598D01*
X170751220Y-108110000D01*
X172536654Y-108110000D01*
X172552341Y-108349348D01*
X172556017Y-108405424D01*
X172556018Y-108405436D01*
X172613774Y-108695789D01*
X172613779Y-108695809D01*
X172708937Y-108976137D01*
X172708941Y-108976147D01*
X172839879Y-109241663D01*
X172839888Y-109241678D01*
X173004368Y-109487839D01*
X173199572Y-109710427D01*
X173373393Y-109862864D01*
X173422162Y-109905633D01*
X173668327Y-110070115D01*
X173668330Y-110070116D01*
X173668336Y-110070120D01*
X173933852Y-110201058D01*
X173933862Y-110201062D01*
X174214190Y-110296220D01*
X174214194Y-110296221D01*
X174214203Y-110296224D01*
X174410493Y-110335269D01*
X174504563Y-110353981D01*
X174504564Y-110353981D01*
X174504574Y-110353983D01*
X174800000Y-110373346D01*
X175095426Y-110353983D01*
X175385797Y-110296224D01*
X175561097Y-110236718D01*
X175666137Y-110201062D01*
X175666147Y-110201058D01*
X175931663Y-110070120D01*
X175931663Y-110070119D01*
X175931673Y-110070115D01*
X176177838Y-109905633D01*
X176400427Y-109710427D01*
X176595633Y-109487838D01*
X176760115Y-109241673D01*
X176891059Y-108976145D01*
X176961751Y-108767894D01*
X176986220Y-108695809D01*
X176986220Y-108695808D01*
X176986224Y-108695797D01*
X177043983Y-108405426D01*
X177063346Y-108110000D01*
X177043983Y-107814574D01*
X176986224Y-107524203D01*
X176986220Y-107524190D01*
X176891062Y-107243862D01*
X176891058Y-107243852D01*
X176760120Y-106978336D01*
X176760111Y-106978321D01*
X176757894Y-106975003D01*
X176595633Y-106732162D01*
X176552864Y-106683393D01*
X176400427Y-106509572D01*
X176177839Y-106314368D01*
X176174552Y-106312172D01*
X176056417Y-106233236D01*
X175931678Y-106149888D01*
X175931663Y-106149879D01*
X175666147Y-106018941D01*
X175666137Y-106018937D01*
X175385809Y-105923779D01*
X175385789Y-105923774D01*
X175095436Y-105866018D01*
X175095427Y-105866017D01*
X175095426Y-105866017D01*
X174800000Y-105846654D01*
X174504574Y-105866017D01*
X174504573Y-105866017D01*
X174504563Y-105866018D01*
X174214210Y-105923774D01*
X174214190Y-105923779D01*
X173933862Y-106018937D01*
X173933852Y-106018941D01*
X173668336Y-106149879D01*
X173668321Y-106149888D01*
X173422160Y-106314368D01*
X173199572Y-106509572D01*
X173004368Y-106732160D01*
X172839888Y-106978321D01*
X172839879Y-106978336D01*
X172708941Y-107243852D01*
X172708937Y-107243862D01*
X172613779Y-107524190D01*
X172613774Y-107524210D01*
X172556018Y-107814563D01*
X172556017Y-107814573D01*
X172556017Y-107814574D01*
X172536654Y-108110000D01*
X170751220Y-108110000D01*
X170753673Y-108061635D01*
X170724416Y-107870652D01*
X170720471Y-107860000D01*
X172050000Y-107860000D01*
X172050000Y-106312172D01*
X172049999Y-106312155D01*
X172043598Y-106252627D01*
X172043596Y-106252620D01*
X171993354Y-106117913D01*
X171993350Y-106117906D01*
X171907190Y-106002812D01*
X171907187Y-106002809D01*
X171792093Y-105916649D01*
X171792086Y-105916645D01*
X171657379Y-105866403D01*
X171657372Y-105866401D01*
X171597844Y-105860000D01*
X170050000Y-105860000D01*
X170050000Y-107191523D01*
X169896606Y-107160000D01*
X169751825Y-107160000D01*
X169607780Y-107174648D01*
X169550000Y-107192776D01*
X169550000Y-105860000D01*
X168002155Y-105860000D01*
X167942627Y-105866401D01*
X167942620Y-105866403D01*
X167807913Y-105916645D01*
X167807906Y-105916649D01*
X167692812Y-106002809D01*
X167692809Y-106002812D01*
X167606649Y-106117906D01*
X167606645Y-106117913D01*
X167556403Y-106252620D01*
X167556401Y-106252627D01*
X167550000Y-106312155D01*
X167550000Y-107860000D01*
X168883403Y-107860000D01*
X168856113Y-107965402D01*
X168846327Y-108158365D01*
X168875584Y-108349348D01*
X168879529Y-108360000D01*
X167550000Y-108360000D01*
X167550000Y-109907844D01*
X164638500Y-109907844D01*
X164638500Y-101854003D01*
X192988384Y-101854003D01*
X193008781Y-102035041D01*
X193008782Y-102035046D01*
X193049949Y-102152693D01*
X193068957Y-102207015D01*
X193165889Y-102361281D01*
X193294719Y-102490111D01*
X193448985Y-102587043D01*
X193620953Y-102647216D01*
X193620953Y-102647217D01*
X193620958Y-102647218D01*
X193801996Y-102667616D01*
X193802000Y-102667616D01*
X193802004Y-102667616D01*
X193983041Y-102647218D01*
X193983044Y-102647217D01*
X193983047Y-102647217D01*
X194155015Y-102587043D01*
X194309281Y-102490111D01*
X194438111Y-102361281D01*
X194535043Y-102207015D01*
X194595217Y-102035047D01*
X194615616Y-101854000D01*
X194595217Y-101672953D01*
X194535043Y-101500985D01*
X194438111Y-101346719D01*
X194309281Y-101217889D01*
X194155015Y-101120957D01*
X194070206Y-101091281D01*
X193983046Y-101060782D01*
X193983041Y-101060781D01*
X193802004Y-101040384D01*
X193801996Y-101040384D01*
X193620958Y-101060781D01*
X193620953Y-101060782D01*
X193448982Y-101120958D01*
X193294718Y-101217889D01*
X193165889Y-101346718D01*
X193068958Y-101500982D01*
X193008782Y-101672953D01*
X193008781Y-101672958D01*
X192988384Y-101853996D01*
X192988384Y-101854003D01*
X164638500Y-101854003D01*
X164638500Y-100584003D01*
X188416384Y-100584003D01*
X188436781Y-100765041D01*
X188436782Y-100765046D01*
X188496958Y-100937017D01*
X188574725Y-101060782D01*
X188593889Y-101091281D01*
X188722719Y-101220111D01*
X188876985Y-101317043D01*
X189048953Y-101377216D01*
X189048953Y-101377217D01*
X189048958Y-101377218D01*
X189229996Y-101397616D01*
X189230000Y-101397616D01*
X189230004Y-101397616D01*
X189411041Y-101377218D01*
X189411044Y-101377217D01*
X189411047Y-101377217D01*
X189583015Y-101317043D01*
X189737281Y-101220111D01*
X189866111Y-101091281D01*
X189963043Y-100937015D01*
X190023217Y-100765047D01*
X190043616Y-100584000D01*
X190023217Y-100402953D01*
X189963043Y-100230985D01*
X189866111Y-100076719D01*
X189737281Y-99947889D01*
X189583015Y-99850957D01*
X189528693Y-99831949D01*
X189411046Y-99790782D01*
X189411041Y-99790781D01*
X189230004Y-99770384D01*
X189229996Y-99770384D01*
X189048958Y-99790781D01*
X189048953Y-99790782D01*
X188876982Y-99850958D01*
X188722718Y-99947889D01*
X188593889Y-100076718D01*
X188496958Y-100230982D01*
X188436782Y-100402953D01*
X188436781Y-100402958D01*
X188416384Y-100583996D01*
X188416384Y-100584003D01*
X164638500Y-100584003D01*
X164638500Y-98636579D01*
X164658185Y-98569540D01*
X164710989Y-98523785D01*
X164780147Y-98513841D01*
X164843703Y-98542866D01*
X164875576Y-98585688D01*
X164968897Y-98793041D01*
X164968898Y-98793043D01*
X165137887Y-99072586D01*
X165285477Y-99260968D01*
X165798070Y-98748375D01*
X165997274Y-98748375D01*
X166036887Y-98830631D01*
X166108266Y-98887553D01*
X166174742Y-98902726D01*
X166219806Y-98902726D01*
X166286282Y-98887553D01*
X166357661Y-98830631D01*
X166397274Y-98748375D01*
X166397274Y-98657077D01*
X166357661Y-98574821D01*
X166286282Y-98517899D01*
X166219806Y-98502726D01*
X166174742Y-98502726D01*
X166108266Y-98517899D01*
X166036887Y-98574821D01*
X165997274Y-98657077D01*
X165997274Y-98748375D01*
X165798070Y-98748375D01*
X166428210Y-98118234D01*
X166528894Y-98259624D01*
X166680932Y-98404592D01*
X166783222Y-98470330D01*
X165639030Y-99614521D01*
X165639030Y-99614522D01*
X165827414Y-99762112D01*
X165827423Y-99762118D01*
X166106956Y-99931101D01*
X166106958Y-99931102D01*
X166404824Y-100065160D01*
X166404835Y-100065164D01*
X166716658Y-100162332D01*
X167037961Y-100221213D01*
X167364000Y-100240934D01*
X167690038Y-100221213D01*
X168011341Y-100162332D01*
X168323164Y-100065164D01*
X168323175Y-100065160D01*
X168621041Y-99931102D01*
X168621043Y-99931101D01*
X168900576Y-99762118D01*
X168900584Y-99762112D01*
X169088968Y-99614522D01*
X169088968Y-99614521D01*
X168222822Y-98748375D01*
X168330726Y-98748375D01*
X168370339Y-98830631D01*
X168441718Y-98887553D01*
X168508194Y-98902726D01*
X168553258Y-98902726D01*
X168619734Y-98887553D01*
X168691113Y-98830631D01*
X168730726Y-98748375D01*
X168730726Y-98657077D01*
X168691113Y-98574821D01*
X168619734Y-98517899D01*
X168553258Y-98502726D01*
X168508194Y-98502726D01*
X168441718Y-98517899D01*
X168370339Y-98574821D01*
X168330726Y-98657077D01*
X168330726Y-98748375D01*
X168222822Y-98748375D01*
X167947306Y-98472859D01*
X167961410Y-98465589D01*
X168126540Y-98335729D01*
X168264110Y-98176965D01*
X168298665Y-98117112D01*
X169442521Y-99260968D01*
X169442522Y-99260968D01*
X169590112Y-99072584D01*
X169590118Y-99072576D01*
X169759101Y-98793043D01*
X169759102Y-98793041D01*
X169893160Y-98495175D01*
X169893164Y-98495164D01*
X169990332Y-98183341D01*
X170049213Y-97862038D01*
X170068934Y-97536000D01*
X170049213Y-97209961D01*
X169990332Y-96888658D01*
X169954604Y-96774003D01*
X182574384Y-96774003D01*
X182594781Y-96955041D01*
X182594782Y-96955046D01*
X182654958Y-97127017D01*
X182748247Y-97275485D01*
X182751889Y-97281281D01*
X182880719Y-97410111D01*
X183034985Y-97507043D01*
X183206953Y-97567216D01*
X183206953Y-97567217D01*
X183206958Y-97567218D01*
X183387996Y-97587616D01*
X183388000Y-97587616D01*
X183388004Y-97587616D01*
X183569041Y-97567218D01*
X183569044Y-97567217D01*
X183569047Y-97567217D01*
X183741015Y-97507043D01*
X183895281Y-97410111D01*
X184024111Y-97281281D01*
X184121043Y-97127015D01*
X184155689Y-97028003D01*
X184606384Y-97028003D01*
X184626781Y-97209041D01*
X184626782Y-97209046D01*
X184686958Y-97381017D01*
X184766145Y-97507041D01*
X184783889Y-97535281D01*
X184912719Y-97664111D01*
X185066985Y-97761043D01*
X185238953Y-97821216D01*
X185238953Y-97821217D01*
X185238958Y-97821218D01*
X185419996Y-97841616D01*
X185420000Y-97841616D01*
X185420004Y-97841616D01*
X185601041Y-97821218D01*
X185601044Y-97821217D01*
X185601047Y-97821217D01*
X185773015Y-97761043D01*
X185927281Y-97664111D01*
X186056111Y-97535281D01*
X186153043Y-97381015D01*
X186213217Y-97209047D01*
X186216214Y-97182447D01*
X186233616Y-97028003D01*
X186233616Y-97027996D01*
X186213218Y-96846958D01*
X186213217Y-96846953D01*
X186201118Y-96812376D01*
X186153043Y-96674985D01*
X186056111Y-96520719D01*
X185927281Y-96391889D01*
X185773015Y-96294957D01*
X185718693Y-96275949D01*
X185601046Y-96234782D01*
X185601041Y-96234781D01*
X185420004Y-96214384D01*
X185419996Y-96214384D01*
X185238958Y-96234781D01*
X185238953Y-96234782D01*
X185066982Y-96294958D01*
X184912718Y-96391889D01*
X184783889Y-96520718D01*
X184686958Y-96674982D01*
X184626782Y-96846953D01*
X184626781Y-96846958D01*
X184606384Y-97027996D01*
X184606384Y-97028003D01*
X184155689Y-97028003D01*
X184181217Y-96955047D01*
X184187979Y-96895035D01*
X184201616Y-96774003D01*
X184201616Y-96773996D01*
X184181218Y-96592958D01*
X184181217Y-96592953D01*
X184172931Y-96569274D01*
X184121043Y-96420985D01*
X184024111Y-96266719D01*
X183895281Y-96137889D01*
X183895280Y-96137889D01*
X183741017Y-96040958D01*
X183741016Y-96040957D01*
X183741015Y-96040957D01*
X183663705Y-96013905D01*
X183569046Y-95980782D01*
X183569041Y-95980781D01*
X183388004Y-95960384D01*
X183387996Y-95960384D01*
X183206958Y-95980781D01*
X183206953Y-95980782D01*
X183034982Y-96040958D01*
X182880718Y-96137889D01*
X182751889Y-96266718D01*
X182654958Y-96420982D01*
X182594782Y-96592953D01*
X182594781Y-96592958D01*
X182574384Y-96773996D01*
X182574384Y-96774003D01*
X169954604Y-96774003D01*
X169893164Y-96576835D01*
X169893160Y-96576824D01*
X169759102Y-96278958D01*
X169759101Y-96278956D01*
X169590118Y-95999423D01*
X169590112Y-95999414D01*
X169442521Y-95811030D01*
X168299788Y-96953763D01*
X168199106Y-96812376D01*
X168047068Y-96667408D01*
X167944776Y-96601668D01*
X168131521Y-96414923D01*
X168330726Y-96414923D01*
X168370339Y-96497179D01*
X168441718Y-96554101D01*
X168508194Y-96569274D01*
X168553258Y-96569274D01*
X168619734Y-96554101D01*
X168691113Y-96497179D01*
X168730726Y-96414923D01*
X168730726Y-96323625D01*
X168691113Y-96241369D01*
X168619734Y-96184447D01*
X168553258Y-96169274D01*
X168508194Y-96169274D01*
X168441718Y-96184447D01*
X168370339Y-96241369D01*
X168330726Y-96323625D01*
X168330726Y-96414923D01*
X168131521Y-96414923D01*
X169088968Y-95457477D01*
X169088968Y-95457476D01*
X168900586Y-95309887D01*
X168621043Y-95140898D01*
X168621041Y-95140897D01*
X168323175Y-95006839D01*
X168323164Y-95006835D01*
X168011341Y-94909667D01*
X167690038Y-94850786D01*
X167364000Y-94831065D01*
X167037961Y-94850786D01*
X166716658Y-94909667D01*
X166404835Y-95006835D01*
X166404824Y-95006839D01*
X166106958Y-95140897D01*
X166106956Y-95140898D01*
X165827423Y-95309881D01*
X165639030Y-95457476D01*
X165639030Y-95457477D01*
X166780693Y-96599140D01*
X166766590Y-96606411D01*
X166601460Y-96736271D01*
X166463890Y-96895035D01*
X166429334Y-96954886D01*
X165889371Y-96414923D01*
X165997274Y-96414923D01*
X166036887Y-96497179D01*
X166108266Y-96554101D01*
X166174742Y-96569274D01*
X166219806Y-96569274D01*
X166286282Y-96554101D01*
X166357661Y-96497179D01*
X166397274Y-96414923D01*
X166397274Y-96323625D01*
X166357661Y-96241369D01*
X166286282Y-96184447D01*
X166219806Y-96169274D01*
X166174742Y-96169274D01*
X166108266Y-96184447D01*
X166036887Y-96241369D01*
X165997274Y-96323625D01*
X165997274Y-96414923D01*
X165889371Y-96414923D01*
X165285477Y-95811030D01*
X165285476Y-95811030D01*
X165137881Y-95999423D01*
X164968898Y-96278956D01*
X164968897Y-96278958D01*
X164875576Y-96486311D01*
X164830112Y-96539365D01*
X164763181Y-96559418D01*
X164696035Y-96540102D01*
X164649990Y-96487550D01*
X164638500Y-96435420D01*
X164638500Y-92964003D01*
X179526384Y-92964003D01*
X179546781Y-93145041D01*
X179546782Y-93145046D01*
X179587949Y-93262693D01*
X179606957Y-93317015D01*
X179703889Y-93471281D01*
X179832719Y-93600111D01*
X179986985Y-93697043D01*
X180158953Y-93757216D01*
X180158953Y-93757217D01*
X180158958Y-93757218D01*
X180339996Y-93777616D01*
X180340000Y-93777616D01*
X180340004Y-93777616D01*
X180521041Y-93757218D01*
X180521044Y-93757217D01*
X180521047Y-93757217D01*
X180693015Y-93697043D01*
X180847281Y-93600111D01*
X180976111Y-93471281D01*
X181073043Y-93317015D01*
X181133217Y-93145047D01*
X181153616Y-92964000D01*
X181133217Y-92782953D01*
X181073043Y-92610985D01*
X180976111Y-92456719D01*
X180847281Y-92327889D01*
X180847280Y-92327888D01*
X180693017Y-92230958D01*
X180693016Y-92230957D01*
X180693015Y-92230957D01*
X180638693Y-92211949D01*
X180521046Y-92170782D01*
X180521041Y-92170781D01*
X180340004Y-92150384D01*
X180339996Y-92150384D01*
X180158958Y-92170781D01*
X180158953Y-92170782D01*
X179986982Y-92230958D01*
X179832718Y-92327889D01*
X179703889Y-92456718D01*
X179606958Y-92610982D01*
X179546782Y-92782953D01*
X179546781Y-92782958D01*
X179526384Y-92963996D01*
X179526384Y-92964003D01*
X164638500Y-92964003D01*
X164638500Y-91440003D01*
X167842384Y-91440003D01*
X167862781Y-91621041D01*
X167862782Y-91621046D01*
X167903949Y-91738693D01*
X167922957Y-91793015D01*
X168019889Y-91947281D01*
X168148719Y-92076111D01*
X168302985Y-92173043D01*
X168468494Y-92230957D01*
X168474953Y-92233217D01*
X168474958Y-92233218D01*
X168655996Y-92253616D01*
X168656000Y-92253616D01*
X168656004Y-92253616D01*
X168837041Y-92233218D01*
X168837044Y-92233217D01*
X168837047Y-92233217D01*
X169009015Y-92173043D01*
X169163281Y-92076111D01*
X169292111Y-91947281D01*
X169389043Y-91793015D01*
X169449217Y-91621047D01*
X169469616Y-91440000D01*
X169449217Y-91258953D01*
X169389043Y-91086985D01*
X169292111Y-90932719D01*
X169163281Y-90803889D01*
X169009015Y-90706957D01*
X168954693Y-90687949D01*
X168837046Y-90646782D01*
X168837041Y-90646781D01*
X168656004Y-90626384D01*
X168655996Y-90626384D01*
X168474958Y-90646781D01*
X168474953Y-90646782D01*
X168302982Y-90706958D01*
X168148718Y-90803889D01*
X168019889Y-90932718D01*
X167922958Y-91086982D01*
X167862782Y-91258953D01*
X167862781Y-91258958D01*
X167842384Y-91439996D01*
X167842384Y-91440003D01*
X164638500Y-91440003D01*
X164638500Y-88900000D01*
X173584496Y-88900000D01*
X173604458Y-89089928D01*
X173604459Y-89089931D01*
X173663470Y-89271549D01*
X173663473Y-89271556D01*
X173758960Y-89436944D01*
X173886747Y-89578866D01*
X174041248Y-89691118D01*
X174215712Y-89768794D01*
X174402513Y-89808500D01*
X174593487Y-89808500D01*
X174780288Y-89768794D01*
X174954752Y-89691118D01*
X174954755Y-89691115D01*
X174955563Y-89690756D01*
X175024813Y-89681471D01*
X175056434Y-89690755D01*
X175057245Y-89691116D01*
X175057248Y-89691118D01*
X175231712Y-89768794D01*
X175418513Y-89808500D01*
X175609487Y-89808500D01*
X175796288Y-89768794D01*
X175970752Y-89691118D01*
X176125253Y-89578866D01*
X176253040Y-89436944D01*
X176269749Y-89408003D01*
X193496384Y-89408003D01*
X193516781Y-89589041D01*
X193516782Y-89589046D01*
X193539470Y-89653883D01*
X193576957Y-89761015D01*
X193673889Y-89915281D01*
X193802719Y-90044111D01*
X193956985Y-90141043D01*
X194128953Y-90201217D01*
X194128958Y-90201218D01*
X194309996Y-90221616D01*
X194310000Y-90221616D01*
X194310004Y-90221616D01*
X194491041Y-90201218D01*
X194491044Y-90201217D01*
X194491047Y-90201217D01*
X194663015Y-90141043D01*
X194817281Y-90044111D01*
X194946111Y-89915281D01*
X195043043Y-89761015D01*
X195103217Y-89589047D01*
X195104364Y-89578866D01*
X195123616Y-89408003D01*
X195123616Y-89407996D01*
X195103218Y-89226958D01*
X195103217Y-89226953D01*
X195103217Y-89226952D01*
X195043043Y-89054985D01*
X194946111Y-88900719D01*
X194817281Y-88771889D01*
X194663015Y-88674957D01*
X194608693Y-88655949D01*
X194491046Y-88614782D01*
X194491041Y-88614781D01*
X194310004Y-88594384D01*
X194309996Y-88594384D01*
X194128958Y-88614781D01*
X194128953Y-88614782D01*
X193956982Y-88674958D01*
X193802718Y-88771889D01*
X193673889Y-88900718D01*
X193576958Y-89054982D01*
X193516782Y-89226953D01*
X193516781Y-89226958D01*
X193496384Y-89407996D01*
X193496384Y-89408003D01*
X176269749Y-89408003D01*
X176348527Y-89271556D01*
X176407542Y-89089928D01*
X176427504Y-88900000D01*
X176407542Y-88710072D01*
X176348527Y-88528444D01*
X176253040Y-88363056D01*
X176125253Y-88221134D01*
X175970752Y-88108882D01*
X175796288Y-88031206D01*
X175796286Y-88031205D01*
X175609487Y-87991500D01*
X175418513Y-87991500D01*
X175231714Y-88031205D01*
X175056434Y-88109244D01*
X174987184Y-88118528D01*
X174955564Y-88109244D01*
X174954753Y-88108883D01*
X174954752Y-88108882D01*
X174780288Y-88031206D01*
X174780286Y-88031205D01*
X174593487Y-87991500D01*
X174402513Y-87991500D01*
X174215714Y-88031205D01*
X174041246Y-88108883D01*
X173886745Y-88221135D01*
X173758959Y-88363057D01*
X173663473Y-88528443D01*
X173663470Y-88528450D01*
X173615867Y-88674958D01*
X173604458Y-88710072D01*
X173584496Y-88900000D01*
X164638500Y-88900000D01*
X164638500Y-87120000D01*
X165349529Y-87120000D01*
X165412685Y-87290527D01*
X165412687Y-87290531D01*
X165514892Y-87454503D01*
X165648002Y-87594534D01*
X165648003Y-87594535D01*
X165806586Y-87704913D01*
X165984137Y-87781106D01*
X166173394Y-87820000D01*
X166420000Y-87820000D01*
X166420000Y-87170000D01*
X166920000Y-87170000D01*
X166920000Y-87820000D01*
X167118176Y-87820000D01*
X167262221Y-87805352D01*
X167446561Y-87747515D01*
X167446571Y-87747510D01*
X167615498Y-87653748D01*
X167615505Y-87653743D01*
X167762105Y-87527892D01*
X167880368Y-87375109D01*
X167880370Y-87375105D01*
X167965457Y-87201643D01*
X167986596Y-87120000D01*
X169369529Y-87120000D01*
X169432685Y-87290527D01*
X169432687Y-87290531D01*
X169534892Y-87454503D01*
X169668002Y-87594534D01*
X169668003Y-87594535D01*
X169826586Y-87704913D01*
X170004137Y-87781106D01*
X170193394Y-87820000D01*
X170590000Y-87820000D01*
X170590000Y-87170000D01*
X171090000Y-87170000D01*
X171090000Y-87820000D01*
X171438176Y-87820000D01*
X171582221Y-87805352D01*
X171766561Y-87747515D01*
X171766571Y-87747510D01*
X171935498Y-87653748D01*
X171935505Y-87653743D01*
X172082105Y-87527892D01*
X172200368Y-87375109D01*
X172200370Y-87375105D01*
X172285457Y-87201643D01*
X172306596Y-87120000D01*
X171556111Y-87120000D01*
X171595610Y-87095543D01*
X171663201Y-87006038D01*
X171693895Y-86898160D01*
X171683546Y-86786479D01*
X171633552Y-86686078D01*
X171561069Y-86620000D01*
X172310471Y-86620000D01*
X172247314Y-86449472D01*
X172247312Y-86449468D01*
X172145107Y-86285496D01*
X172128954Y-86268503D01*
X191718384Y-86268503D01*
X191738781Y-86449541D01*
X191738782Y-86449546D01*
X191779949Y-86567193D01*
X191798957Y-86621515D01*
X191895889Y-86775781D01*
X192024719Y-86904611D01*
X192178985Y-87001543D01*
X192328676Y-87053922D01*
X192350953Y-87061717D01*
X192350958Y-87061718D01*
X192531996Y-87082116D01*
X192532000Y-87082116D01*
X192532004Y-87082116D01*
X192713041Y-87061718D01*
X192713044Y-87061717D01*
X192713047Y-87061717D01*
X192885015Y-87001543D01*
X193039281Y-86904611D01*
X193168111Y-86775781D01*
X193265043Y-86621515D01*
X193325217Y-86449547D01*
X193325218Y-86449541D01*
X193345616Y-86268503D01*
X193345616Y-86268496D01*
X193325218Y-86087458D01*
X193325215Y-86087445D01*
X193300381Y-86016474D01*
X193296819Y-85946695D01*
X193331547Y-85886068D01*
X193393540Y-85853840D01*
X193458377Y-85858478D01*
X193529445Y-85883346D01*
X193529451Y-85883347D01*
X193529453Y-85883348D01*
X193529454Y-85883348D01*
X193529458Y-85883349D01*
X193710496Y-85903747D01*
X193710500Y-85903747D01*
X193710504Y-85903747D01*
X193891541Y-85883349D01*
X193891544Y-85883348D01*
X193891547Y-85883348D01*
X194063515Y-85823174D01*
X194217781Y-85726242D01*
X194313468Y-85630554D01*
X194374787Y-85597072D01*
X194444479Y-85602056D01*
X194500413Y-85643927D01*
X194524366Y-85704354D01*
X194532781Y-85779042D01*
X194532782Y-85779046D01*
X194558954Y-85853840D01*
X194591445Y-85946695D01*
X194592958Y-85951017D01*
X194645782Y-86035086D01*
X194689889Y-86105281D01*
X194818719Y-86234111D01*
X194972985Y-86331043D01*
X195144953Y-86391217D01*
X195144958Y-86391218D01*
X195325996Y-86411616D01*
X195326000Y-86411616D01*
X195326004Y-86411616D01*
X195507041Y-86391218D01*
X195507044Y-86391217D01*
X195507047Y-86391217D01*
X195679015Y-86331043D01*
X195833281Y-86234111D01*
X195962111Y-86105281D01*
X196059043Y-85951015D01*
X196119217Y-85779047D01*
X196121226Y-85761218D01*
X196139616Y-85598003D01*
X196139616Y-85597996D01*
X196119218Y-85416958D01*
X196119217Y-85416953D01*
X196093438Y-85343281D01*
X196059043Y-85244985D01*
X195962111Y-85090719D01*
X195833281Y-84961889D01*
X195783052Y-84930328D01*
X195679017Y-84864958D01*
X195679016Y-84864957D01*
X195679015Y-84864957D01*
X195596269Y-84836003D01*
X195507046Y-84804782D01*
X195507041Y-84804781D01*
X195326004Y-84784384D01*
X195325996Y-84784384D01*
X195144958Y-84804781D01*
X195144953Y-84804782D01*
X194972982Y-84864958D01*
X194818720Y-84961888D01*
X194723034Y-85057574D01*
X194661710Y-85091058D01*
X194592019Y-85086074D01*
X194536086Y-85044202D01*
X194512133Y-84983775D01*
X194503718Y-84909089D01*
X194503717Y-84909084D01*
X194496864Y-84889500D01*
X194443543Y-84737116D01*
X194346611Y-84582850D01*
X194217781Y-84454020D01*
X194066905Y-84359218D01*
X194063517Y-84357089D01*
X194063516Y-84357088D01*
X194063515Y-84357088D01*
X193982438Y-84328718D01*
X193891546Y-84296913D01*
X193891541Y-84296912D01*
X193710504Y-84276515D01*
X193710496Y-84276515D01*
X193529458Y-84296912D01*
X193529453Y-84296913D01*
X193357482Y-84357089D01*
X193203218Y-84454020D01*
X193074389Y-84582849D01*
X192977458Y-84737113D01*
X192917282Y-84909084D01*
X192917281Y-84909089D01*
X192896884Y-85090127D01*
X192896884Y-85090134D01*
X192917281Y-85271172D01*
X192917283Y-85271180D01*
X192942119Y-85342157D01*
X192945680Y-85411936D01*
X192910951Y-85472563D01*
X192848958Y-85504790D01*
X192784123Y-85500153D01*
X192713049Y-85475283D01*
X192713041Y-85475281D01*
X192532004Y-85454884D01*
X192531996Y-85454884D01*
X192350958Y-85475281D01*
X192350953Y-85475282D01*
X192178982Y-85535458D01*
X192024718Y-85632389D01*
X191895889Y-85761218D01*
X191798958Y-85915482D01*
X191738782Y-86087453D01*
X191738781Y-86087458D01*
X191718384Y-86268496D01*
X191718384Y-86268503D01*
X172128954Y-86268503D01*
X172011997Y-86145465D01*
X172011996Y-86145464D01*
X171853413Y-86035086D01*
X171675862Y-85958893D01*
X171486606Y-85920000D01*
X171090000Y-85920000D01*
X171090000Y-86570000D01*
X170590000Y-86570000D01*
X170590000Y-86020209D01*
X170609685Y-85953170D01*
X170642766Y-85920901D01*
X170642140Y-85920132D01*
X170648716Y-85914781D01*
X170648720Y-85914780D01*
X170766108Y-85819278D01*
X170853377Y-85695647D01*
X170860255Y-85676293D01*
X170904053Y-85553060D01*
X170904053Y-85553058D01*
X170904054Y-85553056D01*
X170914381Y-85402079D01*
X170898768Y-85326944D01*
X170883594Y-85253921D01*
X170883592Y-85253918D01*
X170883592Y-85253915D01*
X170813971Y-85119553D01*
X170813967Y-85119549D01*
X170813967Y-85119548D01*
X170710681Y-85008956D01*
X170632053Y-84961141D01*
X170581382Y-84930328D01*
X170435665Y-84889500D01*
X170322342Y-84889500D01*
X170322341Y-84889500D01*
X170210082Y-84904929D01*
X170210079Y-84904930D01*
X170071283Y-84965217D01*
X169953889Y-85060724D01*
X169866623Y-85184352D01*
X169866621Y-85184355D01*
X169815946Y-85326939D01*
X169815946Y-85326942D01*
X169805619Y-85477918D01*
X169805619Y-85477921D01*
X169836405Y-85626078D01*
X169836407Y-85626083D01*
X169836408Y-85626085D01*
X169906029Y-85760447D01*
X169906031Y-85760449D01*
X169906032Y-85760451D01*
X169942929Y-85799958D01*
X169974301Y-85862388D01*
X169966939Y-85931869D01*
X169923183Y-85986340D01*
X169912483Y-85993013D01*
X169744501Y-86086251D01*
X169744494Y-86086256D01*
X169597894Y-86212107D01*
X169479631Y-86364890D01*
X169479629Y-86364894D01*
X169394542Y-86538356D01*
X169373404Y-86620000D01*
X170123889Y-86620000D01*
X170084390Y-86644457D01*
X170016799Y-86733962D01*
X169986105Y-86841840D01*
X169996454Y-86953521D01*
X170046448Y-87053922D01*
X170118931Y-87120000D01*
X169369529Y-87120000D01*
X167986596Y-87120000D01*
X167236111Y-87120000D01*
X167275610Y-87095543D01*
X167343201Y-87006038D01*
X167373895Y-86898160D01*
X167363546Y-86786479D01*
X167313552Y-86686078D01*
X167241069Y-86620000D01*
X167990471Y-86620000D01*
X167927314Y-86449472D01*
X167927312Y-86449468D01*
X167825107Y-86285496D01*
X167691997Y-86145465D01*
X167691996Y-86145464D01*
X167533413Y-86035086D01*
X167355862Y-85958893D01*
X167166606Y-85920000D01*
X166920000Y-85920000D01*
X166920000Y-86570000D01*
X166420000Y-86570000D01*
X166420000Y-85920000D01*
X166221824Y-85920000D01*
X166077778Y-85934647D01*
X165893438Y-85992484D01*
X165893428Y-85992489D01*
X165724501Y-86086251D01*
X165724494Y-86086256D01*
X165577894Y-86212107D01*
X165459631Y-86364890D01*
X165459629Y-86364894D01*
X165374542Y-86538356D01*
X165353404Y-86620000D01*
X166103889Y-86620000D01*
X166064390Y-86644457D01*
X165996799Y-86733962D01*
X165966105Y-86841840D01*
X165976454Y-86953521D01*
X166026448Y-87053922D01*
X166098931Y-87120000D01*
X165349529Y-87120000D01*
X164638500Y-87120000D01*
X164638500Y-84836003D01*
X187654384Y-84836003D01*
X187674781Y-85017041D01*
X187674782Y-85017046D01*
X187710651Y-85119552D01*
X187733326Y-85184355D01*
X187734958Y-85189017D01*
X187786585Y-85271180D01*
X187831889Y-85343281D01*
X187960719Y-85472111D01*
X188114985Y-85569043D01*
X188278002Y-85626085D01*
X188286953Y-85629217D01*
X188286958Y-85629218D01*
X188467996Y-85649616D01*
X188468000Y-85649616D01*
X188468004Y-85649616D01*
X188649041Y-85629218D01*
X188649044Y-85629217D01*
X188649047Y-85629217D01*
X188821015Y-85569043D01*
X188975281Y-85472111D01*
X189104111Y-85343281D01*
X189201043Y-85189015D01*
X189261217Y-85017047D01*
X189264966Y-84983775D01*
X189281616Y-84836003D01*
X189281616Y-84835996D01*
X189261218Y-84654958D01*
X189261217Y-84654953D01*
X189235987Y-84582850D01*
X189201043Y-84482985D01*
X189104111Y-84328719D01*
X188975281Y-84199889D01*
X188821015Y-84102957D01*
X188736206Y-84073281D01*
X188649046Y-84042782D01*
X188649041Y-84042781D01*
X188468004Y-84022384D01*
X188467996Y-84022384D01*
X188286958Y-84042781D01*
X188286953Y-84042782D01*
X188114982Y-84102958D01*
X187960718Y-84199889D01*
X187831889Y-84328718D01*
X187734958Y-84482982D01*
X187674782Y-84654953D01*
X187674781Y-84654958D01*
X187654384Y-84835996D01*
X187654384Y-84836003D01*
X164638500Y-84836003D01*
X164638500Y-83566003D01*
X186130384Y-83566003D01*
X186150781Y-83747041D01*
X186150782Y-83747046D01*
X186210958Y-83919017D01*
X186288725Y-84042782D01*
X186307889Y-84073281D01*
X186436719Y-84202111D01*
X186590985Y-84299043D01*
X186756869Y-84357088D01*
X186762953Y-84359217D01*
X186762958Y-84359218D01*
X186943996Y-84379616D01*
X186944000Y-84379616D01*
X186944004Y-84379616D01*
X187125041Y-84359218D01*
X187125044Y-84359217D01*
X187125047Y-84359217D01*
X187297015Y-84299043D01*
X187451281Y-84202111D01*
X187580111Y-84073281D01*
X187677043Y-83919015D01*
X187737217Y-83747047D01*
X187757616Y-83566000D01*
X187748335Y-83483630D01*
X187760389Y-83414809D01*
X187807738Y-83363430D01*
X187857673Y-83346527D01*
X187887041Y-83343218D01*
X187887044Y-83343217D01*
X187887047Y-83343217D01*
X188059015Y-83283043D01*
X188213281Y-83186111D01*
X188342111Y-83057281D01*
X188439043Y-82903015D01*
X188499217Y-82731047D01*
X188502581Y-82701191D01*
X188519616Y-82550003D01*
X188519616Y-82549996D01*
X188499218Y-82368958D01*
X188499217Y-82368953D01*
X188484613Y-82327217D01*
X188439043Y-82196985D01*
X188342111Y-82042719D01*
X188213281Y-81913889D01*
X188059015Y-81816957D01*
X188004693Y-81797949D01*
X187887046Y-81756782D01*
X187887041Y-81756781D01*
X187706004Y-81736384D01*
X187705996Y-81736384D01*
X187524958Y-81756781D01*
X187524953Y-81756782D01*
X187352982Y-81816958D01*
X187198718Y-81913889D01*
X187069889Y-82042718D01*
X186972958Y-82196982D01*
X186912782Y-82368953D01*
X186912781Y-82368958D01*
X186892384Y-82549996D01*
X186892384Y-82550003D01*
X186901664Y-82632369D01*
X186889609Y-82701191D01*
X186842260Y-82752570D01*
X186792329Y-82769472D01*
X186762958Y-82772781D01*
X186590983Y-82832957D01*
X186436718Y-82929889D01*
X186307889Y-83058718D01*
X186210958Y-83212982D01*
X186150782Y-83384953D01*
X186150781Y-83384958D01*
X186130384Y-83565996D01*
X186130384Y-83566003D01*
X164638500Y-83566003D01*
X164638500Y-82296003D01*
X181558384Y-82296003D01*
X181578781Y-82477041D01*
X181578782Y-82477046D01*
X181615234Y-82581218D01*
X181633132Y-82632369D01*
X181638958Y-82649017D01*
X181716726Y-82772783D01*
X181735889Y-82803281D01*
X181864719Y-82932111D01*
X182018985Y-83029043D01*
X182190952Y-83089217D01*
X182190953Y-83089217D01*
X182190958Y-83089218D01*
X182371996Y-83109616D01*
X182372000Y-83109616D01*
X182372004Y-83109616D01*
X182553041Y-83089218D01*
X182553044Y-83089217D01*
X182553047Y-83089217D01*
X182725015Y-83029043D01*
X182879281Y-82932111D01*
X183008111Y-82803281D01*
X183105043Y-82649015D01*
X183165217Y-82477047D01*
X183165218Y-82477041D01*
X183185616Y-82296003D01*
X183185616Y-82295996D01*
X183165218Y-82114958D01*
X183165217Y-82114953D01*
X183139941Y-82042718D01*
X183139691Y-82042003D01*
X184352384Y-82042003D01*
X184372781Y-82223041D01*
X184372782Y-82223046D01*
X184432958Y-82395017D01*
X184451239Y-82424111D01*
X184529889Y-82549281D01*
X184658719Y-82678111D01*
X184812985Y-82775043D01*
X184978494Y-82832957D01*
X184984953Y-82835217D01*
X184984958Y-82835218D01*
X185165996Y-82855616D01*
X185166000Y-82855616D01*
X185166004Y-82855616D01*
X185347041Y-82835218D01*
X185347044Y-82835217D01*
X185347047Y-82835217D01*
X185519015Y-82775043D01*
X185673281Y-82678111D01*
X185802111Y-82549281D01*
X185899043Y-82395015D01*
X185959217Y-82223047D01*
X185959218Y-82223041D01*
X185979616Y-82042003D01*
X185979616Y-82041996D01*
X185959218Y-81860958D01*
X185959217Y-81860953D01*
X185959216Y-81860952D01*
X185899043Y-81688985D01*
X185802111Y-81534719D01*
X185801395Y-81534003D01*
X189432384Y-81534003D01*
X189452781Y-81715041D01*
X189452782Y-81715046D01*
X189478562Y-81788719D01*
X189512957Y-81887015D01*
X189609889Y-82041281D01*
X189738719Y-82170111D01*
X189892985Y-82267043D01*
X190064953Y-82327217D01*
X190064958Y-82327218D01*
X190245996Y-82347616D01*
X190246000Y-82347616D01*
X190246004Y-82347616D01*
X190427041Y-82327218D01*
X190427044Y-82327217D01*
X190427047Y-82327217D01*
X190599015Y-82267043D01*
X190753281Y-82170111D01*
X190882111Y-82041281D01*
X190979043Y-81887015D01*
X191013689Y-81788003D01*
X193242384Y-81788003D01*
X193262781Y-81969041D01*
X193262782Y-81969046D01*
X193322958Y-82141017D01*
X193341239Y-82170111D01*
X193419889Y-82295281D01*
X193548719Y-82424111D01*
X193702985Y-82521043D01*
X193874952Y-82581217D01*
X193874953Y-82581217D01*
X193874958Y-82581218D01*
X194055996Y-82601616D01*
X194056000Y-82601616D01*
X194056004Y-82601616D01*
X194237041Y-82581218D01*
X194237044Y-82581217D01*
X194237047Y-82581217D01*
X194409015Y-82521043D01*
X194563281Y-82424111D01*
X194692111Y-82295281D01*
X194789043Y-82141015D01*
X194849217Y-81969047D01*
X194849218Y-81969041D01*
X194869616Y-81788003D01*
X194869616Y-81787996D01*
X194849218Y-81606958D01*
X194849217Y-81606953D01*
X194849217Y-81606952D01*
X194789043Y-81434985D01*
X194692111Y-81280719D01*
X194563281Y-81151889D01*
X194409015Y-81054957D01*
X194354693Y-81035949D01*
X194237046Y-80994782D01*
X194237041Y-80994781D01*
X194056004Y-80974384D01*
X194055996Y-80974384D01*
X193874958Y-80994781D01*
X193874953Y-80994782D01*
X193702982Y-81054958D01*
X193548718Y-81151889D01*
X193419889Y-81280718D01*
X193322958Y-81434982D01*
X193262782Y-81606953D01*
X193262781Y-81606958D01*
X193242384Y-81787996D01*
X193242384Y-81788003D01*
X191013689Y-81788003D01*
X191039217Y-81715047D01*
X191039218Y-81715041D01*
X191059616Y-81534003D01*
X191059616Y-81533996D01*
X191039218Y-81352958D01*
X191039217Y-81352953D01*
X191039217Y-81352952D01*
X190979043Y-81180985D01*
X190882111Y-81026719D01*
X190753281Y-80897889D01*
X190599015Y-80800957D01*
X190544693Y-80781949D01*
X190427046Y-80740782D01*
X190427041Y-80740781D01*
X190246004Y-80720384D01*
X190245996Y-80720384D01*
X190064958Y-80740781D01*
X190064953Y-80740782D01*
X189892982Y-80800958D01*
X189738718Y-80897889D01*
X189609889Y-81026718D01*
X189512958Y-81180982D01*
X189452782Y-81352953D01*
X189452781Y-81352958D01*
X189432384Y-81533996D01*
X189432384Y-81534003D01*
X185801395Y-81534003D01*
X185673281Y-81405889D01*
X185519015Y-81308957D01*
X185464693Y-81289949D01*
X185347046Y-81248782D01*
X185347041Y-81248781D01*
X185166004Y-81228384D01*
X185165996Y-81228384D01*
X184984958Y-81248781D01*
X184984953Y-81248782D01*
X184812982Y-81308958D01*
X184658718Y-81405889D01*
X184529889Y-81534718D01*
X184432958Y-81688982D01*
X184372782Y-81860953D01*
X184372781Y-81860958D01*
X184352384Y-82041996D01*
X184352384Y-82042003D01*
X183139691Y-82042003D01*
X183105043Y-81942985D01*
X183008111Y-81788719D01*
X182879281Y-81659889D01*
X182725015Y-81562957D01*
X182670693Y-81543949D01*
X182553046Y-81502782D01*
X182553041Y-81502781D01*
X182372004Y-81482384D01*
X182371996Y-81482384D01*
X182190958Y-81502781D01*
X182190953Y-81502782D01*
X182018982Y-81562958D01*
X181864718Y-81659889D01*
X181735889Y-81788718D01*
X181638958Y-81942982D01*
X181578782Y-82114953D01*
X181578781Y-82114958D01*
X181558384Y-82295996D01*
X181558384Y-82296003D01*
X164638500Y-82296003D01*
X164638500Y-78480000D01*
X165349529Y-78480000D01*
X165412685Y-78650527D01*
X165412687Y-78650531D01*
X165514892Y-78814503D01*
X165648002Y-78954534D01*
X165648003Y-78954535D01*
X165806586Y-79064913D01*
X165984137Y-79141106D01*
X166173394Y-79180000D01*
X166420000Y-79180000D01*
X166420000Y-78530000D01*
X166920000Y-78530000D01*
X166920000Y-79180000D01*
X167118176Y-79180000D01*
X167262221Y-79165352D01*
X167446561Y-79107515D01*
X167446571Y-79107510D01*
X167615498Y-79013748D01*
X167615505Y-79013743D01*
X167762105Y-78887892D01*
X167880368Y-78735109D01*
X167880370Y-78735105D01*
X167965457Y-78561643D01*
X167986596Y-78480000D01*
X169369529Y-78480000D01*
X169432685Y-78650527D01*
X169432687Y-78650531D01*
X169534892Y-78814503D01*
X169668002Y-78954534D01*
X169668003Y-78954535D01*
X169826588Y-79064914D01*
X169900516Y-79096640D01*
X169954359Y-79141167D01*
X169975582Y-79207735D01*
X169957446Y-79275210D01*
X169952920Y-79282098D01*
X169866621Y-79404356D01*
X169815946Y-79546939D01*
X169815946Y-79546942D01*
X169805619Y-79697918D01*
X169805619Y-79697921D01*
X169836405Y-79846078D01*
X169836407Y-79846083D01*
X169836408Y-79846085D01*
X169906029Y-79980447D01*
X169906031Y-79980449D01*
X169906032Y-79980451D01*
X170009318Y-80091043D01*
X170009320Y-80091044D01*
X170138618Y-80169672D01*
X170284335Y-80210500D01*
X170284336Y-80210500D01*
X170397659Y-80210500D01*
X170425723Y-80206642D01*
X170509920Y-80195070D01*
X170619854Y-80147318D01*
X170648716Y-80134782D01*
X170648716Y-80134781D01*
X170648720Y-80134780D01*
X170766108Y-80039278D01*
X170853377Y-79915647D01*
X170874927Y-79855012D01*
X170904053Y-79773060D01*
X170904053Y-79773058D01*
X170904054Y-79773056D01*
X170914381Y-79622079D01*
X170898768Y-79546944D01*
X170883594Y-79473921D01*
X170883592Y-79473917D01*
X170883592Y-79473915D01*
X170825108Y-79361047D01*
X170811743Y-79292469D01*
X170829438Y-79248003D01*
X186384384Y-79248003D01*
X186404781Y-79429041D01*
X186404782Y-79429046D01*
X186464958Y-79601017D01*
X186483239Y-79630111D01*
X186561889Y-79755281D01*
X186690719Y-79884111D01*
X186844985Y-79981043D01*
X187011403Y-80039275D01*
X187016953Y-80041217D01*
X187016958Y-80041218D01*
X187197996Y-80061616D01*
X187198000Y-80061616D01*
X187198004Y-80061616D01*
X187379041Y-80041218D01*
X187379044Y-80041217D01*
X187379047Y-80041217D01*
X187551015Y-79981043D01*
X187705281Y-79884111D01*
X187834111Y-79755281D01*
X187931043Y-79601015D01*
X187991217Y-79429047D01*
X187993999Y-79404356D01*
X187994527Y-79399673D01*
X188021593Y-79335259D01*
X188079187Y-79295703D01*
X188131629Y-79290335D01*
X188177776Y-79295534D01*
X188213998Y-79299616D01*
X188214000Y-79299616D01*
X188214004Y-79299616D01*
X188395041Y-79279218D01*
X188395044Y-79279217D01*
X188395047Y-79279217D01*
X188567015Y-79219043D01*
X188721281Y-79122111D01*
X188850111Y-78993281D01*
X188947043Y-78839015D01*
X189007217Y-78667047D01*
X189009078Y-78650531D01*
X189027616Y-78486003D01*
X189027616Y-78485996D01*
X189023751Y-78451690D01*
X192149757Y-78451690D01*
X192170154Y-78632728D01*
X192170155Y-78632733D01*
X192197557Y-78711043D01*
X192218613Y-78771218D01*
X192230331Y-78804704D01*
X192268776Y-78865889D01*
X192327262Y-78958968D01*
X192456092Y-79087798D01*
X192610358Y-79184730D01*
X192782326Y-79244904D01*
X192782331Y-79244905D01*
X192963369Y-79265303D01*
X192963373Y-79265303D01*
X192963377Y-79265303D01*
X193144414Y-79244905D01*
X193144417Y-79244904D01*
X193144420Y-79244904D01*
X193316388Y-79184730D01*
X193316390Y-79184728D01*
X193316392Y-79184728D01*
X193351781Y-79162491D01*
X193419017Y-79143489D01*
X193485853Y-79163855D01*
X193531068Y-79217122D01*
X193534796Y-79226528D01*
X193576955Y-79347011D01*
X193576956Y-79347015D01*
X193673889Y-79501281D01*
X193802719Y-79630111D01*
X193956985Y-79727043D01*
X194117796Y-79783313D01*
X194128953Y-79787217D01*
X194128958Y-79787218D01*
X194309996Y-79807616D01*
X194310000Y-79807616D01*
X194310004Y-79807616D01*
X194491041Y-79787218D01*
X194491044Y-79787217D01*
X194491047Y-79787217D01*
X194663015Y-79727043D01*
X194817281Y-79630111D01*
X194946111Y-79501281D01*
X195043043Y-79347015D01*
X195103217Y-79175047D01*
X195103218Y-79175041D01*
X195123616Y-78994003D01*
X195123616Y-78993997D01*
X195112459Y-78894982D01*
X195111210Y-78883894D01*
X195123264Y-78815073D01*
X195170613Y-78763694D01*
X195238223Y-78746069D01*
X195304629Y-78767795D01*
X195348747Y-78821974D01*
X195351470Y-78829053D01*
X195354954Y-78839010D01*
X195354956Y-78839015D01*
X195451889Y-78993281D01*
X195580719Y-79122111D01*
X195734985Y-79219043D01*
X195895502Y-79275210D01*
X195906953Y-79279217D01*
X195906958Y-79279218D01*
X196087996Y-79299616D01*
X196088000Y-79299616D01*
X196088004Y-79299616D01*
X196269041Y-79279218D01*
X196269044Y-79279217D01*
X196269047Y-79279217D01*
X196441015Y-79219043D01*
X196595281Y-79122111D01*
X196724111Y-78993281D01*
X196821043Y-78839015D01*
X196881217Y-78667047D01*
X196883078Y-78650531D01*
X196901616Y-78486003D01*
X196901616Y-78485996D01*
X196881218Y-78304958D01*
X196881217Y-78304953D01*
X196869210Y-78270640D01*
X196821043Y-78132985D01*
X196724111Y-77978719D01*
X196595281Y-77849889D01*
X196470903Y-77771737D01*
X196441017Y-77752958D01*
X196441016Y-77752957D01*
X196441015Y-77752957D01*
X196386693Y-77733949D01*
X196269046Y-77692782D01*
X196269041Y-77692781D01*
X196088004Y-77672384D01*
X196087996Y-77672384D01*
X195906958Y-77692781D01*
X195906953Y-77692782D01*
X195734982Y-77752958D01*
X195580718Y-77849889D01*
X195451889Y-77978718D01*
X195354956Y-78132984D01*
X195354956Y-78132985D01*
X195351470Y-78142948D01*
X195310745Y-78199722D01*
X195245791Y-78225466D01*
X195177230Y-78212007D01*
X195126830Y-78163617D01*
X195110592Y-78095661D01*
X195111210Y-78088104D01*
X195113527Y-78067547D01*
X195123616Y-77978000D01*
X195120353Y-77949043D01*
X195103218Y-77796958D01*
X195103217Y-77796953D01*
X195043043Y-77624985D01*
X194946111Y-77470719D01*
X194817281Y-77341889D01*
X194742096Y-77294647D01*
X194663017Y-77244958D01*
X194663016Y-77244957D01*
X194663015Y-77244957D01*
X194608693Y-77225949D01*
X194491046Y-77184782D01*
X194491041Y-77184781D01*
X194310004Y-77164384D01*
X194309996Y-77164384D01*
X194128958Y-77184781D01*
X194128953Y-77184782D01*
X193956982Y-77244958D01*
X193802718Y-77341889D01*
X193673889Y-77470718D01*
X193576956Y-77624984D01*
X193576956Y-77624985D01*
X193554481Y-77689215D01*
X193513759Y-77745990D01*
X193448806Y-77771737D01*
X193380245Y-77758280D01*
X193371468Y-77753253D01*
X193316390Y-77718645D01*
X193316389Y-77718644D01*
X193316388Y-77718644D01*
X193262066Y-77699636D01*
X193144419Y-77658469D01*
X193144414Y-77658468D01*
X192963377Y-77638071D01*
X192963369Y-77638071D01*
X192782331Y-77658468D01*
X192782326Y-77658469D01*
X192610355Y-77718645D01*
X192456091Y-77815576D01*
X192327262Y-77944405D01*
X192230331Y-78098669D01*
X192170155Y-78270640D01*
X192170154Y-78270645D01*
X192149757Y-78451683D01*
X192149757Y-78451690D01*
X189023751Y-78451690D01*
X189007218Y-78304958D01*
X189007217Y-78304953D01*
X188995210Y-78270640D01*
X188947043Y-78132985D01*
X188850111Y-77978719D01*
X188721281Y-77849889D01*
X188596903Y-77771737D01*
X188567017Y-77752958D01*
X188567016Y-77752957D01*
X188567015Y-77752957D01*
X188512693Y-77733949D01*
X188395046Y-77692782D01*
X188395041Y-77692781D01*
X188214004Y-77672384D01*
X188213996Y-77672384D01*
X188032958Y-77692781D01*
X188032953Y-77692782D01*
X187860982Y-77752958D01*
X187706718Y-77849889D01*
X187577889Y-77978718D01*
X187480957Y-78132983D01*
X187420781Y-78304958D01*
X187417472Y-78334329D01*
X187390404Y-78398743D01*
X187332809Y-78438297D01*
X187280369Y-78443664D01*
X187198004Y-78434384D01*
X187197996Y-78434384D01*
X187016958Y-78454781D01*
X187016953Y-78454782D01*
X186844982Y-78514958D01*
X186690718Y-78611889D01*
X186561889Y-78740718D01*
X186464958Y-78894982D01*
X186404782Y-79066953D01*
X186404781Y-79066958D01*
X186384384Y-79247996D01*
X186384384Y-79248003D01*
X170829438Y-79248003D01*
X170837577Y-79227551D01*
X170894407Y-79186904D01*
X170935206Y-79180000D01*
X171438176Y-79180000D01*
X171582221Y-79165352D01*
X171766561Y-79107515D01*
X171766571Y-79107510D01*
X171935498Y-79013748D01*
X171935505Y-79013743D01*
X172082105Y-78887892D01*
X172200368Y-78735109D01*
X172200370Y-78735105D01*
X172285457Y-78561643D01*
X172306596Y-78480000D01*
X171556111Y-78480000D01*
X171595610Y-78455543D01*
X171663201Y-78366038D01*
X171693895Y-78258160D01*
X171683546Y-78146479D01*
X171633552Y-78046078D01*
X171561069Y-77980000D01*
X172310471Y-77980000D01*
X172275843Y-77886503D01*
X177748384Y-77886503D01*
X177768781Y-78067541D01*
X177768782Y-78067546D01*
X177795167Y-78142948D01*
X177828613Y-78238533D01*
X177828958Y-78239517D01*
X177870078Y-78304958D01*
X177925889Y-78393781D01*
X178054719Y-78522611D01*
X178208985Y-78619543D01*
X178380953Y-78679716D01*
X178380953Y-78679717D01*
X178380958Y-78679718D01*
X178561996Y-78700116D01*
X178562000Y-78700116D01*
X178562004Y-78700116D01*
X178743041Y-78679718D01*
X178743044Y-78679717D01*
X178743047Y-78679717D01*
X178915015Y-78619543D01*
X179069281Y-78522611D01*
X179198111Y-78393781D01*
X179295043Y-78239515D01*
X179355217Y-78067547D01*
X179362326Y-78004457D01*
X179370836Y-77928927D01*
X179397902Y-77864513D01*
X179455497Y-77824958D01*
X179525334Y-77822820D01*
X179571900Y-77849494D01*
X179573276Y-77847770D01*
X179578718Y-77852110D01*
X179578719Y-77852111D01*
X179729922Y-77947118D01*
X179776212Y-77999452D01*
X179787169Y-78038227D01*
X179800781Y-78159042D01*
X179800782Y-78159046D01*
X179833304Y-78251988D01*
X179857473Y-78321059D01*
X179860958Y-78331017D01*
X179954571Y-78480000D01*
X179957889Y-78485281D01*
X180086719Y-78614111D01*
X180240985Y-78711043D01*
X180406494Y-78768957D01*
X180412953Y-78771217D01*
X180412958Y-78771218D01*
X180593996Y-78791616D01*
X180594000Y-78791616D01*
X180594004Y-78791616D01*
X180775041Y-78771218D01*
X180775044Y-78771217D01*
X180775047Y-78771217D01*
X180947015Y-78711043D01*
X181101281Y-78614111D01*
X181230111Y-78485281D01*
X181327043Y-78331015D01*
X181387217Y-78159047D01*
X181389031Y-78142948D01*
X181407616Y-77978003D01*
X181407616Y-77977996D01*
X181387218Y-77796958D01*
X181387217Y-77796953D01*
X181387216Y-77796953D01*
X181327043Y-77624985D01*
X181230111Y-77470719D01*
X181101281Y-77341889D01*
X181101279Y-77341887D01*
X180950077Y-77246880D01*
X180903787Y-77194546D01*
X180892830Y-77155770D01*
X180879218Y-77034958D01*
X180879217Y-77034953D01*
X180853438Y-76961281D01*
X180819043Y-76862985D01*
X180722111Y-76708719D01*
X180593281Y-76579889D01*
X180593280Y-76579888D01*
X180439016Y-76482957D01*
X180305111Y-76436102D01*
X180267047Y-76422783D01*
X180267046Y-76422782D01*
X180267041Y-76422781D01*
X180230651Y-76418681D01*
X180166238Y-76391613D01*
X180126684Y-76334018D01*
X180121318Y-76309351D01*
X180117217Y-76272953D01*
X180057043Y-76100985D01*
X179960111Y-75946719D01*
X179831281Y-75817889D01*
X179831280Y-75817889D01*
X179677017Y-75720958D01*
X179677016Y-75720957D01*
X179677015Y-75720957D01*
X179594269Y-75692003D01*
X179505046Y-75660782D01*
X179505041Y-75660781D01*
X179324004Y-75640384D01*
X179323996Y-75640384D01*
X179142958Y-75660781D01*
X179142953Y-75660782D01*
X178970982Y-75720958D01*
X178816718Y-75817889D01*
X178687889Y-75946718D01*
X178590958Y-76100982D01*
X178530782Y-76272953D01*
X178530781Y-76272958D01*
X178510384Y-76453996D01*
X178510384Y-76454003D01*
X178530781Y-76635041D01*
X178530782Y-76635046D01*
X178590958Y-76807017D01*
X178640060Y-76885162D01*
X178659060Y-76952398D01*
X178638692Y-77019234D01*
X178585425Y-77064448D01*
X178548949Y-77074354D01*
X178380958Y-77093281D01*
X178380953Y-77093282D01*
X178208982Y-77153458D01*
X178054718Y-77250389D01*
X177925889Y-77379218D01*
X177828958Y-77533482D01*
X177768782Y-77705453D01*
X177768781Y-77705458D01*
X177748384Y-77886496D01*
X177748384Y-77886503D01*
X172275843Y-77886503D01*
X172247314Y-77809472D01*
X172247312Y-77809468D01*
X172145107Y-77645496D01*
X172011997Y-77505465D01*
X172011996Y-77505464D01*
X171853413Y-77395086D01*
X171675862Y-77318893D01*
X171486606Y-77280000D01*
X171090000Y-77280000D01*
X171090000Y-77930000D01*
X170590000Y-77930000D01*
X170590000Y-77280000D01*
X170241824Y-77280000D01*
X170097778Y-77294647D01*
X169913438Y-77352484D01*
X169913428Y-77352489D01*
X169744501Y-77446251D01*
X169744494Y-77446256D01*
X169597894Y-77572107D01*
X169479631Y-77724890D01*
X169479629Y-77724894D01*
X169394542Y-77898356D01*
X169373404Y-77980000D01*
X170123889Y-77980000D01*
X170084390Y-78004457D01*
X170016799Y-78093962D01*
X169986105Y-78201840D01*
X169996454Y-78313521D01*
X170046448Y-78413922D01*
X170118931Y-78480000D01*
X169369529Y-78480000D01*
X167986596Y-78480000D01*
X167236111Y-78480000D01*
X167275610Y-78455543D01*
X167343201Y-78366038D01*
X167373895Y-78258160D01*
X167363546Y-78146479D01*
X167313552Y-78046078D01*
X167241069Y-77980000D01*
X167990471Y-77980000D01*
X167927314Y-77809472D01*
X167927312Y-77809468D01*
X167825107Y-77645496D01*
X167691997Y-77505465D01*
X167691996Y-77505464D01*
X167533413Y-77395086D01*
X167355862Y-77318893D01*
X167166606Y-77280000D01*
X166920000Y-77280000D01*
X166920000Y-77930000D01*
X166420000Y-77930000D01*
X166420000Y-77280000D01*
X166221824Y-77280000D01*
X166077778Y-77294647D01*
X165893438Y-77352484D01*
X165893428Y-77352489D01*
X165724501Y-77446251D01*
X165724494Y-77446256D01*
X165577894Y-77572107D01*
X165459631Y-77724890D01*
X165459629Y-77724894D01*
X165374542Y-77898356D01*
X165353404Y-77980000D01*
X166103889Y-77980000D01*
X166064390Y-78004457D01*
X165996799Y-78093962D01*
X165966105Y-78201840D01*
X165976454Y-78313521D01*
X166026448Y-78413922D01*
X166098931Y-78480000D01*
X165349529Y-78480000D01*
X164638500Y-78480000D01*
X164638500Y-76708003D01*
X173430384Y-76708003D01*
X173450781Y-76889041D01*
X173450782Y-76889046D01*
X173510958Y-77061017D01*
X173588725Y-77184782D01*
X173607889Y-77215281D01*
X173736719Y-77344111D01*
X173890985Y-77441043D01*
X174062952Y-77501217D01*
X174062953Y-77501217D01*
X174062958Y-77501218D01*
X174243996Y-77521616D01*
X174244000Y-77521616D01*
X174244004Y-77521616D01*
X174425041Y-77501218D01*
X174425044Y-77501217D01*
X174425047Y-77501217D01*
X174597015Y-77441043D01*
X174751281Y-77344111D01*
X174880111Y-77215281D01*
X174977043Y-77061015D01*
X175037217Y-76889047D01*
X175037655Y-76885162D01*
X175057616Y-76708003D01*
X175057616Y-76707996D01*
X175037218Y-76526958D01*
X175037217Y-76526953D01*
X175021822Y-76482957D01*
X174977043Y-76354985D01*
X174880111Y-76200719D01*
X174751281Y-76071889D01*
X174708511Y-76045015D01*
X174597017Y-75974958D01*
X174597016Y-75974957D01*
X174597015Y-75974957D01*
X174542693Y-75955949D01*
X174425046Y-75914782D01*
X174425041Y-75914781D01*
X174244004Y-75894384D01*
X174243996Y-75894384D01*
X174062958Y-75914781D01*
X174062953Y-75914782D01*
X173890982Y-75974958D01*
X173736718Y-76071889D01*
X173607889Y-76200718D01*
X173510958Y-76354982D01*
X173450782Y-76526953D01*
X173450781Y-76526958D01*
X173430384Y-76707996D01*
X173430384Y-76708003D01*
X164638500Y-76708003D01*
X164638500Y-74930003D01*
X167334384Y-74930003D01*
X167354781Y-75111041D01*
X167354782Y-75111046D01*
X167380562Y-75184719D01*
X167414957Y-75283015D01*
X167511889Y-75437281D01*
X167640719Y-75566111D01*
X167794985Y-75663043D01*
X167960494Y-75720957D01*
X167966953Y-75723217D01*
X167966958Y-75723218D01*
X168147996Y-75743616D01*
X168148000Y-75743616D01*
X168148004Y-75743616D01*
X168329041Y-75723218D01*
X168329044Y-75723217D01*
X168329047Y-75723217D01*
X168501015Y-75663043D01*
X168655281Y-75566111D01*
X168784111Y-75437281D01*
X168881043Y-75283015D01*
X168915689Y-75184003D01*
X182574384Y-75184003D01*
X182594781Y-75365041D01*
X182594782Y-75365046D01*
X182654958Y-75537017D01*
X182732725Y-75660782D01*
X182751889Y-75691281D01*
X182880719Y-75820111D01*
X183034985Y-75917043D01*
X183200494Y-75974957D01*
X183206953Y-75977217D01*
X183206958Y-75977218D01*
X183387996Y-75997616D01*
X183388000Y-75997616D01*
X183388004Y-75997616D01*
X183569041Y-75977218D01*
X183569044Y-75977217D01*
X183569047Y-75977217D01*
X183741015Y-75917043D01*
X183895281Y-75820111D01*
X184023389Y-75692003D01*
X187400384Y-75692003D01*
X187420781Y-75873041D01*
X187420782Y-75873046D01*
X187457234Y-75977218D01*
X187480957Y-76045015D01*
X187577889Y-76199281D01*
X187706719Y-76328111D01*
X187860985Y-76425043D01*
X188026494Y-76482957D01*
X188032953Y-76485217D01*
X188032958Y-76485218D01*
X188213996Y-76505616D01*
X188214000Y-76505616D01*
X188214004Y-76505616D01*
X188395041Y-76485218D01*
X188395044Y-76485217D01*
X188395047Y-76485217D01*
X188567015Y-76425043D01*
X188721281Y-76328111D01*
X188850111Y-76199281D01*
X188947043Y-76045015D01*
X189007217Y-75873047D01*
X189007218Y-75873041D01*
X189027616Y-75692003D01*
X189027616Y-75691996D01*
X189007218Y-75510958D01*
X189007217Y-75510953D01*
X188956162Y-75365047D01*
X188947043Y-75338985D01*
X188850111Y-75184719D01*
X188721281Y-75055889D01*
X188637034Y-75002953D01*
X188567017Y-74958958D01*
X188567016Y-74958957D01*
X188567015Y-74958957D01*
X188484269Y-74930003D01*
X188395046Y-74898782D01*
X188395041Y-74898781D01*
X188214004Y-74878384D01*
X188213996Y-74878384D01*
X188032958Y-74898781D01*
X188032953Y-74898782D01*
X187860982Y-74958958D01*
X187706718Y-75055889D01*
X187577889Y-75184718D01*
X187480958Y-75338982D01*
X187420782Y-75510953D01*
X187420781Y-75510958D01*
X187400384Y-75691996D01*
X187400384Y-75692003D01*
X184023389Y-75692003D01*
X184024111Y-75691281D01*
X184121043Y-75537015D01*
X184181217Y-75365047D01*
X184181218Y-75365041D01*
X184201616Y-75184003D01*
X184201616Y-75183996D01*
X184181218Y-75002958D01*
X184181217Y-75002953D01*
X184166613Y-74961217D01*
X184121043Y-74830985D01*
X184024111Y-74676719D01*
X183895281Y-74547889D01*
X183741015Y-74450957D01*
X183686693Y-74431949D01*
X183569046Y-74390782D01*
X183569041Y-74390781D01*
X183388004Y-74370384D01*
X183387996Y-74370384D01*
X183206958Y-74390781D01*
X183206953Y-74390782D01*
X183034982Y-74450958D01*
X182880718Y-74547889D01*
X182751889Y-74676718D01*
X182654958Y-74830982D01*
X182594782Y-75002953D01*
X182594781Y-75002958D01*
X182574384Y-75183996D01*
X182574384Y-75184003D01*
X168915689Y-75184003D01*
X168941217Y-75111047D01*
X168953396Y-75002958D01*
X168961616Y-74930003D01*
X168961616Y-74929996D01*
X168941218Y-74748958D01*
X168941217Y-74748953D01*
X168915438Y-74675281D01*
X168881043Y-74576985D01*
X168784111Y-74422719D01*
X168655281Y-74293889D01*
X168501015Y-74196957D01*
X168418269Y-74168003D01*
X168329046Y-74136782D01*
X168329041Y-74136781D01*
X168148004Y-74116384D01*
X168147996Y-74116384D01*
X167966958Y-74136781D01*
X167966953Y-74136782D01*
X167794982Y-74196958D01*
X167640718Y-74293889D01*
X167511889Y-74422718D01*
X167414958Y-74576982D01*
X167354782Y-74748953D01*
X167354781Y-74748958D01*
X167334384Y-74929996D01*
X167334384Y-74930003D01*
X164638500Y-74930003D01*
X164638500Y-73152003D01*
X188924384Y-73152003D01*
X188944781Y-73333041D01*
X188944782Y-73333046D01*
X188959387Y-73374783D01*
X189004957Y-73505015D01*
X189101889Y-73659281D01*
X189230719Y-73788111D01*
X189384985Y-73885043D01*
X189556952Y-73945216D01*
X189556953Y-73945217D01*
X189556958Y-73945218D01*
X189737996Y-73965616D01*
X189738000Y-73965616D01*
X189738004Y-73965616D01*
X189919041Y-73945218D01*
X189919044Y-73945217D01*
X189919047Y-73945217D01*
X190091015Y-73885043D01*
X190245281Y-73788111D01*
X190311960Y-73721431D01*
X190373279Y-73687949D01*
X190442971Y-73692933D01*
X190498905Y-73734804D01*
X190523322Y-73800268D01*
X190516680Y-73850069D01*
X190468783Y-73986950D01*
X190468781Y-73986958D01*
X190448384Y-74167996D01*
X190448384Y-74168003D01*
X190468781Y-74349041D01*
X190468782Y-74349046D01*
X190494562Y-74422719D01*
X190528957Y-74521015D01*
X190625889Y-74675281D01*
X190754719Y-74804111D01*
X190908985Y-74901043D01*
X191074494Y-74958957D01*
X191080953Y-74961217D01*
X191080958Y-74961218D01*
X191261996Y-74981616D01*
X191262000Y-74981616D01*
X191262004Y-74981616D01*
X191443041Y-74961218D01*
X191443044Y-74961217D01*
X191443047Y-74961217D01*
X191615015Y-74901043D01*
X191769281Y-74804111D01*
X191898111Y-74675281D01*
X191995043Y-74521015D01*
X192055217Y-74349047D01*
X192061432Y-74293889D01*
X192075616Y-74168003D01*
X192075616Y-74167996D01*
X192055218Y-73986958D01*
X192055217Y-73986953D01*
X192019557Y-73885043D01*
X191995043Y-73814985D01*
X191898111Y-73660719D01*
X191769281Y-73531889D01*
X191726511Y-73505015D01*
X191615017Y-73434958D01*
X191615016Y-73434957D01*
X191615015Y-73434957D01*
X191560693Y-73415949D01*
X191443046Y-73374782D01*
X191443041Y-73374781D01*
X191262004Y-73354384D01*
X191261996Y-73354384D01*
X191080958Y-73374781D01*
X191080953Y-73374782D01*
X190908982Y-73434958D01*
X190754720Y-73531888D01*
X190688042Y-73598566D01*
X190626718Y-73632050D01*
X190557027Y-73627065D01*
X190501093Y-73585194D01*
X190476677Y-73519729D01*
X190483320Y-73469929D01*
X190531215Y-73333054D01*
X190531218Y-73333041D01*
X190551616Y-73152003D01*
X190551616Y-73151996D01*
X190531218Y-72970958D01*
X190531217Y-72970953D01*
X190531217Y-72970952D01*
X190471043Y-72798985D01*
X190374111Y-72644719D01*
X190245281Y-72515889D01*
X190091015Y-72418957D01*
X190036693Y-72399949D01*
X189919046Y-72358782D01*
X189919041Y-72358781D01*
X189738004Y-72338384D01*
X189737996Y-72338384D01*
X189556958Y-72358781D01*
X189556953Y-72358782D01*
X189384982Y-72418958D01*
X189230718Y-72515889D01*
X189101889Y-72644718D01*
X189004958Y-72798982D01*
X188944782Y-72970953D01*
X188944781Y-72970958D01*
X188924384Y-73151996D01*
X188924384Y-73152003D01*
X164638500Y-73152003D01*
X164638500Y-70104003D01*
X182320384Y-70104003D01*
X182340781Y-70285041D01*
X182340782Y-70285046D01*
X182376498Y-70387116D01*
X182400957Y-70457015D01*
X182497889Y-70611281D01*
X182626719Y-70740111D01*
X182780985Y-70837043D01*
X182952952Y-70897217D01*
X182952953Y-70897217D01*
X182952958Y-70897218D01*
X183133996Y-70917616D01*
X183134000Y-70917616D01*
X183134004Y-70917616D01*
X183315041Y-70897218D01*
X183315044Y-70897217D01*
X183315047Y-70897217D01*
X183487015Y-70837043D01*
X183641281Y-70740111D01*
X183770111Y-70611281D01*
X183867043Y-70457015D01*
X183927217Y-70285047D01*
X183928364Y-70274866D01*
X183947616Y-70104003D01*
X183947616Y-70103996D01*
X183927218Y-69922958D01*
X183927217Y-69922953D01*
X183891557Y-69821043D01*
X183867043Y-69750985D01*
X183770111Y-69596719D01*
X183769392Y-69596000D01*
X193650496Y-69596000D01*
X193670458Y-69785928D01*
X193670459Y-69785931D01*
X193729470Y-69967549D01*
X193729473Y-69967556D01*
X193824960Y-70132944D01*
X193952747Y-70274866D01*
X194107248Y-70387118D01*
X194281712Y-70464794D01*
X194468513Y-70504500D01*
X194659487Y-70504500D01*
X194846288Y-70464794D01*
X195020752Y-70387118D01*
X195175253Y-70274866D01*
X195303040Y-70132944D01*
X195398527Y-69967556D01*
X195457542Y-69785928D01*
X195477504Y-69596000D01*
X195457542Y-69406072D01*
X195398527Y-69224444D01*
X195303040Y-69059056D01*
X195175253Y-68917134D01*
X195020752Y-68804882D01*
X194846288Y-68727206D01*
X194846286Y-68727205D01*
X194659487Y-68687500D01*
X194468513Y-68687500D01*
X194281714Y-68727205D01*
X194107246Y-68804883D01*
X193952745Y-68917135D01*
X193824959Y-69059057D01*
X193729473Y-69224443D01*
X193729470Y-69224450D01*
X193681867Y-69370958D01*
X193670458Y-69406072D01*
X193663961Y-69467889D01*
X193650572Y-69595281D01*
X193650496Y-69596000D01*
X183769392Y-69596000D01*
X183641281Y-69467889D01*
X183487015Y-69370957D01*
X183432693Y-69351949D01*
X183315046Y-69310782D01*
X183315041Y-69310781D01*
X183134004Y-69290384D01*
X183133996Y-69290384D01*
X182952958Y-69310781D01*
X182952953Y-69310782D01*
X182780982Y-69370958D01*
X182626718Y-69467889D01*
X182497889Y-69596718D01*
X182400958Y-69750982D01*
X182340782Y-69922953D01*
X182340781Y-69922958D01*
X182320384Y-70103996D01*
X182320384Y-70104003D01*
X164638500Y-70104003D01*
X164638500Y-68072003D01*
X169874384Y-68072003D01*
X169894781Y-68253041D01*
X169894782Y-68253046D01*
X169931234Y-68357218D01*
X169954957Y-68425015D01*
X170051889Y-68579281D01*
X170180719Y-68708111D01*
X170334985Y-68805043D01*
X170506952Y-68865216D01*
X170506953Y-68865217D01*
X170506958Y-68865218D01*
X170687996Y-68885616D01*
X170688000Y-68885616D01*
X170688004Y-68885616D01*
X170869041Y-68865218D01*
X170869044Y-68865217D01*
X170869047Y-68865217D01*
X171041015Y-68805043D01*
X171124670Y-68752478D01*
X171191905Y-68733478D01*
X171258741Y-68753845D01*
X171295635Y-68791499D01*
X171321887Y-68833278D01*
X171321889Y-68833281D01*
X171450719Y-68962111D01*
X171604985Y-69059043D01*
X171776952Y-69119216D01*
X171776953Y-69119217D01*
X171776958Y-69119218D01*
X171957996Y-69139616D01*
X171958000Y-69139616D01*
X171958004Y-69139616D01*
X172139041Y-69119218D01*
X172139044Y-69119217D01*
X172139047Y-69119217D01*
X172228252Y-69088003D01*
X176478384Y-69088003D01*
X176498781Y-69269041D01*
X176498782Y-69269046D01*
X176513387Y-69310783D01*
X176558957Y-69441015D01*
X176655889Y-69595281D01*
X176784719Y-69724111D01*
X176938985Y-69821043D01*
X177110952Y-69881216D01*
X177110953Y-69881217D01*
X177110958Y-69881218D01*
X177291996Y-69901616D01*
X177292000Y-69901616D01*
X177292004Y-69901616D01*
X177473041Y-69881218D01*
X177473044Y-69881217D01*
X177473047Y-69881217D01*
X177645015Y-69821043D01*
X177799281Y-69724111D01*
X177928111Y-69595281D01*
X178025043Y-69441015D01*
X178085217Y-69269047D01*
X178090243Y-69224443D01*
X178105616Y-69088003D01*
X178105616Y-69087996D01*
X178085218Y-68906958D01*
X178085217Y-68906953D01*
X178049557Y-68805043D01*
X178025043Y-68734985D01*
X177928111Y-68580719D01*
X177799281Y-68451889D01*
X177756511Y-68425015D01*
X177645017Y-68354958D01*
X177645016Y-68354957D01*
X177645015Y-68354957D01*
X177562269Y-68326003D01*
X177473046Y-68294782D01*
X177473041Y-68294781D01*
X177292004Y-68274384D01*
X177291996Y-68274384D01*
X177110958Y-68294781D01*
X177110953Y-68294782D01*
X176938982Y-68354958D01*
X176784718Y-68451889D01*
X176655889Y-68580718D01*
X176558958Y-68734982D01*
X176498782Y-68906953D01*
X176498781Y-68906958D01*
X176478384Y-69087996D01*
X176478384Y-69088003D01*
X172228252Y-69088003D01*
X172311015Y-69059043D01*
X172465281Y-68962111D01*
X172594111Y-68833281D01*
X172691043Y-68679015D01*
X172751217Y-68507047D01*
X172760460Y-68425015D01*
X172771616Y-68326003D01*
X172771616Y-68325996D01*
X172751218Y-68144958D01*
X172751217Y-68144953D01*
X172751217Y-68144952D01*
X172691043Y-67972985D01*
X172594111Y-67818719D01*
X172465281Y-67689889D01*
X172332567Y-67606499D01*
X172311017Y-67592958D01*
X172311016Y-67592957D01*
X172311015Y-67592957D01*
X172256693Y-67573949D01*
X172228269Y-67564003D01*
X189940384Y-67564003D01*
X189960781Y-67745041D01*
X189960782Y-67745046D01*
X189986562Y-67818719D01*
X190020957Y-67917015D01*
X190117889Y-68071281D01*
X190246719Y-68200111D01*
X190400985Y-68297043D01*
X190566494Y-68354957D01*
X190572953Y-68357217D01*
X190572958Y-68357218D01*
X190753996Y-68377616D01*
X190754000Y-68377616D01*
X190754004Y-68377616D01*
X190935041Y-68357218D01*
X190935044Y-68357217D01*
X190935047Y-68357217D01*
X191107015Y-68297043D01*
X191261281Y-68200111D01*
X191390111Y-68071281D01*
X191487043Y-67917015D01*
X191547217Y-67745047D01*
X191550105Y-67719414D01*
X191567616Y-67564003D01*
X191567616Y-67563996D01*
X191547218Y-67382958D01*
X191547217Y-67382953D01*
X191547216Y-67382953D01*
X191487043Y-67210985D01*
X191390111Y-67056719D01*
X191261281Y-66927889D01*
X191107015Y-66830957D01*
X191052693Y-66811949D01*
X191024261Y-66802000D01*
X194920496Y-66802000D01*
X194940458Y-66991928D01*
X194940459Y-66991931D01*
X194999470Y-67173549D01*
X194999473Y-67173556D01*
X195094960Y-67338944D01*
X195222747Y-67480866D01*
X195377248Y-67593118D01*
X195551712Y-67670794D01*
X195738513Y-67710500D01*
X195929487Y-67710500D01*
X196116288Y-67670794D01*
X196290752Y-67593118D01*
X196445253Y-67480866D01*
X196573040Y-67338944D01*
X196668527Y-67173556D01*
X196727542Y-66991928D01*
X196747504Y-66802000D01*
X196727542Y-66612072D01*
X196668527Y-66430444D01*
X196573040Y-66265056D01*
X196445253Y-66123134D01*
X196290752Y-66010882D01*
X196116288Y-65933206D01*
X196116286Y-65933205D01*
X195929487Y-65893500D01*
X195738513Y-65893500D01*
X195551714Y-65933205D01*
X195377246Y-66010883D01*
X195222745Y-66123135D01*
X195094959Y-66265057D01*
X194999473Y-66430443D01*
X194999470Y-66430450D01*
X194940459Y-66612068D01*
X194940458Y-66612072D01*
X194920496Y-66802000D01*
X191024261Y-66802000D01*
X190935046Y-66770782D01*
X190935041Y-66770781D01*
X190754004Y-66750384D01*
X190753996Y-66750384D01*
X190572958Y-66770781D01*
X190572953Y-66770782D01*
X190400982Y-66830958D01*
X190246718Y-66927889D01*
X190117889Y-67056718D01*
X190020958Y-67210982D01*
X189960782Y-67382953D01*
X189960781Y-67382958D01*
X189940384Y-67563996D01*
X189940384Y-67564003D01*
X172228269Y-67564003D01*
X172139046Y-67532782D01*
X172139041Y-67532781D01*
X171958004Y-67512384D01*
X171957996Y-67512384D01*
X171776958Y-67532781D01*
X171776953Y-67532782D01*
X171604982Y-67592958D01*
X171521329Y-67645521D01*
X171454092Y-67664521D01*
X171387257Y-67644153D01*
X171350363Y-67606499D01*
X171324110Y-67564718D01*
X171195281Y-67435889D01*
X171041017Y-67338958D01*
X171041016Y-67338957D01*
X171041015Y-67338957D01*
X170986693Y-67319949D01*
X170869046Y-67278782D01*
X170869041Y-67278781D01*
X170688004Y-67258384D01*
X170687996Y-67258384D01*
X170506958Y-67278781D01*
X170506953Y-67278782D01*
X170334982Y-67338958D01*
X170180718Y-67435889D01*
X170051889Y-67564718D01*
X169954958Y-67718982D01*
X169894782Y-67890953D01*
X169894781Y-67890958D01*
X169874384Y-68071996D01*
X169874384Y-68072003D01*
X164638500Y-68072003D01*
X164638500Y-65278003D01*
X168350384Y-65278003D01*
X168370781Y-65459041D01*
X168370782Y-65459046D01*
X168396309Y-65531996D01*
X168430957Y-65631015D01*
X168527889Y-65785281D01*
X168656719Y-65914111D01*
X168810985Y-66011043D01*
X168982952Y-66071217D01*
X168982953Y-66071217D01*
X168982958Y-66071218D01*
X169163996Y-66091616D01*
X169164000Y-66091616D01*
X169164004Y-66091616D01*
X169345041Y-66071218D01*
X169345044Y-66071217D01*
X169345047Y-66071217D01*
X169517015Y-66011043D01*
X169671281Y-65914111D01*
X169800111Y-65785281D01*
X169897043Y-65631015D01*
X169931689Y-65532003D01*
X170636384Y-65532003D01*
X170656781Y-65713041D01*
X170656782Y-65713046D01*
X170716958Y-65885017D01*
X170735239Y-65914111D01*
X170813889Y-66039281D01*
X170942719Y-66168111D01*
X171096985Y-66265043D01*
X171268952Y-66325217D01*
X171268953Y-66325217D01*
X171268958Y-66325218D01*
X171449996Y-66345616D01*
X171450000Y-66345616D01*
X171450004Y-66345616D01*
X171631041Y-66325218D01*
X171631044Y-66325217D01*
X171631047Y-66325217D01*
X171803015Y-66265043D01*
X171957281Y-66168111D01*
X172086111Y-66039281D01*
X172183043Y-65885015D01*
X172243217Y-65713047D01*
X172263616Y-65532000D01*
X172255396Y-65459047D01*
X172243218Y-65350958D01*
X172243217Y-65350953D01*
X172183043Y-65178985D01*
X172086111Y-65024719D01*
X171957281Y-64895889D01*
X171803015Y-64798957D01*
X171748693Y-64779949D01*
X171631046Y-64738782D01*
X171631041Y-64738781D01*
X171450004Y-64718384D01*
X171449996Y-64718384D01*
X171268958Y-64738781D01*
X171268953Y-64738782D01*
X171096982Y-64798958D01*
X170942718Y-64895889D01*
X170813889Y-65024718D01*
X170716958Y-65178982D01*
X170656782Y-65350953D01*
X170656781Y-65350958D01*
X170636384Y-65531996D01*
X170636384Y-65532003D01*
X169931689Y-65532003D01*
X169957217Y-65459047D01*
X169969396Y-65350958D01*
X169977616Y-65278003D01*
X169977616Y-65277996D01*
X169957218Y-65096958D01*
X169957217Y-65096953D01*
X169931941Y-65024718D01*
X169897043Y-64924985D01*
X169800111Y-64770719D01*
X169671281Y-64641889D01*
X169517015Y-64544957D01*
X169462693Y-64525949D01*
X169345046Y-64484782D01*
X169345041Y-64484781D01*
X169164004Y-64464384D01*
X169163996Y-64464384D01*
X168982958Y-64484781D01*
X168982953Y-64484782D01*
X168810982Y-64544958D01*
X168656718Y-64641889D01*
X168527889Y-64770718D01*
X168430958Y-64924982D01*
X168370782Y-65096953D01*
X168370781Y-65096958D01*
X168350384Y-65277996D01*
X168350384Y-65278003D01*
X164638500Y-65278003D01*
X164638500Y-63246003D01*
X178256384Y-63246003D01*
X178276781Y-63427041D01*
X178276782Y-63427046D01*
X178313234Y-63531218D01*
X178336957Y-63599015D01*
X178433889Y-63753281D01*
X178562719Y-63882111D01*
X178716985Y-63979043D01*
X178888953Y-64039217D01*
X178888958Y-64039218D01*
X179069996Y-64059616D01*
X179070000Y-64059616D01*
X179070004Y-64059616D01*
X179251041Y-64039218D01*
X179251044Y-64039217D01*
X179251047Y-64039217D01*
X179423015Y-63979043D01*
X179577281Y-63882111D01*
X179706111Y-63753281D01*
X179803043Y-63599015D01*
X179863217Y-63427047D01*
X179863218Y-63427041D01*
X179883616Y-63246003D01*
X179883616Y-63245996D01*
X179863218Y-63064958D01*
X179863217Y-63064953D01*
X179812162Y-62919047D01*
X179803043Y-62892985D01*
X179706111Y-62738719D01*
X179705395Y-62738003D01*
X189940384Y-62738003D01*
X189960781Y-62919041D01*
X189960782Y-62919046D01*
X190020958Y-63091017D01*
X190067907Y-63165735D01*
X190117889Y-63245281D01*
X190246719Y-63374111D01*
X190400985Y-63471043D01*
X190572952Y-63531217D01*
X190572953Y-63531217D01*
X190572958Y-63531218D01*
X190753996Y-63551616D01*
X190754000Y-63551616D01*
X190754004Y-63551616D01*
X190935041Y-63531218D01*
X190935044Y-63531217D01*
X190935047Y-63531217D01*
X191107015Y-63471043D01*
X191261281Y-63374111D01*
X191390111Y-63245281D01*
X191411007Y-63212024D01*
X191463340Y-63165735D01*
X191532394Y-63155086D01*
X191596242Y-63183461D01*
X191620991Y-63212023D01*
X191641889Y-63245281D01*
X191770719Y-63374111D01*
X191924985Y-63471043D01*
X192096952Y-63531217D01*
X192096953Y-63531217D01*
X192096958Y-63531218D01*
X192277996Y-63551616D01*
X192278000Y-63551616D01*
X192278004Y-63551616D01*
X192459041Y-63531218D01*
X192459044Y-63531217D01*
X192459047Y-63531217D01*
X192631015Y-63471043D01*
X192785281Y-63374111D01*
X192914111Y-63245281D01*
X193011043Y-63091015D01*
X193071217Y-62919047D01*
X193071218Y-62919041D01*
X193091616Y-62738003D01*
X193091616Y-62737996D01*
X193071218Y-62556958D01*
X193071217Y-62556953D01*
X193071217Y-62556952D01*
X193011043Y-62384985D01*
X192914111Y-62230719D01*
X192785281Y-62101889D01*
X192631015Y-62004957D01*
X192576693Y-61985949D01*
X192548261Y-61976000D01*
X194666496Y-61976000D01*
X194686458Y-62165928D01*
X194686459Y-62165931D01*
X194745470Y-62347549D01*
X194745473Y-62347556D01*
X194840960Y-62512944D01*
X194968747Y-62654866D01*
X195123248Y-62767118D01*
X195297712Y-62844794D01*
X195484513Y-62884500D01*
X195675487Y-62884500D01*
X195862288Y-62844794D01*
X196036752Y-62767118D01*
X196191253Y-62654866D01*
X196319040Y-62512944D01*
X196414527Y-62347556D01*
X196473542Y-62165928D01*
X196493504Y-61976000D01*
X196473542Y-61786072D01*
X196414527Y-61604444D01*
X196319040Y-61439056D01*
X196191253Y-61297134D01*
X196036752Y-61184882D01*
X195862288Y-61107206D01*
X195862286Y-61107205D01*
X195675487Y-61067500D01*
X195484513Y-61067500D01*
X195297714Y-61107205D01*
X195123246Y-61184883D01*
X194968745Y-61297135D01*
X194840959Y-61439057D01*
X194745473Y-61604443D01*
X194745470Y-61604450D01*
X194716685Y-61693043D01*
X194686458Y-61786072D01*
X194666496Y-61976000D01*
X192548261Y-61976000D01*
X192459046Y-61944782D01*
X192459041Y-61944781D01*
X192278004Y-61924384D01*
X192277996Y-61924384D01*
X192096958Y-61944781D01*
X192096953Y-61944782D01*
X191924982Y-62004958D01*
X191770718Y-62101889D01*
X191641887Y-62230720D01*
X191620993Y-62263974D01*
X191568658Y-62310265D01*
X191499605Y-62320912D01*
X191435757Y-62292537D01*
X191411007Y-62263974D01*
X191390112Y-62230720D01*
X191261281Y-62101889D01*
X191107017Y-62004958D01*
X191107016Y-62004957D01*
X191107015Y-62004957D01*
X191052693Y-61985949D01*
X190935046Y-61944782D01*
X190935041Y-61944781D01*
X190754004Y-61924384D01*
X190753996Y-61924384D01*
X190572958Y-61944781D01*
X190572953Y-61944782D01*
X190400982Y-62004958D01*
X190246718Y-62101889D01*
X190117889Y-62230718D01*
X190020958Y-62384982D01*
X189960782Y-62556953D01*
X189960781Y-62556958D01*
X189940384Y-62737996D01*
X189940384Y-62738003D01*
X179705395Y-62738003D01*
X179577281Y-62609889D01*
X179423015Y-62512957D01*
X179368693Y-62493949D01*
X179251046Y-62452782D01*
X179251041Y-62452781D01*
X179070004Y-62432384D01*
X179069996Y-62432384D01*
X178888958Y-62452781D01*
X178888953Y-62452782D01*
X178716982Y-62512958D01*
X178562718Y-62609889D01*
X178433889Y-62738718D01*
X178336958Y-62892982D01*
X178276782Y-63064953D01*
X178276781Y-63064958D01*
X178256384Y-63245996D01*
X178256384Y-63246003D01*
X164638500Y-63246003D01*
X164638500Y-60960003D01*
X179018384Y-60960003D01*
X179038781Y-61141041D01*
X179038782Y-61141046D01*
X179079949Y-61258693D01*
X179093400Y-61297135D01*
X179098958Y-61313017D01*
X179117239Y-61342111D01*
X179195889Y-61467281D01*
X179324719Y-61596111D01*
X179478985Y-61693043D01*
X179650953Y-61753217D01*
X179650958Y-61753218D01*
X179831996Y-61773616D01*
X179832000Y-61773616D01*
X179832004Y-61773616D01*
X180013041Y-61753218D01*
X180013044Y-61753217D01*
X180013047Y-61753217D01*
X180185015Y-61693043D01*
X180339281Y-61596111D01*
X180468111Y-61467281D01*
X180565043Y-61313015D01*
X180625217Y-61141047D01*
X180634460Y-61059015D01*
X180645616Y-60960003D01*
X180645616Y-60959996D01*
X180625218Y-60778958D01*
X180625217Y-60778953D01*
X180599691Y-60706003D01*
X183336384Y-60706003D01*
X183356781Y-60887041D01*
X183356782Y-60887046D01*
X183393234Y-60991218D01*
X183416957Y-61059015D01*
X183513889Y-61213281D01*
X183642719Y-61342111D01*
X183796985Y-61439043D01*
X183968952Y-61499217D01*
X183968953Y-61499217D01*
X183968958Y-61499218D01*
X184149996Y-61519616D01*
X184150000Y-61519616D01*
X184150004Y-61519616D01*
X184331041Y-61499218D01*
X184331044Y-61499217D01*
X184331047Y-61499217D01*
X184503015Y-61439043D01*
X184657281Y-61342111D01*
X184786111Y-61213281D01*
X184883043Y-61059015D01*
X184943217Y-60887047D01*
X184943218Y-60887041D01*
X184963616Y-60706003D01*
X184963616Y-60705996D01*
X184943218Y-60524958D01*
X184943217Y-60524953D01*
X184892162Y-60379047D01*
X184883043Y-60352985D01*
X184786111Y-60198719D01*
X184785395Y-60198003D01*
X195619884Y-60198003D01*
X195640281Y-60379041D01*
X195640282Y-60379046D01*
X195666062Y-60452719D01*
X195700457Y-60551015D01*
X195797389Y-60705281D01*
X195926219Y-60834111D01*
X196080485Y-60931043D01*
X196252452Y-60991216D01*
X196252453Y-60991217D01*
X196252458Y-60991218D01*
X196433496Y-61011616D01*
X196433500Y-61011616D01*
X196433504Y-61011616D01*
X196614541Y-60991218D01*
X196614544Y-60991217D01*
X196614547Y-60991217D01*
X196786515Y-60931043D01*
X196940781Y-60834111D01*
X197069611Y-60705281D01*
X197166543Y-60551015D01*
X197226717Y-60379047D01*
X197226718Y-60379041D01*
X197247116Y-60198003D01*
X197247116Y-60197996D01*
X197226718Y-60016958D01*
X197226717Y-60016953D01*
X197226716Y-60016952D01*
X197166543Y-59844985D01*
X197069611Y-59690719D01*
X196940781Y-59561889D01*
X196786515Y-59464957D01*
X196732193Y-59445949D01*
X196614546Y-59404782D01*
X196614541Y-59404781D01*
X196433504Y-59384384D01*
X196433496Y-59384384D01*
X196252458Y-59404781D01*
X196252453Y-59404782D01*
X196080482Y-59464958D01*
X195926218Y-59561889D01*
X195797389Y-59690718D01*
X195700458Y-59844982D01*
X195640282Y-60016953D01*
X195640281Y-60016958D01*
X195619884Y-60197996D01*
X195619884Y-60198003D01*
X184785395Y-60198003D01*
X184707969Y-60120577D01*
X184674484Y-60059254D01*
X184679468Y-59989562D01*
X184721340Y-59933629D01*
X184754701Y-59915853D01*
X184755393Y-59915610D01*
X184757015Y-59915043D01*
X184911281Y-59818111D01*
X185040111Y-59689281D01*
X185137043Y-59535015D01*
X185197217Y-59363047D01*
X185217616Y-59182000D01*
X185197217Y-59000953D01*
X185137043Y-58828985D01*
X185040111Y-58674719D01*
X184938490Y-58573098D01*
X184905005Y-58511775D01*
X184909130Y-58444461D01*
X184943216Y-58347051D01*
X184943218Y-58347041D01*
X184963616Y-58166003D01*
X184963616Y-58165996D01*
X184943218Y-57984958D01*
X184943217Y-57984953D01*
X184943217Y-57984952D01*
X184917691Y-57912003D01*
X193496384Y-57912003D01*
X193516781Y-58093041D01*
X193516782Y-58093046D01*
X193576958Y-58265017D01*
X193595239Y-58294111D01*
X193673889Y-58419281D01*
X193802719Y-58548111D01*
X193956985Y-58645043D01*
X194128952Y-58705216D01*
X194128953Y-58705217D01*
X194128958Y-58705218D01*
X194309996Y-58725616D01*
X194310000Y-58725616D01*
X194310004Y-58725616D01*
X194491041Y-58705218D01*
X194491044Y-58705217D01*
X194491047Y-58705217D01*
X194663015Y-58645043D01*
X194817281Y-58548111D01*
X194946111Y-58419281D01*
X195043043Y-58265015D01*
X195103217Y-58093047D01*
X195115396Y-57984958D01*
X195123616Y-57912003D01*
X195123616Y-57911996D01*
X195103218Y-57730958D01*
X195103217Y-57730953D01*
X195077941Y-57658718D01*
X195043043Y-57558985D01*
X194946111Y-57404719D01*
X194817281Y-57275889D01*
X194663015Y-57178957D01*
X194608693Y-57159949D01*
X194491046Y-57118782D01*
X194491041Y-57118781D01*
X194310004Y-57098384D01*
X194309996Y-57098384D01*
X194128958Y-57118781D01*
X194128953Y-57118782D01*
X193956982Y-57178958D01*
X193802718Y-57275889D01*
X193673889Y-57404718D01*
X193576958Y-57558982D01*
X193516782Y-57730953D01*
X193516781Y-57730958D01*
X193496384Y-57911996D01*
X193496384Y-57912003D01*
X184917691Y-57912003D01*
X184883043Y-57812985D01*
X184786111Y-57658719D01*
X184657281Y-57529889D01*
X184503015Y-57432957D01*
X184448693Y-57413949D01*
X184331046Y-57372782D01*
X184331041Y-57372781D01*
X184150004Y-57352384D01*
X184149996Y-57352384D01*
X183968958Y-57372781D01*
X183968953Y-57372782D01*
X183796982Y-57432958D01*
X183642718Y-57529889D01*
X183513889Y-57658718D01*
X183416958Y-57812982D01*
X183356782Y-57984953D01*
X183356781Y-57984958D01*
X183336384Y-58165996D01*
X183336384Y-58166003D01*
X183356781Y-58347041D01*
X183356782Y-58347046D01*
X183416958Y-58519017D01*
X183435239Y-58548111D01*
X183513889Y-58673281D01*
X183566224Y-58725616D01*
X183615510Y-58774902D01*
X183648994Y-58836225D01*
X183644870Y-58903538D01*
X183610782Y-59000953D01*
X183610781Y-59000958D01*
X183590384Y-59181996D01*
X183590384Y-59182003D01*
X183610781Y-59363041D01*
X183610782Y-59363046D01*
X183670958Y-59535017D01*
X183767889Y-59689281D01*
X183846030Y-59767422D01*
X183879515Y-59828745D01*
X183874531Y-59898437D01*
X183832659Y-59954370D01*
X183799314Y-59972141D01*
X183796989Y-59972954D01*
X183796984Y-59972956D01*
X183642718Y-60069889D01*
X183513889Y-60198718D01*
X183416958Y-60352982D01*
X183356782Y-60524953D01*
X183356781Y-60524958D01*
X183336384Y-60705996D01*
X183336384Y-60706003D01*
X180599691Y-60706003D01*
X180565043Y-60606985D01*
X180468111Y-60452719D01*
X180339281Y-60323889D01*
X180185015Y-60226957D01*
X180130693Y-60207949D01*
X180013046Y-60166782D01*
X180013041Y-60166781D01*
X179832004Y-60146384D01*
X179831996Y-60146384D01*
X179650958Y-60166781D01*
X179650953Y-60166782D01*
X179478982Y-60226958D01*
X179324718Y-60323889D01*
X179195889Y-60452718D01*
X179098958Y-60606982D01*
X179038782Y-60778953D01*
X179038781Y-60778958D01*
X179018384Y-60959996D01*
X179018384Y-60960003D01*
X164638500Y-60960003D01*
X164638500Y-58166003D01*
X174700384Y-58166003D01*
X174720781Y-58347041D01*
X174720782Y-58347046D01*
X174780958Y-58519017D01*
X174799239Y-58548111D01*
X174877889Y-58673281D01*
X175006719Y-58802111D01*
X175160985Y-58899043D01*
X175332953Y-58959217D01*
X175332958Y-58959218D01*
X175513996Y-58979616D01*
X175514000Y-58979616D01*
X175514004Y-58979616D01*
X175695041Y-58959218D01*
X175695044Y-58959217D01*
X175695047Y-58959217D01*
X175867015Y-58899043D01*
X176021281Y-58802111D01*
X176150111Y-58673281D01*
X176247043Y-58519015D01*
X176307217Y-58347047D01*
X176307218Y-58347041D01*
X176327616Y-58166003D01*
X176327616Y-58165996D01*
X176307218Y-57984958D01*
X176307217Y-57984953D01*
X176307217Y-57984952D01*
X176247043Y-57812985D01*
X176150111Y-57658719D01*
X176149395Y-57658003D01*
X178002384Y-57658003D01*
X178022781Y-57839041D01*
X178022782Y-57839046D01*
X178048309Y-57911996D01*
X178082957Y-58011015D01*
X178179889Y-58165281D01*
X178308719Y-58294111D01*
X178462985Y-58391043D01*
X178634952Y-58451217D01*
X178634953Y-58451217D01*
X178634958Y-58451218D01*
X178815996Y-58471616D01*
X178816000Y-58471616D01*
X178816004Y-58471616D01*
X178997041Y-58451218D01*
X178997044Y-58451217D01*
X178997047Y-58451217D01*
X179169015Y-58391043D01*
X179323281Y-58294111D01*
X179452111Y-58165281D01*
X179549043Y-58011015D01*
X179609217Y-57839047D01*
X179609218Y-57839041D01*
X179629616Y-57658003D01*
X179629616Y-57657996D01*
X179609218Y-57476958D01*
X179609217Y-57476953D01*
X179609216Y-57476952D01*
X179549043Y-57304985D01*
X179452111Y-57150719D01*
X179323281Y-57021889D01*
X179169015Y-56924957D01*
X179086269Y-56896003D01*
X196036384Y-56896003D01*
X196056781Y-57077041D01*
X196056782Y-57077046D01*
X196116958Y-57249017D01*
X196194725Y-57372782D01*
X196213889Y-57403281D01*
X196342719Y-57532111D01*
X196496985Y-57629043D01*
X196668953Y-57689216D01*
X196668953Y-57689217D01*
X196668958Y-57689218D01*
X196849996Y-57709616D01*
X196850000Y-57709616D01*
X196850004Y-57709616D01*
X197031041Y-57689218D01*
X197031044Y-57689217D01*
X197031047Y-57689217D01*
X197203015Y-57629043D01*
X197357281Y-57532111D01*
X197486111Y-57403281D01*
X197583043Y-57249015D01*
X197643217Y-57077047D01*
X197649432Y-57021889D01*
X197663616Y-56896003D01*
X197663616Y-56895996D01*
X197643218Y-56714958D01*
X197643217Y-56714953D01*
X197643216Y-56714952D01*
X197583043Y-56542985D01*
X197486111Y-56388719D01*
X197357281Y-56259889D01*
X197203015Y-56162957D01*
X197148693Y-56143949D01*
X197031046Y-56102782D01*
X197031041Y-56102781D01*
X196850004Y-56082384D01*
X196849996Y-56082384D01*
X196668958Y-56102781D01*
X196668953Y-56102782D01*
X196496982Y-56162958D01*
X196342718Y-56259889D01*
X196213889Y-56388718D01*
X196116958Y-56542982D01*
X196056782Y-56714953D01*
X196056781Y-56714958D01*
X196036384Y-56895996D01*
X196036384Y-56896003D01*
X179086269Y-56896003D01*
X178997046Y-56864782D01*
X178997041Y-56864781D01*
X178816004Y-56844384D01*
X178815996Y-56844384D01*
X178634958Y-56864781D01*
X178634953Y-56864782D01*
X178462982Y-56924958D01*
X178308718Y-57021889D01*
X178179889Y-57150718D01*
X178082958Y-57304982D01*
X178022782Y-57476953D01*
X178022781Y-57476958D01*
X178002384Y-57657996D01*
X178002384Y-57658003D01*
X176149395Y-57658003D01*
X176021281Y-57529889D01*
X175867015Y-57432957D01*
X175812693Y-57413949D01*
X175695046Y-57372782D01*
X175695041Y-57372781D01*
X175514004Y-57352384D01*
X175513996Y-57352384D01*
X175332958Y-57372781D01*
X175332953Y-57372782D01*
X175160982Y-57432958D01*
X175006718Y-57529889D01*
X174877889Y-57658718D01*
X174780958Y-57812982D01*
X174720782Y-57984953D01*
X174720781Y-57984958D01*
X174700384Y-58165996D01*
X174700384Y-58166003D01*
X164638500Y-58166003D01*
X164638500Y-55245003D01*
X174796384Y-55245003D01*
X174816781Y-55426041D01*
X174816782Y-55426046D01*
X174857949Y-55543693D01*
X174876957Y-55598015D01*
X174973889Y-55752281D01*
X175102719Y-55881111D01*
X175256985Y-55978043D01*
X175428952Y-56038217D01*
X175428953Y-56038217D01*
X175428958Y-56038218D01*
X175609996Y-56058616D01*
X175610000Y-56058616D01*
X175610004Y-56058616D01*
X175791041Y-56038218D01*
X175791044Y-56038217D01*
X175791047Y-56038217D01*
X175963015Y-55978043D01*
X176117281Y-55881111D01*
X176246111Y-55752281D01*
X176343043Y-55598015D01*
X176403217Y-55426047D01*
X176423616Y-55245000D01*
X176403217Y-55063953D01*
X176343043Y-54891985D01*
X176246111Y-54737719D01*
X176117281Y-54608889D01*
X175963015Y-54511957D01*
X175908693Y-54492949D01*
X175791046Y-54451782D01*
X175791041Y-54451781D01*
X175610004Y-54431384D01*
X175609996Y-54431384D01*
X175428958Y-54451781D01*
X175428953Y-54451782D01*
X175256982Y-54511958D01*
X175102718Y-54608889D01*
X174973889Y-54737718D01*
X174876958Y-54891982D01*
X174816782Y-55063953D01*
X174816781Y-55063958D01*
X174796384Y-55244996D01*
X174796384Y-55245003D01*
X164638500Y-55245003D01*
X164638500Y-53431503D01*
X171652384Y-53431503D01*
X171672781Y-53612541D01*
X171672782Y-53612546D01*
X171713949Y-53730193D01*
X171732957Y-53784515D01*
X171829889Y-53938781D01*
X171958719Y-54067611D01*
X172112985Y-54164543D01*
X172284952Y-54224717D01*
X172284953Y-54224717D01*
X172284958Y-54224718D01*
X172465996Y-54245116D01*
X172466000Y-54245116D01*
X172466004Y-54245116D01*
X172647041Y-54224718D01*
X172647044Y-54224717D01*
X172647047Y-54224717D01*
X172819015Y-54164543D01*
X172973281Y-54067611D01*
X173102111Y-53938781D01*
X173199043Y-53784515D01*
X173259217Y-53612547D01*
X173259218Y-53612541D01*
X173261307Y-53594003D01*
X175970384Y-53594003D01*
X175990781Y-53775041D01*
X175990782Y-53775046D01*
X176031949Y-53892693D01*
X176050957Y-53947015D01*
X176147889Y-54101281D01*
X176276719Y-54230111D01*
X176430985Y-54327043D01*
X176602952Y-54387216D01*
X176602953Y-54387217D01*
X176602958Y-54387218D01*
X176783996Y-54407616D01*
X176784000Y-54407616D01*
X176784004Y-54407616D01*
X176965041Y-54387218D01*
X176965044Y-54387217D01*
X176965047Y-54387217D01*
X177137015Y-54327043D01*
X177291281Y-54230111D01*
X177419392Y-54102000D01*
X194666496Y-54102000D01*
X194686458Y-54291928D01*
X194686459Y-54291931D01*
X194745470Y-54473549D01*
X194745473Y-54473556D01*
X194840960Y-54638944D01*
X194968747Y-54780866D01*
X195123248Y-54893118D01*
X195297712Y-54970794D01*
X195484513Y-55010500D01*
X195675487Y-55010500D01*
X195862288Y-54970794D01*
X196036752Y-54893118D01*
X196191253Y-54780866D01*
X196319040Y-54638944D01*
X196414527Y-54473556D01*
X196473542Y-54291928D01*
X196493504Y-54102000D01*
X196473542Y-53912072D01*
X196414527Y-53730444D01*
X196319040Y-53565056D01*
X196203981Y-53437269D01*
X196191254Y-53423135D01*
X196093346Y-53352000D01*
X196036752Y-53310882D01*
X195862288Y-53233206D01*
X195862286Y-53233205D01*
X195675487Y-53193500D01*
X195484513Y-53193500D01*
X195297714Y-53233205D01*
X195123246Y-53310883D01*
X194968745Y-53423135D01*
X194840959Y-53565057D01*
X194745473Y-53730443D01*
X194745470Y-53730450D01*
X194727903Y-53784517D01*
X194686458Y-53912072D01*
X194666496Y-54102000D01*
X177419392Y-54102000D01*
X177420111Y-54101281D01*
X177517043Y-53947015D01*
X177577217Y-53775047D01*
X177582243Y-53730443D01*
X177597616Y-53594003D01*
X177597616Y-53593996D01*
X177577218Y-53412958D01*
X177577217Y-53412953D01*
X177577216Y-53412953D01*
X177517043Y-53240985D01*
X177420111Y-53086719D01*
X177291281Y-52957889D01*
X177237694Y-52924218D01*
X177137017Y-52860958D01*
X177137016Y-52860957D01*
X177137015Y-52860957D01*
X177052206Y-52831281D01*
X176965046Y-52800782D01*
X176965041Y-52800781D01*
X176784004Y-52780384D01*
X176783996Y-52780384D01*
X176602958Y-52800781D01*
X176602953Y-52800782D01*
X176430982Y-52860958D01*
X176276718Y-52957889D01*
X176147889Y-53086718D01*
X176050958Y-53240982D01*
X175990782Y-53412953D01*
X175990781Y-53412958D01*
X175970384Y-53593996D01*
X175970384Y-53594003D01*
X173261307Y-53594003D01*
X173279616Y-53431503D01*
X173279616Y-53431496D01*
X173259218Y-53250458D01*
X173259217Y-53250453D01*
X173239288Y-53193500D01*
X173199043Y-53078485D01*
X173102111Y-52924219D01*
X172973281Y-52795389D01*
X172819015Y-52698457D01*
X172757737Y-52677015D01*
X172647046Y-52638282D01*
X172647041Y-52638281D01*
X172466004Y-52617884D01*
X172465996Y-52617884D01*
X172284958Y-52638281D01*
X172284953Y-52638282D01*
X172112982Y-52698458D01*
X171958718Y-52795389D01*
X171829889Y-52924218D01*
X171732958Y-53078482D01*
X171672782Y-53250453D01*
X171672781Y-53250458D01*
X171652384Y-53431496D01*
X171652384Y-53431503D01*
X164638500Y-53431503D01*
X164638500Y-52324003D01*
X168350384Y-52324003D01*
X168370781Y-52505041D01*
X168370782Y-52505046D01*
X168400709Y-52590570D01*
X168417403Y-52638281D01*
X168430958Y-52677017D01*
X168508725Y-52800782D01*
X168527889Y-52831281D01*
X168656719Y-52960111D01*
X168810985Y-53057043D01*
X168982952Y-53117217D01*
X168982953Y-53117217D01*
X168982958Y-53117218D01*
X169163996Y-53137616D01*
X169164000Y-53137616D01*
X169164004Y-53137616D01*
X169345041Y-53117218D01*
X169345044Y-53117217D01*
X169345047Y-53117217D01*
X169517015Y-53057043D01*
X169671281Y-52960111D01*
X169800111Y-52831281D01*
X169897043Y-52677015D01*
X169957217Y-52505047D01*
X169964371Y-52441556D01*
X169977616Y-52324003D01*
X169977616Y-52323996D01*
X169957218Y-52142958D01*
X169957217Y-52142953D01*
X169935826Y-52081822D01*
X169897043Y-51970985D01*
X169800111Y-51816719D01*
X169671281Y-51687889D01*
X169608258Y-51648289D01*
X169534596Y-51602004D01*
X177569093Y-51602004D01*
X177588692Y-51863545D01*
X177588693Y-51863550D01*
X177647058Y-52119270D01*
X177742883Y-52363426D01*
X177742882Y-52363426D01*
X177874030Y-52590577D01*
X177921873Y-52650571D01*
X177921874Y-52650571D01*
X178572766Y-51999679D01*
X178616316Y-52081822D01*
X178736009Y-52222735D01*
X178883195Y-52334623D01*
X178925402Y-52354150D01*
X178274831Y-53004720D01*
X178446546Y-53121793D01*
X178446550Y-53121795D01*
X178682854Y-53235594D01*
X178682858Y-53235595D01*
X178933494Y-53312907D01*
X178933500Y-53312909D01*
X179192848Y-53351999D01*
X179192857Y-53352000D01*
X179455143Y-53352000D01*
X179455151Y-53351999D01*
X179714499Y-53312909D01*
X179714505Y-53312907D01*
X179965143Y-53235595D01*
X180201445Y-53121798D01*
X180201456Y-53121791D01*
X180373167Y-53004720D01*
X179722609Y-52354161D01*
X179841431Y-52282669D01*
X179975658Y-52155523D01*
X180078861Y-52003308D01*
X180726124Y-52650571D01*
X180773974Y-52590570D01*
X180905116Y-52363426D01*
X181000941Y-52119270D01*
X181059306Y-51863550D01*
X181059307Y-51863545D01*
X181078907Y-51602004D01*
X182649093Y-51602004D01*
X182668692Y-51863545D01*
X182668693Y-51863550D01*
X182727058Y-52119270D01*
X182822883Y-52363426D01*
X182822882Y-52363426D01*
X182954030Y-52590577D01*
X183001873Y-52650571D01*
X183001874Y-52650571D01*
X183652766Y-51999679D01*
X183696316Y-52081822D01*
X183816009Y-52222735D01*
X183963195Y-52334623D01*
X184005402Y-52354150D01*
X183354831Y-53004720D01*
X183526546Y-53121793D01*
X183526550Y-53121795D01*
X183762854Y-53235594D01*
X183762858Y-53235595D01*
X184013494Y-53312907D01*
X184013500Y-53312909D01*
X184272848Y-53351999D01*
X184272857Y-53352000D01*
X184535143Y-53352000D01*
X184535151Y-53351999D01*
X184794499Y-53312909D01*
X184794505Y-53312907D01*
X185045143Y-53235595D01*
X185281445Y-53121798D01*
X185281456Y-53121791D01*
X185453167Y-53004720D01*
X184802609Y-52354161D01*
X184921431Y-52282669D01*
X185055658Y-52155523D01*
X185158861Y-52003308D01*
X185806124Y-52650571D01*
X185853974Y-52590570D01*
X185985116Y-52363426D01*
X186080941Y-52119270D01*
X186092186Y-52070000D01*
X190094496Y-52070000D01*
X190114458Y-52259928D01*
X190114459Y-52259931D01*
X190173470Y-52441549D01*
X190173473Y-52441556D01*
X190268960Y-52606944D01*
X190396747Y-52748866D01*
X190551248Y-52861118D01*
X190725712Y-52938794D01*
X190912513Y-52978500D01*
X191103487Y-52978500D01*
X191290288Y-52938794D01*
X191464752Y-52861118D01*
X191619253Y-52748866D01*
X191747040Y-52606944D01*
X191842527Y-52441556D01*
X191901542Y-52259928D01*
X191921504Y-52070000D01*
X191901542Y-51880072D01*
X191842527Y-51698444D01*
X191747040Y-51533056D01*
X191619253Y-51391134D01*
X191464752Y-51278882D01*
X191290288Y-51201206D01*
X191290286Y-51201205D01*
X191103487Y-51161500D01*
X190912513Y-51161500D01*
X190725714Y-51201205D01*
X190551246Y-51278883D01*
X190396745Y-51391135D01*
X190268959Y-51533057D01*
X190173473Y-51698443D01*
X190173470Y-51698450D01*
X190130487Y-51830740D01*
X190114458Y-51880072D01*
X190094496Y-52070000D01*
X186092186Y-52070000D01*
X186139306Y-51863550D01*
X186139307Y-51863545D01*
X186158907Y-51602004D01*
X186158907Y-51601995D01*
X186139307Y-51340454D01*
X186139306Y-51340449D01*
X186080941Y-51084729D01*
X185985116Y-50840573D01*
X185985117Y-50840573D01*
X185853971Y-50613426D01*
X185806125Y-50553427D01*
X185155232Y-51204319D01*
X185111684Y-51122178D01*
X184991991Y-50981265D01*
X184844805Y-50869377D01*
X184802596Y-50849849D01*
X185453167Y-50199278D01*
X185281447Y-50082202D01*
X185281445Y-50082201D01*
X185045142Y-49968404D01*
X185045144Y-49968404D01*
X184794505Y-49891092D01*
X184794499Y-49891090D01*
X184535151Y-49852000D01*
X184272848Y-49852000D01*
X184013500Y-49891090D01*
X184013494Y-49891092D01*
X183762858Y-49968404D01*
X183762854Y-49968405D01*
X183526550Y-50082204D01*
X183526546Y-50082206D01*
X183354832Y-50199278D01*
X184005391Y-50849837D01*
X183886569Y-50921331D01*
X183752342Y-51048477D01*
X183649138Y-51200691D01*
X183001873Y-50553427D01*
X182954029Y-50613423D01*
X182822883Y-50840573D01*
X182727058Y-51084729D01*
X182668693Y-51340449D01*
X182668692Y-51340454D01*
X182649093Y-51601995D01*
X182649093Y-51602004D01*
X181078907Y-51602004D01*
X181078907Y-51601995D01*
X181059307Y-51340454D01*
X181059306Y-51340449D01*
X181000941Y-51084729D01*
X180905116Y-50840573D01*
X180905117Y-50840573D01*
X180773971Y-50613426D01*
X180726125Y-50553427D01*
X180075232Y-51204319D01*
X180031684Y-51122178D01*
X179911991Y-50981265D01*
X179764805Y-50869377D01*
X179722596Y-50849849D01*
X180373167Y-50199278D01*
X180201447Y-50082202D01*
X180201445Y-50082201D01*
X179965142Y-49968404D01*
X179965144Y-49968404D01*
X179714505Y-49891092D01*
X179714499Y-49891090D01*
X179455151Y-49852000D01*
X179192848Y-49852000D01*
X178933500Y-49891090D01*
X178933494Y-49891092D01*
X178682858Y-49968404D01*
X178682854Y-49968405D01*
X178446550Y-50082204D01*
X178446546Y-50082206D01*
X178274832Y-50199278D01*
X178925391Y-50849837D01*
X178806569Y-50921331D01*
X178672342Y-51048477D01*
X178569138Y-51200691D01*
X177921873Y-50553427D01*
X177874029Y-50613423D01*
X177742883Y-50840573D01*
X177647058Y-51084729D01*
X177588693Y-51340449D01*
X177588692Y-51340454D01*
X177569093Y-51601995D01*
X177569093Y-51602004D01*
X169534596Y-51602004D01*
X169517017Y-51590958D01*
X169517016Y-51590957D01*
X169517015Y-51590957D01*
X169462693Y-51571949D01*
X169345046Y-51530782D01*
X169345041Y-51530781D01*
X169164004Y-51510384D01*
X169163996Y-51510384D01*
X168982958Y-51530781D01*
X168982953Y-51530782D01*
X168810982Y-51590958D01*
X168656718Y-51687889D01*
X168527889Y-51816718D01*
X168430958Y-51970982D01*
X168370782Y-52142953D01*
X168370781Y-52142958D01*
X168350384Y-52323996D01*
X168350384Y-52324003D01*
X164638500Y-52324003D01*
X164638500Y-48636579D01*
X164658185Y-48569540D01*
X164710989Y-48523785D01*
X164780147Y-48513841D01*
X164843703Y-48542866D01*
X164875576Y-48585688D01*
X164968897Y-48793041D01*
X164968898Y-48793043D01*
X165137887Y-49072586D01*
X165285477Y-49260968D01*
X165798070Y-48748375D01*
X165997274Y-48748375D01*
X166036887Y-48830631D01*
X166108266Y-48887553D01*
X166174742Y-48902726D01*
X166219806Y-48902726D01*
X166286282Y-48887553D01*
X166357661Y-48830631D01*
X166397274Y-48748375D01*
X166397274Y-48657077D01*
X166357661Y-48574821D01*
X166286282Y-48517899D01*
X166219806Y-48502726D01*
X166174742Y-48502726D01*
X166108266Y-48517899D01*
X166036887Y-48574821D01*
X165997274Y-48657077D01*
X165997274Y-48748375D01*
X165798070Y-48748375D01*
X166428210Y-48118235D01*
X166528894Y-48259624D01*
X166680932Y-48404592D01*
X166783222Y-48470330D01*
X165639030Y-49614521D01*
X165639030Y-49614522D01*
X165827414Y-49762112D01*
X165827423Y-49762118D01*
X166106956Y-49931101D01*
X166106958Y-49931102D01*
X166404824Y-50065160D01*
X166404835Y-50065164D01*
X166716658Y-50162332D01*
X167037961Y-50221213D01*
X167364000Y-50240934D01*
X167690038Y-50221213D01*
X168011341Y-50162332D01*
X168323164Y-50065164D01*
X168323175Y-50065160D01*
X168621041Y-49931102D01*
X168621043Y-49931101D01*
X168900576Y-49762118D01*
X168900584Y-49762112D01*
X169088968Y-49614522D01*
X169088968Y-49614521D01*
X168222822Y-48748375D01*
X168330726Y-48748375D01*
X168370339Y-48830631D01*
X168441718Y-48887553D01*
X168508194Y-48902726D01*
X168553258Y-48902726D01*
X168619734Y-48887553D01*
X168691113Y-48830631D01*
X168730726Y-48748375D01*
X168730726Y-48657077D01*
X168691113Y-48574821D01*
X168619734Y-48517899D01*
X168553258Y-48502726D01*
X168508194Y-48502726D01*
X168441718Y-48517899D01*
X168370339Y-48574821D01*
X168330726Y-48657077D01*
X168330726Y-48748375D01*
X168222822Y-48748375D01*
X167947306Y-48472859D01*
X167961410Y-48465589D01*
X168126540Y-48335729D01*
X168264110Y-48176965D01*
X168298665Y-48117112D01*
X169442521Y-49260968D01*
X169442522Y-49260968D01*
X169553989Y-49118691D01*
X180601685Y-49118691D01*
X180620958Y-49260968D01*
X180632094Y-49343175D01*
X180632095Y-49343180D01*
X180702097Y-49558622D01*
X180732178Y-49614521D01*
X180809444Y-49758106D01*
X180833232Y-49787935D01*
X180950685Y-49935218D01*
X181121275Y-50084257D01*
X181121282Y-50084263D01*
X181315750Y-50200453D01*
X181527839Y-50280051D01*
X181750729Y-50320500D01*
X181750733Y-50320500D01*
X181920515Y-50320500D01*
X181920522Y-50320500D01*
X182089622Y-50305281D01*
X182089626Y-50305280D01*
X182307983Y-50245017D01*
X182307985Y-50245016D01*
X182307993Y-50245014D01*
X182512093Y-50146725D01*
X182695363Y-50013571D01*
X182851912Y-49849834D01*
X182976709Y-49660774D01*
X183065743Y-49452470D01*
X183116151Y-49231615D01*
X183126315Y-49005309D01*
X183095906Y-48780825D01*
X183025903Y-48565379D01*
X182918556Y-48365894D01*
X182870979Y-48306234D01*
X182777314Y-48188781D01*
X182606724Y-48039742D01*
X182606722Y-48039740D01*
X182606718Y-48039737D01*
X182502175Y-47977275D01*
X182412256Y-47923550D01*
X182412253Y-47923548D01*
X182412250Y-47923547D01*
X182293517Y-47878986D01*
X182200160Y-47843948D01*
X181977271Y-47803500D01*
X181977267Y-47803500D01*
X181807478Y-47803500D01*
X181768788Y-47806982D01*
X181638379Y-47818718D01*
X181638373Y-47818719D01*
X181420016Y-47878982D01*
X181420003Y-47878987D01*
X181215913Y-47977271D01*
X181215906Y-47977275D01*
X181032642Y-48110424D01*
X181032634Y-48110431D01*
X180876089Y-48274164D01*
X180751289Y-48463227D01*
X180662259Y-48671522D01*
X180662255Y-48671535D01*
X180611850Y-48892379D01*
X180611848Y-48892390D01*
X180601685Y-49118687D01*
X180601685Y-49118691D01*
X169553989Y-49118691D01*
X169590112Y-49072584D01*
X169590118Y-49072576D01*
X169759101Y-48793043D01*
X169759102Y-48793041D01*
X169893160Y-48495175D01*
X169893164Y-48495164D01*
X169990332Y-48183341D01*
X170049213Y-47862038D01*
X170068934Y-47535999D01*
X170049213Y-47209961D01*
X169990332Y-46888658D01*
X169893164Y-46576835D01*
X169893160Y-46576824D01*
X169759102Y-46278958D01*
X169759101Y-46278956D01*
X169590118Y-45999423D01*
X169590112Y-45999414D01*
X169442521Y-45811030D01*
X168299788Y-46953763D01*
X168199106Y-46812376D01*
X168047068Y-46667408D01*
X167944776Y-46601669D01*
X168131522Y-46414923D01*
X168330726Y-46414923D01*
X168370339Y-46497179D01*
X168441718Y-46554101D01*
X168508194Y-46569274D01*
X168553258Y-46569274D01*
X168619734Y-46554101D01*
X168691113Y-46497179D01*
X168730726Y-46414923D01*
X168730726Y-46323625D01*
X168691113Y-46241369D01*
X168619734Y-46184447D01*
X168553258Y-46169274D01*
X168508194Y-46169274D01*
X168441718Y-46184447D01*
X168370339Y-46241369D01*
X168330726Y-46323625D01*
X168330726Y-46414923D01*
X168131522Y-46414923D01*
X169088968Y-45457477D01*
X169088968Y-45457476D01*
X168900586Y-45309887D01*
X168621043Y-45140898D01*
X168621041Y-45140897D01*
X168323175Y-45006839D01*
X168323164Y-45006835D01*
X168278396Y-44992885D01*
X168220248Y-44954148D01*
X168192274Y-44890123D01*
X168203356Y-44821137D01*
X168249974Y-44769094D01*
X168315286Y-44750500D01*
X178425940Y-44750500D01*
X178492979Y-44770185D01*
G37*
G04 #@! TD.AperFunction*
M02*
