M48
; DRILL file {KiCad 7.0.5} date Thu 15 Jun 2023 05:11:41 PM CEST
; FORMAT={-:-/ absolute / metric / decimal}
; #@! TF.CreationDate,2023-06-15T17:11:41+02:00
; #@! TF.GenerationSoftware,Kicad,Pcbnew,7.0.5
; #@! TF.FileFunction,Plated,1,4,PTH
FMAT,2
METRIC
; #@! TA.AperFunction,Plated,PTH,ViaDrill
T1C0.300
; #@! TA.AperFunction,Plated,PTH,ViaDrill
T2C0.400
; #@! TA.AperFunction,Plated,PTH,ComponentDrill
T3C0.400
; #@! TA.AperFunction,Plated,PTH,ComponentDrill
T4C0.600
; #@! TA.AperFunction,Plated,PTH,ComponentDrill
T5C1.000
; #@! TA.AperFunction,Plated,PTH,ComponentDrill
T6C1.100
; #@! TA.AperFunction,Plated,PTH,ComponentDrill
T7C1.500
; #@! TA.AperFunction,Plated,PTH,ComponentDrill
T8C1.700
; #@! TA.AperFunction,Plated,PTH,ComponentDrill
T9C1.900
; #@! TA.AperFunction,Plated,PTH,ComponentDrill
T10C2.200
%
G90
G05
T1
X167.64Y-65.278
X168.148Y-73.66
X168.148Y-74.93
X168.656Y-91.44
X169.164Y-52.324
X169.164Y-65.278
X170.434Y-53.594
X170.688Y-68.072
X171.45Y-65.532
X171.958Y-68.326
X172.466Y-53.431
X174.244Y-76.708
X174.498Y-93.726
X174.498Y-95.631
X175.514Y-58.166
X175.61Y-55.245
X176.784Y-53.594
X177.292Y-69.088
X178.562Y-77.886
X178.816Y-57.658
X178.816Y-60.96
X179.07Y-63.246
X179.324Y-76.454
X179.61Y-55.245
X179.832Y-60.96
X179.832Y-79.756
X180.086Y-77.216
X180.34Y-84.836
X180.34Y-92.964
X180.594Y-77.978
X182.118Y-94.234
X182.372Y-82.296
X182.372Y-84.074
X182.626Y-63.246
X182.626Y-95.758
X183.134Y-70.104
X183.134Y-89.916
X183.388Y-75.184
X183.388Y-96.774
X183.61Y-55.245
X183.642Y-103.124
X184.15Y-58.166
X184.15Y-60.706
X184.404Y-59.182
X184.404Y-94.234
X185.166Y-82.042
X185.42Y-70.612
X185.42Y-97.028
X186.69Y-94.234
X186.69Y-119.126
X186.944Y-75.184
X186.944Y-83.566
X187.198Y-79.248
X187.706Y-82.55
X187.96Y-81.026
X188.214Y-75.692
X188.214Y-78.486
X188.468Y-84.836
X189.23Y-100.584
X189.738Y-73.152
X189.738Y-88.646
X189.738Y-103.124
X190.246Y-81.534
X190.754Y-62.738
X190.754Y-67.564
X191.262Y-74.168
X191.262Y-99.314
X191.77Y-94.742
X191.77Y-119.126
X192.278Y-62.738
X192.278Y-67.564
X192.278Y-76.454
X192.425Y-77.861
X192.532Y-86.269
X192.532Y-110.744
X192.963Y-78.452
X193.71Y-85.09
X193.802Y-101.854
X194.056Y-81.788
X194.31Y-57.912
X194.31Y-77.978
X194.31Y-78.994
X194.31Y-89.408
X195.326Y-85.598
X195.834Y-103.124
X196.088Y-78.486
X196.433Y-60.198
X196.85Y-56.896
X197.358Y-80.772
X197.358Y-85.598
X197.358Y-90.17
X197.903Y-119.126
X198.12Y-79.502
T2
X165.608Y-68.58
X165.608Y-76.2
X170.434Y-90.424
X174.498Y-88.9
X174.498Y-97.79
X174.498Y-98.806
X174.498Y-99.822
X174.498Y-100.838
X174.498Y-101.854
X174.498Y-103.886
X175.514Y-88.9
X191.008Y-52.07
X194.28Y-71.628
X194.31Y-63.754
X194.564Y-69.596
X195.58Y-54.102
X195.58Y-61.976
X195.834Y-66.802
X196.85Y-55.88
X198.12Y-53.594
X198.12Y-59.182
X198.12Y-61.468
X198.12Y-67.056
X198.12Y-69.342
X198.12Y-74.93
T3
X165.714Y-47.536
X165.714Y-97.536
X166.197Y-46.369
X166.197Y-48.703
X166.197Y-96.369
X166.197Y-98.703
X167.364Y-45.886
X167.364Y-49.186
X167.364Y-95.886
X167.364Y-99.186
X168.531Y-46.369
X168.531Y-48.703
X168.531Y-96.369
X168.531Y-98.703
X169.014Y-47.536
X169.014Y-97.536
X194.714Y-47.536
X194.714Y-97.536
X195.197Y-46.369
X195.197Y-48.703
X195.197Y-96.369
X195.197Y-98.703
X196.364Y-45.886
X196.364Y-49.186
X196.364Y-95.886
X196.364Y-99.186
X197.531Y-46.369
X197.531Y-48.703
X197.531Y-96.369
X197.531Y-98.703
X198.014Y-47.536
X198.014Y-97.536
T5
X166.8Y-118.11
X177.8Y-118.11
T6
X183.388Y-114.808
X185.928Y-114.808
X188.468Y-114.808
X191.008Y-114.808
X193.548Y-114.808
X196.088Y-114.808
T7
X181.864Y-49.062
T8
X179.324Y-46.522
X179.324Y-51.602
X184.404Y-46.522
X184.404Y-51.602
T9
X169.8Y-108.11
X174.8Y-108.11
T10
X167.364Y-47.536
X167.364Y-97.536
X196.364Y-47.536
X196.364Y-97.536
T4
X166.27Y-78.23G85X167.07Y-78.23
G05
X166.27Y-86.87G85X167.07Y-86.87
G05
X170.29Y-78.23G85X171.39Y-78.23
G05
X170.29Y-86.87G85X171.39Y-86.87
G05
T0
M30
